<svg id="svg" version="1.1" xmlns="http://www.w3.org/2000/svg" xmlns:xlink="http://www.w3.org/1999/xlink" width="400" height="400" viewBox="0, 0, 400,400"><g id="svgg"><path id="path0" d="M0.000 200.000 L 0.000 400.000 200.000 400.000 L 400.000 400.000 400.000 200.000 L 400.000 0.000 200.000 0.000 L 0.000 0.000 0.000 200.000 M339.115 145.133 L 339.115 149.735 323.363 149.735 L 307.611 149.735 307.611 160.173 L 307.611 170.612 323.451 170.704 L 339.292 170.796 339.292 175.398 L 339.292 180.000 323.451 180.092 L 307.611 180.184 307.611 191.508 L 307.611 202.832 323.550 202.832 L 339.490 202.832 339.391 207.345 L 339.292 211.858 318.850 211.950 L 298.407 212.041 298.407 176.286 L 298.407 140.531 318.761 140.531 L 339.115 140.531 339.115 145.133 M109.089 142.607 C 114.889 144.131,120.173 146.955,124.297 150.736 C 125.396 151.743,126.398 152.566,126.526 152.566 C 126.653 152.566,126.734 150.137,126.706 147.168 L 126.654 141.770 131.292 141.671 L 135.929 141.572 135.929 176.804 L 135.929 212.035 131.327 212.035 L 126.726 212.035 126.726 206.342 L 126.726 200.649 124.513 202.673 C 100.155 224.956,61.371 204.168,66.163 171.398 C 69.093 151.360,89.727 137.520,109.089 142.607 M161.598 145.221 C 162.532 147.217,164.524 151.478,166.023 154.690 C 167.523 157.903,169.351 161.805,170.085 163.363 C 170.819 164.920,171.858 167.150,172.394 168.319 C 172.929 169.487,173.955 171.701,174.672 173.238 C 175.389 174.776,178.135 180.670,180.774 186.336 C 183.413 192.001,185.806 197.095,186.092 197.654 C 186.642 198.730,186.715 198.586,199.105 171.858 C 201.020 167.729,208.376 151.970,210.713 146.991 L 213.247 141.593 217.951 141.593 L 222.655 141.593 222.655 176.814 L 222.655 212.035 218.053 212.035 L 213.451 212.035 213.425 187.699 L 213.398 163.363 212.123 166.018 C 210.793 168.789,209.313 171.952,197.680 196.903 L 190.624 212.035 186.551 212.027 L 182.478 212.018 178.245 202.912 C 169.834 184.815,166.235 177.094,162.725 169.617 L 160.177 164.189 160.000 188.024 L 159.823 211.858 155.133 211.957 L 150.442 212.056 150.442 176.824 L 150.442 141.593 155.170 141.593 L 159.898 141.593 161.598 145.221 M278.938 168.381 L 278.938 195.170 277.485 198.172 C 271.652 210.223,255.658 215.462,243.420 209.330 C 240.213 207.724,240.354 208.083,240.354 201.487 L 240.354 195.650 242.512 198.005 C 250.014 206.193,264.250 204.751,268.938 195.328 L 269.735 193.728 269.735 172.266 L 269.735 150.804 255.133 150.712 L 240.531 150.619 240.430 146.570 C 240.375 144.343,240.410 142.312,240.508 142.057 C 240.652 141.682,244.362 141.593,259.812 141.593 L 278.938 141.593 278.938 168.381 M94.390 151.884 C 80.265 155.355,71.525 171.326,76.338 184.871 C 86.122 212.403,126.195 205.927,126.195 176.814 C 126.195 159.596,111.114 147.775,94.390 151.884 M393.982 224.602 L 393.982 226.549 200.442 226.460 L 6.903 226.372 6.791 225.007 C 6.729 224.256,6.764 223.420,6.868 223.149 C 7.030 222.727,35.362 222.655,200.520 222.655 L 393.982 222.655 393.982 224.602 M194.695 243.473 C 196.230 244.715,195.228 247.434,193.235 247.434 C 192.867 247.434,192.248 247.115,191.858 246.726 C 189.848 244.716,192.490 241.687,194.695 243.473 M207.439 256.372 C 207.445 270.812,207.436 270.742,209.220 271.106 C 212.279 271.732,210.658 272.212,205.487 272.212 C 200.351 272.212,198.918 271.810,201.550 271.106 C 203.610 270.555,203.540 271.017,203.540 258.081 C 203.540 245.114,203.571 245.310,201.522 245.310 C 199.717 245.310,200.137 244.713,202.389 244.078 C 203.509 243.762,204.823 243.365,205.310 243.196 C 207.588 242.403,207.433 241.442,207.439 256.372 M219.115 255.906 C 219.115 270.082,219.178 270.609,220.935 271.064 C 223.835 271.816,222.412 272.233,217.289 272.134 C 212.385 272.039,210.874 271.630,213.467 271.100 C 215.440 270.696,215.398 270.980,215.398 258.022 C 215.398 244.779,215.493 245.326,213.186 245.315 C 212.243 245.311,211.419 244.634,212.301 244.588 C 212.447 244.580,213.841 244.191,215.398 243.722 C 216.956 243.253,218.429 242.861,218.673 242.851 C 219.019 242.836,219.115 245.673,219.115 255.906 M174.159 244.029 C 174.159 244.312,173.495 244.685,172.578 244.916 C 170.220 245.510,170.245 245.357,170.349 258.304 L 170.442 269.912 172.035 270.135 C 177.435 270.891,182.695 269.626,184.417 267.155 C 184.989 266.335,185.674 265.358,185.940 264.984 C 186.936 263.583,187.230 264.698,186.517 267.173 C 186.139 268.484,185.667 270.157,185.467 270.890 L 185.103 272.222 173.525 272.129 C 161.891 272.035,160.316 271.839,163.579 270.888 C 165.719 270.265,165.652 270.678,165.658 258.118 C 165.664 245.550,165.660 245.527,163.534 244.954 C 160.152 244.044,161.793 243.540,168.142 243.540 C 173.025 243.540,174.159 243.632,174.159 244.029 M195.440 260.442 C 195.491 270.191,195.539 270.491,197.156 271.015 C 199.882 271.898,198.803 272.235,193.573 272.134 C 188.633 272.038,187.126 271.637,189.717 271.107 C 191.764 270.688,191.858 270.324,191.858 262.835 C 191.858 255.436,191.802 255.221,189.841 255.221 C 189.198 255.221,188.673 255.102,188.674 254.956 C 188.675 254.735,194.282 252.538,195.133 252.425 C 195.279 252.405,195.417 256.013,195.440 260.442 M236.283 253.228 C 238.956 254.483,240.354 256.562,240.354 259.281 L 240.354 260.531 233.765 260.531 L 227.176 260.531 227.427 262.212 C 228.496 269.379,234.761 271.789,239.203 266.743 C 240.843 264.879,241.770 264.830,240.835 266.657 C 236.006 276.098,224.781 273.880,224.159 263.363 C 223.705 255.694,230.119 250.332,236.283 253.228 M229.725 254.757 C 228.705 255.454,228.300 256.030,227.718 257.611 L 227.294 258.761 231.683 258.761 L 236.072 258.761 235.569 257.089 C 234.745 254.349,231.953 253.235,229.725 254.757 " stroke="none" fill="#fbfbfb" fill-rule="evenodd"></path><path id="path1" d="M318.673 140.796 L 298.761 140.891 298.761 176.286 L 298.761 211.681 318.938 211.681 L 339.115 211.681 339.115 207.257 L 339.115 202.832 323.181 202.832 L 307.247 202.832 307.340 191.416 L 307.434 180.000 323.274 179.908 L 339.115 179.816 339.115 175.398 L 339.115 170.981 323.274 170.889 L 307.434 170.796 307.434 160.177 L 307.434 149.558 323.097 149.465 L 338.761 149.373 338.761 144.952 C 338.761 142.520,338.721 140.569,338.673 140.616 C 338.624 140.663,329.624 140.744,318.673 140.796 M93.845 142.473 C 67.758 148.368,57.308 178.331,74.072 199.170 C 86.205 214.252,109.762 215.926,124.090 202.723 L 126.726 200.295 126.726 205.988 L 126.726 211.681 131.150 211.681 L 135.575 211.681 135.575 176.814 L 135.575 141.947 131.150 141.947 L 126.726 141.947 126.726 147.434 C 126.726 150.451,126.626 152.920,126.505 152.920 C 126.384 152.920,125.306 152.004,124.109 150.885 C 116.486 143.754,103.791 140.226,93.845 142.473 M150.796 176.814 L 150.796 211.681 155.221 211.681 L 159.646 211.681 159.646 187.363 C 159.646 173.988,159.773 163.196,159.928 163.381 C 160.294 163.818,163.364 170.367,176.298 198.305 L 182.478 211.653 186.549 211.665 L 190.619 211.677 193.778 204.865 C 202.282 186.525,210.125 169.734,211.674 166.549 L 213.396 163.009 213.423 187.345 L 213.451 211.681 217.876 211.681 L 222.301 211.681 222.301 176.814 L 222.301 141.947 217.781 141.947 L 213.261 141.947 210.104 148.761 C 208.368 152.509,205.782 158.024,204.358 161.016 C 202.935 164.009,201.770 166.513,201.770 166.580 C 201.770 166.648,200.398 169.616,198.722 173.175 C 197.046 176.734,195.157 180.761,194.524 182.124 C 188.153 195.850,186.786 198.778,186.697 198.885 C 186.559 199.054,184.720 195.385,182.465 190.442 C 181.444 188.204,179.302 183.584,177.705 180.177 C 176.109 176.770,174.335 172.973,173.763 171.739 C 170.472 164.639,165.675 154.348,164.084 150.973 C 163.074 148.832,161.719 145.925,161.072 144.513 L 159.895 141.947 155.346 141.947 L 150.796 141.947 150.796 176.814 M240.786 146.283 L 240.885 150.619 255.310 150.712 L 269.735 150.804 269.735 172.584 C 269.735 193.274,269.701 194.430,269.063 195.678 C 264.358 204.878,249.793 206.343,242.488 198.351 L 240.708 196.403 240.708 202.053 L 240.708 207.703 243.274 208.959 C 255.772 215.076,271.178 210.212,277.112 198.278 L 278.584 195.316 278.584 168.632 L 278.584 141.947 259.635 141.947 L 240.686 141.947 240.786 146.283 M107.381 151.694 C 124.904 156.424,132.527 177.636,121.837 191.919 C 106.738 212.096,74.952 201.857,74.945 176.814 C 74.940 159.827,91.112 147.303,107.381 151.694 M7.080 224.602 L 7.080 226.195 200.531 226.195 L 393.982 226.195 393.982 224.602 L 393.982 223.009 200.531 223.009 L 7.080 223.009 7.080 224.602 " stroke="none" fill="#3f4359" fill-rule="evenodd"></path><path id="path2" d="M203.826 243.879 C 200.226 244.932,199.669 245.310,201.720 245.310 C 203.858 245.310,203.895 245.528,203.889 258.165 C 203.883 270.527,203.861 270.651,201.593 271.349 C 200.323 271.739,200.708 271.785,205.310 271.794 C 209.639 271.803,210.265 271.740,209.308 271.389 C 207.187 270.612,207.271 271.176,207.080 256.517 L 206.903 242.980 203.826 243.879 M215.487 243.828 C 212.264 244.767,211.558 245.310,213.558 245.310 C 215.606 245.310,215.575 245.115,215.575 258.069 C 215.575 271.228,215.686 270.585,213.274 271.430 C 212.439 271.723,213.307 271.805,217.345 271.815 C 222.145 271.827,222.388 271.795,221.097 271.335 C 219.073 270.614,219.126 271.017,219.120 256.372 C 219.117 248.925,218.996 242.853,218.850 242.879 C 218.704 242.905,217.190 243.332,215.487 243.828 M191.622 244.112 C 191.079 244.941,191.070 245.135,191.537 245.970 C 192.529 247.746,195.398 247.102,195.398 245.103 C 195.398 243.152,192.713 242.447,191.622 244.112 M162.124 244.203 C 162.124 244.372,162.740 244.610,163.494 244.730 C 165.892 245.114,165.841 244.825,165.841 257.876 C 165.841 270.791,165.873 270.592,163.677 271.004 C 160.344 271.630,162.989 271.858,173.552 271.858 L 185.022 271.858 185.832 268.938 C 186.277 267.332,186.719 265.739,186.814 265.398 C 186.926 264.993,186.787 264.779,186.413 264.779 C 186.098 264.779,185.841 264.911,185.841 265.072 C 185.841 266.051,183.512 268.709,182.022 269.430 C 180.296 270.265,173.271 270.829,171.169 270.302 L 170.265 270.075 170.271 258.135 C 170.274 251.568,170.393 246.019,170.536 245.805 C 170.951 245.184,172.265 244.602,173.251 244.602 C 173.751 244.602,174.159 244.442,174.159 244.248 C 174.159 244.026,171.917 243.894,168.142 243.894 C 164.832 243.894,162.124 244.033,162.124 244.203 M194.690 252.735 C 194.398 252.898,193.044 253.385,191.681 253.817 C 189.172 254.612,187.570 255.531,189.476 255.081 C 191.780 254.538,191.858 254.801,191.858 263.000 C 191.858 271.020,191.951 270.653,189.735 271.379 C 188.685 271.722,189.278 271.786,193.628 271.794 C 197.958 271.803,198.583 271.740,197.626 271.389 C 195.561 270.633,195.589 270.763,195.398 261.246 C 195.244 253.554,195.154 252.476,194.690 252.735 M231.681 252.753 C 225.095 253.732,221.993 262.652,226.020 269.031 C 229.352 274.309,237.307 273.137,240.537 266.891 C 241.422 265.180,240.806 265.147,239.407 266.831 C 234.894 272.264,227.853 269.246,227.187 261.593 L 227.080 260.354 233.717 260.258 C 241.111 260.150,240.731 260.310,239.984 257.622 C 239.054 254.272,235.497 252.186,231.681 252.753 M233.871 254.496 C 235.175 255.290,235.593 255.958,235.937 257.794 L 236.185 259.115 231.721 259.115 C 226.813 259.115,226.842 259.131,227.758 256.939 C 228.905 254.195,231.607 253.115,233.871 254.496 " stroke="none" fill="#dc652c" fill-rule="evenodd"></path><path id="path3" d="M298.570 140.973 C 298.477 141.217,298.443 157.265,298.493 176.637 L 298.584 211.858 303.098 211.875 L 307.612 211.891 303.186 211.776 L 298.761 211.660 298.761 176.276 L 298.761 140.891 318.673 140.796 L 338.584 140.702 318.661 140.616 C 302.986 140.549,298.703 140.625,298.570 140.973 M222.471 176.814 C 222.471 196.088,222.514 203.922,222.566 194.221 C 222.619 184.520,222.619 168.750,222.566 159.177 C 222.514 149.603,222.471 157.540,222.471 176.814 M278.752 168.319 C 278.752 182.920,278.796 188.945,278.849 181.708 C 278.903 174.470,278.903 162.523,278.849 155.159 C 278.796 147.795,278.752 153.717,278.752 168.319 M307.417 149.827 C 307.323 150.073,307.290 154.892,307.345 160.535 L 307.445 170.796 307.528 160.269 L 307.611 149.742 323.274 149.646 L 338.938 149.550 323.263 149.465 C 310.907 149.398,307.552 149.475,307.417 149.827 M135.685 176.814 C 135.687 177.982,135.753 178.418,135.832 177.781 C 135.911 177.145,135.909 176.189,135.828 175.657 C 135.747 175.125,135.683 175.646,135.685 176.814 M74.780 176.814 C 74.783 177.593,74.856 177.870,74.941 177.430 C 75.025 176.989,75.022 176.352,74.933 176.014 C 74.845 175.675,74.776 176.035,74.780 176.814 M307.415 191.504 C 307.415 197.832,307.463 200.420,307.521 197.257 C 307.580 194.093,307.580 188.916,307.521 185.752 C 307.463 182.588,307.415 185.177,307.415 191.504 M266.176 199.204 L 264.956 200.531 266.283 199.311 C 267.013 198.640,267.611 198.043,267.611 197.984 C 267.611 197.713,267.311 197.968,266.176 199.204 M272.367 204.690 L 271.327 205.841 272.478 204.801 C 273.111 204.229,273.628 203.712,273.628 203.651 C 273.628 203.377,273.336 203.618,272.367 204.690 M103.628 222.920 C 156.827 222.970,243.881 222.970,297.080 222.920 C 350.279 222.871,306.752 222.831,200.354 222.831 C 93.956 222.831,50.429 222.871,103.628 222.920 M207.240 256.106 C 207.240 263.504,207.287 266.581,207.345 262.944 C 207.402 259.306,207.402 253.253,207.345 249.492 C 207.287 245.732,207.240 248.708,207.240 256.106 M203.698 258.053 C 203.698 264.381,203.746 266.969,203.805 263.805 C 203.863 260.642,203.863 255.465,203.805 252.301 C 203.746 249.137,203.698 251.726,203.698 258.053 M165.821 257.876 C 165.821 263.912,165.869 266.430,165.928 263.473 C 165.988 260.517,165.988 255.578,165.929 252.500 C 165.870 249.421,165.821 251.841,165.821 257.876 M229.484 259.024 C 230.806 259.092,232.877 259.092,234.086 259.023 C 235.294 258.954,234.212 258.898,231.681 258.899 C 229.150 258.899,228.161 258.956,229.484 259.024 M205.487 271.858 L 200.531 272.066 205.377 272.139 C 208.308 272.183,210.310 272.072,210.442 271.858 C 210.563 271.664,210.612 271.537,210.552 271.578 C 210.492 271.618,208.212 271.744,205.487 271.858 M167.899 272.123 C 171.172 272.182,176.429 272.182,179.580 272.123 C 182.731 272.065,180.053 272.017,173.628 272.017 C 167.204 272.017,164.625 272.065,167.899 272.123 M191.062 272.121 C 192.473 272.188,194.783 272.188,196.195 272.121 C 197.606 272.054,196.451 271.999,193.628 271.999 C 190.805 271.999,189.650 272.054,191.062 272.121 M214.779 272.121 C 216.190 272.188,218.500 272.188,219.912 272.121 C 221.323 272.054,220.168 271.999,217.345 271.999 C 214.522 271.999,213.367 272.054,214.779 272.121 " stroke="none" fill="#b68f74" fill-rule="evenodd"></path><path id="path4" d="M338.900 145.133 C 338.900 147.761,338.955 148.836,339.024 147.522 C 339.092 146.208,339.092 144.058,339.024 142.743 C 338.955 141.429,338.900 142.504,338.900 145.133 M99.027 141.854 C 100.049 141.925,101.721 141.925,102.743 141.854 C 103.765 141.782,102.929 141.724,100.885 141.724 C 98.841 141.724,98.004 141.782,99.027 141.854 M126.603 141.858 C 126.512 142.004,128.492 142.075,131.003 142.016 L 135.568 141.908 135.664 158.476 L 135.759 175.044 135.844 158.319 L 135.929 141.593 131.348 141.593 C 128.829 141.593,126.693 141.712,126.603 141.858 M150.442 176.824 L 150.442 212.056 155.133 211.957 L 159.823 211.858 160.000 187.842 C 160.097 174.633,160.060 163.642,159.917 163.417 C 159.774 163.193,159.654 173.960,159.651 187.345 L 159.646 211.681 155.221 211.681 L 150.796 211.681 150.796 176.824 L 150.796 141.967 155.487 141.857 L 160.177 141.748 155.310 141.670 L 150.442 141.593 150.442 176.824 M215.294 141.855 C 216.600 141.923,218.830 141.923,220.250 141.856 C 221.670 141.789,220.602 141.733,217.876 141.733 C 215.150 141.732,213.989 141.787,215.294 141.855 M240.508 142.057 C 240.410 142.312,240.381 144.343,240.443 146.570 L 240.557 150.619 240.632 146.286 L 240.708 141.953 259.912 141.858 L 279.115 141.764 259.900 141.678 C 244.317 141.609,240.652 141.681,240.508 142.057 M76.087 151.770 L 74.867 153.097 76.195 151.877 C 77.430 150.742,77.685 150.442,77.415 150.442 C 77.355 150.442,76.758 151.040,76.087 151.770 M99.373 151.052 C 100.001 151.130,101.116 151.131,101.851 151.055 C 102.585 150.978,102.071 150.914,100.708 150.913 C 99.345 150.911,98.744 150.974,99.373 151.052 M82.459 158.496 L 81.239 159.823 82.566 158.603 C 83.802 157.468,84.057 157.168,83.786 157.168 C 83.727 157.168,83.130 157.765,82.459 158.496 M323.363 170.883 L 339.115 170.981 339.115 175.398 L 339.115 179.816 323.363 179.913 L 307.611 180.011 323.451 180.006 L 339.292 180.000 339.292 175.398 L 339.292 170.796 323.451 170.791 L 307.611 170.785 323.363 170.883 M126.501 176.814 C 126.502 178.761,126.561 179.512,126.633 178.484 C 126.705 177.455,126.704 175.862,126.631 174.944 C 126.559 174.026,126.500 174.867,126.501 176.814 M135.575 195.211 L 135.575 211.660 131.062 211.771 L 126.549 211.882 131.239 211.958 L 135.929 212.035 135.929 195.398 C 135.929 186.248,135.850 178.761,135.752 178.761 C 135.655 178.761,135.575 186.163,135.575 195.211 M82.478 195.221 C 83.138 195.903,83.758 196.460,83.856 196.460 C 83.953 196.460,83.492 195.903,82.832 195.221 C 82.171 194.540,81.551 193.982,81.454 193.982 C 81.357 193.982,81.817 194.540,82.478 195.221 M240.433 201.681 L 240.512 207.611 240.619 202.020 C 240.701 197.726,240.827 196.490,241.160 196.690 C 241.437 196.856,241.418 196.735,241.107 196.351 C 240.840 196.022,240.561 195.752,240.488 195.752 C 240.414 195.752,240.389 198.420,240.433 201.681 M243.186 199.115 C 243.846 199.796,244.466 200.354,244.564 200.354 C 244.661 200.354,244.200 199.796,243.540 199.115 C 242.879 198.434,242.259 197.876,242.162 197.876 C 242.065 197.876,242.525 198.434,243.186 199.115 M124.956 201.947 C 124.096 202.823,123.472 203.540,123.569 203.540 C 123.667 203.540,124.450 202.823,125.310 201.947 C 126.170 201.071,126.793 200.354,126.696 200.354 C 126.599 200.354,125.816 201.071,124.956 201.947 M339.191 207.164 L 339.115 211.674 323.274 211.770 L 307.434 211.866 323.285 211.951 C 336.077 212.019,339.172 211.946,339.315 211.572 C 339.413 211.318,339.442 209.207,339.380 206.882 L 339.267 202.655 339.191 207.164 M99.204 211.942 C 100.128 212.015,101.642 212.015,102.566 211.942 C 103.491 211.869,102.735 211.809,100.885 211.809 C 99.035 211.809,98.279 211.869,99.204 211.942 M184.159 211.943 C 185.279 212.013,187.111 212.013,188.230 211.943 C 189.350 211.873,188.434 211.815,186.195 211.815 C 183.956 211.815,183.040 211.873,184.159 211.943 M216.195 211.944 C 217.412 212.013,219.403 212.013,220.619 211.944 C 221.836 211.874,220.841 211.818,218.407 211.818 C 215.973 211.818,214.978 211.874,216.195 211.944 M253.372 211.941 C 254.205 212.016,255.479 212.015,256.204 211.939 C 256.929 211.863,256.248 211.801,254.690 211.803 C 253.133 211.804,252.540 211.866,253.372 211.941 M6.867 224.602 L 6.903 226.372 200.531 226.372 L 394.159 226.373 200.639 226.283 L 7.118 226.194 6.974 224.513 L 6.830 222.832 6.867 224.602 M165.575 243.803 C 167.181 243.869,169.810 243.869,171.416 243.803 C 173.022 243.738,171.708 243.684,168.496 243.684 C 165.283 243.684,163.969 243.738,165.575 243.803 M230.549 260.441 C 232.458 260.505,235.484 260.505,237.275 260.440 C 239.066 260.376,237.504 260.324,233.805 260.325 C 230.106 260.325,228.641 260.377,230.549 260.441 M175.487 270.338 C 175.925 270.423,176.642 270.423,177.080 270.338 C 177.518 270.254,177.159 270.185,176.283 270.185 C 175.407 270.185,175.049 270.254,175.487 270.338 " stroke="none" fill="#afafb5" fill-rule="evenodd"></path></g></svg>