<svg id="svg" version="1.1" xmlns="http://www.w3.org/2000/svg" xmlns:xlink="http://www.w3.org/1999/xlink" width="400" height="400" viewBox="0, 0, 400,400"><g id="svgg"><path id="path0" d="M262.935 120.000 C 263.080 120.330,263.311 120.915,263.446 121.300 C 263.750 122.162,264.742 122.217,265.059 121.390 C 265.240 120.919,265.420 120.885,265.847 121.239 C 266.530 121.806,266.579 121.358,265.912 120.644 C 265.643 120.356,265.102 120.205,264.710 120.308 C 264.317 120.410,263.697 120.248,263.333 119.947 C 262.764 119.478,262.708 119.485,262.935 120.000 M260.450 122.494 C 260.768 123.088,260.697 123.451,260.143 124.063 C 259.747 124.501,259.597 124.825,259.811 124.782 C 260.894 124.568,261.908 124.893,262.833 125.751 C 263.397 126.273,264.261 126.829,264.754 126.985 C 265.246 127.142,265.828 127.659,266.047 128.135 C 266.267 128.611,267.425 129.706,268.621 130.569 C 269.818 131.432,271.113 132.422,271.498 132.769 C 271.884 133.116,273.190 134.207,274.400 135.193 C 280.502 140.166,287.589 147.474,292.153 153.500 C 293.697 155.538,295.600 156.841,295.600 155.859 C 295.600 153.162,279.531 130.400,277.626 130.400 C 277.466 130.400,277.094 129.950,276.800 129.400 C 276.506 128.850,276.118 128.400,275.938 128.400 C 275.195 128.400,272.441 126.161,272.605 125.691 C 272.743 125.294,272.597 125.280,271.943 125.631 C 271.298 125.976,271.173 125.968,271.402 125.597 C 271.619 125.245,271.447 125.195,270.769 125.410 C 269.891 125.688,269.877 125.666,270.519 125.024 C 271.427 124.116,271.377 123.890,270.341 124.219 C 269.616 124.449,269.517 124.362,269.700 123.659 C 269.855 123.067,269.691 122.756,269.130 122.578 C 268.158 122.269,266.400 122.675,266.400 123.208 C 266.400 123.423,265.770 123.600,265.000 123.600 C 264.230 123.600,263.600 123.441,263.600 123.247 C 263.600 123.053,262.798 122.631,261.819 122.308 C 260.095 121.741,260.050 121.747,260.450 122.494 M258.100 122.665 C 257.825 122.776,257.600 123.068,257.600 123.313 C 257.600 123.624,257.746 123.614,258.080 123.280 C 258.659 122.701,259.749 122.635,259.400 123.200 C 259.264 123.420,259.433 123.600,259.776 123.600 C 260.587 123.600,260.581 122.955,259.767 122.643 C 259.059 122.371,258.821 122.374,258.100 122.665 M165.693 132.100 C 153.118 144.971,152.647 156.019,164.336 163.957 C 169.067 167.170,178.296 171.230,185.400 173.223 C 187.160 173.717,188.870 174.258,189.200 174.425 C 189.827 174.742,195.794 176.566,197.704 177.024 C 198.845 177.298,199.457 177.876,199.043 178.291 C 198.912 178.422,198.475 178.230,198.071 177.864 C 197.242 177.114,195.780 176.985,195.384 177.627 C 194.989 178.266,195.543 178.617,196.087 178.073 C 196.665 177.495,197.200 177.460,197.200 178.000 C 197.200 178.220,196.932 178.400,196.603 178.400 C 196.275 178.400,195.491 178.940,194.860 179.600 C 194.229 180.260,193.508 180.800,193.257 180.800 C 193.006 180.800,192.800 180.980,192.800 181.200 C 192.800 181.420,192.421 181.600,191.957 181.600 C 191.353 181.600,191.183 181.779,191.357 182.233 C 191.491 182.581,191.600 183.031,191.600 183.233 C 191.600 183.435,191.910 183.600,192.289 183.600 C 192.855 183.600,192.820 183.711,192.089 184.223 C 191.464 184.661,191.200 185.253,191.200 186.219 C 191.200 187.224,190.878 187.901,190.000 188.740 C 189.340 189.371,188.800 190.170,188.800 190.515 C 188.800 190.863,188.397 191.202,187.900 191.272 C 187.152 191.378,186.979 191.687,186.877 193.100 C 186.809 194.035,186.584 194.800,186.377 194.800 C 185.818 194.800,185.920 195.901,186.500 196.135 C 186.816 196.262,186.758 196.348,186.343 196.368 C 185.981 196.386,185.582 196.670,185.455 197.000 C 185.329 197.330,184.989 197.600,184.701 197.600 C 183.907 197.600,182.801 199.087,182.528 200.521 C 182.394 201.225,181.951 202.122,181.542 202.516 C 180.487 203.533,180.573 204.792,181.700 204.832 C 182.282 204.852,182.388 204.939,182.000 205.078 C 181.670 205.196,181.218 205.496,180.995 205.746 C 180.772 205.996,180.052 206.502,179.395 206.871 C 178.643 207.294,178.153 207.924,178.073 208.571 C 177.993 209.226,177.698 209.600,177.262 209.600 C 176.391 209.600,175.088 211.096,175.450 211.680 C 175.615 211.948,175.541 212.011,175.262 211.838 C 174.995 211.674,174.800 211.794,174.800 212.122 C 174.800 212.738,176.690 214.800,177.255 214.800 C 177.445 214.800,177.600 215.042,177.600 215.338 C 177.600 216.861,179.903 218.446,183.200 219.192 C 184.410 219.466,185.580 219.894,185.801 220.145 C 186.378 220.800,188.627 222.000,189.277 222.000 C 189.582 222.000,190.537 222.360,191.400 222.800 C 192.263 223.240,193.381 223.600,193.885 223.600 C 194.388 223.600,194.800 223.780,194.800 224.000 C 194.800 224.220,195.115 224.400,195.500 224.400 C 195.885 224.400,197.280 224.756,198.600 225.191 C 199.920 225.626,202.350 226.372,204.000 226.849 C 211.186 228.925,220.383 231.720,225.800 233.473 C 251.096 241.658,252.470 258.767,229.298 277.040 C 225.818 279.784,225.800 279.743,230.251 279.208 C 248.363 277.029,269.460 265.053,279.704 251.133 C 281.811 248.270,284.798 243.435,284.802 242.879 C 284.804 242.725,285.087 242.060,285.432 241.400 C 288.666 235.214,286.756 218.557,282.878 219.121 C 281.991 219.251,279.600 218.191,279.600 217.669 C 279.600 217.498,277.980 216.587,276.000 215.644 C 274.020 214.701,272.400 213.765,272.400 213.564 C 272.400 213.364,272.051 213.200,271.624 213.200 C 271.197 213.200,270.741 213.028,270.611 212.818 C 270.482 212.608,269.481 211.950,268.388 211.355 C 267.294 210.760,266.400 210.139,266.400 209.976 C 266.400 209.812,265.905 209.480,265.300 209.238 C 264.695 208.996,263.660 208.438,263.000 207.998 C 262.340 207.559,258.830 205.728,255.200 203.930 C 251.570 202.132,248.510 200.557,248.400 200.430 C 248.290 200.304,247.930 200.161,247.600 200.113 C 245.668 199.831,244.541 199.434,244.100 198.877 C 243.825 198.531,243.600 198.412,243.600 198.613 C 243.600 198.814,243.320 198.578,242.977 198.089 C 242.635 197.600,242.112 197.200,241.816 197.200 C 241.520 197.200,238.615 195.850,235.360 194.200 C 232.106 192.550,229.307 191.200,229.141 191.200 C 228.976 191.200,228.066 190.686,227.120 190.058 C 226.174 189.430,224.635 188.585,223.700 188.181 C 222.765 187.777,222.000 187.330,222.000 187.187 C 222.000 186.795,220.074 186.000,219.125 186.000 C 218.665 186.000,217.411 185.460,216.338 184.800 C 215.266 184.140,214.166 183.599,213.894 183.599 C 213.622 183.598,212.833 183.251,212.140 182.829 C 211.448 182.407,210.458 181.979,209.940 181.879 C 209.423 181.780,210.260 181.777,211.800 181.873 C 214.691 182.054,215.701 182.272,220.803 183.817 C 222.544 184.344,224.293 184.633,224.963 184.505 C 225.743 184.356,226.031 184.426,225.848 184.722 C 225.511 185.268,226.547 185.841,228.548 186.217 C 231.166 186.708,229.161 184.936,226.420 184.336 C 225.199 184.068,224.110 183.733,224.000 183.590 C 223.890 183.447,222.902 183.107,221.805 182.835 C 220.708 182.563,219.628 182.194,219.405 182.015 C 219.182 181.836,217.920 181.455,216.600 181.169 C 215.280 180.883,214.110 180.543,214.000 180.412 C 213.799 180.174,210.377 179.065,199.600 175.746 C 189.662 172.685,178.653 169.137,177.400 168.592 C 176.740 168.305,175.030 167.564,173.600 166.946 C 155.051 158.925,152.697 147.104,166.581 131.700 C 169.168 128.830,168.668 129.055,165.693 132.100 M126.000 135.681 C 126.000 136.503,127.208 136.963,127.767 136.354 C 128.088 136.004,128.055 135.965,127.639 136.202 C 127.279 136.408,126.886 136.259,126.539 135.785 C 126.091 135.171,126.000 135.154,126.000 135.681 M125.510 137.500 C 125.385 137.979,125.514 138.267,125.855 138.267 C 126.481 138.267,126.528 138.022,126.049 137.266 C 125.788 136.854,125.665 136.908,125.510 137.500 M122.942 138.651 C 122.691 138.754,122.571 139.235,122.677 139.719 C 122.799 140.279,122.744 140.426,122.524 140.121 C 122.279 139.780,121.950 139.984,121.389 140.823 C 120.940 141.496,120.366 141.915,120.055 141.797 C 119.683 141.656,119.590 141.798,119.762 142.246 C 119.913 142.639,119.730 143.117,119.307 143.438 C 118.879 143.763,118.797 143.980,119.100 143.987 C 119.431 143.996,119.363 144.248,118.900 144.731 C 118.515 145.133,117.975 145.384,117.700 145.288 C 117.425 145.193,117.200 145.324,117.200 145.581 C 117.200 145.837,117.037 145.946,116.837 145.823 C 116.638 145.700,116.563 146.004,116.672 146.499 C 116.831 147.223,116.785 147.282,116.441 146.800 C 116.190 146.449,116.010 146.393,116.006 146.665 C 116.003 146.921,115.364 148.091,114.587 149.265 C 113.810 150.439,113.071 151.805,112.944 152.300 C 112.817 152.795,112.541 153.200,112.330 153.200 C 112.119 153.200,112.068 153.583,112.216 154.050 C 112.397 154.622,112.341 154.811,112.043 154.626 C 111.529 154.309,111.469 154.775,111.930 155.501 C 112.159 155.861,112.500 155.661,113.142 154.792 C 113.634 154.127,113.929 153.409,113.798 153.196 C 113.666 152.983,113.804 152.903,114.104 153.019 C 114.423 153.141,114.888 152.782,115.223 152.157 C 115.538 151.569,116.354 150.478,117.036 149.733 C 118.240 148.418,118.890 147.342,119.351 145.900 C 119.474 145.515,119.863 145.200,120.216 145.200 C 121.123 145.200,121.859 144.352,122.166 142.955 C 122.311 142.295,122.783 141.501,123.215 141.189 C 123.671 140.861,124.000 140.158,124.000 139.512 C 124.000 138.414,123.839 138.283,122.942 138.651 M232.400 187.153 C 232.400 187.348,232.805 187.615,233.300 187.748 C 234.701 188.123,234.938 188.048,234.400 187.400 C 233.863 186.753,232.400 186.573,232.400 187.153 M183.200 220.000 C 183.530 220.213,184.070 220.388,184.400 220.388 C 184.933 220.388,184.933 220.345,184.400 220.000 C 184.070 219.787,183.530 219.612,183.200 219.612 C 182.667 219.612,182.667 219.655,183.200 220.000 M111.085 244.249 C 110.470 244.863,116.698 255.372,121.131 261.200 C 127.745 269.897,136.150 277.824,146.296 284.932 C 147.449 285.739,148.549 286.400,148.742 286.400 C 148.935 286.400,149.573 286.778,150.161 287.241 C 151.728 288.474,160.383 292.692,162.516 293.262 C 163.526 293.532,164.244 293.929,164.111 294.145 C 163.976 294.362,164.130 294.436,164.459 294.309 C 164.784 294.185,165.488 294.420,166.025 294.833 C 167.041 295.613,168.000 295.831,168.000 295.280 C 168.000 295.104,168.655 295.037,169.455 295.130 C 171.047 295.316,171.049 294.639,169.459 293.997 C 168.774 293.721,168.742 293.646,169.300 293.625 C 169.685 293.611,170.000 293.431,170.000 293.224 C 170.000 292.560,169.183 292.316,168.596 292.803 C 168.188 293.142,167.712 293.161,166.913 292.869 L 165.800 292.463 167.000 292.419 C 168.090 292.379,170.333 291.200,169.320 291.200 C 169.082 291.200,168.768 290.728,168.624 290.152 C 168.479 289.575,168.067 288.810,167.709 288.452 C 167.106 287.849,167.138 287.771,168.135 287.420 C 169.597 286.906,169.230 286.181,167.556 286.280 C 166.499 286.342,166.376 286.285,167.000 286.024 C 167.803 285.687,166.438 284.800,165.118 284.800 C 164.882 284.800,164.457 284.485,164.174 284.100 C 163.892 283.715,163.152 283.400,162.530 283.400 C 161.839 283.400,161.439 283.206,161.500 282.900 C 161.555 282.625,161.240 282.400,160.800 282.400 C 160.360 282.400,160.000 282.232,160.000 282.027 C 160.000 281.822,159.595 281.530,159.100 281.379 C 156.975 280.731,146.895 275.455,145.922 274.482 C 145.657 274.217,145.301 274.000,145.132 274.000 C 144.667 274.000,137.458 269.037,133.600 266.061 C 129.165 262.639,118.509 251.887,115.200 247.495 C 112.843 244.366,111.794 243.539,111.085 244.249 M293.347 244.713 C 288.888 251.853,275.120 264.938,264.800 271.843 C 258.906 275.787,248.271 281.600,246.950 281.600 C 246.648 281.600,246.400 281.780,246.400 282.000 C 246.400 282.220,246.130 282.400,245.800 282.400 C 245.470 282.400,245.200 282.580,245.200 282.800 C 245.200 283.020,244.958 283.200,244.661 283.200 C 244.365 283.200,243.707 283.560,243.200 284.000 C 242.693 284.440,242.080 284.801,241.839 284.802 C 241.597 284.804,240.938 285.046,240.373 285.341 C 239.809 285.635,238.864 285.998,238.273 286.146 C 236.689 286.544,236.968 287.154,238.876 287.458 C 240.310 287.688,240.425 287.773,239.676 288.050 C 239.194 288.228,238.800 288.568,238.800 288.805 C 238.800 289.042,238.348 289.688,237.796 290.240 C 236.670 291.366,235.600 293.662,235.601 294.949 C 235.601 295.731,235.415 295.791,233.301 295.690 L 231.000 295.580 232.600 296.377 C 234.444 297.294,234.965 297.390,234.562 296.738 C 234.392 296.464,234.451 296.385,234.708 296.543 C 235.167 296.827,237.224 296.065,237.660 295.450 C 237.802 295.248,238.195 295.189,238.533 295.319 C 239.256 295.597,242.970 293.903,242.553 293.486 C 242.395 293.329,242.842 293.200,243.545 293.200 C 244.863 293.200,253.527 289.145,255.463 287.622 C 256.038 287.170,256.667 286.800,256.863 286.800 C 258.229 286.800,273.886 274.714,275.615 272.325 C 275.734 272.161,277.004 270.806,278.439 269.314 C 284.516 262.991,295.600 246.842,295.600 244.309 C 295.600 243.692,293.781 244.018,293.347 244.713 M165.600 285.664 C 165.600 286.281,164.883 286.348,164.159 285.798 C 163.442 285.253,163.462 285.225,164.500 285.298 C 165.105 285.340,165.600 285.505,165.600 285.664 M241.400 294.000 C 241.264 294.220,240.893 294.400,240.576 294.400 C 240.259 294.400,240.000 294.220,240.000 294.000 C 240.000 293.780,240.371 293.600,240.824 293.600 C 241.277 293.600,241.536 293.780,241.400 294.000 M171.400 295.600 C 170.924 296.370,174.379 296.940,175.935 296.349 C 176.472 296.145,176.841 295.919,176.755 295.846 C 176.361 295.513,173.985 295.253,174.177 295.563 C 174.300 295.762,173.786 295.777,172.995 295.599 C 172.225 295.425,171.508 295.426,171.400 295.600 " stroke="none" fill="#4a88c0" fill-rule="evenodd"></path><path id="path1" d="M198.000 97.871 C 178.906 98.939,161.326 104.800,145.320 115.434 C 140.922 118.357,139.910 119.200,140.800 119.200 C 141.046 119.200,141.124 119.399,140.974 119.643 C 140.781 119.955,140.606 119.934,140.383 119.572 C 139.539 118.207,126.084 131.540,120.069 139.700 C 117.181 143.619,118.562 142.230,122.057 137.700 C 127.350 130.842,136.630 121.822,137.913 122.289 C 138.196 122.392,138.714 122.238,139.064 121.947 C 139.745 121.381,142.400 121.053,142.400 121.534 C 142.400 122.214,141.133 123.549,140.495 123.540 C 140.113 123.535,139.420 123.651,138.955 123.798 C 138.303 124.004,138.058 123.866,137.882 123.192 C 137.755 122.708,137.464 122.437,137.227 122.583 C 136.703 122.907,136.660 124.000,137.171 124.000 C 137.376 124.000,137.831 124.288,138.183 124.640 C 138.710 125.167,138.931 125.189,139.442 124.765 C 139.950 124.344,140.127 124.354,140.430 124.826 C 140.663 125.188,140.911 125.252,141.100 125.000 C 141.265 124.780,142.013 124.169,142.762 123.642 L 144.123 122.685 143.890 123.579 C 143.664 124.443,143.682 124.450,144.437 123.766 C 145.037 123.224,145.100 122.983,144.709 122.736 C 144.358 122.513,144.467 122.410,145.057 122.406 C 145.529 122.403,146.024 122.685,146.157 123.033 C 146.488 123.896,146.467 124.000,145.963 124.000 C 145.723 124.000,145.069 124.360,144.509 124.800 C 143.168 125.855,143.637 125.813,145.748 124.689 C 147.419 123.800,147.701 123.040,146.640 122.288 C 146.398 122.116,146.695 122.091,147.300 122.231 C 147.992 122.392,148.400 122.322,148.400 122.043 C 148.400 121.800,148.715 121.604,149.100 121.609 C 149.676 121.616,149.630 121.748,148.842 122.354 C 148.316 122.759,148.006 123.286,148.154 123.525 C 148.301 123.764,148.012 124.176,147.511 124.440 C 146.073 125.197,141.200 128.409,141.200 128.600 C 141.200 128.694,142.775 127.813,144.700 126.641 C 162.996 115.505,181.751 110.320,203.293 110.443 C 219.744 110.537,223.360 110.653,224.500 111.125 C 226.228 111.840,225.822 111.889,222.700 111.341 C 221.105 111.061,219.170 110.841,218.400 110.853 C 217.630 110.865,218.890 111.197,221.200 111.590 C 224.908 112.222,234.459 114.426,236.318 115.078 C 236.775 115.239,236.868 115.185,236.600 114.914 C 236.380 114.693,235.030 114.206,233.600 113.832 C 227.950 112.358,227.016 112.087,227.433 112.044 C 227.869 112.000,232.164 112.744,233.104 113.026 C 233.743 113.219,234.226 113.079,234.112 112.735 C 234.063 112.590,235.638 112.561,237.612 112.673 C 240.847 112.855,241.200 112.806,241.200 112.171 C 241.200 111.784,241.100 111.567,240.977 111.690 C 240.745 111.922,238.000 109.274,238.000 108.819 C 238.000 108.188,239.060 107.601,240.180 107.612 C 241.302 107.623,241.336 107.662,240.600 108.092 C 239.860 108.525,239.904 108.582,241.200 108.856 C 242.889 109.212,244.282 108.305,243.200 107.555 C 242.479 107.055,242.997 107.224,244.510 107.982 C 245.758 108.606,245.757 109.338,244.509 109.522 C 244.054 109.590,243.576 110.040,243.446 110.522 C 243.081 111.885,243.153 112.137,243.764 111.630 C 244.179 111.285,244.402 111.280,244.607 111.611 C 244.794 111.914,245.186 111.777,245.811 111.190 C 246.821 110.241,247.845 110.084,250.000 110.549 L 251.400 110.850 249.659 109.825 C 248.702 109.261,247.757 108.800,247.559 108.800 C 247.362 108.800,247.200 108.624,247.200 108.410 C 247.200 106.485,264.020 117.114,271.826 123.972 C 272.720 124.757,272.360 124.343,271.026 123.052 C 264.192 116.436,249.811 107.815,239.600 104.213 C 229.004 100.476,220.855 98.746,210.400 98.014 C 204.833 97.624,202.826 97.601,198.000 97.871 M238.400 115.744 C 239.170 116.042,240.250 116.408,240.800 116.557 L 241.800 116.829 240.800 116.262 C 240.250 115.950,239.170 115.584,238.400 115.448 L 237.000 115.202 238.400 115.744 M243.558 117.637 C 244.525 118.066,245.388 118.345,245.475 118.258 C 245.648 118.086,242.565 116.782,242.092 116.828 C 241.931 116.844,242.591 117.208,243.558 117.637 M246.054 118.587 C 246.415 118.948,249.200 120.008,249.200 119.785 C 249.200 119.661,248.576 119.298,247.813 118.980 C 246.420 118.398,245.705 118.238,246.054 118.587 M156.800 119.399 C 156.800 119.587,152.846 121.600,152.476 121.600 C 152.380 121.600,152.537 121.317,152.824 120.972 C 153.623 120.009,156.800 118.752,156.800 119.399 M152.000 120.600 C 152.000 121.246,150.207 121.458,149.834 120.856 C 149.518 120.344,150.014 120.000,151.067 120.000 C 151.630 120.000,152.000 120.238,152.000 120.600 M249.633 120.154 C 250.040 120.529,257.200 123.987,257.200 123.808 C 257.200 123.586,250.177 120.000,249.741 120.000 C 249.590 120.000,249.542 120.069,249.633 120.154 M149.865 123.047 C 149.240 123.386,148.629 123.562,148.507 123.440 C 148.384 123.317,148.715 123.045,149.242 122.834 C 150.739 122.235,151.121 122.366,149.865 123.047 M173.200 122.673 C 141.701 127.833,117.660 149.067,118.492 170.991 C 118.966 183.487,125.916 192.842,142.590 203.431 C 147.519 206.561,166.507 215.627,167.033 215.101 C 167.209 214.924,166.690 214.661,163.200 213.157 C 161.990 212.635,160.890 212.056,160.755 211.870 C 160.621 211.684,160.396 211.547,160.255 211.566 C 159.515 211.665,159.475 211.532,160.128 211.152 C 160.962 210.667,158.763 209.200,157.201 209.200 C 156.678 209.200,156.400 208.934,156.400 208.432 C 156.400 207.884,156.026 207.590,155.100 207.407 C 152.951 206.982,151.455 206.307,150.405 205.286 C 148.892 203.816,147.339 202.794,147.053 203.080 C 146.912 203.221,146.393 202.972,145.898 202.526 C 145.404 202.080,144.460 201.404,143.800 201.024 C 142.241 200.125,141.117 198.590,140.946 197.124 C 140.871 196.480,140.528 195.670,140.182 195.325 C 139.837 194.979,139.644 194.462,139.755 194.174 C 139.865 193.887,139.772 193.591,139.547 193.516 C 138.204 193.068,139.733 191.200,141.443 191.200 C 143.179 191.200,143.200 191.184,143.200 189.820 C 143.200 188.941,143.454 188.279,143.900 187.997 C 144.401 187.679,144.458 187.494,144.100 187.343 C 143.082 186.916,143.913 184.400,145.073 184.400 C 146.318 184.400,147.528 182.045,147.805 179.080 C 147.978 177.241,148.276 175.993,148.547 175.983 C 148.796 175.974,149.442 175.434,149.981 174.783 C 150.607 174.028,151.338 173.600,152.001 173.600 C 152.839 173.600,153.143 173.310,153.576 172.100 C 153.871 171.275,154.292 170.484,154.511 170.342 C 154.731 170.201,155.028 168.794,155.173 167.217 C 155.317 165.639,155.616 164.225,155.837 164.074 C 156.058 163.923,156.230 163.350,156.219 162.800 C 156.201 161.872,156.630 161.221,157.268 161.206 C 157.416 161.203,157.655 161.740,157.800 162.400 C 157.985 163.240,158.301 163.600,158.855 163.600 C 159.291 163.600,159.536 163.420,159.400 163.200 C 159.264 162.980,159.365 162.800,159.625 162.800 C 159.986 162.800,159.985 162.664,159.620 162.224 C 159.357 161.907,158.856 161.757,158.506 161.891 C 158.012 162.081,157.922 161.942,158.098 161.267 C 158.322 160.413,158.034 160.214,156.822 160.388 C 156.327 160.459,156.323 160.375,156.796 159.805 C 157.254 159.253,157.257 159.083,156.816 158.810 C 156.523 158.629,156.387 158.210,156.514 157.879 C 156.641 157.549,156.632 157.165,156.494 157.028 C 156.356 156.890,156.211 156.557,156.171 156.288 C 156.132 156.020,155.881 154.750,155.614 153.466 C 155.120 151.089,155.369 146.590,156.016 146.190 C 156.202 146.075,156.334 145.086,156.309 143.992 C 156.261 141.867,156.620 141.062,157.199 141.998 C 157.651 142.729,158.488 140.782,158.488 139.000 C 158.488 138.340,158.573 138.025,158.678 138.300 C 158.782 138.575,159.034 138.800,159.238 138.800 C 159.695 138.800,159.224 135.496,158.720 135.165 C 158.523 135.035,158.641 134.698,158.981 134.416 C 159.321 134.133,159.600 133.654,159.600 133.351 C 159.600 132.856,160.332 132.634,161.081 132.900 C 161.485 133.044,161.200 135.774,160.764 135.933 C 160.564 136.007,160.404 136.367,160.409 136.733 C 160.416 137.303,163.311 134.551,164.336 133.000 C 164.481 132.780,165.908 131.385,167.507 129.900 C 170.700 126.935,172.297 126.212,169.781 128.871 C 168.912 129.789,169.586 129.307,171.279 127.798 C 172.972 126.290,174.268 124.910,174.158 124.732 C 174.048 124.555,174.196 124.500,174.486 124.612 C 174.776 124.723,175.640 124.278,176.407 123.623 L 177.800 122.433 176.000 122.471 C 175.010 122.492,173.750 122.583,173.200 122.673 M136.133 124.589 C 136.133 124.906,136.373 125.258,136.667 125.370 C 136.960 125.483,137.200 125.423,137.200 125.236 C 137.200 125.050,136.960 124.699,136.667 124.455 C 136.264 124.121,136.133 124.154,136.133 124.589 M257.600 124.179 C 257.600 124.289,258.140 124.659,258.800 125.000 C 259.460 125.341,260.000 125.531,260.000 125.421 C 260.000 125.311,259.460 124.941,258.800 124.600 C 258.140 124.259,257.600 124.069,257.600 124.179 M171.525 125.172 C 170.490 126.829,165.902 127.863,166.297 126.350 C 166.558 125.353,168.554 124.484,170.703 124.432 C 171.893 124.403,171.965 124.467,171.525 125.172 M133.833 126.034 C 132.301 127.753,132.753 127.888,134.355 126.189 C 135.075 125.425,135.500 124.800,135.299 124.800 C 135.097 124.800,134.438 125.355,133.833 126.034 M161.129 128.531 C 161.240 129.105,160.863 129.200,158.483 129.200 C 156.314 129.200,155.486 129.375,154.691 130.000 C 153.633 130.832,152.000 131.084,152.000 130.415 C 152.000 130.204,152.675 129.846,153.500 129.620 C 154.325 129.394,155.540 128.874,156.200 128.465 C 157.754 127.503,160.939 127.545,161.129 128.531 M263.800 127.863 C 264.020 128.073,264.830 128.692,265.600 129.240 C 266.370 129.788,267.982 130.945,269.182 131.812 C 270.382 132.679,271.234 133.179,271.076 132.924 C 270.919 132.668,269.397 131.489,267.695 130.303 C 264.457 128.048,263.102 127.199,263.800 127.863 M166.650 129.758 C 166.380 130.174,165.672 130.567,165.078 130.631 C 164.116 130.733,164.063 130.680,164.599 130.144 C 164.929 129.814,165.200 129.381,165.200 129.184 C 165.200 128.987,165.472 128.929,165.805 129.057 C 166.259 129.231,166.339 129.107,166.128 128.558 C 165.878 127.905,165.918 127.890,166.494 128.413 C 167.024 128.894,167.052 129.137,166.650 129.758 M135.542 132.500 C 128.630 137.675,119.107 147.258,113.480 154.700 C 113.272 154.975,113.195 155.200,113.308 155.200 C 113.421 155.200,114.766 153.625,116.296 151.700 C 121.737 144.859,128.964 137.852,136.031 132.568 C 137.479 131.485,139.189 130.205,139.831 129.722 C 140.474 129.239,140.884 128.834,140.742 128.822 C 140.600 128.810,138.260 130.465,135.542 132.500 M277.200 129.047 C 277.200 129.256,278.228 130.411,279.486 131.614 L 281.771 133.800 279.609 131.400 C 278.420 130.080,277.392 128.925,277.324 128.833 C 277.256 128.742,277.200 128.838,277.200 129.047 M166.378 132.300 L 165.000 133.800 166.500 132.422 C 167.325 131.663,168.000 130.988,168.000 130.922 C 168.000 130.616,167.662 130.904,166.378 132.300 M147.578 133.773 C 147.960 134.234,147.871 134.462,147.127 134.935 C 145.409 136.027,143.015 137.200,142.506 137.200 C 141.654 137.200,141.942 136.555,143.011 136.068 C 143.567 135.814,144.127 135.335,144.254 135.003 C 144.381 134.672,144.714 134.400,144.994 134.400 C 145.273 134.400,145.726 134.130,146.000 133.800 C 146.622 133.051,146.973 133.045,147.578 133.773 M273.600 134.921 C 273.600 135.031,274.680 136.056,276.000 137.200 C 277.320 138.344,278.400 139.189,278.400 139.079 C 278.400 138.969,277.320 137.944,276.000 136.800 C 274.680 135.656,273.600 134.811,273.600 134.921 M162.075 137.700 C 160.781 139.592,159.596 141.791,159.607 142.280 C 159.611 142.456,160.124 141.676,160.747 140.547 C 161.370 139.417,162.279 137.932,162.767 137.247 C 163.255 136.561,163.561 136.000,163.446 136.000 C 163.332 136.000,162.715 136.765,162.075 137.700 M141.794 138.010 C 141.673 138.205,141.295 138.258,140.954 138.127 C 140.469 137.941,140.446 137.819,140.847 137.571 C 141.454 137.196,142.109 137.500,141.794 138.010 M140.600 138.644 C 141.384 139.250,141.380 139.260,140.431 139.131 C 139.899 139.059,139.389 138.775,139.298 138.500 C 139.077 137.829,139.624 137.889,140.600 138.644 M148.000 138.819 C 148.000 139.460,147.160 139.665,146.564 139.170 C 146.111 138.794,146.082 138.597,146.445 138.372 C 146.996 138.032,148.000 138.320,148.000 138.819 M137.208 141.790 C 136.930 142.126,136.319 142.386,135.851 142.368 C 135.263 142.347,135.183 142.265,135.593 142.104 C 135.919 141.976,136.435 141.622,136.740 141.317 C 137.465 140.593,137.865 140.998,137.208 141.790 M117.753 142.900 C 116.376 145.236,116.286 145.435,116.987 144.600 C 117.800 143.632,118.500 142.400,118.238 142.400 C 118.133 142.400,117.915 142.625,117.753 142.900 M136.627 144.204 C 137.151 146.995,135.393 147.408,132.020 145.287 C 131.560 144.997,134.325 142.991,135.285 142.917 C 136.227 142.845,136.404 143.015,136.627 144.204 M158.061 149.600 C 158.034 151.470,158.147 153.212,158.312 153.472 C 158.478 153.732,158.557 152.562,158.489 150.872 C 158.306 146.314,158.115 145.749,158.061 149.600 M114.704 147.700 C 113.844 149.016,112.247 152.268,112.691 151.800 C 113.184 151.280,115.655 146.800,115.449 146.800 C 115.363 146.800,115.027 147.205,114.704 147.700 M129.604 147.992 C 129.167 148.809,129.024 149.279,128.506 151.600 C 128.383 152.150,127.769 153.191,127.141 153.914 C 126.514 154.637,126.000 155.562,126.000 155.971 C 126.000 157.011,124.941 157.303,123.672 156.614 C 123.082 156.294,122.825 156.025,123.100 156.016 C 123.375 156.007,123.600 155.770,123.600 155.488 C 123.600 155.207,123.960 154.717,124.400 154.400 C 124.840 154.083,125.200 153.497,125.200 153.099 C 125.200 152.701,125.470 152.271,125.800 152.145 C 126.130 152.018,126.406 151.709,126.413 151.457 C 126.432 150.823,127.834 149.200,128.364 149.200 C 128.604 149.200,128.800 148.876,128.800 148.480 C 128.800 147.763,129.603 146.669,129.906 146.972 C 129.993 147.060,129.858 147.519,129.604 147.992 M154.643 148.966 C 154.544 149.205,154.449 149.063,154.432 148.651 C 154.405 148.031,154.296 147.988,153.800 148.400 C 153.385 148.744,153.200 148.759,153.200 148.449 C 153.200 148.202,153.380 148.000,153.600 148.000 C 153.820 148.000,154.011 147.685,154.025 147.300 C 154.044 146.796,154.159 146.870,154.437 147.566 C 154.649 148.097,154.742 148.727,154.643 148.966 M293.800 152.000 C 294.357 153.100,294.903 154.000,295.013 154.000 C 295.123 154.000,294.757 153.100,294.200 152.000 C 293.643 150.900,293.097 150.000,292.987 150.000 C 292.877 150.000,293.243 150.900,293.800 152.000 M154.676 153.900 C 154.575 154.285,154.493 153.970,154.493 153.200 C 154.493 152.430,154.575 152.115,154.676 152.500 C 154.776 152.885,154.776 153.515,154.676 153.900 M291.635 153.600 C 293.236 155.804,293.836 156.462,293.277 155.400 C 293.045 154.960,292.287 153.970,291.592 153.200 L 290.328 151.800 291.635 153.600 M130.800 155.576 C 130.800 156.433,130.202 156.972,129.638 156.623 C 129.103 156.293,129.602 154.800,130.247 154.800 C 130.551 154.800,130.800 155.149,130.800 155.576 M295.600 155.533 C 295.600 155.790,295.195 156.021,294.700 156.046 C 293.959 156.085,293.931 156.127,294.542 156.284 C 295.340 156.489,296.325 155.791,295.873 155.340 C 295.723 155.190,295.600 155.277,295.600 155.533 M162.200 159.600 C 163.283 160.700,164.260 161.600,164.370 161.600 C 164.480 161.600,163.683 160.700,162.600 159.600 C 161.517 158.500,160.540 157.600,160.430 157.600 C 160.320 157.600,161.117 158.500,162.200 159.600 M122.233 162.680 C 122.480 164.330,122.410 164.628,121.657 165.128 C 120.546 165.866,120.310 174.000,121.400 174.000 C 121.822 174.000,122.000 174.426,122.000 175.433 C 122.000 177.182,121.067 177.130,120.867 175.369 C 120.793 174.726,120.501 173.930,120.217 173.600 C 119.424 172.678,119.407 166.049,120.197 165.746 C 120.580 165.599,120.802 164.983,120.805 164.057 C 120.818 160.640,121.787 159.705,122.233 162.680 M165.069 162.032 C 165.566 162.633,168.000 164.164,168.000 163.876 C 168.000 163.783,167.235 163.202,166.300 162.585 C 165.365 161.968,164.811 161.720,165.069 162.032 M183.200 170.333 C 183.530 170.536,184.250 170.824,184.800 170.971 C 185.495 171.157,185.617 171.125,185.200 170.867 C 184.870 170.664,184.150 170.376,183.600 170.229 C 182.905 170.043,182.783 170.075,183.200 170.333 M203.200 176.600 C 205.026 177.303,205.745 177.293,204.200 176.586 C 203.540 176.283,202.730 176.042,202.400 176.048 C 202.070 176.055,202.430 176.303,203.200 176.600 M208.400 178.200 C 210.226 178.903,210.945 178.893,209.400 178.186 C 208.740 177.883,207.930 177.642,207.600 177.648 C 207.270 177.655,207.630 177.903,208.400 178.200 M212.200 179.414 C 212.860 179.717,213.670 179.958,214.000 179.952 C 214.330 179.945,213.970 179.697,213.200 179.400 C 211.374 178.697,210.655 178.707,212.200 179.414 M217.200 181.000 C 217.970 181.297,218.870 181.539,219.200 181.539 C 219.530 181.539,219.170 181.297,218.400 181.000 C 217.630 180.703,216.730 180.461,216.400 180.461 C 216.070 180.461,216.430 180.703,217.200 181.000 M221.044 182.182 C 221.728 182.498,222.808 182.859,223.444 182.984 C 224.433 183.179,224.398 183.133,223.200 182.663 C 221.040 181.816,219.513 181.476,221.044 182.182 M227.000 184.214 C 227.660 184.517,228.470 184.765,228.800 184.766 C 229.130 184.768,228.794 184.506,228.054 184.184 C 226.353 183.446,225.382 183.474,227.000 184.214 M128.382 184.978 C 129.031 185.761,128.754 187.362,127.942 187.517 C 126.986 187.699,125.290 185.242,126.043 184.765 C 126.874 184.239,127.842 184.327,128.382 184.978 M224.000 186.000 C 224.000 186.220,224.371 186.400,224.824 186.400 C 225.277 186.400,225.536 186.220,225.400 186.000 C 225.264 185.780,224.893 185.600,224.576 185.600 C 224.259 185.600,224.000 185.780,224.000 186.000 M226.403 186.700 C 226.408 187.129,228.408 188.000,229.391 188.000 C 229.848 188.000,230.788 188.517,231.481 189.150 C 232.173 189.782,233.383 190.420,234.170 190.568 C 234.956 190.716,235.600 190.994,235.600 191.187 C 235.600 191.380,236.208 191.739,236.952 191.984 C 237.695 192.229,238.623 192.783,239.014 193.215 C 239.404 193.647,239.891 194.000,240.096 194.000 C 240.770 194.000,249.791 198.667,251.070 199.677 C 251.329 199.882,251.787 199.993,252.088 199.924 C 252.389 199.856,253.130 200.295,253.736 200.900 C 254.969 202.133,255.233 202.207,255.920 201.520 C 256.254 201.186,256.400 201.176,256.400 201.487 C 256.400 201.732,256.196 202.001,255.946 202.085 C 255.162 202.346,263.495 206.353,264.354 206.128 C 265.008 205.957,265.115 206.085,264.968 206.860 C 264.871 207.377,264.899 207.572,265.031 207.294 C 265.336 206.651,269.200 208.661,269.200 209.464 C 269.200 209.759,269.503 210.000,269.874 210.000 C 270.891 210.000,273.999 211.606,274.006 212.136 C 274.010 212.424,274.145 212.391,274.361 212.049 C 274.826 211.314,275.633 211.848,275.315 212.678 C 275.146 213.117,275.219 213.236,275.536 213.040 C 275.795 212.879,276.477 213.117,277.051 213.569 C 277.625 214.020,278.253 214.291,278.447 214.171 C 278.641 214.051,278.800 214.143,278.800 214.376 C 278.800 215.117,279.536 214.832,279.804 213.988 C 279.987 213.410,279.699 212.762,278.806 211.746 C 278.116 210.959,277.662 210.205,277.797 210.070 C 277.933 209.934,278.211 210.088,278.416 210.412 C 278.690 210.846,278.789 210.863,278.794 210.476 C 278.797 210.188,278.992 210.072,279.227 210.217 C 279.462 210.362,279.563 210.720,279.451 211.011 C 279.188 211.697,280.221 212.558,280.844 212.173 C 281.127 211.998,281.219 212.046,281.069 212.288 C 280.929 212.514,281.300 213.217,281.894 213.850 C 282.487 214.482,282.923 215.315,282.861 215.700 C 282.794 216.125,283.005 216.400,283.398 216.400 C 283.755 216.400,283.935 216.581,283.798 216.803 C 283.661 217.024,283.811 217.306,284.130 217.429 C 284.486 217.565,284.638 217.990,284.521 218.526 C 284.362 219.255,284.408 219.300,284.798 218.800 C 285.173 218.318,285.217 218.436,285.020 219.400 C 284.840 220.284,284.882 220.442,285.182 220.000 C 285.503 219.525,285.589 219.634,285.594 220.520 C 285.597 221.136,285.885 222.190,286.233 222.863 C 286.581 223.536,287.047 225.912,287.270 228.143 C 287.789 233.348,288.184 233.759,287.871 228.769 C 287.386 221.041,284.453 214.749,278.645 208.978 C 274.673 205.031,269.359 201.053,268.499 201.383 C 268.202 201.497,268.060 201.427,268.183 201.227 C 268.550 200.634,264.121 198.293,263.398 198.697 C 262.700 199.088,265.720 201.363,266.558 201.078 C 266.801 200.995,266.280 200.547,265.400 200.082 C 264.520 199.616,264.035 199.227,264.321 199.218 C 265.084 199.192,267.741 201.086,267.197 201.268 C 266.770 201.410,268.391 202.608,272.700 205.335 C 273.635 205.927,274.400 206.600,274.400 206.831 C 274.400 207.062,274.805 207.194,275.300 207.125 C 275.921 207.039,276.160 207.181,276.072 207.585 C 276.001 207.906,276.258 208.399,276.643 208.681 C 277.027 208.962,277.264 209.270,277.168 209.365 C 277.073 209.460,275.826 208.579,274.398 207.408 C 270.220 203.982,262.077 199.195,256.000 196.594 C 254.570 195.982,252.410 195.030,251.200 194.479 C 249.990 193.927,248.460 193.333,247.800 193.159 C 246.048 192.695,236.317 189.448,231.000 187.552 C 227.777 186.403,226.397 186.147,226.403 186.700 M234.438 186.541 C 234.765 186.910,241.700 189.233,241.894 189.039 C 241.980 188.953,240.554 188.388,238.725 187.783 C 236.896 187.178,235.130 186.590,234.800 186.478 C 234.470 186.365,234.307 186.393,234.438 186.541 M243.400 189.755 C 244.060 190.055,245.050 190.411,245.600 190.546 C 246.403 190.743,246.364 190.684,245.400 190.245 C 244.740 189.945,243.750 189.589,243.200 189.454 C 242.397 189.257,242.436 189.316,243.400 189.755 M247.020 191.152 C 247.229 191.345,248.120 191.732,249.000 192.012 C 249.880 192.291,251.860 193.091,253.400 193.789 C 254.940 194.487,256.957 195.391,257.881 195.798 C 258.806 196.205,259.470 196.686,259.358 196.869 C 259.245 197.051,259.333 197.200,259.553 197.200 C 261.677 197.200,256.420 194.306,249.702 191.778 C 246.885 190.717,246.438 190.613,247.020 191.152 M137.400 193.506 C 138.002 193.948,137.977 196.000,137.369 196.000 C 136.288 196.000,134.800 195.195,134.800 194.610 C 134.800 194.274,134.609 194.000,134.376 194.000 C 134.143 194.000,134.064 193.820,134.200 193.600 C 134.485 193.138,136.807 193.070,137.400 193.506 M260.800 196.990 C 260.800 197.306,263.260 198.474,263.474 198.259 C 263.584 198.149,263.127 197.776,262.457 197.429 C 261.188 196.773,260.800 196.670,260.800 196.990 M156.876 209.598 C 157.248 209.599,157.664 209.780,157.800 210.000 C 157.936 210.220,158.433 210.400,158.904 210.400 C 159.547 210.400,159.646 210.514,159.302 210.858 C 158.958 211.202,158.306 211.052,156.682 210.258 C 155.493 209.676,154.303 209.200,154.037 209.200 C 153.770 209.200,153.656 209.032,153.783 208.827 C 153.917 208.611,154.472 208.694,155.107 209.025 C 155.708 209.338,156.504 209.596,156.876 209.598 M168.600 215.755 C 169.260 216.055,170.250 216.411,170.800 216.546 C 171.603 216.743,171.564 216.684,170.600 216.245 C 169.940 215.945,168.950 215.589,168.400 215.454 C 167.597 215.257,167.636 215.316,168.600 215.755 M172.023 216.926 C 172.344 217.290,180.079 220.055,180.263 219.870 C 180.348 219.785,178.749 219.123,176.709 218.398 C 171.678 216.610,171.771 216.640,172.023 216.926 M186.800 222.200 C 188.626 222.903,189.345 222.893,187.800 222.186 C 187.140 221.883,186.330 221.642,186.000 221.648 C 185.670 221.655,186.030 221.903,186.800 222.200 M195.200 224.741 C 195.530 224.934,196.340 225.209,197.000 225.352 C 197.768 225.518,197.984 225.484,197.600 225.259 C 197.270 225.066,196.460 224.791,195.800 224.648 C 195.032 224.482,194.816 224.516,195.200 224.741 M200.600 226.400 C 201.040 226.589,201.670 226.744,202.000 226.744 C 202.378 226.744,202.304 226.617,201.800 226.400 C 201.360 226.211,200.730 226.056,200.400 226.056 C 200.022 226.056,200.096 226.183,200.600 226.400 M211.400 229.600 C 211.840 229.789,212.470 229.944,212.800 229.944 C 213.178 229.944,213.104 229.817,212.600 229.600 C 212.160 229.411,211.530 229.256,211.200 229.256 C 210.822 229.256,210.896 229.383,211.400 229.600 M221.000 232.400 C 221.440 232.589,222.070 232.744,222.400 232.744 C 222.778 232.744,222.704 232.617,222.200 232.400 C 221.760 232.211,221.130 232.056,220.800 232.056 C 220.422 232.056,220.496 232.183,221.000 232.400 M286.650 238.050 C 286.509 238.753,286.469 239.402,286.559 239.492 C 286.650 239.583,286.848 239.091,287.000 238.400 C 287.152 237.709,287.193 237.059,287.091 236.958 C 286.989 236.856,286.791 237.347,286.650 238.050 M290.904 247.207 C 289.531 248.963,288.494 250.400,288.599 250.400 C 288.815 250.400,293.600 244.443,293.600 244.174 C 293.600 243.801,293.318 244.118,290.904 247.207 M118.400 251.325 C 118.400 251.394,118.985 251.979,119.700 252.625 L 121.000 253.800 119.825 252.500 C 118.730 251.288,118.400 251.016,118.400 251.325 M278.175 253.300 L 277.000 254.600 278.300 253.425 C 279.512 252.330,279.784 252.000,279.475 252.000 C 279.406 252.000,278.821 252.585,278.175 253.300 M273.988 257.900 L 271.400 260.600 274.100 258.012 C 275.585 256.588,276.800 255.373,276.800 255.312 C 276.800 255.017,276.393 255.392,273.988 257.900 M127.400 260.363 C 128.617 261.693,132.400 264.996,132.400 264.729 C 132.400 264.648,131.005 263.338,129.300 261.817 C 127.595 260.296,126.740 259.642,127.400 260.363 M267.000 263.844 L 265.400 265.276 267.200 263.961 C 268.190 263.237,269.075 262.590,269.167 262.523 C 269.258 262.455,269.168 262.403,268.967 262.406 C 268.765 262.409,267.880 263.056,267.000 263.844 M125.800 267.600 C 126.659 268.480,127.452 269.200,127.562 269.200 C 127.672 269.200,127.059 268.480,126.200 267.600 C 125.341 266.720,124.548 266.000,124.438 266.000 C 124.328 266.000,124.941 266.720,125.800 267.600 M280.204 267.596 C 279.574 268.254,279.135 268.856,279.229 268.934 C 279.323 269.012,279.913 268.474,280.539 267.738 C 281.954 266.077,281.745 265.988,280.204 267.596 M234.989 271.700 L 232.200 274.600 235.100 271.811 C 237.794 269.220,238.183 268.800,237.889 268.800 C 237.828 268.800,236.523 270.105,234.989 271.700 M266.500 270.040 C 265.565 270.702,264.800 271.333,264.800 271.441 C 264.800 271.550,265.610 271.081,266.600 270.400 C 267.590 269.719,268.400 269.080,268.400 268.981 C 268.400 268.705,268.324 268.748,266.500 270.040 M129.600 271.800 C 130.795 273.010,131.863 274.000,131.973 274.000 C 132.083 274.000,131.195 273.010,130.000 271.800 C 128.805 270.590,127.737 269.600,127.627 269.600 C 127.517 269.600,128.405 270.590,129.600 271.800 M257.100 270.229 C 255.605 271.040,255.696 271.378,257.200 270.600 C 257.860 270.259,258.400 269.894,258.400 269.790 C 258.400 269.532,258.357 269.547,257.100 270.229 M276.185 272.100 L 274.200 274.200 276.300 272.215 C 278.251 270.371,278.583 270.000,278.285 270.000 C 278.222 270.000,277.277 270.945,276.185 272.100 M250.800 273.400 C 250.250 273.714,249.980 273.972,250.200 273.972 C 250.420 273.972,251.050 273.714,251.600 273.400 C 252.150 273.086,252.420 272.828,252.200 272.828 C 251.980 272.828,251.350 273.086,250.800 273.400 M145.800 274.207 C 146.240 274.566,146.960 275.035,147.400 275.251 L 148.200 275.644 147.400 274.993 C 146.960 274.634,146.240 274.165,145.800 273.949 L 145.000 273.556 145.800 274.207 M134.000 275.725 C 134.000 275.794,134.585 276.379,135.300 277.025 L 136.600 278.200 135.425 276.900 C 134.330 275.688,134.000 275.416,134.000 275.725 M243.600 276.200 C 242.830 276.497,242.470 276.745,242.800 276.752 C 243.130 276.758,243.940 276.517,244.600 276.214 C 246.145 275.507,245.426 275.497,243.600 276.200 M226.600 278.566 C 225.940 279.095,225.490 279.599,225.600 279.685 C 225.710 279.771,226.337 279.337,226.994 278.720 C 228.457 277.348,228.230 277.259,226.600 278.566 M230.500 279.476 C 230.885 279.576,231.515 279.576,231.900 279.476 C 232.285 279.375,231.970 279.293,231.200 279.293 C 230.430 279.293,230.115 279.375,230.500 279.476 M227.700 279.876 C 228.085 279.976,228.715 279.976,229.100 279.876 C 229.485 279.775,229.170 279.693,228.400 279.693 C 227.630 279.693,227.315 279.775,227.700 279.876 M158.800 281.000 C 159.350 281.314,159.980 281.572,160.200 281.572 C 160.420 281.572,160.150 281.314,159.600 281.000 C 159.050 280.686,158.420 280.428,158.200 280.428 C 157.980 280.428,158.250 280.686,158.800 281.000 M246.800 281.000 C 246.250 281.314,245.980 281.572,246.200 281.572 C 246.420 281.572,247.050 281.314,247.600 281.000 C 248.150 280.686,248.420 280.428,248.200 280.428 C 247.980 280.428,247.350 280.686,246.800 281.000 M243.800 282.214 C 242.800 282.696,242.766 282.751,243.600 282.548 C 244.733 282.271,246.007 281.621,245.400 281.630 C 245.180 281.633,244.460 281.896,243.800 282.214 M263.800 282.635 L 262.600 283.666 263.900 282.806 C 264.615 282.333,265.200 281.868,265.200 281.773 C 265.200 281.473,265.031 281.578,263.800 282.635 M162.800 282.600 C 163.350 282.914,164.070 283.171,164.400 283.170 C 164.730 283.169,164.394 282.906,163.654 282.584 C 161.951 281.845,161.494 281.853,162.800 282.600 M166.000 283.769 C 166.550 284.101,167.270 284.373,167.600 284.374 C 168.403 284.376,167.452 283.816,166.000 283.432 L 165.000 283.167 166.000 283.769 M239.400 283.786 C 237.855 284.493,238.574 284.503,240.400 283.800 C 241.170 283.503,241.530 283.255,241.200 283.248 C 240.870 283.242,240.060 283.483,239.400 283.786 M170.800 285.373 C 171.570 285.684,172.470 285.947,172.800 285.957 C 173.852 285.989,172.387 285.324,170.800 285.049 L 169.400 284.807 170.800 285.373 M234.600 285.273 C 233.940 285.495,231.780 286.107,229.800 286.634 C 227.576 287.225,226.888 287.508,228.000 287.375 C 229.823 287.157,236.347 285.386,236.727 285.007 C 237.048 284.686,235.927 284.826,234.600 285.273 M148.200 286.607 C 148.640 286.966,149.360 287.435,149.800 287.651 L 150.600 288.044 149.800 287.393 C 149.360 287.034,148.640 286.565,148.200 286.349 L 147.400 285.956 148.200 286.607 M176.600 286.993 C 177.480 287.293,178.560 287.541,179.000 287.544 L 179.800 287.549 179.000 287.232 C 178.560 287.057,177.480 286.809,176.600 286.681 L 175.000 286.448 176.600 286.993 M181.800 288.209 C 182.900 288.492,184.430 288.743,185.200 288.768 C 186.164 288.798,186.428 288.921,186.048 289.162 C 185.641 289.420,185.875 289.648,186.948 290.036 C 188.608 290.636,188.802 291.290,187.500 291.898 C 186.622 292.308,186.635 292.334,188.000 292.943 C 188.770 293.287,189.130 293.594,188.800 293.624 C 188.107 293.688,189.855 294.301,190.900 294.360 C 191.443 294.391,191.600 294.081,191.600 292.975 L 191.600 291.551 193.500 291.827 C 197.192 292.362,197.678 292.975,195.062 293.798 C 192.493 294.606,192.147 295.389,194.189 295.772 C 194.953 295.915,195.744 296.329,195.947 296.692 C 196.320 297.358,203.013 297.610,204.008 296.995 C 204.982 296.393,204.316 295.778,202.700 295.789 C 201.765 295.795,200.910 295.620,200.800 295.400 C 200.674 295.148,202.109 294.979,204.674 294.943 C 207.894 294.898,208.794 295.007,208.969 295.464 C 209.109 295.828,209.022 295.937,208.734 295.759 C 208.452 295.585,208.386 295.654,208.562 295.938 C 208.912 296.505,210.000 296.551,210.000 296.000 C 210.000 295.780,210.720 295.600,211.600 295.600 C 212.480 295.600,213.200 295.443,213.200 295.251 C 213.200 295.059,213.900 294.790,214.756 294.653 C 217.027 294.290,217.260 292.400,215.034 292.400 C 212.538 292.400,218.502 289.989,221.187 289.913 C 221.934 289.892,222.248 289.753,221.958 289.574 C 221.506 289.295,220.558 289.346,217.400 289.819 C 216.515 289.952,216.357 289.896,216.800 289.606 C 217.598 289.082,216.822 289.086,210.004 289.642 C 203.478 290.173,192.226 289.609,185.200 288.397 C 180.047 287.509,178.811 287.441,181.800 288.209 M221.200 288.429 C 217.487 289.147,217.463 289.158,220.135 288.946 C 221.640 288.827,223.620 288.493,224.535 288.204 C 226.824 287.482,225.703 287.558,221.200 288.429 M251.700 290.012 C 251.205 290.211,250.800 290.470,250.800 290.587 C 250.800 290.975,251.437 290.808,252.224 290.213 C 253.108 289.543,252.985 289.496,251.700 290.012 M193.100 290.276 C 192.715 290.376,192.085 290.376,191.700 290.276 C 191.315 290.175,191.630 290.093,192.400 290.093 C 193.170 290.093,193.485 290.175,193.100 290.276 M156.000 290.996 C 156.000 291.270,158.449 292.484,158.632 292.301 C 158.719 292.214,158.162 291.844,157.395 291.478 C 156.628 291.112,156.000 290.895,156.000 290.996 M217.200 292.950 C 217.200 293.328,217.594 293.449,218.482 293.346 C 220.423 293.120,220.642 292.541,218.814 292.469 C 217.688 292.425,217.200 292.570,217.200 292.950 M242.200 294.614 C 241.195 295.098,241.163 295.153,242.000 294.951 C 242.550 294.819,243.171 294.550,243.380 294.355 C 243.898 293.871,243.614 293.933,242.200 294.614 M168.200 296.422 C 169.080 296.838,170.070 297.175,170.400 297.171 C 170.730 297.166,170.100 296.811,169.000 296.382 C 166.496 295.404,166.092 295.424,168.200 296.422 M206.000 296.467 C 206.000 296.650,206.480 296.800,207.067 296.800 C 207.653 296.800,208.010 296.676,207.859 296.525 C 207.456 296.123,206.000 296.077,206.000 296.467 M171.600 297.558 C 171.930 297.742,172.740 297.999,173.400 298.130 L 174.600 298.367 173.400 297.802 C 172.050 297.165,170.523 296.959,171.600 297.558 M233.600 297.600 C 233.067 297.945,233.067 297.988,233.600 297.988 C 233.930 297.988,234.470 297.813,234.800 297.600 C 235.333 297.255,235.333 297.212,234.800 297.212 C 234.470 297.212,233.930 297.387,233.600 297.600 M178.200 299.428 C 179.300 299.734,180.470 299.972,180.800 299.957 C 181.130 299.941,180.500 299.678,179.400 299.372 C 178.300 299.066,177.130 298.828,176.800 298.843 C 176.470 298.859,177.100 299.122,178.200 299.428 M228.000 299.200 C 227.196 299.457,227.157 299.523,227.800 299.532 C 228.240 299.538,228.960 299.389,229.400 299.200 C 230.419 298.762,229.368 298.762,228.000 299.200 M183.400 300.609 C 184.500 300.892,186.030 301.119,186.800 301.114 C 187.823 301.107,187.500 300.961,185.600 300.571 C 182.318 299.897,180.737 299.925,183.400 300.609 M221.000 300.592 C 219.526 300.903,219.063 301.102,219.800 301.110 C 220.460 301.117,221.900 300.892,223.000 300.609 C 225.579 299.946,224.128 299.934,221.000 300.592 M216.305 301.483 C 216.802 301.579,217.522 301.575,217.905 301.475 C 218.287 301.375,217.880 301.296,217.000 301.301 C 216.120 301.305,215.807 301.387,216.305 301.483 M193.400 302.065 C 195.941 302.402,209.829 302.396,213.000 302.057 C 214.320 301.915,210.000 301.800,203.400 301.800 C 196.800 301.800,192.300 301.919,193.400 302.065 " stroke="none" fill="#84b6de" fill-rule="evenodd"></path><path id="path2" d="M0.000 200.000 L 0.000 400.000 200.000 400.000 L 400.000 400.000 400.000 200.000 L 400.000 0.000 200.000 0.000 L 0.000 0.000 0.000 200.000 M210.400 98.014 C 220.855 98.746,229.004 100.476,239.600 104.213 C 258.219 110.781,278.144 126.590,288.989 143.400 C 289.841 144.720,290.861 146.280,291.256 146.867 C 292.893 149.297,296.042 155.609,295.806 155.990 C 294.952 157.371,293.816 156.511,290.000 151.593 C 247.320 96.589,157.983 96.953,115.800 152.303 C 112.953 156.039,112.097 156.718,111.004 156.106 C 110.284 155.703,112.529 151.110,116.321 145.228 C 134.483 117.053,164.317 99.755,198.000 97.871 C 202.826 97.601,204.833 97.624,210.400 98.014 M176.752 123.313 C 176.175 123.801,174.730 124.960,173.542 125.888 C 168.052 130.174,163.004 136.148,160.288 141.570 L 158.600 144.940 158.600 149.570 C 158.600 154.864,158.873 155.628,161.943 158.914 C 165.673 162.908,173.447 167.042,182.800 170.007 C 187.589 171.526,196.760 174.355,199.600 175.191 C 211.173 178.597,235.632 186.617,245.400 190.208 C 278.267 202.291,291.569 217.262,287.240 237.300 C 283.161 256.182,253.411 277.767,228.570 279.866 C 224.828 280.183,224.821 279.889,228.500 277.156 C 251.625 259.979,250.849 242.389,226.600 234.094 C 224.050 233.221,223.065 232.926,208.800 228.761 C 203.644 227.256,195.823 224.957,192.600 223.999 C 137.118 207.516,112.766 187.010,119.340 162.310 C 124.387 143.348,146.548 127.039,173.200 122.673 C 173.750 122.583,175.010 122.490,176.000 122.467 L 177.800 122.425 176.752 123.313 M116.419 248.387 C 124.229 258.219,133.679 266.350,147.000 274.699 C 191.656 302.688,257.585 290.363,290.400 247.891 C 293.099 244.397,293.530 244.007,294.700 244.004 C 296.349 243.999,296.384 243.808,293.856 248.565 C 283.209 268.603,266.228 284.123,244.000 294.133 C 222.742 303.706,194.993 305.026,171.522 297.581 C 153.650 291.911,134.996 279.256,123.791 265.200 C 122.476 263.550,121.195 261.982,120.945 261.716 C 119.110 259.766,110.400 245.376,110.400 244.295 C 110.400 243.954,112.114 243.712,112.646 243.978 C 112.892 244.100,114.589 246.084,116.419 248.387 " stroke="none" fill="#fbfbfb" fill-rule="evenodd"></path><path id="path3" d="M238.480 108.080 C 238.216 108.344,238.000 108.676,238.000 108.819 C 238.000 109.274,240.745 111.922,240.977 111.690 C 241.100 111.567,241.200 111.784,241.200 112.171 C 241.200 112.805,240.848 112.855,237.667 112.676 C 234.821 112.515,234.133 112.585,234.133 113.033 C 234.133 113.692,236.222 114.155,238.169 113.928 C 238.925 113.839,239.456 113.910,239.348 114.084 C 239.241 114.258,239.433 114.400,239.776 114.400 C 240.119 114.400,240.400 114.209,240.400 113.976 C 240.400 113.743,240.580 113.664,240.800 113.800 C 241.020 113.936,241.200 114.397,241.200 114.824 C 241.200 115.471,241.484 115.600,242.907 115.600 C 244.069 115.600,245.084 115.919,246.086 116.600 C 246.895 117.150,247.848 117.600,248.202 117.600 C 248.557 117.600,248.736 117.780,248.600 118.000 C 248.464 118.220,248.621 118.400,248.948 118.400 C 251.071 118.400,248.064 114.628,245.366 113.906 C 243.039 113.284,242.366 109.840,244.509 109.522 C 245.675 109.350,245.789 108.607,244.723 108.131 C 244.015 107.815,243.693 107.883,243.212 108.449 C 242.728 109.019,242.308 109.106,241.200 108.865 C 239.903 108.583,239.859 108.526,240.600 108.092 C 241.336 107.662,241.302 107.623,240.180 107.612 C 239.509 107.605,238.744 107.816,238.480 108.080 M247.164 110.363 C 244.495 111.388,243.903 113.200,246.238 113.200 C 247.002 113.200,248.064 113.486,248.597 113.835 C 249.239 114.256,250.211 114.424,251.483 114.335 C 253.236 114.212,253.411 114.280,253.533 115.138 C 253.641 115.900,253.828 116.024,254.533 115.799 C 255.010 115.647,255.706 115.501,256.080 115.475 C 257.661 115.366,256.521 113.217,254.876 113.206 C 254.368 113.203,254.054 113.036,254.178 112.836 C 254.678 112.027,248.503 109.849,247.164 110.363 M259.900 117.508 C 258.978 117.706,259.011 118.271,259.974 118.786 C 260.921 119.293,262.400 119.329,262.400 118.846 C 262.400 118.274,260.661 117.344,259.900 117.508 M149.878 120.256 C 149.424 120.709,150.020 121.200,151.024 121.200 C 151.625 121.200,152.000 120.969,152.000 120.600 C 152.000 120.001,150.393 119.741,149.878 120.256 M139.134 121.880 C 138.896 122.166,138.471 122.400,138.188 122.400 C 137.869 122.400,137.755 122.707,137.887 123.211 C 138.050 123.833,138.298 123.957,138.950 123.743 C 139.417 123.589,140.113 123.482,140.495 123.506 C 141.121 123.545,142.400 122.232,142.400 121.551 C 142.400 121.062,139.576 121.346,139.134 121.880 M146.700 122.265 C 146.975 122.376,147.200 122.722,147.200 123.033 C 147.200 123.345,147.380 123.600,147.600 123.600 C 147.820 123.600,148.000 123.456,148.000 123.280 C 148.000 122.806,147.103 121.995,146.620 122.032 C 146.389 122.049,146.425 122.154,146.700 122.265 M144.471 123.697 C 143.772 124.389,143.620 124.437,143.822 123.900 C 144.210 122.870,142.849 123.382,140.914 124.995 C 140.647 125.218,140.142 125.641,139.792 125.936 C 138.994 126.609,139.228 127.394,140.234 127.418 C 141.166 127.441,142.560 126.621,144.328 125.010 C 145.058 124.344,145.840 123.851,146.065 123.913 C 146.579 124.053,146.290 123.097,145.767 122.922 C 145.556 122.852,144.973 123.201,144.471 123.697 M168.800 124.661 C 166.066 125.561,165.301 127.005,167.564 126.992 C 169.257 126.982,170.852 126.249,171.525 125.172 C 172.020 124.380,170.512 124.097,168.800 124.661 M137.264 125.045 C 137.229 125.289,136.795 125.420,136.300 125.335 C 135.301 125.164,134.967 125.356,133.800 126.769 C 133.298 127.377,133.223 127.614,133.600 127.407 C 133.930 127.225,133.685 127.629,133.056 128.306 C 132.427 128.982,132.023 129.714,132.159 129.933 C 132.294 130.152,132.179 130.423,131.902 130.534 C 131.586 130.662,131.647 130.749,132.067 130.768 C 132.433 130.786,132.793 130.963,132.867 131.162 C 133.263 132.239,135.000 131.781,135.000 130.600 C 135.000 129.589,135.173 129.380,136.099 129.274 C 137.343 129.130,137.760 128.139,137.493 125.955 C 137.402 125.210,137.299 124.800,137.264 125.045 M156.200 128.465 C 155.540 128.874,154.325 129.394,153.500 129.620 C 152.675 129.846,152.000 130.204,152.000 130.415 C 152.000 131.084,153.633 130.832,154.691 130.000 C 155.486 129.375,156.314 129.200,158.483 129.200 C 160.863 129.200,161.240 129.105,161.129 128.531 C 160.939 127.545,157.754 127.503,156.200 128.465 M166.128 128.558 C 166.339 129.107,166.259 129.231,165.805 129.057 C 165.472 128.929,165.200 128.987,165.200 129.184 C 165.200 129.381,164.929 129.814,164.599 130.144 C 164.063 130.680,164.116 130.733,165.078 130.631 C 166.565 130.472,167.371 129.210,166.494 128.413 C 165.918 127.890,165.878 127.905,166.128 128.558 M134.286 129.486 C 133.919 129.852,133.493 130.026,133.339 129.872 C 133.185 129.718,133.405 129.338,133.829 129.029 C 134.826 128.299,135.149 128.622,134.286 129.486 M130.600 130.000 C 130.736 130.220,130.657 130.400,130.424 130.400 C 130.191 130.400,130.000 130.602,130.000 130.849 C 130.000 131.159,130.185 131.144,130.600 130.800 C 131.297 130.222,131.388 129.600,130.776 129.600 C 130.543 129.600,130.464 129.780,130.600 130.000 M129.213 132.100 C 129.229 132.739,130.327 134.206,130.592 133.942 C 130.855 133.679,129.888 131.607,129.500 131.603 C 129.335 131.601,129.206 131.825,129.213 132.100 M160.300 132.700 C 159.915 132.787,159.600 133.093,159.600 133.380 C 159.600 133.667,159.321 134.133,158.981 134.416 C 158.641 134.698,158.523 135.035,158.720 135.165 C 159.224 135.496,159.695 138.800,159.238 138.800 C 159.034 138.800,158.775 138.575,158.663 138.300 C 158.551 138.025,158.477 138.250,158.499 138.800 C 158.521 139.350,158.395 140.250,158.220 140.800 C 157.819 142.054,157.896 141.969,160.013 138.800 C 160.968 137.370,161.446 136.447,161.075 136.749 C 160.493 137.222,160.400 137.208,160.400 136.649 C 160.400 136.292,160.561 136.000,160.758 136.000 C 161.140 136.000,161.573 132.808,161.213 132.640 C 161.096 132.586,160.685 132.612,160.300 132.700 M127.800 133.739 C 125.997 134.778,125.976 134.808,126.445 135.685 C 126.824 136.391,126.793 136.483,126.247 136.273 C 125.891 136.137,125.600 136.199,125.600 136.413 C 125.600 137.082,126.476 136.837,127.862 135.780 C 129.778 134.318,129.727 132.629,127.800 133.739 M146.000 133.800 C 145.726 134.130,145.273 134.400,144.994 134.400 C 144.714 134.400,144.381 134.672,144.254 135.003 C 144.127 135.335,143.567 135.814,143.011 136.068 C 141.942 136.555,141.654 137.200,142.506 137.200 C 143.015 137.200,145.409 136.027,147.127 134.935 C 147.871 134.462,147.960 134.234,147.578 133.773 C 146.973 133.045,146.622 133.051,146.000 133.800 M140.847 137.571 C 140.446 137.819,140.469 137.941,140.954 138.127 C 141.295 138.258,141.673 138.205,141.794 138.010 C 142.109 137.500,141.454 137.196,140.847 137.571 M139.298 138.500 C 139.389 138.775,139.899 139.059,140.431 139.131 C 141.380 139.260,141.384 139.250,140.600 138.644 C 139.624 137.889,139.077 137.829,139.298 138.500 M146.445 138.372 C 146.082 138.597,146.111 138.794,146.564 139.170 C 147.160 139.665,148.000 139.460,148.000 138.819 C 148.000 138.320,146.996 138.032,146.445 138.372 M136.740 141.317 C 136.435 141.622,135.919 141.976,135.593 142.104 C 135.183 142.265,135.263 142.347,135.851 142.368 C 136.319 142.386,136.930 142.126,137.208 141.790 C 137.865 140.998,137.465 140.593,136.740 141.317 M156.293 142.646 C 156.183 143.221,156.220 144.164,156.374 144.741 L 156.655 145.791 157.087 144.596 C 157.324 143.938,157.657 143.055,157.827 142.634 C 158.044 142.096,157.997 141.955,157.668 142.158 C 157.411 142.317,157.200 142.257,157.200 142.024 C 157.200 141.151,156.485 141.641,156.293 142.646 M133.020 144.087 C 132.372 144.685,131.922 145.225,132.020 145.287 C 135.393 147.408,137.151 146.995,136.627 144.204 C 136.304 142.479,134.818 142.431,133.020 144.087 M155.880 146.273 C 155.322 147.184,155.167 151.314,155.610 153.447 C 155.879 154.741,156.132 156.020,156.171 156.288 C 156.211 156.557,156.356 156.890,156.494 157.028 C 156.632 157.165,156.641 157.549,156.514 157.879 C 156.387 158.210,156.523 158.629,156.816 158.810 C 157.257 159.083,157.254 159.253,156.796 159.805 C 156.323 160.375,156.327 160.459,156.822 160.388 C 158.034 160.214,158.322 160.413,158.098 161.267 C 157.922 161.942,158.012 162.081,158.506 161.891 C 158.856 161.757,159.357 161.907,159.620 162.224 C 159.985 162.664,159.986 162.800,159.625 162.800 C 159.365 162.800,159.264 162.980,159.400 163.200 C 159.536 163.420,159.291 163.600,158.855 163.600 C 158.301 163.600,157.985 163.240,157.800 162.400 C 157.655 161.740,157.416 161.203,157.268 161.206 C 156.630 161.221,156.201 161.872,156.219 162.800 C 156.230 163.350,156.058 163.923,155.837 164.074 C 155.616 164.225,155.317 165.639,155.173 167.217 C 155.028 168.794,154.731 170.201,154.511 170.342 C 154.292 170.484,153.871 171.275,153.576 172.100 C 153.143 173.310,152.839 173.600,152.001 173.600 C 151.338 173.600,150.607 174.028,149.981 174.783 C 149.442 175.434,148.796 175.974,148.547 175.983 C 148.276 175.993,147.978 177.241,147.805 179.080 C 147.528 182.045,146.318 184.400,145.073 184.400 C 143.913 184.400,143.082 186.916,144.100 187.343 C 144.458 187.494,144.401 187.679,143.900 187.997 C 143.454 188.279,143.200 188.941,143.200 189.820 C 143.200 191.184,143.179 191.200,141.443 191.200 C 139.733 191.200,138.204 193.068,139.547 193.516 C 139.772 193.591,139.865 193.887,139.755 194.174 C 139.644 194.462,139.837 194.979,140.182 195.325 C 140.528 195.670,140.871 196.480,140.946 197.124 C 141.117 198.590,142.241 200.125,143.800 201.024 C 144.460 201.404,145.404 202.080,145.898 202.526 C 146.393 202.972,146.912 203.221,147.053 203.080 C 147.339 202.794,148.892 203.816,150.405 205.286 C 151.455 206.307,152.951 206.982,155.100 207.407 C 156.026 207.590,156.400 207.884,156.400 208.432 C 156.400 208.945,156.678 209.200,157.238 209.200 C 158.150 209.200,160.357 210.307,160.999 211.087 C 162.148 212.482,167.684 213.661,169.900 212.982 C 170.461 212.811,170.800 212.875,170.800 213.153 C 170.800 213.399,170.485 213.601,170.100 213.602 C 169.109 213.606,171.062 214.592,172.714 214.923 C 173.957 215.171,174.007 215.127,174.443 213.394 C 174.708 212.344,175.063 211.716,175.308 211.867 C 175.543 212.012,175.604 211.931,175.450 211.680 C 175.088 211.096,176.391 209.600,177.262 209.600 C 177.698 209.600,177.993 209.226,178.073 208.571 C 178.153 207.924,178.643 207.294,179.395 206.871 C 180.052 206.502,180.772 205.996,180.995 205.746 C 181.218 205.496,181.670 205.196,182.000 205.078 C 182.388 204.939,182.282 204.852,181.700 204.832 C 180.573 204.792,180.487 203.533,181.542 202.516 C 181.951 202.122,182.394 201.225,182.528 200.521 C 182.801 199.087,183.907 197.600,184.701 197.600 C 184.989 197.600,185.329 197.330,185.455 197.000 C 185.582 196.670,185.981 196.386,186.343 196.368 C 186.758 196.348,186.816 196.262,186.500 196.135 C 185.920 195.901,185.818 194.800,186.377 194.800 C 186.584 194.800,186.809 194.035,186.877 193.100 C 186.979 191.687,187.152 191.378,187.900 191.272 C 188.397 191.202,188.800 190.863,188.800 190.515 C 188.800 190.170,189.340 189.371,190.000 188.740 C 190.878 187.901,191.200 187.224,191.200 186.219 C 191.200 185.253,191.464 184.661,192.089 184.223 C 192.820 183.711,192.855 183.600,192.289 183.600 C 191.910 183.600,191.600 183.435,191.600 183.233 C 191.600 183.031,191.491 182.581,191.357 182.233 C 191.183 181.779,191.353 181.600,191.957 181.600 C 192.421 181.600,192.800 181.420,192.800 181.200 C 192.800 180.980,193.006 180.800,193.257 180.800 C 193.508 180.800,194.229 180.260,194.860 179.600 C 195.491 178.940,196.275 178.400,196.603 178.400 C 196.932 178.400,197.200 178.220,197.200 178.000 C 197.200 177.460,196.665 177.495,196.087 178.073 C 195.543 178.617,194.989 178.266,195.384 177.627 C 195.780 176.985,197.242 177.114,198.071 177.864 C 198.475 178.230,198.912 178.422,199.043 178.291 C 199.457 177.876,198.845 177.298,197.704 177.024 C 195.794 176.566,189.827 174.742,189.200 174.425 C 188.870 174.258,187.160 173.717,185.400 173.223 C 174.962 170.294,164.694 165.091,160.061 160.385 C 158.970 159.277,157.999 158.511,157.904 158.685 C 157.809 158.858,157.787 158.772,157.856 158.493 C 157.924 158.214,157.617 157.290,157.173 156.438 C 156.091 154.362,155.659 151.349,156.041 148.535 C 156.345 146.295,156.295 145.595,155.880 146.273 M129.273 147.287 C 129.013 147.547,128.800 148.084,128.800 148.480 C 128.800 148.876,128.604 149.200,128.364 149.200 C 127.834 149.200,126.432 150.823,126.413 151.457 C 126.406 151.709,126.130 152.018,125.800 152.145 C 125.470 152.271,125.200 152.701,125.200 153.099 C 125.200 153.497,124.840 154.083,124.400 154.400 C 123.960 154.717,123.600 155.207,123.600 155.488 C 123.600 155.770,123.375 156.007,123.100 156.016 C 122.825 156.025,123.082 156.294,123.672 156.614 C 124.941 157.303,126.000 157.011,126.000 155.971 C 126.000 155.562,126.514 154.637,127.141 153.914 C 127.769 153.191,128.383 152.150,128.506 151.600 C 129.024 149.279,129.167 148.809,129.604 147.992 C 130.140 146.991,129.958 146.602,129.273 147.287 M154.025 147.300 C 154.011 147.685,153.820 148.000,153.600 148.000 C 153.380 148.000,153.200 148.202,153.200 148.449 C 153.200 148.759,153.385 148.744,153.800 148.400 C 154.296 147.988,154.405 148.031,154.432 148.651 C 154.449 149.063,154.544 149.205,154.643 148.966 C 154.742 148.727,154.649 148.097,154.437 147.566 C 154.159 146.870,154.044 146.796,154.025 147.300 M154.493 153.200 C 154.493 153.970,154.575 154.285,154.676 153.900 C 154.776 153.515,154.776 152.885,154.676 152.500 C 154.575 152.115,154.493 152.430,154.493 153.200 M129.484 155.600 C 129.259 156.462,129.752 157.001,130.400 156.600 C 131.002 156.228,130.880 154.800,130.247 154.800 C 129.942 154.800,129.599 155.160,129.484 155.600 M121.052 161.700 C 120.919 162.195,120.808 163.256,120.805 164.057 C 120.802 164.983,120.580 165.599,120.197 165.746 C 119.407 166.049,119.424 172.678,120.217 173.600 C 120.501 173.930,120.793 174.726,120.867 175.369 C 121.067 177.130,122.000 177.182,122.000 175.433 C 122.000 174.426,121.822 174.000,121.400 174.000 C 120.310 174.000,120.546 165.866,121.657 165.128 C 122.410 164.628,122.480 164.330,122.233 162.680 C 121.930 160.657,121.440 160.252,121.052 161.700 M175.600 173.600 C 175.600 173.820,175.240 174.000,174.800 174.000 C 174.360 174.000,174.000 173.820,174.000 173.600 C 174.000 173.380,174.360 173.200,174.800 173.200 C 175.240 173.200,175.600 173.380,175.600 173.600 M209.964 181.882 C 210.494 181.983,211.338 182.334,211.840 182.663 C 212.341 182.991,213.916 183.504,215.340 183.802 C 216.935 184.135,218.574 184.811,219.610 185.561 C 220.910 186.503,221.456 186.691,222.019 186.390 C 222.986 185.872,223.596 185.910,222.700 186.432 C 222.315 186.656,222.000 187.021,222.000 187.243 C 222.000 187.466,222.180 187.536,222.400 187.400 C 222.620 187.264,222.803 187.388,222.806 187.676 C 222.811 188.093,222.882 188.090,223.156 187.657 C 223.396 187.279,223.583 187.249,223.774 187.557 C 224.208 188.260,225.371 188.073,226.000 187.200 C 226.317 186.760,226.942 186.382,227.388 186.360 C 228.067 186.327,228.036 186.271,227.200 186.021 C 226.480 185.806,225.969 185.929,225.374 186.461 C 224.281 187.440,224.077 187.396,223.927 186.153 C 223.789 185.016,223.609 184.925,217.800 183.063 C 216.040 182.499,213.340 181.962,211.800 181.868 C 210.260 181.774,209.434 181.781,209.964 181.882 M126.043 184.765 C 125.586 185.054,125.647 185.343,126.386 186.380 C 127.406 187.813,128.534 187.858,128.731 186.474 C 128.965 184.826,127.459 183.868,126.043 184.765 M231.600 187.773 C 233.274 188.450,233.916 188.547,233.380 188.042 C 233.171 187.845,232.370 187.577,231.600 187.446 L 230.200 187.207 231.600 187.773 M226.848 188.651 C 225.547 189.563,226.412 190.039,229.175 189.932 C 231.307 189.849,232.441 190.504,230.922 190.940 C 230.525 191.054,230.762 191.119,231.450 191.083 C 232.137 191.048,232.947 191.216,233.250 191.457 C 233.552 191.697,234.743 192.202,235.895 192.578 C 237.048 192.954,238.093 193.427,238.219 193.631 C 238.344 193.834,238.734 194.000,239.086 194.000 C 240.260 194.000,238.423 192.438,236.635 191.917 C 235.736 191.655,234.856 191.206,234.680 190.920 C 234.504 190.634,234.020 190.400,233.605 190.400 C 233.189 190.400,232.258 189.860,231.536 189.200 C 230.038 187.833,228.307 187.630,226.848 188.651 M234.600 188.697 C 234.820 188.917,235.540 189.223,236.200 189.377 C 237.000 189.563,237.267 189.523,237.000 189.257 C 236.780 189.037,236.060 188.731,235.400 188.577 C 234.600 188.390,234.333 188.430,234.600 188.697 M246.000 192.357 C 246.000 192.554,246.285 192.824,246.633 192.957 C 247.504 193.292,247.686 193.262,247.419 192.830 C 247.293 192.627,247.507 192.378,247.895 192.277 C 248.283 192.176,248.015 192.072,247.300 192.046 C 246.585 192.021,246.000 192.161,246.000 192.357 M134.200 193.600 C 134.064 193.820,134.143 194.000,134.376 194.000 C 134.609 194.000,134.800 194.274,134.800 194.610 C 134.800 195.195,136.288 196.000,137.369 196.000 C 137.977 196.000,138.002 193.948,137.400 193.506 C 136.807 193.070,134.485 193.138,134.200 193.600 M242.304 196.017 C 244.043 197.793,244.470 198.037,245.542 197.868 C 246.672 197.690,246.798 197.783,247.019 198.961 C 247.248 200.183,247.347 200.246,248.930 200.179 C 251.923 200.053,251.913 200.017,248.331 198.054 C 240.488 193.755,239.892 193.554,242.304 196.017 M254.559 195.700 C 254.401 195.975,254.412 196.074,254.583 195.919 C 254.755 195.765,255.156 195.899,255.475 196.218 C 255.935 196.678,256.235 196.702,256.919 196.336 C 257.763 195.885,257.765 195.867,256.991 195.565 C 255.788 195.095,254.879 195.146,254.559 195.700 M259.600 197.813 C 259.600 198.136,259.870 198.400,260.200 198.400 C 260.530 198.400,260.800 198.239,260.800 198.043 C 260.800 197.846,260.530 197.582,260.200 197.455 C 259.835 197.315,259.600 197.455,259.600 197.813 M258.442 204.766 C 258.010 205.039,258.160 205.262,259.103 205.750 C 260.208 206.321,260.344 206.322,260.562 205.754 C 261.029 204.539,259.745 203.941,258.442 204.766 M273.038 205.939 C 272.910 206.146,273.099 206.429,273.460 206.568 C 274.344 206.907,274.550 206.623,273.845 206.038 C 273.503 205.754,273.177 205.714,273.038 205.939 M264.400 208.712 C 264.400 209.056,266.856 210.078,267.099 209.835 C 267.231 209.703,264.906 208.400,264.539 208.400 C 264.462 208.400,264.400 208.541,264.400 208.712 M174.000 211.549 C 174.000 211.741,173.183 211.915,172.185 211.935 C 171.114 211.956,170.468 211.813,170.609 211.586 C 170.906 211.105,174.000 211.072,174.000 211.549 M279.757 213.800 C 279.237 215.464,279.714 216.092,281.100 215.567 C 282.157 215.166,282.236 214.516,281.377 213.289 C 280.532 212.081,280.270 212.164,279.757 213.800 M283.338 217.397 C 283.772 218.333,284.415 218.764,284.387 218.100 C 284.371 217.708,283.375 216.400,283.094 216.400 C 282.973 216.400,283.083 216.849,283.338 217.397 M286.000 223.510 C 286.000 223.973,286.171 224.458,286.379 224.587 C 286.589 224.717,286.684 224.436,286.592 223.957 C 286.362 222.762,286.000 222.489,286.000 223.510 M174.866 288.750 L 173.944 289.446 174.991 289.923 C 175.567 290.185,176.389 290.400,176.819 290.400 C 177.248 290.400,177.600 290.594,177.600 290.832 C 177.600 291.101,178.041 291.167,178.774 291.006 C 179.659 290.811,180.151 290.951,180.774 291.574 C 182.200 293.000,188.400 292.514,188.400 290.976 C 188.400 289.792,181.620 289.250,179.067 290.230 C 178.700 290.370,178.400 290.299,178.400 290.071 C 178.400 289.842,178.805 289.564,179.300 289.451 C 179.795 289.339,179.075 289.335,177.700 289.443 C 175.449 289.620,174.302 289.187,175.700 288.688 C 175.975 288.590,176.107 288.407,175.994 288.282 C 175.881 288.157,175.373 288.368,174.866 288.750 M224.723 289.406 C 224.655 289.472,223.520 289.635,222.200 289.768 C 218.181 290.175,212.124 292.400,215.034 292.400 C 217.260 292.400,217.027 294.290,214.756 294.653 C 213.900 294.790,213.200 295.059,213.200 295.251 C 213.200 295.443,212.480 295.600,211.600 295.600 C 210.720 295.600,210.000 295.780,210.000 296.000 C 210.000 296.551,208.912 296.505,208.562 295.938 C 208.386 295.654,208.452 295.585,208.734 295.759 C 209.022 295.937,209.109 295.828,208.969 295.464 C 208.794 295.007,207.894 294.898,204.674 294.943 C 202.109 294.979,200.674 295.148,200.800 295.400 C 200.910 295.620,201.765 295.795,202.700 295.789 C 204.316 295.778,204.982 296.393,204.008 296.995 C 203.013 297.610,196.320 297.358,195.947 296.692 C 195.744 296.329,194.953 295.915,194.189 295.772 C 192.147 295.389,192.493 294.606,195.062 293.798 C 197.678 292.975,197.192 292.362,193.500 291.827 L 191.600 291.551 191.600 293.020 L 191.600 294.489 190.100 294.201 C 189.275 294.043,188.330 293.866,188.000 293.808 C 187.670 293.750,187.220 293.837,187.000 294.001 C 186.780 294.165,185.745 294.423,184.700 294.574 C 183.236 294.786,182.800 295.015,182.800 295.572 C 182.800 296.463,185.236 296.888,187.464 296.386 C 189.255 295.982,191.071 296.286,191.360 297.039 C 191.612 297.696,190.431 298.400,189.076 298.400 C 187.565 298.400,185.600 298.864,185.600 299.222 C 185.600 300.620,210.367 301.726,211.600 300.382 C 211.710 300.262,212.520 299.990,213.400 299.777 C 214.587 299.489,214.970 299.210,214.882 298.694 C 214.714 297.699,216.472 297.783,217.107 298.800 C 217.712 299.768,218.663 299.808,220.792 298.957 C 223.247 297.974,222.898 297.200,220.000 297.200 C 217.867 297.200,217.600 297.111,217.600 296.400 C 217.600 295.651,217.867 295.600,221.800 295.600 C 225.267 295.600,226.000 295.495,226.000 295.000 C 226.000 294.670,225.865 294.436,225.700 294.480 C 224.996 294.667,219.600 293.923,219.407 293.612 C 219.291 293.424,218.747 293.320,218.198 293.380 C 217.549 293.452,217.200 293.290,217.200 292.918 C 217.200 292.480,217.640 292.386,219.097 292.517 C 220.140 292.610,221.265 292.547,221.597 292.378 C 221.928 292.208,223.100 291.919,224.200 291.735 C 225.802 291.467,226.224 291.231,226.321 290.552 C 226.425 289.822,225.201 288.944,224.723 289.406 M207.859 296.525 C 208.010 296.676,207.653 296.800,207.067 296.800 C 206.480 296.800,206.000 296.650,206.000 296.467 C 206.000 296.077,207.456 296.123,207.859 296.525 M180.572 297.645 C 180.282 298.114,181.056 298.784,181.900 298.794 C 182.175 298.797,182.400 298.440,182.400 298.000 C 182.400 297.125,181.055 296.864,180.572 297.645 " stroke="none" fill="#73b4e3" fill-rule="evenodd"></path><path id="path4" d="M247.211 108.310 C 247.220 108.572,249.652 109.925,253.089 111.579 C 253.798 111.921,254.299 112.425,254.202 112.700 C 254.095 113.002,254.377 113.202,254.913 113.206 C 256.528 113.217,257.634 115.368,256.080 115.475 C 255.706 115.501,255.010 115.647,254.533 115.799 C 253.828 116.024,253.641 115.900,253.533 115.138 C 253.411 114.280,253.236 114.212,251.483 114.335 C 250.242 114.422,249.239 114.255,248.639 113.862 C 248.129 113.528,247.012 113.198,246.156 113.127 C 244.995 113.032,244.599 112.823,244.596 112.303 C 244.589 111.265,243.818 111.430,243.682 112.500 C 243.581 113.287,243.824 113.494,245.313 113.892 C 248.056 114.626,251.100 118.400,248.948 118.400 C 248.621 118.400,248.464 118.220,248.600 118.000 C 248.736 117.780,248.557 117.600,248.202 117.600 C 247.848 117.600,246.895 117.150,246.086 116.600 C 245.127 115.948,244.055 115.598,243.007 115.594 C 242.123 115.591,241.130 115.413,240.800 115.200 C 240.400 114.942,240.367 114.810,240.700 114.806 C 240.975 114.803,241.200 114.617,241.200 114.392 C 241.200 114.151,240.767 114.093,240.140 114.251 C 239.547 114.400,239.178 114.359,239.301 114.158 C 239.422 113.961,238.395 113.800,237.020 113.800 C 235.644 113.800,234.087 113.591,233.559 113.335 C 232.608 112.874,228.265 111.959,227.433 112.044 C 227.195 112.069,227.900 112.326,229.000 112.617 C 234.626 114.104,235.865 114.459,236.600 114.790 C 237.040 114.988,237.850 115.268,238.400 115.413 C 240.949 116.083,249.110 119.562,253.983 122.057 C 259.265 124.760,259.380 124.798,260.123 124.055 C 260.718 123.460,260.790 123.129,260.459 122.510 C 260.048 121.743,260.085 121.738,261.819 122.308 C 262.798 122.631,263.600 123.053,263.600 123.247 C 263.600 123.441,264.230 123.600,265.000 123.600 C 265.770 123.600,266.400 123.423,266.400 123.208 C 266.400 122.675,268.158 122.269,269.130 122.578 C 269.691 122.756,269.855 123.067,269.700 123.659 C 269.517 124.361,269.617 124.449,270.339 124.219 C 271.010 124.006,271.143 124.083,270.955 124.574 C 270.821 124.921,270.922 125.200,271.181 125.200 C 271.437 125.200,271.525 125.398,271.375 125.640 C 271.182 125.953,271.346 125.950,271.943 125.631 C 272.597 125.280,272.743 125.294,272.605 125.691 C 272.441 126.161,275.195 128.400,275.938 128.400 C 276.118 128.400,276.486 128.813,276.757 129.319 C 277.027 129.824,277.617 130.468,278.067 130.749 C 280.701 132.394,273.509 125.241,268.398 121.133 C 261.226 115.368,247.157 106.853,247.211 108.310 M220.561 110.995 C 222.739 111.306,224.764 111.654,225.061 111.768 C 225.357 111.882,225.600 111.886,225.600 111.778 C 225.600 111.268,223.115 110.740,220.015 110.593 L 216.600 110.430 220.561 110.995 M262.400 118.846 C 262.400 119.329,260.921 119.293,259.974 118.786 C 259.011 118.271,258.978 117.706,259.900 117.508 C 260.661 117.344,262.400 118.274,262.400 118.846 M154.573 119.804 C 153.520 120.266,151.963 121.600,152.476 121.600 C 152.846 121.600,156.800 119.587,156.800 119.399 C 156.800 119.066,155.867 119.236,154.573 119.804 M264.710 120.308 C 265.102 120.205,265.643 120.356,265.912 120.644 C 266.527 121.302,266.525 121.457,265.900 121.504 C 265.625 121.525,265.020 121.660,264.555 121.803 C 263.945 121.992,263.639 121.861,263.455 121.332 C 263.314 120.930,263.080 120.330,262.935 120.000 C 262.708 119.485,262.764 119.478,263.333 119.947 C 263.697 120.248,264.317 120.410,264.710 120.308 M148.084 122.215 C 147.417 122.972,148.022 122.970,149.024 122.213 C 149.609 121.770,149.652 121.626,149.200 121.628 C 148.870 121.629,148.368 121.894,148.084 122.215 M136.000 123.078 C 130.775 127.069,114.871 145.600,116.671 145.600 C 116.826 145.600,116.671 145.825,116.326 146.100 C 115.980 146.375,115.194 147.500,114.578 148.600 C 113.962 149.700,113.569 150.505,113.706 150.390 C 114.276 149.906,116.000 147.127,116.006 146.682 C 116.010 146.348,116.117 146.365,116.353 146.738 C 116.604 147.134,116.766 146.992,116.964 146.202 C 117.112 145.611,117.451 145.203,117.717 145.295 C 117.983 145.387,118.515 145.133,118.900 144.731 C 119.363 144.248,119.431 143.996,119.100 143.987 C 118.797 143.980,118.879 143.763,119.307 143.438 C 119.730 143.117,119.913 142.639,119.762 142.246 C 119.590 141.798,119.683 141.656,120.055 141.796 C 120.378 141.917,121.006 141.389,121.596 140.500 C 123.198 138.089,124.000 137.759,124.000 139.512 C 124.000 140.158,123.671 140.861,123.215 141.189 C 122.783 141.501,122.311 142.295,122.166 142.955 C 121.859 144.350,121.252 145.054,120.176 145.261 C 119.754 145.343,119.344 145.767,119.264 146.205 C 119.184 146.642,118.674 147.630,118.130 148.400 C 117.587 149.170,118.401 148.455,119.939 146.810 C 121.477 145.166,122.647 143.676,122.538 143.500 C 122.430 143.324,122.498 143.230,122.690 143.290 C 122.882 143.351,124.921 141.660,127.220 139.533 C 133.495 133.727,140.479 128.549,147.872 124.221 C 149.583 123.220,150.807 122.401,150.592 122.402 C 149.831 122.406,142.087 126.565,141.600 127.232 C 141.280 127.669,139.481 127.445,139.315 126.946 C 139.232 126.697,139.442 126.215,139.782 125.875 C 140.122 125.535,140.400 125.064,140.400 124.829 C 140.400 124.288,139.728 124.269,139.400 124.800 C 139.051 125.365,138.736 125.287,137.621 124.359 C 136.790 123.667,136.715 123.428,137.125 122.772 C 137.745 121.779,137.676 121.798,136.000 123.078 M259.767 122.643 C 260.581 122.955,260.587 123.600,259.776 123.600 C 259.433 123.600,259.264 123.420,259.400 123.200 C 259.749 122.635,258.659 122.701,258.080 123.280 C 257.746 123.614,257.600 123.624,257.600 123.313 C 257.600 122.598,258.735 122.247,259.767 122.643 M137.594 126.596 C 137.586 128.572,137.282 129.080,136.000 129.260 C 135.187 129.374,135.000 129.624,135.000 130.600 C 135.000 131.781,133.263 132.239,132.867 131.162 C 132.793 130.963,132.433 130.786,132.067 130.768 C 131.647 130.749,131.586 130.662,131.902 130.534 C 132.179 130.423,132.294 130.152,132.159 129.933 C 132.023 129.714,132.427 128.998,133.056 128.342 C 133.789 127.576,133.948 127.245,133.499 127.417 C 132.521 127.793,132.626 127.388,133.868 125.995 C 134.455 125.335,135.220 124.842,135.568 124.898 C 135.916 124.954,136.154 124.773,136.099 124.496 C 136.017 124.091,136.156 124.090,136.799 124.492 C 137.386 124.859,137.598 125.420,137.594 126.596 M259.811 124.783 C 259.705 124.955,260.459 125.614,261.488 126.248 C 262.517 126.881,264.808 128.357,266.580 129.527 C 268.376 130.714,269.181 131.116,268.400 130.438 C 267.630 129.769,266.894 129.217,266.764 129.211 C 266.635 129.205,266.330 128.766,266.089 128.235 C 265.847 127.704,265.258 127.145,264.780 126.994 C 264.303 126.842,263.469 126.332,262.927 125.859 C 261.826 124.899,260.106 124.305,259.811 124.783 M171.005 126.900 C 168.612 128.743,166.031 131.298,166.114 131.742 C 166.161 131.994,165.999 132.163,165.753 132.118 C 165.507 132.072,164.877 132.522,164.353 133.118 L 163.400 134.200 164.430 133.296 C 164.996 132.799,165.545 132.479,165.651 132.584 C 165.756 132.689,167.359 131.251,169.212 129.388 C 172.629 125.953,173.121 125.271,171.005 126.900 M133.829 129.029 C 133.405 129.338,133.185 129.718,133.339 129.872 C 133.493 130.026,133.919 129.852,134.286 129.486 C 135.149 128.622,134.826 128.299,133.829 129.029 M131.200 129.951 C 131.200 130.144,130.930 130.526,130.600 130.800 C 130.185 131.144,130.000 131.159,130.000 130.849 C 130.000 130.602,130.191 130.400,130.424 130.400 C 130.657 130.400,130.736 130.220,130.600 130.000 C 130.464 129.780,130.543 129.600,130.776 129.600 C 131.009 129.600,131.200 129.758,131.200 129.951 M130.296 132.674 C 130.569 133.261,130.702 133.832,130.592 133.942 C 130.327 134.206,129.229 132.739,129.213 132.100 C 129.191 131.245,129.777 131.556,130.296 132.674 M279.200 131.725 C 279.200 131.794,279.785 132.379,280.500 133.025 L 281.800 134.200 280.625 132.900 C 279.530 131.688,279.200 131.416,279.200 131.725 M129.200 133.816 C 129.200 134.798,127.521 136.800,126.698 136.800 C 126.151 136.800,126.010 137.000,126.179 137.533 C 126.321 137.981,126.214 138.266,125.906 138.266 C 125.607 138.265,125.388 137.727,125.371 136.952 C 125.355 136.231,125.469 135.719,125.625 135.816 C 125.781 135.912,125.997 135.653,126.105 135.241 C 126.213 134.828,126.819 134.220,127.451 133.888 C 128.966 133.093,129.200 133.083,129.200 133.816 M279.000 139.498 C 279.880 140.420,280.742 141.180,280.916 141.187 C 281.275 141.202,280.354 140.256,278.600 138.811 C 277.811 138.161,277.948 138.397,279.000 139.498 M286.208 140.358 C 287.015 141.481,287.757 142.400,287.857 142.400 C 288.132 142.400,285.652 138.880,285.166 138.579 C 284.932 138.435,285.401 139.235,286.208 140.358 M285.800 146.400 C 286.659 147.280,287.452 148.000,287.562 148.000 C 287.672 148.000,287.059 147.280,286.200 146.400 C 285.341 145.520,284.548 144.800,284.438 144.800 C 284.328 144.800,284.941 145.520,285.800 146.400 M157.724 149.800 C 157.726 151.120,157.801 151.612,157.890 150.893 C 157.979 150.174,157.977 149.094,157.886 148.493 C 157.795 147.892,157.722 148.480,157.724 149.800 M111.258 154.631 C 110.669 155.926,110.678 156.000,111.427 156.000 C 111.884 156.000,111.981 155.770,111.784 155.150 C 111.603 154.578,111.659 154.389,111.957 154.574 C 112.201 154.724,112.400 154.667,112.400 154.447 C 112.400 153.569,111.690 153.684,111.258 154.631 M162.200 160.000 C 163.059 160.880,163.852 161.600,163.962 161.600 C 164.072 161.600,163.459 160.880,162.600 160.000 C 161.741 159.120,160.948 158.400,160.838 158.400 C 160.728 158.400,161.341 159.120,162.200 160.000 M174.000 173.600 C 174.000 173.820,174.360 174.000,174.800 174.000 C 175.240 174.000,175.600 173.820,175.600 173.600 C 175.600 173.380,175.240 173.200,174.800 173.200 C 174.360 173.200,174.000 173.380,174.000 173.600 M214.000 180.400 C 214.000 180.620,214.315 180.802,214.700 180.805 C 215.085 180.808,215.850 180.901,216.400 181.011 C 217.033 181.138,216.886 181.000,216.000 180.636 C 214.272 179.926,214.000 179.894,214.000 180.400 M219.420 181.972 C 219.629 182.176,220.340 182.455,221.000 182.591 C 222.196 182.839,222.195 182.837,220.854 182.220 C 219.319 181.513,218.872 181.435,219.420 181.972 M224.000 183.600 C 224.000 183.820,224.495 184.018,225.100 184.040 L 226.200 184.080 225.200 184.390 C 224.650 184.561,223.750 184.623,223.200 184.528 C 222.486 184.404,222.657 184.586,223.800 185.164 C 225.726 186.137,226.158 186.189,225.859 185.411 C 225.735 185.086,225.918 184.662,226.266 184.467 C 226.777 184.181,226.646 184.024,225.590 183.656 C 224.000 183.102,224.000 183.102,224.000 183.600 M214.800 183.735 C 214.800 184.156,218.403 186.000,219.225 186.000 L 220.108 186.000 219.154 185.255 C 218.629 184.845,217.750 184.381,217.200 184.223 C 215.014 183.596,214.800 183.553,214.800 183.735 M228.800 184.971 C 228.800 185.066,229.083 185.426,229.429 185.771 C 230.000 186.343,229.991 186.404,229.329 186.440 C 228.928 186.461,229.410 186.733,230.399 187.043 C 231.544 187.402,232.247 187.460,232.332 187.203 C 232.544 186.569,233.846 186.732,234.451 187.469 C 234.940 188.066,234.902 188.113,234.099 187.907 C 233.562 187.768,233.296 187.832,233.440 188.066 C 233.573 188.281,234.429 188.363,235.341 188.249 C 236.253 188.135,236.652 188.142,236.226 188.264 C 235.370 188.511,238.727 190.332,240.119 190.377 C 240.515 190.390,241.595 190.779,242.519 191.243 C 243.631 191.800,244.945 192.083,246.400 192.076 C 247.901 192.070,248.346 192.169,247.800 192.389 C 247.057 192.689,247.080 192.743,248.120 193.153 C 248.735 193.396,250.175 194.025,251.320 194.550 C 253.712 195.648,255.302 196.089,254.977 195.563 C 254.854 195.363,255.078 195.193,255.476 195.184 C 256.465 195.162,254.874 194.319,250.905 192.762 C 249.197 192.092,247.260 191.307,246.600 191.018 C 243.438 189.635,232.362 185.976,232.005 186.197 C 231.782 186.335,231.600 186.274,231.600 186.063 C 231.600 185.851,231.033 185.481,230.340 185.239 C 228.936 184.749,228.800 184.726,228.800 184.971 M223.200 187.474 C 223.200 188.497,225.905 189.280,226.988 188.571 C 227.541 188.209,227.894 187.752,227.773 187.556 C 227.471 187.067,225.600 187.105,225.600 187.600 C 225.600 188.157,224.261 188.101,223.680 187.520 C 223.363 187.203,223.200 187.187,223.200 187.474 M229.271 189.922 C 227.653 190.041,227.380 191.200,228.970 191.200 C 229.230 191.200,232.106 192.550,235.360 194.200 C 238.615 195.850,241.520 197.200,241.816 197.200 C 242.112 197.200,242.635 197.600,242.977 198.089 C 243.320 198.578,243.600 198.814,243.600 198.613 C 243.600 198.412,243.825 198.529,244.100 198.874 C 244.617 199.522,247.204 200.204,247.195 199.690 C 247.167 198.226,246.673 197.690,245.517 197.872 C 244.476 198.036,244.028 197.778,242.318 196.031 C 241.043 194.729,239.991 194.000,239.388 194.000 C 238.870 194.000,238.344 193.834,238.219 193.631 C 238.093 193.427,237.048 192.954,235.895 192.578 C 234.743 192.202,233.552 191.697,233.250 191.457 C 232.947 191.216,232.137 191.048,231.450 191.083 C 230.762 191.119,230.515 191.056,230.900 190.945 C 232.674 190.429,231.594 189.751,229.271 189.922 M256.831 196.372 C 256.398 196.646,256.624 196.883,257.780 197.366 C 259.662 198.152,259.661 198.152,259.518 197.300 C 259.311 196.068,258.018 195.621,256.831 196.372 M260.000 197.200 C 260.000 197.420,260.199 197.600,260.443 197.600 C 260.686 197.600,260.788 197.853,260.669 198.163 C 260.419 198.817,261.971 199.340,262.995 198.947 C 263.501 198.752,263.269 198.476,261.986 197.747 C 260.097 196.674,260.000 196.648,260.000 197.200 M263.400 199.585 L 262.600 199.914 263.400 200.230 C 264.168 200.533,265.497 201.339,270.494 204.534 C 272.800 206.008,274.037 206.520,272.581 205.398 C 272.152 205.066,270.654 204.038,269.254 203.113 C 267.853 202.188,266.922 201.359,267.183 201.272 C 267.445 201.185,267.025 200.683,266.251 200.157 C 264.725 199.120,264.595 199.094,263.400 199.585 M251.200 200.049 C 250.430 200.222,249.485 200.270,249.100 200.155 C 248.715 200.040,248.402 200.093,248.405 200.273 C 248.414 200.793,253.306 203.003,254.136 202.862 C 254.549 202.792,254.783 202.903,254.656 203.109 C 254.410 203.507,256.045 204.400,257.019 204.400 C 257.338 204.400,257.600 204.586,257.600 204.814 C 257.600 205.080,257.922 205.056,258.499 204.747 C 259.186 204.379,259.259 204.220,258.806 204.069 C 258.481 203.960,257.967 203.624,257.665 203.322 C 257.363 203.020,256.775 202.881,256.358 203.013 C 255.834 203.180,255.600 203.060,255.600 202.627 C 255.600 202.282,255.780 202.000,256.000 202.000 C 256.220 202.000,256.400 201.784,256.400 201.520 C 256.400 201.147,256.293 201.147,255.920 201.520 C 255.330 202.110,254.000 202.154,254.000 201.583 C 254.000 200.496,252.606 199.732,251.200 200.049 M265.720 200.264 C 266.424 200.630,266.777 201.004,266.504 201.097 C 266.231 201.189,265.532 200.890,264.950 200.432 C 263.675 199.429,263.982 199.362,265.720 200.264 M260.667 205.467 C 260.206 205.927,260.375 206.400,261.000 206.400 C 261.330 206.400,261.600 206.574,261.600 206.787 C 261.600 207.001,261.852 207.078,262.160 206.960 C 262.467 206.842,262.838 206.938,262.983 207.173 C 263.128 207.408,263.012 207.611,262.724 207.625 C 262.214 207.650,263.801 208.459,264.600 208.582 C 265.836 208.772,267.330 209.672,266.875 209.953 C 266.545 210.158,267.048 210.625,268.377 211.349 C 269.476 211.947,270.482 212.608,270.611 212.818 C 270.741 213.028,271.197 213.200,271.624 213.200 C 272.051 213.200,272.400 213.364,272.400 213.564 C 272.400 213.765,274.020 214.701,276.000 215.644 C 277.980 216.587,279.600 217.498,279.600 217.669 C 279.600 218.214,282.065 219.276,282.852 219.071 C 283.344 218.942,283.764 219.160,284.048 219.690 C 284.348 220.251,284.577 220.360,284.776 220.038 C 284.936 219.780,285.067 220.122,285.067 220.798 C 285.067 221.474,285.251 222.211,285.477 222.437 C 285.758 222.718,285.785 222.193,285.560 220.774 C 285.255 218.840,284.800 217.637,284.800 218.762 C 284.800 219.360,284.069 218.642,283.300 217.290 C 282.680 216.199,282.588 214.653,283.200 215.600 C 283.413 215.930,283.591 215.997,283.594 215.749 C 283.606 214.828,282.419 214.227,281.887 214.885 C 281.002 215.981,280.074 216.021,279.268 214.995 C 278.849 214.463,278.392 214.142,278.252 214.282 C 278.111 214.422,277.561 214.127,277.028 213.626 C 276.448 213.082,275.859 212.840,275.562 213.024 C 275.215 213.238,275.140 213.133,275.315 212.678 C 275.633 211.848,274.826 211.314,274.361 212.049 C 274.145 212.391,274.010 212.424,274.006 212.136 C 273.999 211.606,270.891 210.000,269.874 210.000 C 269.503 210.000,269.200 209.759,269.200 209.464 C 269.200 208.661,265.336 206.651,265.031 207.294 C 264.899 207.572,264.869 207.384,264.965 206.875 C 265.120 206.045,265.023 205.975,264.019 206.196 C 263.271 206.360,262.693 206.236,262.278 205.821 C 261.611 205.154,261.093 205.040,260.667 205.467 M275.443 208.261 C 276.289 208.971,277.070 209.463,277.179 209.354 C 277.288 209.246,277.112 208.992,276.788 208.792 C 276.465 208.591,276.199 208.121,276.198 207.748 C 276.197 207.280,275.841 207.054,275.051 207.020 L 273.905 206.969 275.443 208.261 M153.783 208.827 C 153.656 209.032,153.770 209.200,154.037 209.200 C 154.303 209.200,155.493 209.676,156.682 210.258 C 158.306 211.052,158.958 211.202,159.302 210.858 C 159.646 210.514,159.547 210.400,158.904 210.400 C 158.433 210.400,157.936 210.220,157.800 210.000 C 157.664 209.780,157.248 209.599,156.876 209.598 C 156.504 209.596,155.708 209.338,155.107 209.025 C 154.472 208.694,153.917 208.611,153.783 208.827 M277.949 210.704 C 278.478 211.693,280.000 213.015,280.000 212.486 C 280.000 212.244,279.817 211.934,279.593 211.796 C 279.370 211.658,279.291 211.377,279.417 211.172 C 279.544 210.968,279.524 210.601,279.374 210.357 C 279.183 210.049,278.996 210.079,278.756 210.457 C 278.503 210.857,278.411 210.868,278.406 210.500 C 278.403 210.225,278.214 210.000,277.986 210.000 C 277.715 210.000,277.702 210.243,277.949 210.704 M159.971 211.218 C 159.640 211.423,159.636 211.575,159.957 211.774 C 160.201 211.924,160.403 211.902,160.406 211.724 C 160.409 211.546,160.544 211.582,160.706 211.804 C 160.868 212.027,161.990 212.632,163.200 213.150 C 164.410 213.668,165.723 214.257,166.118 214.460 C 167.941 215.397,193.781 224.382,194.700 224.398 C 194.755 224.399,194.800 224.220,194.800 224.000 C 194.800 223.780,194.388 223.600,193.885 223.600 C 193.381 223.600,192.263 223.240,191.400 222.800 C 190.537 222.360,189.582 222.000,189.277 222.000 C 188.627 222.000,186.378 220.800,185.801 220.145 C 185.580 219.894,184.410 219.466,183.200 219.192 C 179.903 218.446,177.600 216.861,177.600 215.338 C 177.600 215.042,177.439 214.800,177.242 214.800 C 177.045 214.800,176.460 214.353,175.942 213.807 C 174.731 212.530,174.550 212.550,174.262 213.992 C 174.041 215.093,173.924 215.165,172.729 214.926 C 171.066 214.593,169.105 213.606,170.100 213.602 C 170.485 213.601,170.800 213.399,170.800 213.153 C 170.800 212.875,170.461 212.811,169.900 212.982 C 168.123 213.527,164.722 213.020,162.314 211.851 C 161.276 211.348,160.222 211.063,159.971 211.218 M170.609 211.586 C 170.468 211.813,171.114 211.956,172.185 211.935 C 173.183 211.915,174.000 211.741,174.000 211.549 C 174.000 211.072,170.906 211.105,170.609 211.586 M184.400 220.000 C 184.933 220.345,184.933 220.388,184.400 220.388 C 184.070 220.388,183.530 220.213,183.200 220.000 C 182.667 219.655,182.667 219.612,183.200 219.612 C 183.530 219.612,184.070 219.787,184.400 220.000 M207.600 228.200 C 209.426 228.903,210.145 228.893,208.600 228.186 C 207.940 227.883,207.130 227.642,206.800 227.648 C 206.470 227.655,206.830 227.903,207.600 228.200 M287.334 232.400 C 287.334 234.050,287.405 234.725,287.491 233.900 C 287.578 233.075,287.578 231.725,287.491 230.900 C 287.405 230.075,287.334 230.750,287.334 232.400 M120.000 253.325 C 120.000 253.394,120.585 253.979,121.300 254.625 L 122.600 255.800 121.425 254.500 C 120.330 253.288,120.000 253.016,120.000 253.325 M126.200 259.600 C 127.283 260.700,128.260 261.600,128.370 261.600 C 128.480 261.600,127.683 260.700,126.600 259.600 C 125.517 258.500,124.540 257.600,124.430 257.600 C 124.320 257.600,125.117 258.500,126.200 259.600 M278.981 260.500 L 277.400 262.200 279.100 260.619 C 280.681 259.148,280.984 258.800,280.681 258.800 C 280.616 258.800,279.851 259.565,278.981 260.500 M277.200 270.600 C 276.228 271.590,275.523 272.400,275.633 272.400 C 275.743 272.400,276.628 271.590,277.600 270.600 C 278.572 269.610,279.277 268.800,279.167 268.800 C 279.057 268.800,278.172 269.610,277.200 270.600 M130.600 272.400 C 132.350 274.160,133.871 275.600,133.981 275.600 C 134.091 275.600,132.750 274.160,131.000 272.400 C 129.250 270.640,127.729 269.200,127.619 269.200 C 127.509 269.200,128.850 270.640,130.600 272.400 M273.381 274.500 L 271.800 276.200 273.500 274.619 C 275.081 273.148,275.384 272.800,275.081 272.800 C 275.016 272.800,274.251 273.565,273.381 274.500 M259.900 274.629 C 258.405 275.440,258.496 275.778,260.000 275.000 C 260.660 274.659,261.200 274.294,261.200 274.190 C 261.200 273.932,261.157 273.947,259.900 274.629 M257.100 276.229 C 255.605 277.040,255.696 277.378,257.200 276.600 C 257.860 276.259,258.400 275.894,258.400 275.790 C 258.400 275.532,258.357 275.547,257.100 276.229 M270.175 277.300 L 269.000 278.600 270.300 277.425 C 271.015 276.779,271.600 276.194,271.600 276.125 C 271.600 275.816,271.270 276.088,270.175 277.300 M151.144 277.580 C 151.664 278.031,152.249 278.400,152.444 278.400 C 153.144 278.400,152.779 278.010,151.500 277.390 L 150.200 276.760 151.144 277.580 M254.176 277.780 C 253.427 278.340,253.432 278.352,254.306 278.132 C 254.805 278.006,255.310 277.745,255.430 277.552 C 255.768 277.004,255.036 277.138,254.176 277.780 M154.000 278.971 C 154.000 279.195,158.253 281.206,158.675 281.181 C 159.044 281.160,154.762 278.848,154.300 278.819 C 154.135 278.808,154.000 278.877,154.000 278.971 M248.600 280.603 C 247.500 281.148,247.050 281.483,247.600 281.347 C 248.762 281.059,250.800 280.067,250.800 279.790 C 250.800 279.513,250.782 279.520,248.600 280.603 M140.097 280.633 C 140.227 280.844,141.191 281.632,142.237 282.384 C 143.284 283.135,144.033 283.578,143.903 283.367 C 143.773 283.156,142.809 282.368,141.763 281.616 C 140.716 280.865,139.967 280.422,140.097 280.633 M160.000 282.000 C 160.000 282.220,160.360 282.400,160.800 282.400 C 161.240 282.400,161.555 282.625,161.500 282.900 C 161.439 283.206,161.839 283.400,162.530 283.400 C 163.152 283.400,163.892 283.715,164.174 284.100 C 164.457 284.485,164.882 284.800,165.118 284.800 C 166.438 284.800,167.803 285.687,167.000 286.024 C 166.376 286.285,166.499 286.342,167.556 286.280 C 169.230 286.181,169.597 286.906,168.135 287.420 C 167.138 287.771,167.106 287.849,167.709 288.452 C 168.067 288.810,168.479 289.575,168.624 290.152 C 168.768 290.728,169.082 291.200,169.320 291.200 C 170.333 291.200,168.090 292.379,167.000 292.419 L 165.800 292.463 166.913 292.869 C 167.712 293.161,168.188 293.142,168.596 292.803 C 169.183 292.316,170.000 292.560,170.000 293.224 C 170.000 293.431,169.685 293.611,169.300 293.625 C 168.742 293.646,168.774 293.721,169.459 293.997 C 171.044 294.637,171.048 295.316,169.466 295.132 C 168.548 295.025,167.953 295.145,167.832 295.462 C 167.500 296.325,175.976 298.742,186.600 300.815 C 198.867 303.208,220.286 301.876,232.700 297.949 C 234.370 297.421,234.337 297.145,232.500 296.291 L 231.000 295.595 233.301 295.697 C 235.413 295.792,235.601 295.730,235.601 294.949 C 235.600 293.662,236.670 291.366,237.796 290.240 C 238.348 289.688,238.800 289.042,238.800 288.805 C 238.800 288.568,239.194 288.228,239.676 288.050 C 240.425 287.773,240.310 287.688,238.876 287.458 C 236.968 287.154,236.689 286.544,238.273 286.146 C 238.864 285.998,239.809 285.635,240.373 285.341 C 240.938 285.046,241.597 284.804,241.839 284.802 C 242.080 284.801,242.693 284.440,243.200 284.000 C 243.707 283.560,244.365 283.200,244.661 283.200 C 244.958 283.200,245.200 283.020,245.200 282.800 C 245.200 282.580,245.470 282.400,245.800 282.400 C 246.130 282.400,246.400 282.201,246.400 281.957 C 246.400 281.693,246.117 281.630,245.700 281.800 C 240.530 283.910,231.165 286.914,228.200 287.413 C 227.320 287.561,225.700 287.926,224.600 288.225 C 223.500 288.523,221.430 288.888,220.000 289.035 C 218.570 289.182,217.130 289.462,216.800 289.657 C 216.378 289.906,216.497 289.952,217.200 289.813 C 219.044 289.447,224.507 289.212,225.480 289.456 C 227.311 289.915,226.515 291.344,224.200 291.753 C 221.791 292.178,219.165 293.219,219.428 293.645 C 219.606 293.933,225.039 294.656,225.700 294.480 C 225.865 294.436,226.000 294.670,226.000 295.000 C 226.000 295.495,225.267 295.600,221.800 295.600 C 217.867 295.600,217.600 295.651,217.600 296.400 C 217.600 297.111,217.867 297.200,220.000 297.200 C 222.898 297.200,223.247 297.974,220.792 298.957 C 218.663 299.808,217.712 299.768,217.107 298.800 C 216.472 297.783,214.714 297.699,214.882 298.694 C 214.970 299.210,214.587 299.489,213.400 299.777 C 212.520 299.990,211.710 300.268,211.600 300.395 C 211.490 300.523,210.950 300.650,210.400 300.679 C 209.850 300.707,207.510 300.895,205.200 301.097 C 202.890 301.298,200.592 301.317,200.094 301.139 C 199.596 300.961,197.076 300.714,194.494 300.590 C 186.242 300.193,181.805 298.400,189.076 298.400 C 190.431 298.400,191.612 297.696,191.360 297.039 C 191.071 296.286,189.255 295.982,187.464 296.386 C 185.236 296.888,182.800 296.463,182.800 295.572 C 182.800 295.015,183.236 294.786,184.700 294.574 C 185.745 294.422,186.780 294.189,187.000 294.055 C 187.441 293.787,187.668 293.731,188.700 293.634 C 190.426 293.472,186.477 292.400,184.154 292.400 C 182.106 292.400,181.436 292.236,180.774 291.574 C 180.151 290.951,179.659 290.811,178.774 291.006 C 178.041 291.167,177.600 291.101,177.600 290.832 C 177.600 290.594,177.195 290.394,176.700 290.386 C 176.205 290.378,175.380 290.139,174.866 289.854 L 173.933 289.336 174.966 288.659 C 175.535 288.286,176.000 288.166,176.000 288.391 C 176.000 288.616,175.820 288.800,175.600 288.800 C 175.380 288.800,175.200 288.989,175.200 289.220 C 175.200 289.489,176.096 289.569,177.700 289.443 C 179.075 289.335,179.795 289.339,179.300 289.451 C 178.805 289.564,178.400 289.827,178.400 290.035 C 178.400 290.392,178.825 290.343,181.800 289.638 C 182.460 289.482,183.720 289.480,184.600 289.635 C 185.480 289.789,186.275 289.845,186.367 289.758 C 186.458 289.671,186.278 289.597,185.967 289.594 C 185.500 289.589,185.506 289.519,186.000 289.200 C 186.467 288.898,186.356 288.811,185.496 288.806 C 183.934 288.797,177.742 287.385,172.800 285.910 C 170.490 285.221,168.111 284.663,167.512 284.671 C 166.914 284.678,166.507 284.551,166.607 284.388 C 166.708 284.226,166.207 283.873,165.495 283.604 C 164.783 283.336,163.357 282.775,162.326 282.358 C 160.165 281.484,160.000 281.459,160.000 282.000 M164.159 285.798 C 164.576 286.115,165.071 286.280,165.259 286.164 C 165.921 285.754,165.587 285.374,164.500 285.298 C 163.462 285.225,163.442 285.253,164.159 285.798 M255.544 287.623 C 254.802 288.269,254.771 288.358,255.400 288.036 C 256.757 287.342,257.422 286.813,256.944 286.806 C 256.694 286.803,256.064 287.170,255.544 287.623 M191.700 290.276 C 192.085 290.376,192.715 290.376,193.100 290.276 C 193.485 290.175,193.170 290.093,192.400 290.093 C 191.630 290.093,191.315 290.175,191.700 290.276 M160.337 292.834 C 162.777 294.042,163.793 294.367,164.117 294.043 C 164.441 293.719,164.350 293.597,163.780 293.591 C 163.351 293.585,161.920 293.125,160.600 292.567 C 156.813 290.966,156.731 291.050,160.337 292.834 M247.200 292.000 C 246.430 292.422,245.980 292.766,246.200 292.766 C 246.420 292.766,247.230 292.422,248.000 292.000 C 248.770 291.578,249.220 291.234,249.000 291.234 C 248.780 291.234,247.970 291.578,247.200 292.000 M243.892 293.092 C 243.062 293.178,242.475 293.397,242.587 293.578 C 242.803 293.929,240.696 294.933,239.743 294.933 C 239.430 294.933,239.322 295.082,239.504 295.264 C 239.802 295.562,244.822 293.711,245.468 293.065 C 245.614 292.919,245.658 292.830,245.567 292.867 C 245.475 292.904,244.721 293.005,243.892 293.092 M240.000 294.000 C 240.000 294.220,240.259 294.400,240.576 294.400 C 240.893 294.400,241.264 294.220,241.400 294.000 C 241.536 293.780,241.277 293.600,240.824 293.600 C 240.371 293.600,240.000 293.780,240.000 294.000 M164.621 294.365 C 164.500 294.562,164.941 294.910,165.600 295.140 C 167.056 295.648,167.121 295.502,165.821 294.650 C 165.282 294.298,164.743 294.169,164.621 294.365 M175.780 295.555 C 176.670 295.589,176.847 295.713,176.500 296.060 C 175.885 296.675,172.633 296.760,171.842 296.181 C 170.985 295.554,171.262 295.390,173.067 295.455 C 173.910 295.486,175.131 295.531,175.780 295.555 M237.600 295.512 C 237.600 295.974,235.154 296.815,234.641 296.529 C 234.330 296.355,234.324 296.418,234.622 296.743 C 234.939 297.089,235.569 297.026,237.144 296.491 C 238.299 296.098,239.114 295.647,238.955 295.488 C 238.569 295.103,237.600 295.120,237.600 295.512 M182.400 298.000 C 182.400 298.844,181.770 299.022,180.849 298.439 C 180.134 297.986,180.625 297.200,181.624 297.200 C 182.133 297.200,182.400 297.475,182.400 298.000 " stroke="none" fill="#7c9abc" fill-rule="evenodd"></path></g></svg>