<svg id="svg" version="1.1" xmlns="http://www.w3.org/2000/svg" xmlns:xlink="http://www.w3.org/1999/xlink" width="400" height="435.0802139037433" viewBox="0, 0, 400,435.0802139037433"><g id="svgg"><path id="path0" d="M164.800 39.662 C 157.306 42.898,148.963 46.435,134.800 52.382 C 130.510 54.183,124.300 56.800,121.000 58.197 C 111.282 62.312,99.981 67.062,97.400 68.117 L 95.000 69.098 89.932 76.449 C 87.145 80.492,82.971 86.590,80.658 90.000 C 78.345 93.410,76.009 96.830,75.469 97.600 C 70.403 104.813,57.200 124.496,57.200 124.836 C 57.200 125.315,59.838 131.660,64.004 141.200 C 65.493 144.610,68.512 151.630,70.713 156.800 C 74.567 165.853,76.399 170.118,82.567 184.400 L 85.418 191.000 107.479 191.103 L 129.540 191.207 129.972 192.514 C 131.372 196.757,135.733 199.068,140.800 198.253 L 142.600 197.963 147.800 205.210 C 150.660 209.196,154.350 214.318,156.000 216.592 C 157.650 218.866,160.113 222.263,161.474 224.140 C 164.431 228.220,161.936 227.647,182.600 228.993 C 191.400 229.566,202.340 230.281,206.911 230.583 L 215.222 231.131 219.911 235.444 C 224.382 239.556,232.111 246.788,240.386 254.602 C 242.484 256.583,246.719 260.543,249.797 263.402 C 254.956 268.194,257.912 270.957,274.400 286.402 C 277.590 289.390,281.261 292.817,282.557 294.018 L 284.914 296.200 284.659 284.600 C 284.519 278.220,284.286 263.169,284.141 251.154 L 283.878 229.307 286.839 228.655 C 288.468 228.296,298.890 226.192,310.000 223.979 C 321.110 221.766,330.312 219.830,330.449 219.678 C 330.586 219.525,332.380 214.270,334.437 208.000 L 338.176 196.600 352.392 182.292 L 366.608 167.983 366.123 161.692 C 365.856 158.231,365.178 149.190,364.616 141.600 C 364.053 134.010,363.484 126.450,363.351 124.800 C 363.152 122.337,362.623 120.619,360.396 115.200 C 358.905 111.570,357.025 106.980,356.219 105.000 C 352.519 95.911,347.166 82.776,346.275 80.600 C 345.006 77.503,345.369 77.652,312.800 66.789 C 308.950 65.504,301.030 62.808,295.200 60.796 C 289.370 58.784,281.450 56.088,277.600 54.805 C 273.750 53.521,265.020 50.555,258.200 48.213 C 233.148 39.609,235.208 40.171,226.800 39.656 C 218.997 39.178,196.343 37.902,183.200 37.201 C 178.910 36.971,174.680 36.713,173.800 36.625 C 172.484 36.495,170.889 37.033,164.800 39.662 M195.440 40.586 C 204.438 41.129,216.550 41.854,222.356 42.198 C 228.163 42.541,233.061 42.914,233.241 43.026 C 233.620 43.260,238.338 48.681,256.369 69.600 C 263.479 77.850,269.810 85.175,270.438 85.877 C 271.541 87.113,271.559 87.201,270.989 88.564 C 270.665 89.340,270.400 90.790,270.400 91.787 C 270.400 93.360,270.289 93.600,269.563 93.600 C 269.103 93.600,262.218 94.581,254.263 95.779 C 246.309 96.977,234.670 98.694,228.400 99.593 C 222.130 100.493,214.091 101.672,210.536 102.214 C 202.430 103.450,203.016 103.497,202.440 101.575 C 201.084 97.051,194.927 93.910,190.030 95.245 C 189.430 95.408,188.627 93.059,182.839 74.200 C 178.721 60.783,176.660 54.114,174.656 47.727 C 173.677 44.607,172.754 41.502,172.606 40.827 L 172.336 39.600 175.708 39.600 C 177.562 39.600,186.442 40.044,195.440 40.586 M166.400 42.616 C 166.400 42.803,155.830 55.054,155.198 55.600 C 155.071 55.710,150.752 60.660,145.602 66.600 C 128.081 86.806,129.760 85.157,127.701 84.180 C 121.197 81.094,114.762 85.786,115.295 93.228 L 115.497 96.058 109.249 99.078 C 102.287 102.443,93.930 106.445,81.200 112.509 C 79.110 113.505,74.360 115.778,70.645 117.560 C 63.467 121.003,62.785 121.244,63.651 120.031 C 64.227 119.224,70.334 110.277,77.790 99.317 C 80.215 95.751,85.481 88.011,89.490 82.117 L 96.781 71.400 100.090 70.035 C 104.524 68.207,118.473 62.342,123.200 60.318 C 125.290 59.423,129.250 57.751,132.000 56.601 C 143.041 51.985,153.711 47.486,159.400 45.046 C 165.165 42.574,166.400 42.146,166.400 42.616 M171.210 46.100 C 171.674 47.695,172.743 51.160,173.586 53.800 C 174.429 56.440,175.877 61.120,176.804 64.200 C 177.730 67.280,179.353 72.590,180.410 76.000 C 181.467 79.410,183.342 85.501,184.577 89.535 L 186.822 96.869 185.660 98.193 C 185.021 98.920,184.182 100.345,183.795 101.358 C 183.408 102.371,183.039 103.200,182.974 103.200 C 182.909 103.200,179.919 102.568,176.328 101.796 C 172.738 101.023,167.280 99.850,164.200 99.189 C 161.120 98.528,154.550 97.106,149.600 96.029 C 144.650 94.953,138.980 93.764,137.000 93.388 C 132.858 92.600,132.816 92.575,132.370 90.532 C 132.186 89.689,131.931 88.550,131.803 88.000 C 131.605 87.148,132.357 86.106,136.886 80.957 C 139.808 77.633,145.710 70.886,150.000 65.964 C 154.290 61.042,159.692 54.852,162.004 52.208 C 164.317 49.563,167.000 46.455,167.967 45.300 C 170.197 42.636,170.203 42.638,171.210 46.100 M254.200 49.804 C 261.680 52.374,271.940 55.881,277.000 57.598 C 295.597 63.909,305.208 67.177,314.000 70.181 C 318.950 71.872,326.240 74.335,330.200 75.655 C 339.832 78.865,339.818 78.523,330.400 80.561 C 327.870 81.108,323.820 82.028,321.400 82.604 C 318.980 83.180,312.590 84.638,307.200 85.843 C 301.810 87.049,295.558 88.477,293.306 89.017 C 288.039 90.281,287.809 90.271,287.178 88.747 C 285.448 84.570,280.481 82.286,276.400 83.790 C 275.410 84.155,274.321 84.543,273.981 84.652 C 273.561 84.787,271.886 83.149,268.781 79.565 C 266.261 76.658,264.015 74.081,263.790 73.839 C 263.564 73.598,260.125 69.620,256.147 65.000 C 252.169 60.380,246.728 54.087,244.057 51.015 C 241.386 47.944,239.200 45.268,239.200 45.069 C 239.200 44.620,238.038 44.253,254.200 49.804 M344.273 83.100 C 344.754 84.365,346.698 89.180,348.595 93.800 C 350.491 98.420,352.369 103.010,352.769 104.000 C 353.168 104.990,354.974 109.452,356.781 113.915 L 360.069 122.031 358.935 122.915 C 358.312 123.402,356.898 124.610,355.793 125.600 C 354.688 126.590,349.664 130.910,344.630 135.200 C 339.596 139.490,332.864 145.250,329.672 148.000 C 326.479 150.750,322.772 153.914,321.433 155.031 C 320.095 156.148,318.753 157.363,318.451 157.731 C 317.724 158.617,317.459 158.583,315.627 157.370 C 314.543 156.653,313.268 156.259,311.423 156.070 L 308.775 155.800 307.451 152.800 C 306.722 151.150,303.833 144.760,301.030 138.600 C 298.227 132.440,293.132 121.224,289.707 113.677 L 283.479 99.953 285.093 98.277 C 286.904 96.395,287.600 95.225,287.600 94.063 C 287.600 93.198,292.044 92.008,309.600 88.170 C 314.110 87.185,321.580 85.496,326.200 84.418 C 345.297 79.961,343.141 80.118,344.273 83.100 M127.119 87.067 C 130.586 89.242,130.351 94.979,126.704 97.202 C 121.853 100.160,115.929 94.366,118.574 89.251 C 120.057 86.382,124.300 85.297,127.119 87.067 M282.375 87.145 C 286.086 89.824,285.914 94.439,282.004 97.100 C 277.281 100.315,271.100 94.421,273.774 89.251 C 275.298 86.303,279.711 85.222,282.375 87.145 M139.400 96.805 C 142.480 97.467,147.430 98.536,150.400 99.180 C 153.370 99.824,160.570 101.362,166.400 102.599 C 184.260 106.387,182.837 105.946,183.406 107.874 C 183.675 108.784,184.278 110.067,184.747 110.726 C 185.916 112.367,186.209 111.698,180.145 121.228 C 175.359 128.749,169.031 138.726,159.486 153.800 C 157.953 156.220,156.117 159.100,155.405 160.200 C 154.693 161.300,151.722 165.980,148.803 170.600 C 141.483 182.185,141.942 181.629,140.103 181.127 C 139.277 180.901,138.572 180.690,138.537 180.658 C 138.503 180.626,137.827 176.280,137.034 171.000 C 134.858 156.495,134.103 151.524,132.420 140.600 C 131.572 135.100,130.394 127.270,129.801 123.200 C 129.209 119.130,128.197 112.393,127.553 108.229 C 126.390 100.701,126.400 100.034,127.686 100.006 C 128.260 99.994,130.857 97.450,131.433 96.336 C 131.886 95.459,132.233 95.239,132.913 95.395 C 133.401 95.507,136.320 96.142,139.400 96.805 M272.911 98.176 C 274.823 100.009,276.719 100.794,279.241 100.798 C 280.641 100.800,280.719 100.883,282.004 103.700 C 282.731 105.295,284.272 108.670,285.429 111.200 C 286.586 113.730,290.621 122.640,294.397 131.000 C 298.172 139.360,302.328 148.540,303.633 151.400 C 306.389 157.442,306.336 157.129,304.848 158.554 C 303.822 159.537,302.910 161.201,302.246 163.300 C 302.039 163.957,300.523 164.000,277.845 164.000 L 253.664 164.000 253.007 162.021 C 251.448 157.327,246.098 154.480,241.228 155.752 C 238.564 156.449,238.759 156.543,235.631 153.060 C 230.536 147.387,209.313 124.083,204.511 118.888 C 199.113 113.048,199.148 113.115,200.654 111.543 C 201.234 110.938,202.031 109.488,202.426 108.322 L 203.143 106.200 207.472 105.551 C 209.852 105.193,213.870 104.615,216.400 104.265 C 218.930 103.914,225.860 102.903,231.800 102.017 C 237.740 101.131,246.380 99.854,251.000 99.179 C 255.620 98.505,261.650 97.623,264.400 97.220 C 271.221 96.219,270.822 96.175,272.911 98.176 M196.997 99.156 C 201.145 101.956,201.496 107.101,197.761 110.381 C 193.841 113.822,187.700 112.128,186.238 107.202 C 184.295 100.661,191.379 95.364,196.997 99.156 M119.109 99.373 C 119.929 99.908,121.275 100.468,122.100 100.618 C 122.925 100.767,123.600 101.041,123.600 101.228 C 123.600 101.414,124.771 109.269,126.203 118.683 C 127.634 128.097,129.799 142.370,131.014 150.400 C 132.228 158.430,133.759 168.420,134.415 172.600 C 135.865 181.841,135.888 180.951,134.177 181.960 C 132.250 183.098,132.642 183.274,127.335 178.888 C 124.731 176.736,120.260 173.105,117.400 170.818 C 114.540 168.532,110.760 165.464,109.000 164.001 C 107.240 162.539,99.050 155.876,90.800 149.196 C 66.980 129.907,61.599 125.488,61.622 125.236 C 61.633 125.106,63.838 123.966,66.522 122.702 C 69.205 121.438,75.270 118.548,80.000 116.281 C 84.730 114.014,92.361 110.368,96.959 108.179 C 101.556 105.991,107.946 102.909,111.159 101.331 C 118.006 97.968,117.243 98.156,119.109 99.373 M191.297 114.896 C 192.607 115.200,193.736 115.212,194.943 114.936 L 196.691 114.536 203.046 121.560 C 206.541 125.423,210.492 129.758,211.826 131.192 C 213.160 132.626,216.025 135.780,218.193 138.200 C 220.360 140.620,223.228 143.772,224.567 145.205 C 228.422 149.333,231.142 152.326,235.740 157.500 L 236.539 158.400 235.720 159.300 C 234.451 160.693,233.995 161.809,233.686 164.283 L 233.400 166.564 231.200 167.067 C 229.990 167.344,224.770 168.544,219.600 169.734 C 214.430 170.923,207.950 172.394,205.200 173.003 C 202.450 173.611,195.700 175.151,190.200 176.424 C 184.700 177.698,173.360 180.288,165.000 182.180 C 156.640 184.071,149.137 185.773,148.327 185.960 C 146.936 186.282,146.787 186.217,145.627 184.774 C 144.137 182.920,144.141 183.105,145.555 181.065 C 146.548 179.633,150.604 173.252,161.487 156.000 C 162.805 153.910,166.635 147.880,169.998 142.600 C 173.361 137.320,178.820 128.719,182.131 123.486 C 186.708 116.249,188.299 114.030,188.774 114.214 C 189.118 114.347,190.254 114.654,191.297 114.896 M360.995 129.900 C 361.145 132.265,361.792 141.040,362.433 149.400 C 363.073 157.760,363.598 165.148,363.599 165.818 C 363.600 166.921,338.833 192.589,337.262 193.113 C 337.055 193.182,334.211 190.061,330.943 186.177 C 327.674 182.293,323.411 177.225,321.469 174.914 L 317.939 170.714 318.809 168.691 C 319.508 167.065,319.652 166.077,319.540 163.658 L 319.400 160.648 334.000 148.084 C 342.030 141.173,350.220 134.150,352.200 132.477 C 354.180 130.804,356.760 128.572,357.932 127.517 C 360.741 124.991,360.682 124.945,360.995 129.900 M66.867 133.500 C 68.975 135.205,75.340 140.380,81.011 145.000 C 91.019 153.154,92.911 154.689,103.023 162.861 C 109.660 168.226,116.475 173.759,123.392 179.400 C 126.629 182.040,129.560 184.421,129.905 184.692 C 130.439 185.112,130.460 185.422,130.050 186.792 L 129.568 188.400 108.633 188.400 C 92.360 188.400,87.611 188.289,87.307 187.900 C 86.937 187.426,82.837 178.029,79.585 170.200 C 78.762 168.220,77.145 164.440,75.991 161.800 C 74.837 159.160,73.485 156.010,72.986 154.800 C 72.488 153.590,69.926 147.605,67.294 141.500 C 64.661 135.395,62.626 130.400,62.771 130.400 C 62.915 130.400,64.759 131.795,66.867 133.500 M245.386 158.438 C 249.749 159.537,251.994 164.480,250.001 168.598 C 247.503 173.758,240.304 173.992,237.384 169.008 C 234.687 164.406,237.684 158.874,243.323 158.047 C 243.500 158.021,244.429 158.197,245.386 158.438 M313.632 159.616 C 319.083 162.397,317.012 170.797,310.874 170.799 C 307.152 170.801,304.202 166.907,305.178 163.281 C 306.171 159.593,310.179 157.855,313.632 159.616 M303.009 168.420 C 304.888 172.587,310.117 174.732,314.218 173.018 L 315.610 172.437 319.361 176.918 C 321.424 179.383,325.665 184.431,328.785 188.135 C 334.748 195.214,334.890 195.522,332.721 196.636 C 331.994 197.009,326.810 200.052,321.200 203.398 C 315.590 206.745,306.500 212.148,301.000 215.405 C 295.500 218.662,289.218 222.390,287.040 223.690 C 283.992 225.511,283.001 225.933,282.734 225.527 C 280.675 222.397,251.458 173.343,251.305 172.759 C 251.192 172.327,251.393 171.650,251.751 171.254 C 252.110 170.858,252.689 169.694,253.039 168.667 L 253.675 166.800 277.977 166.800 L 302.279 166.800 303.009 168.420 M235.684 171.493 C 236.487 172.534,237.009 173.569,236.843 173.793 C 230.992 181.723,211.502 207.609,211.293 207.729 C 211.132 207.820,209.110 207.374,206.800 206.736 C 204.490 206.099,200.620 205.045,198.200 204.394 C 195.780 203.744,190.110 202.202,185.600 200.969 C 181.090 199.736,175.780 198.301,173.800 197.780 C 171.820 197.260,166.150 195.738,161.200 194.398 C 156.250 193.058,151.068 191.656,149.685 191.282 C 147.624 190.724,147.191 190.464,147.285 189.839 C 147.407 189.032,147.028 189.142,158.400 186.611 C 161.150 185.998,167.990 184.445,173.600 183.159 C 179.210 181.873,186.230 180.270,189.200 179.597 C 192.170 178.924,198.470 177.469,203.200 176.364 C 207.930 175.260,212.700 174.195,213.800 173.997 C 214.900 173.800,219.490 172.744,224.000 171.652 C 234.349 169.145,233.878 169.151,235.684 171.493 M264.882 201.400 L 280.986 228.200 281.241 243.200 C 281.692 269.711,281.799 283.934,281.551 284.182 C 281.418 284.315,280.547 282.574,279.617 280.312 C 278.686 278.050,276.515 272.870,274.793 268.800 C 273.071 264.730,269.828 256.990,267.585 251.600 C 265.342 246.210,262.377 239.100,260.995 235.800 C 258.579 230.031,256.186 220.045,254.190 207.400 C 254.051 206.520,253.417 203.010,252.782 199.600 C 252.147 196.190,250.890 189.440,249.987 184.600 C 249.085 179.760,248.250 175.464,248.132 175.053 C 247.432 172.628,250.376 177.259,264.882 201.400 M245.230 175.667 C 245.356 175.861,246.051 179.211,246.774 183.110 C 247.497 187.010,248.678 193.260,249.399 197.000 C 250.119 200.740,250.929 205.150,251.199 206.800 C 251.469 208.450,252.390 213.463,253.245 217.940 C 255.161 227.969,255.143 227.362,253.500 226.639 C 248.899 224.616,237.828 219.650,224.558 213.656 C 220.134 211.659,216.025 209.838,215.425 209.610 C 213.966 209.055,213.061 210.443,227.139 191.637 L 239.670 174.898 242.335 175.106 C 243.801 175.221,245.103 175.474,245.230 175.667 M141.591 184.726 C 145.229 187.420,145.258 192.173,141.650 194.624 C 137.779 197.255,132.400 194.329,132.400 189.593 C 132.400 185.128,138.074 182.123,141.591 184.726 M157.662 196.369 C 162.358 197.660,171.960 200.266,179.000 202.161 C 190.029 205.129,201.247 208.181,208.633 210.222 L 210.667 210.784 212.120 217.892 C 212.920 221.801,213.696 225.704,213.844 226.565 L 214.113 228.129 208.757 227.860 C 205.810 227.711,198.450 227.238,192.400 226.809 C 186.350 226.379,177.943 225.812,173.718 225.549 C 169.493 225.285,165.889 224.964,165.709 224.835 C 165.282 224.527,159.845 217.063,147.255 199.500 L 144.746 196.000 145.625 194.765 C 146.692 193.267,146.082 193.186,157.662 196.369 M334.271 199.500 C 334.173 199.665,332.886 203.580,331.410 208.200 C 329.934 212.820,328.518 216.816,328.263 217.080 C 328.008 217.344,321.410 218.829,313.600 220.379 C 305.790 221.930,297.691 223.544,295.602 223.967 C 293.512 224.390,291.727 224.661,291.635 224.568 C 291.422 224.355,291.003 224.628,296.600 221.336 C 305.737 215.962,323.422 205.455,328.585 202.334 C 333.438 199.400,334.699 198.772,334.271 199.500 M219.083 214.364 C 221.457 215.444,227.090 217.976,231.600 219.991 C 236.110 222.006,243.420 225.288,247.845 227.286 L 255.891 230.917 257.200 234.159 C 257.919 235.941,259.539 239.830,260.798 242.800 C 264.785 252.207,275.138 276.864,277.804 283.305 C 279.603 287.649,282.246 289.900,249.800 259.460 C 222.869 234.194,219.369 230.921,218.344 230.040 C 217.500 229.314,217.152 228.435,216.612 225.666 C 216.240 223.760,215.500 220.130,214.966 217.600 C 214.433 215.070,213.997 212.865,213.998 212.700 C 214.001 212.147,214.743 212.390,219.083 214.364 M85.200 335.243 C 70.241 336.125,61.178 346.782,65.562 358.336 C 68.123 365.084,73.109 368.038,83.600 369.020 C 97.779 370.348,103.476 374.337,103.347 382.847 C 103.167 394.807,89.359 399.740,69.933 394.783 C 65.917 393.758,65.860 393.765,65.074 395.414 C 64.101 397.454,64.028 397.386,68.498 398.587 C 91.017 404.639,107.370 398.085,107.393 383.000 C 107.411 371.660,100.929 366.596,84.364 365.009 C 72.566 363.879,66.537 357.814,68.952 349.506 C 71.797 339.719,85.940 336.601,103.611 341.865 C 104.027 341.989,104.410 341.561,104.809 340.523 C 105.132 339.686,105.458 338.862,105.533 338.694 C 106.298 336.991,93.218 334.771,85.200 335.243 M307.200 335.235 C 292.086 336.152,283.178 346.688,287.576 358.444 C 290.021 364.979,295.261 368.053,305.600 369.019 C 320.043 370.368,326.494 375.180,325.417 383.800 C 324.005 395.105,311.508 399.397,292.868 394.979 C 287.623 393.736,287.851 393.712,286.998 395.604 C 286.118 397.557,285.822 397.302,290.400 398.535 C 313.025 404.627,329.400 398.108,329.400 383.008 C 329.400 371.673,322.999 366.627,306.600 365.032 C 294.538 363.860,288.516 357.885,290.952 349.506 C 293.800 339.709,307.888 336.608,325.634 341.871 C 326.218 342.044,327.978 338.644,327.534 338.200 C 327.228 337.894,320.479 336.057,318.177 335.653 C 314.560 335.019,312.230 334.930,307.200 335.235 M120.400 368.000 L 120.400 400.400 122.400 400.400 L 124.400 400.400 124.400 368.000 L 124.400 335.600 122.400 335.600 L 120.400 335.600 120.400 368.000 M141.600 368.000 L 141.600 400.400 154.300 400.392 C 169.183 400.383,171.460 400.137,175.275 398.133 C 187.053 391.944,187.552 375.326,176.200 367.351 L 175.000 366.508 177.094 364.623 C 185.353 357.185,183.548 342.890,173.695 337.696 C 170.084 335.794,168.301 335.600,154.380 335.600 L 141.600 335.600 141.600 368.000 M196.800 368.000 L 196.800 400.442 198.900 400.321 L 201.000 400.200 201.000 368.000 L 201.000 335.800 198.900 335.679 L 196.800 335.558 196.800 368.000 M217.443 336.233 C 216.845 337.789,217.189 377.053,217.829 380.429 C 222.202 403.482,254.252 408.453,265.940 387.891 C 268.980 382.543,269.000 382.350,269.000 357.800 L 269.000 335.800 267.000 335.800 L 265.000 335.800 264.800 358.400 C 264.605 380.423,264.578 381.054,263.734 383.112 C 257.719 397.779,238.767 401.606,227.595 390.411 C 221.650 384.454,221.611 384.238,221.605 357.500 L 221.600 335.600 219.643 335.600 C 218.227 335.600,217.618 335.775,217.443 336.233 M171.928 341.379 C 180.714 346.246,180.430 358.779,171.425 363.531 L 169.400 364.600 157.841 364.728 C 148.596 364.830,146.215 364.750,145.947 364.328 C 145.539 363.685,145.483 340.651,145.888 340.245 C 146.047 340.087,151.492 340.012,157.988 340.079 L 169.800 340.200 171.928 341.379 M172.462 370.146 C 182.602 375.284,183.011 388.916,173.200 394.733 L 171.400 395.800 158.600 395.800 L 145.800 395.800 145.688 383.200 C 145.627 376.270,145.677 370.185,145.801 369.678 L 146.026 368.757 158.113 368.878 L 170.200 369.000 172.462 370.146 " stroke="none" fill="#0c0d0d" fill-rule="evenodd"></path><path id="path1" d="M190.900 37.476 C 191.285 37.576,191.915 37.576,192.300 37.476 C 192.685 37.375,192.370 37.293,191.600 37.293 C 190.830 37.293,190.515 37.375,190.900 37.476 M146.040 58.079 C 143.042 58.414,141.875 58.777,136.400 61.085 C 122.189 67.073,109.120 72.583,98.800 76.938 C 95.390 78.377,92.331 79.610,92.001 79.677 C 91.672 79.745,91.017 80.459,90.545 81.263 C 90.074 82.068,88.437 84.498,86.909 86.663 C 84.257 90.418,81.008 95.189,69.533 112.175 C 66.719 116.341,64.473 119.807,64.543 119.877 C 64.654 119.988,69.685 117.620,83.400 111.005 C 85.380 110.050,91.770 106.991,97.600 104.208 C 103.430 101.425,109.741 98.395,111.624 97.474 L 115.047 95.800 114.873 92.721 C 114.430 84.863,121.025 80.826,128.846 84.168 C 129.430 84.418,142.671 69.855,150.488 60.367 L 152.375 58.076 150.458 57.938 C 149.404 57.862,147.416 57.926,146.040 58.079 M154.361 61.564 C 152.732 63.425,150.500 65.965,149.400 67.209 C 148.300 68.453,145.870 71.242,144.000 73.406 C 142.130 75.570,138.665 79.540,136.300 82.228 L 132.000 87.115 132.683 89.718 C 133.309 92.107,133.466 92.340,134.583 92.536 C 137.208 92.997,154.083 96.529,159.000 97.646 C 161.860 98.296,168.373 99.698,173.474 100.761 L 182.747 102.694 183.252 101.475 C 183.530 100.804,184.349 99.480,185.073 98.532 L 186.389 96.808 184.989 92.304 C 184.220 89.827,182.412 83.930,180.972 79.200 C 179.532 74.470,177.545 68.053,176.557 64.939 L 174.761 59.278 169.681 59.015 C 166.886 58.870,162.962 58.623,160.961 58.466 L 157.322 58.180 154.361 61.564 M178.840 60.075 C 179.039 60.446,180.381 64.676,181.824 69.475 C 183.267 74.274,185.328 80.990,186.405 84.400 C 187.482 87.810,188.641 91.590,188.980 92.800 L 189.597 95.000 192.628 94.867 C 197.593 94.650,201.379 97.094,202.814 101.443 C 203.231 102.707,203.377 102.805,204.535 102.610 C 205.231 102.493,211.020 101.673,217.400 100.788 C 223.780 99.904,232.330 98.656,236.400 98.015 C 240.470 97.375,249.110 96.118,255.600 95.222 C 262.090 94.326,267.985 93.496,268.700 93.378 C 269.863 93.186,270.000 93.024,270.000 91.832 C 270.000 91.100,270.265 89.751,270.588 88.834 L 271.176 87.167 269.079 84.884 C 267.926 83.628,266.716 82.232,266.391 81.783 C 266.066 81.334,264.810 80.677,263.600 80.324 C 262.390 79.970,255.280 77.581,247.800 75.014 C 203.239 59.720,208.794 61.269,196.000 60.570 C 190.170 60.251,183.843 59.858,181.939 59.695 C 178.765 59.424,178.508 59.456,178.840 60.075 M85.131 82.602 C 85.020 82.714,81.776 84.127,77.923 85.743 C 68.119 89.855,65.822 91.615,61.108 98.629 C 59.641 100.813,55.919 106.290,52.837 110.800 C 30.542 143.427,31.542 141.620,31.569 149.200 C 31.587 154.370,31.681 154.644,40.191 174.400 C 44.314 183.970,48.587 193.960,49.687 196.600 C 53.070 204.715,56.553 209.047,61.752 211.606 C 66.818 214.100,66.935 214.113,86.800 214.367 L 105.000 214.600 108.000 216.035 C 112.550 218.211,113.130 218.900,128.181 239.990 C 131.184 244.197,132.965 246.007,136.096 248.031 C 140.920 251.149,140.940 251.152,171.000 253.205 C 186.170 254.241,187.546 254.607,192.307 258.877 C 194.423 260.775,209.961 275.274,216.000 280.986 C 217.430 282.338,221.480 286.125,225.000 289.401 C 228.520 292.677,232.750 296.646,234.400 298.221 C 239.514 303.103,240.703 304.040,242.789 304.833 C 248.238 306.903,254.514 304.335,257.044 299.000 C 257.979 297.027,257.992 296.827,257.996 284.338 L 258.000 271.675 255.300 269.098 C 253.815 267.681,246.563 260.869,239.185 253.961 C 231.806 247.052,223.463 239.240,220.644 236.600 C 217.825 233.960,215.401 231.762,215.259 231.714 C 214.617 231.502,181.212 229.139,171.400 228.612 C 163.299 228.176,163.952 228.441,161.183 224.476 C 159.847 222.564,157.443 219.200,155.841 217.000 C 149.484 208.271,145.879 203.278,144.082 200.716 C 142.781 198.860,142.015 198.103,141.600 198.264 C 137.030 200.037,130.904 197.141,129.784 192.679 L 129.515 191.607 107.272 191.503 L 85.029 191.400 83.681 188.200 C 82.939 186.440,81.652 183.380,80.820 181.400 C 79.988 179.420,77.635 173.930,75.591 169.200 C 73.547 164.470,70.570 157.540,68.976 153.800 C 63.243 140.351,61.254 135.719,59.045 130.669 C 56.424 124.679,56.420 124.645,58.046 122.400 C 58.731 121.454,60.768 118.502,62.573 115.840 C 64.378 113.178,67.268 108.930,68.997 106.400 C 75.730 96.545,77.173 94.426,80.576 89.400 C 82.513 86.540,84.467 83.795,84.918 83.300 C 85.600 82.553,85.784 81.949,85.131 82.602 M272.861 83.818 C 273.224 84.189,273.740 84.420,274.006 84.331 C 274.273 84.242,273.975 83.939,273.345 83.656 C 272.273 83.176,272.242 83.186,272.861 83.818 M287.800 89.200 C 287.936 89.420,288.532 89.587,289.124 89.572 C 290.085 89.547,290.114 89.507,289.400 89.200 C 288.289 88.722,287.505 88.722,287.800 89.200 M295.000 91.849 C 293.900 92.108,291.933 92.563,290.629 92.860 C 288.331 93.383,288.240 93.454,287.679 95.150 C 287.360 96.113,286.404 97.596,285.553 98.447 L 284.006 99.994 285.193 102.584 C 285.845 104.008,286.818 106.215,287.355 107.487 C 287.891 108.759,289.246 111.749,290.365 114.131 C 291.484 116.513,292.400 118.523,292.400 118.598 C 292.400 118.673,293.682 121.494,295.249 124.867 C 296.816 128.240,299.048 133.160,300.209 135.800 C 308.954 155.682,308.910 155.598,310.510 155.610 C 312.559 155.625,314.832 156.273,316.086 157.201 L 317.244 158.056 319.557 156.128 C 320.829 155.068,324.807 151.680,328.396 148.600 C 331.985 145.520,335.180 142.811,335.496 142.579 C 335.981 142.225,335.758 141.402,334.093 137.379 C 333.005 134.751,329.999 127.380,327.412 121.000 C 318.929 100.073,317.832 98.828,303.600 93.981 C 300.190 92.820,297.310 91.759,297.200 91.624 C 297.090 91.489,296.100 91.591,295.000 91.849 M131.477 97.177 C 131.094 97.825,129.879 98.940,128.776 99.654 C 127.043 100.777,126.800 101.093,126.988 101.977 C 127.107 102.540,127.479 104.980,127.813 107.400 C 128.148 109.820,128.965 115.220,129.631 119.400 C 130.296 123.580,131.904 134.200,133.204 143.000 C 134.504 151.800,136.095 162.330,136.739 166.400 C 137.383 170.470,138.135 175.300,138.409 177.133 C 138.684 178.967,139.109 180.527,139.354 180.600 C 141.647 181.285,141.782 181.229,142.972 179.084 C 143.609 177.938,144.983 175.740,146.026 174.200 C 147.069 172.660,151.384 165.910,155.615 159.200 C 159.846 152.490,164.291 145.470,165.493 143.600 C 167.668 140.215,170.907 135.109,177.000 125.461 C 178.760 122.674,181.386 118.554,182.836 116.306 L 185.473 112.218 184.363 110.686 C 183.753 109.843,183.137 108.623,182.994 107.974 C 182.643 106.374,182.557 106.344,173.000 104.407 C 168.380 103.471,161.450 102.002,157.600 101.143 C 133.577 95.784,132.405 95.607,131.477 97.177 M257.600 98.618 C 251.110 99.584,236.380 101.728,224.866 103.384 C 201.684 106.718,203.359 106.364,202.999 108.007 C 202.854 108.665,202.104 110.123,201.331 111.245 L 199.927 113.287 201.073 114.543 C 201.703 115.235,203.387 117.060,204.814 118.600 C 206.242 120.140,208.938 123.108,210.805 125.196 C 212.672 127.284,215.373 130.254,216.807 131.796 C 219.586 134.786,222.792 138.300,225.400 141.216 C 226.280 142.200,229.160 145.345,231.800 148.204 C 234.440 151.064,237.097 154.004,237.705 154.739 C 238.735 155.982,238.898 156.044,240.065 155.637 C 245.318 153.806,251.294 156.619,253.416 161.922 L 254.087 163.600 278.043 163.600 C 300.669 163.600,302.000 163.561,302.000 162.894 C 302.000 161.850,303.507 159.133,304.667 158.085 L 305.680 157.170 303.669 152.485 C 302.563 149.908,300.846 146.090,299.854 144.000 C 298.863 141.910,297.339 138.580,296.468 136.600 C 295.597 134.620,293.047 128.950,290.801 124.000 C 288.555 119.050,285.594 112.480,284.222 109.400 C 280.391 100.801,280.661 101.201,278.690 101.191 C 276.513 101.180,274.159 100.075,272.422 98.249 C 270.763 96.506,272.009 96.475,257.600 98.618 M105.600 104.399 C 89.248 112.341,69.685 121.704,63.458 124.568 C 62.611 124.958,62.071 125.403,62.258 125.557 C 62.446 125.712,63.590 126.654,64.800 127.651 C 66.010 128.648,69.430 131.420,72.400 133.811 C 75.370 136.202,79.136 139.248,80.770 140.579 C 82.403 141.911,85.193 144.175,86.970 145.611 C 88.746 147.047,91.630 149.387,93.378 150.811 C 95.126 152.235,99.626 155.888,103.378 158.930 C 107.130 161.971,112.783 166.561,115.941 169.130 C 126.211 177.485,127.767 178.747,130.130 180.633 L 132.461 182.493 133.830 181.756 C 135.445 180.886,135.393 181.430,134.414 175.644 C 133.981 173.090,132.632 164.160,131.415 155.800 C 130.198 147.440,128.575 136.640,127.809 131.800 C 127.042 126.960,125.783 118.680,125.011 113.400 C 124.239 108.120,123.512 103.237,123.395 102.548 C 123.221 101.525,122.947 101.249,121.897 101.039 C 121.191 100.898,119.939 100.337,119.115 99.791 C 117.218 98.536,118.747 98.015,105.600 104.399 M186.059 118.153 C 184.751 120.159,182.137 124.230,180.250 127.200 C 174.507 136.235,170.238 142.959,163.995 152.800 C 160.715 157.970,156.766 164.180,155.218 166.600 C 153.671 169.020,150.709 173.682,148.637 176.960 L 144.869 182.921 145.893 184.469 C 146.562 185.480,147.140 185.951,147.559 185.828 C 149.519 185.251,155.749 183.795,164.601 181.845 C 170.101 180.633,176.941 179.075,179.801 178.383 C 182.660 177.691,188.960 176.252,193.800 175.185 C 198.640 174.118,206.470 172.348,211.200 171.252 C 215.930 170.156,222.815 168.588,226.500 167.767 L 233.200 166.275 233.200 164.988 C 233.200 163.400,234.121 160.716,235.172 159.239 L 235.961 158.132 230.080 151.731 C 226.846 148.210,220.870 141.670,216.800 137.197 C 212.730 132.724,206.538 125.943,203.041 122.127 L 196.682 115.190 194.241 115.434 C 192.565 115.602,191.273 115.494,190.118 115.092 L 188.436 114.506 186.059 118.153 M63.600 131.660 C 63.600 131.821,66.513 138.703,71.870 151.200 C 73.521 155.050,76.096 161.080,77.592 164.600 C 82.943 177.186,85.635 183.435,86.683 185.700 L 87.747 188.000 108.624 188.000 L 129.500 188.000 129.765 186.700 C 130.059 185.254,130.102 185.303,125.007 181.200 C 123.504 179.990,120.624 177.650,118.608 176.000 C 114.484 172.626,93.899 155.911,89.237 152.150 C 87.567 150.803,84.670 148.458,82.800 146.941 C 73.055 139.032,70.343 136.838,67.600 134.650 C 63.816 131.629,63.600 131.468,63.600 131.660 M334.800 147.897 C 333.810 148.700,332.096 150.177,330.991 151.179 C 329.885 152.180,326.885 154.766,324.323 156.924 L 319.665 160.848 319.885 163.749 C 320.067 166.157,319.959 166.976,319.252 168.576 C 318.783 169.635,318.400 170.565,318.400 170.642 C 318.400 170.719,319.615 172.197,321.100 173.926 C 322.585 175.655,325.420 179.010,327.400 181.382 C 329.380 183.754,331.968 186.799,333.151 188.148 C 334.334 189.496,335.570 191.005,335.897 191.500 C 337.901 194.531,339.929 185.805,339.237 177.130 C 339.003 174.199,338.434 166.490,337.971 160.000 C 336.924 145.300,337.112 146.020,334.800 147.897 M363.246 166.169 C 363.221 166.591,362.892 167.311,362.515 167.769 C 361.854 168.570,361.863 168.569,362.754 167.750 C 363.315 167.233,363.602 166.606,363.485 166.150 C 363.301 165.432,363.291 165.433,363.246 166.169 M253.628 168.516 C 253.389 169.240,252.778 170.438,252.271 171.178 L 251.349 172.524 260.121 187.162 C 264.945 195.213,269.705 203.150,270.698 204.800 C 271.690 206.450,274.886 211.798,277.799 216.685 L 283.095 225.571 291.248 220.729 C 301.941 214.378,309.043 210.161,315.315 206.437 C 318.128 204.767,321.654 202.680,323.152 201.800 C 331.824 196.704,333.986 195.372,333.993 195.121 C 333.997 194.967,333.055 193.735,331.900 192.382 C 330.745 191.029,329.080 189.050,328.200 187.984 C 327.320 186.918,324.107 183.095,321.060 179.488 L 315.520 172.929 313.364 173.529 C 309.224 174.682,304.596 172.710,302.817 169.036 L 301.929 167.200 277.995 167.200 L 254.062 167.200 253.628 168.516 M365.178 169.900 L 363.800 171.400 365.300 170.022 C 366.696 168.738,366.984 168.400,366.678 168.400 C 366.612 168.400,365.937 169.075,365.178 169.900 M222.600 172.367 C 217.100 173.623,208.010 175.690,202.400 176.960 C 196.790 178.230,188.870 180.057,184.800 181.020 C 180.730 181.982,172.900 183.772,167.400 184.996 C 151.320 188.578,147.855 189.434,147.713 189.862 C 147.580 190.260,151.996 191.565,167.200 195.620 C 183.650 200.006,186.803 200.854,193.400 202.667 C 197.140 203.694,202.668 205.192,205.683 205.996 L 211.167 207.457 219.283 196.671 C 223.748 190.738,228.399 184.515,229.620 182.842 C 230.840 181.169,232.944 178.371,234.295 176.625 L 236.751 173.449 235.575 172.111 C 234.929 171.375,234.400 170.598,234.400 170.386 C 234.400 169.753,233.067 169.977,222.600 172.367 M358.778 176.300 L 357.400 177.800 358.900 176.422 C 360.296 175.138,360.584 174.800,360.278 174.800 C 360.212 174.800,359.537 175.475,358.778 176.300 M231.600 186.247 C 227.090 192.300,221.467 199.854,219.104 203.032 L 214.809 208.812 217.304 209.998 C 218.677 210.650,222.500 212.380,225.800 213.841 C 229.100 215.303,234.320 217.627,237.400 219.005 C 250.479 224.861,254.103 226.431,254.234 226.300 C 254.310 226.223,253.656 222.300,252.780 217.581 C 251.905 212.861,250.013 202.520,248.576 194.600 C 247.139 186.680,245.784 179.279,245.565 178.154 L 245.166 176.108 243.083 175.887 C 241.937 175.765,240.730 175.570,240.400 175.453 C 239.976 175.303,237.400 178.462,231.600 186.247 M248.949 176.600 C 249.082 177.260,249.650 180.410,250.212 183.600 C 250.773 186.790,252.211 194.530,253.407 200.800 C 254.603 207.070,256.119 215.260,256.777 219.000 C 257.435 222.740,258.093 226.430,258.239 227.200 C 258.505 228.608,262.472 238.556,265.913 246.445 L 267.765 250.690 269.047 250.155 C 270.074 249.725,279.630 247.600,280.532 247.600 C 280.659 247.600,280.823 248.725,280.895 250.100 C 280.968 251.475,280.970 248.910,280.901 244.400 C 280.831 239.890,280.674 234.369,280.551 232.132 L 280.327 228.064 277.715 223.732 C 276.279 221.349,273.910 217.380,272.452 214.911 C 270.993 212.441,267.559 206.681,264.821 202.111 C 262.082 197.540,257.420 189.750,254.461 184.800 C 248.375 174.620,248.624 174.990,248.949 176.600 M353.178 181.900 L 351.800 183.400 353.300 182.022 C 354.696 180.738,354.984 180.400,354.678 180.400 C 354.612 180.400,353.937 181.075,353.178 181.900 M346.378 188.700 L 345.000 190.200 346.500 188.822 C 347.896 187.538,348.184 187.200,347.878 187.200 C 347.812 187.200,347.137 187.875,346.378 188.700 M340.575 194.500 L 339.400 195.800 340.700 194.625 C 341.415 193.979,342.000 193.394,342.000 193.325 C 342.000 193.016,341.670 193.288,340.575 194.500 M145.828 195.013 C 145.084 196.150,145.046 196.072,148.611 200.800 C 150.069 202.734,152.383 205.935,162.055 219.400 C 166.304 225.316,164.740 224.580,174.269 225.145 C 178.851 225.417,184.940 225.805,187.800 226.006 C 201.237 226.954,213.258 227.675,213.391 227.543 C 213.471 227.462,212.811 223.707,211.923 219.198 L 210.310 211.000 200.055 208.251 C 194.415 206.739,185.507 204.354,180.261 202.951 C 175.014 201.548,168.894 199.874,166.661 199.230 C 162.604 198.060,147.112 194.000,146.706 194.000 C 146.588 194.000,146.193 194.456,145.828 195.013 M326.600 203.846 C 326.160 204.187,323.190 206.012,320.000 207.902 C 316.810 209.791,312.175 212.566,309.699 214.068 C 307.224 215.571,305.114 216.800,305.012 216.800 C 304.909 216.800,303.604 217.585,302.112 218.544 C 300.621 219.504,297.996 221.055,296.280 221.991 C 292.057 224.296,292.378 224.327,301.274 222.462 C 305.523 221.572,309.675 220.723,310.500 220.577 C 311.467 220.406,312.000 220.093,312.000 219.697 C 312.000 219.359,315.545 215.509,319.878 211.141 C 324.211 206.774,327.676 203.206,327.578 203.213 C 327.480 203.220,327.040 203.505,326.600 203.846 M214.521 213.693 C 214.638 214.192,215.418 217.818,216.256 221.751 L 217.779 228.901 222.790 233.589 C 225.545 236.167,233.740 243.836,241.000 250.631 C 248.260 257.427,254.913 263.652,255.784 264.465 C 257.693 266.248,257.818 266.198,258.135 263.515 C 258.472 260.671,260.456 256.784,262.742 254.488 L 264.622 252.600 263.664 250.600 C 263.137 249.500,261.661 245.990,260.383 242.800 C 259.106 239.610,257.438 235.641,256.676 233.979 L 255.292 230.959 250.346 228.820 C 247.626 227.644,243.128 225.632,240.352 224.350 C 237.575 223.067,233.885 221.405,232.152 220.658 C 230.418 219.910,226.120 217.998,222.600 216.409 C 213.808 212.441,214.265 212.594,214.521 213.693 M309.400 224.417 C 308.728 224.722,301.058 226.283,287.400 228.894 L 284.600 229.430 284.492 238.115 C 284.433 242.892,284.458 246.800,284.548 246.800 C 284.638 246.800,286.403 246.452,288.469 246.027 C 299.640 243.728,305.180 238.877,308.598 228.400 C 309.208 226.530,309.885 224.775,310.102 224.500 C 310.556 223.927,310.496 223.920,309.400 224.417 M284.542 258.600 C 284.541 260.580,284.608 261.440,284.692 260.512 C 284.776 259.584,284.777 257.964,284.695 256.912 C 284.612 255.860,284.543 256.620,284.542 258.600 M281.342 276.600 C 281.341 278.580,281.408 279.440,281.492 278.512 C 281.576 277.584,281.577 275.964,281.495 274.912 C 281.412 273.860,281.343 274.620,281.342 276.600 M269.400 277.600 C 270.259 278.480,271.052 279.200,271.162 279.200 C 271.272 279.200,270.659 278.480,269.800 277.600 C 268.941 276.720,268.148 276.000,268.038 276.000 C 267.928 276.000,268.541 276.720,269.400 277.600 M276.165 283.883 C 277.521 285.342,278.400 285.745,278.400 284.910 C 278.400 284.776,278.276 284.790,278.125 284.941 C 277.974 285.093,277.119 284.538,276.225 283.708 L 274.600 282.200 276.165 283.883 M284.944 286.000 C 284.944 288.090,285.012 288.945,285.094 287.900 C 285.176 286.855,285.176 285.145,285.094 284.100 C 285.012 283.055,284.944 283.910,284.944 286.000 M121.300 335.487 C 121.905 335.578,122.895 335.578,123.500 335.487 C 124.105 335.395,123.610 335.320,122.400 335.320 C 121.190 335.320,120.695 335.395,121.300 335.487 M147.900 335.499 C 151.475 335.566,157.325 335.566,160.900 335.499 C 164.475 335.433,161.550 335.379,154.400 335.379 C 147.250 335.379,144.325 335.433,147.900 335.499 M197.907 335.490 C 198.626 335.579,199.706 335.577,200.307 335.486 C 200.908 335.395,200.320 335.322,199.000 335.324 C 197.680 335.326,197.188 335.401,197.907 335.490 M218.307 335.490 C 219.026 335.579,220.106 335.577,220.707 335.486 C 221.308 335.395,220.720 335.322,219.400 335.324 C 218.080 335.326,217.588 335.401,218.307 335.490 M266.995 335.487 L 269.193 335.640 269.302 356.820 L 269.411 378.000 269.405 356.700 L 269.400 335.400 267.098 335.367 L 264.796 335.334 266.995 335.487 M201.391 368.000 C 201.391 385.710,201.440 392.955,201.500 384.100 C 201.560 375.245,201.560 360.755,201.500 351.900 C 201.440 343.045,201.391 350.290,201.391 368.000 M216.986 357.000 C 216.986 368.440,217.037 373.062,217.100 367.272 C 217.162 361.482,217.162 352.122,217.100 346.472 C 217.037 340.822,216.986 345.560,216.986 357.000 " stroke="none" fill="#7cbbdb" fill-rule="evenodd"></path><path id="path2" d="M0.000 217.400 L 0.000 434.800 200.000 434.800 L 400.000 434.800 400.000 217.400 L 400.000 0.000 200.000 0.000 L 0.000 0.000 0.000 217.400 M192.800 37.400 C 199.510 37.724,207.880 38.168,211.400 38.386 C 214.920 38.604,221.490 38.982,226.000 39.228 L 234.200 39.674 282.400 56.082 C 308.910 65.106,333.930 73.609,338.000 74.976 L 345.400 77.462 348.630 85.431 C 350.407 89.814,353.262 96.820,354.974 101.000 C 362.776 120.046,363.501 122.046,363.742 125.200 C 363.868 126.850,364.427 133.960,364.983 141.000 C 365.540 148.040,366.231 157.040,366.520 161.000 L 367.045 168.200 354.423 180.821 C 347.480 187.762,341.046 194.265,340.125 195.271 C 338.585 196.952,338.142 198.014,334.646 208.408 C 332.555 214.628,330.689 219.871,330.500 220.060 C 330.311 220.249,325.846 221.217,320.578 222.210 C 309.019 224.390,310.189 223.753,308.442 228.817 C 304.717 239.619,299.438 243.884,286.666 246.409 L 284.333 246.871 284.564 256.135 C 285.103 277.757,285.260 296.400,284.903 296.400 C 284.698 296.400,282.836 294.804,280.765 292.854 C 278.694 290.903,272.770 285.352,267.600 280.518 L 258.200 271.729 258.000 284.765 C 257.810 297.170,257.758 297.877,256.934 299.400 C 254.193 304.463,248.038 306.827,242.789 304.833 C 240.703 304.040,239.514 303.103,234.400 298.221 C 232.750 296.646,228.520 292.677,225.000 289.401 C 221.480 286.125,217.430 282.338,216.000 280.986 C 209.961 275.274,194.423 260.775,192.307 258.877 C 187.546 254.607,186.170 254.241,171.000 253.205 C 140.940 251.152,140.920 251.149,136.096 248.031 C 132.965 246.007,131.184 244.197,128.181 239.990 C 113.130 218.900,112.550 218.211,108.000 216.035 L 105.000 214.600 86.800 214.367 C 66.935 214.113,66.818 214.100,61.752 211.606 C 56.553 209.047,53.070 204.715,49.687 196.600 C 48.587 193.960,44.314 183.970,40.191 174.400 C 31.681 154.644,31.587 154.370,31.569 149.200 C 31.542 141.620,30.542 143.427,52.837 110.800 C 55.919 106.290,59.641 100.813,61.108 98.629 C 65.779 91.679,68.327 89.717,77.768 85.798 C 81.271 84.344,84.421 83.003,84.768 82.817 C 85.116 82.631,87.470 79.425,90.000 75.693 C 94.034 69.742,94.797 68.829,96.200 68.276 C 97.080 67.929,101.670 66.003,106.400 63.997 C 122.962 56.970,140.911 49.392,151.400 44.997 C 160.379 41.235,165.901 38.879,168.800 37.576 C 171.755 36.247,169.353 36.264,192.800 37.400 M172.817 40.300 C 172.827 40.465,174.144 44.830,175.744 50.000 L 178.653 59.400 182.027 59.691 C 183.882 59.851,190.170 60.245,196.000 60.566 C 208.800 61.270,203.006 59.655,247.800 75.007 C 262.773 80.139,264.766 80.800,265.268 80.800 C 265.455 80.800,263.392 78.235,260.684 75.100 C 234.811 45.156,233.109 43.224,232.444 43.042 C 232.090 42.945,228.740 42.755,225.000 42.621 C 221.260 42.487,213.700 42.113,208.200 41.789 C 202.700 41.466,193.599 40.931,187.976 40.601 C 176.575 39.931,172.792 39.856,172.817 40.300 M162.200 44.243 C 160.440 45.024,156.480 46.715,153.400 47.999 C 150.320 49.284,144.200 51.856,139.800 53.715 C 125.249 59.865,116.286 63.639,109.200 66.602 C 96.272 72.007,97.290 71.383,94.221 75.784 C 92.737 77.913,91.585 79.715,91.661 79.789 C 91.737 79.862,94.950 78.586,98.800 76.954 C 106.131 73.845,116.073 69.646,126.200 65.381 C 129.500 63.991,134.169 62.021,136.576 61.002 C 142.426 58.527,144.713 57.972,149.071 57.973 L 152.742 57.974 157.471 52.498 C 160.072 49.487,163.081 46.073,164.158 44.911 C 166.468 42.420,166.374 42.388,162.200 44.243 M163.821 50.588 C 157.304 58.095,157.094 58.400,158.454 58.400 C 158.960 58.400,162.768 58.597,166.916 58.838 C 171.064 59.078,174.527 59.206,174.612 59.121 C 174.746 58.988,173.661 55.174,170.996 46.400 C 170.628 45.190,170.209 44.088,170.064 43.950 C 169.919 43.813,167.109 46.799,163.821 50.588 M242.109 48.181 C 243.479 49.771,248.380 55.440,253.000 60.779 C 263.576 72.999,265.066 74.731,269.000 79.371 C 272.821 83.877,273.584 84.309,276.171 83.431 C 280.197 82.064,284.213 83.445,286.627 87.027 C 288.477 89.771,288.289 89.772,300.800 86.926 C 305.090 85.950,314.450 83.831,321.600 82.216 C 328.750 80.602,335.222 79.118,335.983 78.920 C 337.616 78.493,339.956 79.373,311.051 69.537 C 300.683 66.009,284.010 60.332,274.000 56.921 C 263.990 53.510,252.159 49.498,247.709 48.005 L 239.617 45.290 242.109 48.181 M340.400 81.494 C 339.190 81.814,332.260 83.420,325.000 85.063 C 317.740 86.705,308.515 88.795,304.500 89.705 C 300.485 90.616,297.200 91.465,297.200 91.592 C 297.200 91.719,299.846 92.710,303.080 93.793 C 317.815 98.727,318.866 99.912,327.573 121.400 C 334.392 138.228,335.688 141.359,335.972 141.691 C 336.178 141.930,348.957 131.250,357.525 123.678 L 359.651 121.800 357.286 116.000 C 355.986 112.810,353.526 106.780,351.820 102.600 C 350.114 98.420,347.483 91.956,345.975 88.236 C 342.742 80.262,343.157 80.764,340.400 81.494 M121.400 87.013 C 117.452 88.972,117.432 95.090,121.367 96.957 C 128.015 100.112,132.925 90.442,126.372 87.101 C 124.703 86.250,123.000 86.220,121.400 87.013 M277.187 86.728 C 271.498 89.249,273.040 97.605,279.194 97.599 C 284.885 97.592,286.673 89.702,281.572 87.101 C 280.182 86.392,278.305 86.232,277.187 86.728 M191.042 98.398 C 188.479 99.203,186.333 102.210,186.333 104.995 C 186.333 112.660,196.691 114.550,199.427 107.385 C 201.402 102.213,196.300 96.745,191.042 98.398 M357.347 128.509 C 351.286 133.676,349.811 134.938,343.486 140.372 L 336.772 146.140 336.986 147.770 C 337.103 148.666,337.559 154.350,337.999 160.400 C 338.439 166.450,338.991 174.010,339.225 177.200 C 339.692 183.555,339.257 187.346,337.642 190.998 C 336.416 193.771,336.567 193.638,350.364 179.836 L 363.324 166.871 363.046 161.936 C 362.892 159.221,362.336 151.780,361.808 145.400 C 361.281 139.020,360.730 132.135,360.582 130.100 C 360.269 125.762,360.460 125.856,357.347 128.509 M239.996 159.700 C 236.311 162.208,235.707 166.745,238.627 169.978 C 243.043 174.865,251.039 171.149,250.296 164.555 C 249.764 159.832,243.878 157.058,239.996 159.700 M308.428 159.901 C 304.707 161.798,304.347 167.174,307.790 169.430 C 311.562 171.901,316.397 169.300,316.397 164.800 C 316.397 160.481,312.268 157.943,308.428 159.901 M136.028 184.679 C 130.520 187.574,132.693 195.624,138.839 195.089 C 145.582 194.502,145.648 184.965,138.915 184.143 C 137.922 184.022,136.927 184.207,136.028 184.679 M330.000 201.945 C 324.464 205.534,309.753 221.101,312.700 220.252 C 313.651 219.978,320.742 218.583,324.272 217.976 C 328.143 217.310,327.713 217.911,330.826 208.810 C 334.370 198.449,334.444 199.064,330.000 201.945 M275.071 248.633 C 272.469 249.173,269.734 249.868,268.991 250.178 L 267.641 250.742 269.580 255.471 C 270.647 258.072,271.998 261.280,272.583 262.600 C 273.168 263.920,274.527 267.160,275.602 269.800 C 277.973 275.618,281.034 282.767,281.246 282.979 C 281.471 283.204,281.241 259.120,280.959 252.900 C 280.795 249.295,280.571 247.608,280.259 247.626 C 280.007 247.641,277.672 248.094,275.071 248.633 M262.639 254.581 C 260.414 256.870,258.545 260.609,258.032 263.800 L 257.645 266.200 260.323 268.807 C 261.795 270.241,264.260 272.565,265.800 273.971 C 267.340 275.377,270.040 277.886,271.800 279.545 C 273.560 281.204,275.777 283.291,276.728 284.181 L 278.455 285.800 277.599 283.600 C 277.129 282.390,276.140 280.050,275.403 278.400 C 274.666 276.750,273.398 273.780,272.586 271.800 C 270.179 265.933,264.717 253.011,264.578 252.859 C 264.508 252.781,263.636 253.556,262.639 254.581 M100.788 336.416 C 106.355 337.871,106.279 337.803,105.170 340.382 C 104.401 342.168,104.157 342.422,103.438 342.185 C 85.417 336.243,69.012 341.113,69.028 352.400 C 69.039 360.423,73.860 363.701,87.600 365.027 C 101.507 366.369,109.679 374.505,107.957 385.296 C 105.742 399.187,88.712 404.934,68.000 398.781 C 62.969 397.286,63.364 397.632,64.390 395.619 C 65.537 393.371,65.574 393.367,71.864 394.825 C 90.049 399.041,102.819 394.103,102.966 382.800 C 103.076 374.385,97.696 370.727,83.302 369.429 C 70.391 368.265,63.489 361.854,64.084 351.579 C 64.858 338.206,81.438 331.357,100.788 336.416 M322.804 336.384 C 325.281 337.024,327.496 337.736,327.726 337.966 C 328.376 338.616,326.440 342.502,325.625 342.184 C 306.609 334.750,285.954 343.740,292.046 356.800 C 294.703 362.497,297.639 363.873,309.600 365.027 C 322.560 366.277,329.577 372.290,329.936 382.450 C 330.482 397.917,312.917 405.302,290.628 398.977 C 285.546 397.535,285.638 397.618,286.705 395.421 C 287.650 393.475,288.049 393.323,290.403 394.006 C 309.995 399.692,324.900 394.773,324.964 382.600 C 325.008 374.325,319.627 370.721,305.302 369.429 C 294.665 368.470,289.221 364.888,286.805 357.258 C 281.753 341.306,300.279 330.563,322.804 336.384 M124.702 368.100 L 124.805 400.800 122.402 400.800 L 120.000 400.800 120.000 368.267 C 120.000 350.373,120.128 335.605,120.285 335.449 C 120.441 335.292,121.476 335.217,122.585 335.282 L 124.600 335.400 124.702 368.100 M168.600 335.597 C 182.190 337.820,187.659 355.041,177.751 364.411 C 175.177 366.845,175.184 366.322,177.700 368.150 C 188.627 376.090,186.676 393.115,174.152 399.095 L 171.000 400.600 156.300 400.730 L 141.600 400.861 141.600 368.030 L 141.600 335.200 153.900 335.202 C 160.665 335.204,167.280 335.381,168.600 335.597 M201.357 335.833 C 201.731 336.807,201.633 399.729,201.256 400.323 C 201.032 400.676,200.221 400.806,198.762 400.723 L 196.600 400.600 196.497 368.400 C 196.440 350.690,196.479 335.975,196.584 335.700 C 196.883 334.917,201.050 335.033,201.357 335.833 M221.607 356.300 C 221.615 379.532,221.726 380.872,223.996 385.133 C 232.189 400.503,255.149 400.212,262.582 384.643 C 264.707 380.193,264.800 378.994,264.800 356.107 L 264.800 335.160 267.100 335.280 L 269.400 335.400 269.400 357.400 C 269.400 381.506,269.400 381.511,266.983 386.600 C 258.502 404.462,232.343 406.460,221.452 390.078 C 217.046 383.451,217.084 383.711,216.903 359.000 C 216.718 333.627,216.552 335.200,219.418 335.200 L 221.600 335.200 221.607 356.300 M146.300 340.231 C 146.135 340.397,146.000 345.916,146.000 352.494 L 146.000 364.454 157.700 364.327 C 168.951 364.205,169.465 364.165,171.089 363.298 C 180.748 358.136,180.122 344.328,170.070 340.800 C 168.425 340.223,146.822 339.706,146.300 340.231 M146.095 382.474 L 146.200 395.800 158.000 395.800 L 169.800 395.800 172.048 394.746 C 182.429 389.878,182.703 375.731,172.516 370.573 L 170.200 369.400 158.095 369.274 L 145.989 369.147 146.095 382.474 " stroke="none" fill="#fbfbfb" fill-rule="evenodd"></path><path id="path3" d="M151.775 58.900 L 150.600 60.200 151.900 59.025 C 153.112 57.930,153.384 57.600,153.075 57.600 C 153.006 57.600,152.421 58.185,151.775 58.900 M155.375 60.100 L 154.200 61.400 155.500 60.225 C 156.712 59.130,156.984 58.800,156.675 58.800 C 156.606 58.800,156.021 59.385,155.375 60.100 M149.775 66.500 L 148.600 67.800 149.900 66.625 C 151.112 65.530,151.384 65.200,151.075 65.200 C 151.006 65.200,150.421 65.785,149.775 66.500 M122.905 83.087 C 123.514 83.179,124.414 83.177,124.905 83.082 C 125.397 82.987,124.900 82.911,123.800 82.914 C 122.700 82.917,122.297 82.995,122.905 83.087 M267.200 82.925 C 267.200 82.994,267.785 83.579,268.500 84.225 L 269.800 85.400 268.625 84.100 C 267.530 82.888,267.200 82.616,267.200 82.925 M278.500 83.076 C 278.885 83.176,279.515 83.176,279.900 83.076 C 280.285 82.975,279.970 82.893,279.200 82.893 C 278.430 82.893,278.115 82.975,278.500 83.076 M129.985 83.818 C 129.703 84.158,129.186 84.328,128.836 84.195 C 128.323 84.000,128.298 84.051,128.704 84.461 C 129.112 84.871,129.379 84.799,130.093 84.084 C 130.580 83.598,130.870 83.200,130.738 83.200 C 130.606 83.200,130.267 83.478,129.985 83.818 M112.000 97.200 C 111.230 97.622,110.780 97.966,111.000 97.966 C 111.220 97.966,112.030 97.622,112.800 97.200 C 113.570 96.778,114.020 96.434,113.800 96.434 C 113.580 96.434,112.770 96.778,112.000 97.200 M283.628 99.800 C 283.628 100.020,283.886 100.650,284.200 101.200 C 284.514 101.750,284.772 102.020,284.772 101.800 C 284.772 101.580,284.514 100.950,284.200 100.400 C 283.886 99.850,283.628 99.580,283.628 99.800 M122.275 101.059 C 122.757 101.164,123.242 101.553,123.352 101.925 C 123.498 102.411,123.531 102.376,123.473 101.800 C 123.418 101.257,123.072 100.979,122.396 100.934 C 121.561 100.880,121.542 100.900,122.275 101.059 M277.200 101.023 C 278.686 101.347,280.726 101.403,280.548 101.116 C 280.441 100.942,279.508 100.821,278.476 100.846 C 277.444 100.872,276.870 100.952,277.200 101.023 M101.600 102.200 C 101.050 102.514,100.780 102.772,101.000 102.772 C 101.220 102.772,101.850 102.514,102.400 102.200 C 102.950 101.886,103.220 101.628,103.000 101.628 C 102.780 101.628,102.150 101.886,101.600 102.200 M98.700 107.429 C 97.149 108.270,97.325 108.561,98.900 107.759 C 100.408 106.993,100.675 106.794,100.167 106.816 C 99.965 106.825,99.305 107.101,98.700 107.429 M95.600 109.000 C 95.050 109.314,94.780 109.572,95.000 109.572 C 95.220 109.572,95.850 109.314,96.400 109.000 C 96.950 108.686,97.220 108.428,97.000 108.428 C 96.780 108.428,96.150 108.686,95.600 109.000 M87.600 112.800 C 86.390 113.439,85.541 113.971,85.713 113.981 C 86.138 114.007,90.000 112.036,90.000 111.793 C 90.000 111.526,90.055 111.503,87.600 112.800 M72.400 116.200 C 70.970 116.949,69.980 117.561,70.200 117.561 C 70.420 117.561,71.770 116.949,73.200 116.200 C 74.630 115.451,75.620 114.839,75.400 114.839 C 75.180 114.839,73.830 115.451,72.400 116.200 M196.035 114.900 C 196.128 114.955,196.833 115.540,197.602 116.200 L 199.000 117.400 197.825 116.100 C 197.179 115.385,196.474 114.800,196.258 114.800 C 196.043 114.800,195.943 114.845,196.035 114.900 M192.105 115.487 C 192.714 115.579,193.614 115.577,194.105 115.482 C 194.597 115.387,194.100 115.311,193.000 115.314 C 191.900 115.317,191.497 115.395,192.105 115.487 M205.183 119.300 C 206.164 120.345,207.019 121.200,207.083 121.200 C 207.384 121.200,207.066 120.841,205.300 119.183 L 203.400 117.400 205.183 119.300 M201.400 120.400 C 202.259 121.280,203.052 122.000,203.162 122.000 C 203.272 122.000,202.659 121.280,201.800 120.400 C 200.941 119.520,200.148 118.800,200.038 118.800 C 199.928 118.800,200.541 119.520,201.400 120.400 M209.200 123.800 C 209.946 124.570,210.647 125.200,210.757 125.200 C 210.867 125.200,210.346 124.570,209.600 123.800 C 208.854 123.030,208.153 122.400,208.043 122.400 C 207.933 122.400,208.454 123.030,209.200 123.800 M204.800 124.125 C 204.800 124.194,205.385 124.779,206.100 125.425 L 207.400 126.600 206.225 125.300 C 205.130 124.088,204.800 123.816,204.800 124.125 M295.628 126.200 C 295.628 126.420,295.886 127.050,296.200 127.600 C 296.514 128.150,296.772 128.420,296.772 128.200 C 296.772 127.980,296.514 127.350,296.200 126.800 C 295.886 126.250,295.628 125.980,295.628 126.200 M293.228 129.400 C 293.228 129.620,293.486 130.250,293.800 130.800 C 294.114 131.350,294.372 131.620,294.372 131.400 C 294.372 131.180,294.114 130.550,293.800 130.000 C 293.486 129.450,293.228 129.180,293.228 129.400 M63.062 131.417 C 63.192 131.757,63.395 131.938,63.513 131.821 C 63.630 131.703,64.013 131.827,64.363 132.097 C 64.753 132.397,64.705 132.240,64.238 131.693 C 63.360 130.664,62.715 130.513,63.062 131.417 M217.583 132.900 C 218.564 133.945,219.419 134.800,219.483 134.800 C 219.784 134.800,219.466 134.441,217.700 132.783 L 215.800 131.000 217.583 132.900 M213.800 134.000 C 214.883 135.100,215.860 136.000,215.970 136.000 C 216.080 136.000,215.283 135.100,214.200 134.000 C 213.117 132.900,212.140 132.000,212.030 132.000 C 211.920 132.000,212.717 132.900,213.800 134.000 M221.800 137.600 C 222.659 138.480,223.452 139.200,223.562 139.200 C 223.672 139.200,223.059 138.480,222.200 137.600 C 221.341 136.720,220.548 136.000,220.438 136.000 C 220.328 136.000,220.941 136.720,221.800 137.600 M64.828 144.200 C 64.828 144.420,65.086 145.050,65.400 145.600 C 65.714 146.150,65.972 146.420,65.972 146.200 C 65.972 145.980,65.714 145.350,65.400 144.800 C 65.086 144.250,64.828 143.980,64.828 144.200 M230.000 146.600 C 230.746 147.370,231.447 148.000,231.557 148.000 C 231.667 148.000,231.146 147.370,230.400 146.600 C 229.654 145.830,228.953 145.200,228.843 145.200 C 228.733 145.200,229.254 145.830,230.000 146.600 M225.983 147.300 C 226.964 148.345,227.819 149.200,227.883 149.200 C 228.184 149.200,227.866 148.841,226.100 147.183 L 224.200 145.400 225.983 147.300 M234.200 151.200 C 235.283 152.300,236.260 153.200,236.370 153.200 C 236.480 153.200,235.683 152.300,234.600 151.200 C 233.517 150.100,232.540 149.200,232.430 149.200 C 232.320 149.200,233.117 150.100,234.200 151.200 M330.175 151.700 L 329.000 153.000 330.300 151.825 C 331.015 151.179,331.600 150.594,331.600 150.525 C 331.600 150.216,331.270 150.488,330.175 151.700 M229.200 150.925 C 229.200 150.994,229.785 151.579,230.500 152.225 L 231.800 153.400 230.625 152.100 C 229.530 150.888,229.200 150.616,229.200 150.925 M323.375 152.900 L 322.200 154.200 323.500 153.025 C 324.215 152.379,324.800 151.794,324.800 151.725 C 324.800 151.416,324.470 151.688,323.375 152.900 M304.428 154.200 C 304.428 154.420,304.686 155.050,305.000 155.600 C 305.314 156.150,305.572 156.420,305.572 156.200 C 305.572 155.980,305.314 155.350,305.000 154.800 C 304.686 154.250,304.428 153.980,304.428 154.200 M309.166 155.726 C 309.347 155.907,310.193 155.993,311.047 155.919 L 312.600 155.783 310.719 155.590 C 309.684 155.484,308.985 155.545,309.166 155.726 M316.493 164.800 C 316.493 165.570,316.575 165.885,316.676 165.500 C 316.776 165.115,316.776 164.485,316.676 164.100 C 316.575 163.715,316.493 164.030,316.493 164.800 M359.586 170.700 L 357.400 173.000 359.700 170.814 C 360.965 169.611,362.000 168.576,362.000 168.514 C 362.000 168.217,361.618 168.563,359.586 170.700 M145.600 174.800 C 145.130 175.460,144.836 176.000,144.946 176.000 C 145.056 176.000,145.530 175.460,146.000 174.800 C 146.470 174.140,146.764 173.600,146.654 173.600 C 146.544 173.600,146.070 174.140,145.600 174.800 M353.781 176.500 L 352.200 178.200 353.900 176.619 C 354.835 175.749,355.600 174.984,355.600 174.919 C 355.600 174.616,355.252 174.919,353.781 176.500 M242.700 175.882 C 243.195 175.978,244.005 175.978,244.500 175.882 C 244.995 175.787,244.590 175.709,243.600 175.709 C 242.610 175.709,242.205 175.787,242.700 175.882 M325.600 179.725 C 325.600 179.794,326.185 180.379,326.900 181.025 L 328.200 182.200 327.025 180.900 C 325.930 179.688,325.600 179.416,325.600 179.725 M347.385 182.900 L 345.400 185.000 347.500 183.015 C 349.451 181.171,349.783 180.800,349.485 180.800 C 349.422 180.800,348.477 181.745,347.385 182.900 M332.000 187.325 C 332.000 187.394,332.585 187.979,333.300 188.625 L 334.600 189.800 333.425 188.500 C 332.330 187.288,332.000 187.016,332.000 187.325 M340.585 189.700 L 338.600 191.800 340.700 189.815 C 342.651 187.971,342.983 187.600,342.685 187.600 C 342.622 187.600,341.677 188.545,340.585 189.700 M85.143 191.303 C 85.310 191.470,95.426 191.560,107.623 191.503 L 129.800 191.400 107.320 191.200 C 94.956 191.090,84.976 191.137,85.143 191.303 M274.349 218.200 C 274.565 218.640,275.034 219.360,275.393 219.800 L 276.044 220.600 275.651 219.800 C 275.435 219.360,274.966 218.640,274.607 218.200 L 273.956 217.400 274.349 218.200 M157.600 219.600 C 158.070 220.260,158.544 220.800,158.654 220.800 C 158.764 220.800,158.470 220.260,158.000 219.600 C 157.530 218.940,157.056 218.400,156.946 218.400 C 156.836 218.400,157.130 218.940,157.600 219.600 M242.000 225.200 C 242.770 225.622,243.580 225.966,243.800 225.966 C 244.020 225.966,243.570 225.622,242.800 225.200 C 242.030 224.778,241.220 224.434,241.000 224.434 C 240.780 224.434,241.230 224.778,242.000 225.200 M169.905 225.083 C 170.402 225.179,171.122 225.175,171.505 225.075 C 171.887 224.975,171.480 224.896,170.600 224.901 C 169.720 224.905,169.407 224.987,169.905 225.083 M175.905 225.483 C 176.402 225.579,177.122 225.575,177.505 225.475 C 177.887 225.375,177.480 225.296,176.600 225.301 C 175.720 225.305,175.407 225.387,175.905 225.483 M182.900 225.876 C 183.285 225.976,183.915 225.976,184.300 225.876 C 184.685 225.775,184.370 225.693,183.600 225.693 C 182.830 225.693,182.515 225.775,182.900 225.876 M188.305 226.283 C 188.802 226.379,189.522 226.375,189.905 226.275 C 190.287 226.175,189.880 226.096,189.000 226.101 C 188.120 226.105,187.807 226.187,188.305 226.283 M194.100 226.687 C 194.705 226.778,195.695 226.778,196.300 226.687 C 196.905 226.595,196.410 226.520,195.200 226.520 C 193.990 226.520,193.495 226.595,194.100 226.687 M200.300 227.082 C 200.795 227.178,201.605 227.178,202.100 227.082 C 202.595 226.987,202.190 226.909,201.200 226.909 C 200.210 226.909,199.805 226.987,200.300 227.082 M206.100 227.487 C 206.705 227.578,207.695 227.578,208.300 227.487 C 208.905 227.395,208.410 227.320,207.200 227.320 C 205.990 227.320,205.495 227.395,206.100 227.487 M212.200 227.600 L 210.600 227.886 212.076 227.943 C 212.888 227.974,213.664 227.820,213.800 227.600 C 213.936 227.380,213.992 227.226,213.924 227.257 C 213.856 227.288,213.080 227.442,212.200 227.600 M280.394 229.919 L 280.587 232.200 280.718 230.244 C 280.790 229.169,280.703 228.142,280.524 227.963 C 280.346 227.784,280.287 228.664,280.394 229.919 M165.905 228.283 C 166.402 228.379,167.122 228.375,167.505 228.275 C 167.887 228.175,167.480 228.096,166.600 228.101 C 165.720 228.105,165.407 228.187,165.905 228.283 M172.305 228.683 C 172.802 228.779,173.522 228.775,173.905 228.675 C 174.287 228.575,173.880 228.496,173.000 228.501 C 172.120 228.505,171.807 228.587,172.305 228.683 M219.000 230.400 C 219.859 231.280,220.652 232.000,220.762 232.000 C 220.872 232.000,220.259 231.280,219.400 230.400 C 218.541 229.520,217.748 228.800,217.638 228.800 C 217.528 228.800,218.141 229.520,219.000 230.400 M184.500 229.476 C 184.885 229.576,185.515 229.576,185.900 229.476 C 186.285 229.375,185.970 229.293,185.200 229.293 C 184.430 229.293,184.115 229.375,184.500 229.476 M284.166 229.745 C 284.051 230.044,284.014 231.349,284.084 232.645 L 284.212 235.000 284.406 232.099 C 284.601 229.188,284.554 228.733,284.166 229.745 M196.705 230.283 C 197.202 230.379,197.922 230.375,198.305 230.275 C 198.687 230.175,198.280 230.096,197.400 230.101 C 196.520 230.105,196.207 230.187,196.705 230.283 M201.905 230.683 C 202.402 230.779,203.122 230.775,203.505 230.675 C 203.887 230.575,203.480 230.496,202.600 230.501 C 201.720 230.505,201.407 230.587,201.905 230.683 M207.100 231.082 C 207.595 231.178,208.405 231.178,208.900 231.082 C 209.395 230.987,208.990 230.909,208.000 230.909 C 207.010 230.909,206.605 230.987,207.100 231.082 M212.700 231.482 C 213.195 231.578,214.005 231.578,214.500 231.482 C 214.995 231.387,214.590 231.309,213.600 231.309 C 212.610 231.309,212.205 231.387,212.700 231.482 M217.800 234.000 C 218.659 234.880,219.452 235.600,219.562 235.600 C 219.672 235.600,219.059 234.880,218.200 234.000 C 217.341 233.120,216.548 232.400,216.438 232.400 C 216.328 232.400,216.941 233.120,217.800 234.000 M225.000 236.000 C 225.859 236.880,226.652 237.600,226.762 237.600 C 226.872 237.600,226.259 236.880,225.400 236.000 C 224.541 235.120,223.748 234.400,223.638 234.400 C 223.528 234.400,224.141 235.120,225.000 236.000 M230.800 241.400 C 232.217 242.830,233.467 244.000,233.577 244.000 C 233.687 244.000,232.617 242.830,231.200 241.400 C 229.783 239.970,228.533 238.800,228.423 238.800 C 228.313 238.800,229.383 239.970,230.800 241.400 M223.600 239.325 C 223.600 239.394,224.185 239.979,224.900 240.625 L 226.200 241.800 225.025 240.500 C 223.930 239.288,223.600 239.016,223.600 239.325 M280.950 243.400 C 280.951 245.820,281.016 246.758,281.096 245.485 C 281.176 244.212,281.175 242.232,281.094 241.085 C 281.014 239.938,280.949 240.980,280.950 243.400 M230.800 246.200 C 231.546 246.970,232.247 247.600,232.357 247.600 C 232.467 247.600,231.946 246.970,231.200 246.200 C 230.454 245.430,229.753 244.800,229.643 244.800 C 229.533 244.800,230.054 245.430,230.800 246.200 M237.400 247.600 C 238.706 248.920,239.865 250.000,239.975 250.000 C 240.085 250.000,239.106 248.920,237.800 247.600 C 236.494 246.280,235.335 245.200,235.225 245.200 C 235.115 245.200,236.094 246.280,237.400 247.600 M236.783 251.700 C 237.764 252.745,238.619 253.600,238.683 253.600 C 238.984 253.600,238.666 253.241,236.900 251.583 L 235.000 249.800 236.783 251.700 M243.600 253.400 C 245.017 254.830,246.267 256.000,246.377 256.000 C 246.487 256.000,245.417 254.830,244.000 253.400 C 242.583 251.970,241.333 250.800,241.223 250.800 C 241.113 250.800,242.183 251.970,243.600 253.400 M243.400 258.000 C 244.259 258.880,245.052 259.600,245.162 259.600 C 245.272 259.600,244.659 258.880,243.800 258.000 C 242.941 257.120,242.148 256.400,242.038 256.400 C 241.928 256.400,242.541 257.120,243.400 258.000 M250.000 259.400 C 251.195 260.610,252.263 261.600,252.373 261.600 C 252.483 261.600,251.595 260.610,250.400 259.400 C 249.205 258.190,248.137 257.200,248.027 257.200 C 247.917 257.200,248.805 258.190,250.000 259.400 M249.800 264.000 C 250.883 265.100,251.860 266.000,251.970 266.000 C 252.080 266.000,251.283 265.100,250.200 264.000 C 249.117 262.900,248.140 262.000,248.030 262.000 C 247.920 262.000,248.717 262.900,249.800 264.000 M284.542 265.400 C 284.541 267.380,284.608 268.240,284.692 267.312 C 284.776 266.384,284.777 264.764,284.695 263.712 C 284.612 262.660,284.543 263.420,284.542 265.400 M256.000 265.000 C 256.746 265.770,257.447 266.400,257.557 266.400 C 257.667 266.400,257.146 265.770,256.400 265.000 C 255.654 264.230,254.953 263.600,254.843 263.600 C 254.733 263.600,255.254 264.230,256.000 265.000 M281.342 269.800 C 281.341 271.780,281.408 272.640,281.492 271.712 C 281.576 270.784,281.577 269.164,281.495 268.112 C 281.412 267.060,281.343 267.820,281.342 269.800 M255.800 269.600 C 256.659 270.480,257.452 271.200,257.562 271.200 C 257.672 271.200,257.059 270.480,256.200 269.600 C 255.341 268.720,254.548 268.000,254.438 268.000 C 254.328 268.000,254.941 268.720,255.800 269.600 M259.600 272.925 C 259.600 272.994,260.185 273.579,260.900 274.225 L 262.200 275.400 261.025 274.100 C 259.930 272.888,259.600 272.616,259.600 272.925 M284.940 292.800 C 284.940 294.670,285.009 295.435,285.093 294.500 C 285.177 293.565,285.177 292.035,285.093 291.100 C 285.009 290.165,284.940 290.930,284.940 292.800 M196.596 368.100 L 196.600 400.600 198.600 400.631 L 200.600 400.662 198.702 400.510 L 196.805 400.358 196.699 367.979 L 196.593 335.600 196.596 368.100 M87.100 339.489 C 87.815 339.578,88.985 339.578,89.700 339.489 C 90.415 339.401,89.830 339.328,88.400 339.328 C 86.970 339.328,86.385 339.401,87.100 339.489 M309.100 339.489 C 309.815 339.578,310.985 339.578,311.700 339.489 C 312.415 339.401,311.830 339.328,310.400 339.328 C 308.970 339.328,308.385 339.401,309.100 339.489 M121.300 400.687 C 121.905 400.778,122.895 400.778,123.500 400.687 C 124.105 400.595,123.610 400.520,122.400 400.520 C 121.190 400.520,120.695 400.595,121.300 400.687 M148.125 400.699 C 151.824 400.766,157.764 400.765,161.325 400.699 C 164.886 400.633,161.860 400.579,154.600 400.579 C 147.340 400.579,144.426 400.633,148.125 400.699 " stroke="none" fill="#6e98ad" fill-rule="evenodd"></path><path id="path4" d="M180.500 37.076 C 180.885 37.176,181.515 37.176,181.900 37.076 C 182.285 36.975,181.970 36.893,181.200 36.893 C 180.430 36.893,180.115 36.975,180.500 37.076 M187.500 37.482 C 187.995 37.578,188.805 37.578,189.300 37.482 C 189.795 37.387,189.390 37.309,188.400 37.309 C 187.410 37.309,187.005 37.387,187.500 37.482 M195.705 37.887 C 196.314 37.979,197.214 37.977,197.705 37.882 C 198.197 37.787,197.700 37.711,196.600 37.714 C 195.500 37.717,195.097 37.795,195.705 37.887 M202.707 38.290 C 203.426 38.379,204.506 38.377,205.107 38.286 C 205.708 38.195,205.120 38.122,203.800 38.124 C 202.480 38.126,201.988 38.201,202.707 38.290 M210.105 38.687 C 210.714 38.779,211.614 38.777,212.105 38.682 C 212.597 38.587,212.100 38.511,211.000 38.514 C 209.900 38.517,209.497 38.595,210.105 38.687 M216.905 39.087 C 217.514 39.179,218.414 39.177,218.905 39.082 C 219.397 38.987,218.900 38.911,217.800 38.914 C 216.700 38.917,216.297 38.995,216.905 39.087 M223.500 39.489 C 224.215 39.578,225.385 39.578,226.100 39.489 C 226.815 39.401,226.230 39.328,224.800 39.328 C 223.370 39.328,222.785 39.401,223.500 39.489 M177.511 39.893 C 178.451 39.978,179.891 39.977,180.711 39.891 C 181.530 39.805,180.760 39.736,179.000 39.737 C 177.240 39.739,176.570 39.809,177.511 39.893 M229.891 39.889 C 230.601 39.977,231.861 39.979,232.691 39.892 C 233.521 39.805,232.940 39.733,231.400 39.731 C 229.860 39.729,229.181 39.800,229.891 39.889 M184.691 40.289 C 185.401 40.377,186.661 40.379,187.491 40.292 C 188.321 40.205,187.740 40.133,186.200 40.131 C 184.660 40.129,183.981 40.200,184.691 40.289 M191.500 40.689 C 192.215 40.778,193.385 40.778,194.100 40.689 C 194.815 40.601,194.230 40.528,192.800 40.528 C 191.370 40.528,190.785 40.601,191.500 40.689 M198.300 41.089 C 199.015 41.178,200.185 41.178,200.900 41.089 C 201.615 41.001,201.030 40.928,199.600 40.928 C 198.170 40.928,197.585 41.001,198.300 41.089 M204.700 41.489 C 205.415 41.578,206.585 41.578,207.300 41.489 C 208.015 41.401,207.430 41.328,206.000 41.328 C 204.570 41.328,203.985 41.401,204.700 41.489 M212.300 41.889 C 213.015 41.978,214.185 41.978,214.900 41.889 C 215.615 41.801,215.030 41.728,213.600 41.728 C 212.170 41.728,211.585 41.801,212.300 41.889 M219.100 42.289 C 219.815 42.378,220.985 42.378,221.700 42.289 C 222.415 42.201,221.830 42.128,220.400 42.128 C 218.970 42.128,218.385 42.201,219.100 42.289 M148.800 46.200 C 148.250 46.514,147.980 46.772,148.200 46.772 C 148.420 46.772,149.050 46.514,149.600 46.200 C 150.150 45.886,150.420 45.628,150.200 45.628 C 149.980 45.628,149.350 45.886,148.800 46.200 M240.400 46.925 C 240.400 46.994,240.985 47.579,241.700 48.225 L 243.000 49.400 241.825 48.100 C 240.730 46.888,240.400 46.616,240.400 46.925 M242.800 49.725 C 242.800 49.794,243.385 50.379,244.100 51.025 L 245.400 52.200 244.225 50.900 C 243.130 49.688,242.800 49.416,242.800 49.725 M156.975 53.300 L 155.800 54.600 157.100 53.425 C 158.312 52.330,158.584 52.000,158.275 52.000 C 158.206 52.000,157.621 52.585,156.975 53.300 M270.400 52.333 C 270.730 52.536,271.450 52.824,272.000 52.971 C 272.695 53.157,272.817 53.125,272.400 52.867 C 272.070 52.664,271.350 52.376,270.800 52.229 C 270.105 52.043,269.983 52.075,270.400 52.333 M241.200 52.525 C 241.200 52.594,241.785 53.179,242.500 53.825 L 243.800 55.000 242.625 53.700 C 241.530 52.488,241.200 52.216,241.200 52.525 M128.000 58.200 C 127.450 58.514,127.180 58.772,127.400 58.772 C 127.620 58.772,128.250 58.514,128.800 58.200 C 129.350 57.886,129.620 57.628,129.400 57.628 C 129.180 57.628,128.550 57.886,128.000 58.200 M251.600 64.525 C 251.600 64.594,252.185 65.179,252.900 65.825 L 254.200 67.000 253.025 65.700 C 251.930 64.488,251.600 64.216,251.600 64.525 M145.375 66.500 L 144.200 67.800 145.500 66.625 C 146.712 65.530,146.984 65.200,146.675 65.200 C 146.606 65.200,146.021 65.785,145.375 66.500 M254.000 67.325 C 254.000 67.394,254.585 67.979,255.300 68.625 L 256.600 69.800 255.425 68.500 C 254.330 67.288,254.000 67.016,254.000 67.325 M142.975 69.300 L 141.800 70.600 143.100 69.425 C 144.312 68.330,144.584 68.000,144.275 68.000 C 144.206 68.000,143.621 68.585,142.975 69.300 M145.178 71.500 L 143.800 73.000 145.300 71.622 C 146.125 70.863,146.800 70.188,146.800 70.122 C 146.800 69.816,146.462 70.104,145.178 71.500 M137.578 75.500 L 136.200 77.000 137.700 75.622 C 138.525 74.863,139.200 74.188,139.200 74.122 C 139.200 73.816,138.862 74.104,137.578 75.500 M342.800 76.889 C 342.910 76.992,343.630 77.382,344.400 77.756 C 345.416 78.248,345.635 78.277,345.200 77.860 C 344.870 77.544,344.150 77.154,343.600 76.993 C 343.050 76.832,342.690 76.785,342.800 76.889 M134.975 78.500 L 133.800 79.800 135.100 78.625 C 136.312 77.530,136.584 77.200,136.275 77.200 C 136.206 77.200,135.621 77.785,134.975 78.500 M136.975 80.900 L 135.800 82.200 137.100 81.025 C 138.312 79.930,138.584 79.600,138.275 79.600 C 138.206 79.600,137.621 80.185,136.975 80.900 M131.775 82.100 L 130.600 83.400 131.900 82.225 C 133.112 81.130,133.384 80.800,133.075 80.800 C 133.006 80.800,132.421 81.385,131.775 82.100 M134.175 84.100 L 133.000 85.400 134.300 84.225 C 135.512 83.130,135.784 82.800,135.475 82.800 C 135.406 82.800,134.821 83.385,134.175 84.100 M282.000 86.925 C 282.000 86.994,282.585 87.579,283.300 88.225 L 284.600 89.400 283.425 88.100 C 282.330 86.888,282.000 86.616,282.000 86.925 M114.909 92.000 C 114.909 92.990,114.987 93.395,115.082 92.900 C 115.178 92.405,115.178 91.595,115.082 91.100 C 114.987 90.605,114.909 91.010,114.909 92.000 M269.924 92.200 C 269.834 92.970,269.904 93.600,270.080 93.600 C 270.256 93.600,270.400 92.970,270.400 92.200 C 270.400 91.430,270.330 90.800,270.244 90.800 C 270.158 90.800,270.014 91.430,269.924 92.200 M282.975 96.100 L 281.800 97.400 283.100 96.225 C 283.815 95.579,284.400 94.994,284.400 94.925 C 284.400 94.616,284.070 94.888,282.975 96.100 M285.178 98.300 L 283.800 99.800 285.300 98.422 C 286.696 97.138,286.984 96.800,286.678 96.800 C 286.612 96.800,285.937 97.475,285.178 98.300 M199.876 104.246 C 200.140 106.955,200.332 107.333,200.362 105.200 C 200.376 104.210,200.230 103.151,200.037 102.846 C 199.821 102.505,199.759 103.042,199.876 104.246 M98.800 103.800 C 97.810 104.330,97.180 104.764,97.400 104.764 C 97.620 104.764,98.610 104.330,99.600 103.800 C 100.590 103.270,101.220 102.836,101.000 102.836 C 100.780 102.836,99.790 103.270,98.800 103.800 M203.300 103.076 C 203.685 103.176,204.315 103.176,204.700 103.076 C 205.085 102.975,204.770 102.893,204.000 102.893 C 203.230 102.893,202.915 102.975,203.300 103.076 M186.412 107.906 C 186.405 108.184,186.985 109.002,187.700 109.724 C 188.415 110.446,188.619 110.579,188.154 110.019 C 187.688 109.458,187.108 108.640,186.866 108.200 C 186.623 107.760,186.419 107.628,186.412 107.906 M286.028 113.000 C 286.028 113.220,286.286 113.850,286.600 114.400 C 286.914 114.950,287.172 115.220,287.172 115.000 C 287.172 114.780,286.914 114.150,286.600 113.600 C 286.286 113.050,286.028 112.780,286.028 113.000 M201.800 116.000 C 202.659 116.880,203.452 117.600,203.562 117.600 C 203.672 117.600,203.059 116.880,202.200 116.000 C 201.341 115.120,200.548 114.400,200.438 114.400 C 200.328 114.400,200.941 115.120,201.800 116.000 M200.383 118.900 C 202.041 120.666,202.400 120.984,202.400 120.683 C 202.400 120.619,201.545 119.764,200.500 118.783 L 198.600 117.000 200.383 118.900 M64.111 119.300 C 63.242 120.424,63.164 120.800,63.800 120.800 C 64.156 120.800,64.331 120.612,64.189 120.382 C 64.047 120.153,64.149 119.703,64.415 119.382 C 64.680 119.062,64.808 118.800,64.698 118.800 C 64.588 118.800,64.324 119.025,64.111 119.300 M206.200 120.800 C 207.059 121.680,207.852 122.400,207.962 122.400 C 208.072 122.400,207.459 121.680,206.600 120.800 C 205.741 119.920,204.948 119.200,204.838 119.200 C 204.728 119.200,205.341 119.920,206.200 120.800 M70.000 121.000 C 69.450 121.314,69.180 121.572,69.400 121.572 C 69.620 121.572,70.250 121.314,70.800 121.000 C 71.350 120.686,71.620 120.428,71.400 120.428 C 71.180 120.428,70.550 120.686,70.000 121.000 M204.783 123.700 C 205.764 124.745,206.619 125.600,206.683 125.600 C 206.984 125.600,206.666 125.241,204.900 123.583 L 203.000 121.800 204.783 123.700 M363.309 123.600 C 363.309 124.590,363.387 124.995,363.482 124.500 C 363.578 124.005,363.578 123.195,363.482 122.700 C 363.387 122.205,363.309 122.610,363.309 123.600 M354.975 126.100 L 353.800 127.400 355.100 126.225 C 355.815 125.579,356.400 124.994,356.400 124.925 C 356.400 124.616,356.070 124.888,354.975 126.100 M359.762 126.062 C 359.591 126.338,359.651 126.415,359.911 126.255 C 360.173 126.093,360.412 126.426,360.513 127.093 C 360.670 128.132,360.684 128.120,360.740 126.900 C 360.800 125.606,360.305 125.182,359.762 126.062 M207.200 126.525 C 207.200 126.594,207.785 127.179,208.500 127.825 L 209.800 129.000 208.625 127.700 C 207.530 126.488,207.200 126.216,207.200 126.525 M357.775 127.700 L 356.600 129.000 357.900 127.825 C 358.615 127.179,359.200 126.594,359.200 126.525 C 359.200 126.216,358.870 126.488,357.775 127.700 M352.175 128.500 L 351.000 129.800 352.300 128.625 C 353.015 127.979,353.600 127.394,353.600 127.325 C 353.600 127.016,353.270 127.288,352.175 128.500 M214.400 129.800 C 215.146 130.570,215.847 131.200,215.957 131.200 C 216.067 131.200,215.546 130.570,214.800 129.800 C 214.054 129.030,213.353 128.400,213.243 128.400 C 213.133 128.400,213.654 129.030,214.400 129.800 M363.693 130.000 C 363.693 130.770,363.775 131.085,363.876 130.700 C 363.976 130.315,363.976 129.685,363.876 129.300 C 363.775 128.915,363.693 129.230,363.693 130.000 M296.828 129.400 C 296.828 129.620,297.086 130.250,297.400 130.800 C 297.714 131.350,297.972 131.620,297.972 131.400 C 297.972 131.180,297.714 130.550,297.400 130.000 C 297.086 129.450,296.828 129.180,296.828 129.400 M360.914 131.400 C 360.917 132.500,360.995 132.903,361.087 132.295 C 361.179 131.686,361.177 130.786,361.082 130.295 C 360.987 129.803,360.911 130.300,360.914 131.400 M212.600 132.400 C 213.459 133.280,214.252 134.000,214.362 134.000 C 214.472 134.000,213.859 133.280,213.000 132.400 C 212.141 131.520,211.348 130.800,211.238 130.800 C 211.128 130.800,211.741 131.520,212.600 132.400 M218.800 134.600 C 219.546 135.370,220.247 136.000,220.357 136.000 C 220.467 136.000,219.946 135.370,219.200 134.600 C 218.454 133.830,217.753 133.200,217.643 133.200 C 217.533 133.200,218.054 133.830,218.800 134.600 M349.375 134.900 L 348.200 136.200 349.500 135.025 C 350.215 134.379,350.800 133.794,350.800 133.725 C 350.800 133.416,350.470 133.688,349.375 134.900 M216.000 136.125 C 216.000 136.194,216.585 136.779,217.300 137.425 L 218.600 138.600 217.425 137.300 C 216.330 136.088,216.000 135.816,216.000 136.125 M361.301 137.400 C 361.305 138.280,361.387 138.593,361.483 138.095 C 361.579 137.598,361.575 136.878,361.475 136.495 C 361.375 136.113,361.296 136.520,361.301 137.400 M222.800 139.000 C 223.546 139.770,224.247 140.400,224.357 140.400 C 224.467 140.400,223.946 139.770,223.200 139.000 C 222.454 138.230,221.753 137.600,221.643 137.600 C 221.533 137.600,222.054 138.230,222.800 139.000 M364.493 140.000 C 364.493 140.770,364.575 141.085,364.676 140.700 C 364.776 140.315,364.776 139.685,364.676 139.300 C 364.575 138.915,364.493 139.230,364.493 140.000 M220.000 140.600 C 220.746 141.370,221.447 142.000,221.557 142.000 C 221.667 142.000,221.146 141.370,220.400 140.600 C 219.654 139.830,218.953 139.200,218.843 139.200 C 218.733 139.200,219.254 139.830,220.000 140.600 M226.783 143.300 C 227.764 144.345,228.619 145.200,228.683 145.200 C 228.984 145.200,228.666 144.841,226.900 143.183 L 225.000 141.400 226.783 143.300 M361.693 142.800 C 361.693 143.570,361.775 143.885,361.876 143.500 C 361.976 143.115,361.976 142.485,361.876 142.100 C 361.775 141.715,361.693 142.030,361.693 142.800 M364.901 145.000 C 364.905 145.880,364.987 146.193,365.083 145.695 C 365.179 145.198,365.175 144.478,365.075 144.095 C 364.975 143.713,364.896 144.120,364.901 145.000 M224.600 145.600 C 225.459 146.480,226.252 147.200,226.362 147.200 C 226.472 147.200,225.859 146.480,225.000 145.600 C 224.141 144.720,223.348 144.000,223.238 144.000 C 223.128 144.000,223.741 144.720,224.600 145.600 M230.600 147.600 C 231.459 148.480,232.252 149.200,232.362 149.200 C 232.472 149.200,231.859 148.480,231.000 147.600 C 230.141 146.720,229.348 146.000,229.238 146.000 C 229.128 146.000,229.741 146.720,230.600 147.600 M69.628 147.000 C 69.628 147.220,69.886 147.850,70.200 148.400 C 70.514 148.950,70.772 149.220,70.772 149.000 C 70.772 148.780,70.514 148.150,70.200 147.600 C 69.886 147.050,69.628 146.780,69.628 147.000 M365.309 150.000 C 365.309 150.990,365.387 151.395,365.482 150.900 C 365.578 150.405,365.578 149.595,365.482 149.100 C 365.387 148.605,365.309 149.010,365.309 150.000 M229.400 150.800 C 230.259 151.680,231.052 152.400,231.162 152.400 C 231.272 152.400,230.659 151.680,229.800 150.800 C 228.941 149.920,228.148 149.200,228.038 149.200 C 227.928 149.200,228.541 149.920,229.400 150.800 M329.375 152.100 L 328.200 153.400 329.500 152.225 C 330.215 151.579,330.800 150.994,330.800 150.925 C 330.800 150.616,330.470 150.888,329.375 152.100 M234.000 151.325 C 234.000 151.394,234.585 151.979,235.300 152.625 L 236.600 153.800 235.425 152.500 C 234.330 151.288,234.000 151.016,234.000 151.325 M163.353 152.900 C 161.976 155.236,161.886 155.435,162.587 154.600 C 163.400 153.632,164.100 152.400,163.838 152.400 C 163.733 152.400,163.515 152.625,163.353 152.900 M231.600 153.325 C 231.600 153.394,232.185 153.979,232.900 154.625 L 234.200 155.800 233.025 154.500 C 231.930 153.288,231.600 153.016,231.600 153.325 M365.720 156.000 C 365.720 157.210,365.795 157.705,365.887 157.100 C 365.978 156.495,365.978 155.505,365.887 154.900 C 365.795 154.295,365.720 154.790,365.720 156.000 M318.575 157.300 L 317.400 158.600 318.700 157.425 C 319.415 156.779,320.000 156.194,320.000 156.125 C 320.000 155.816,319.670 156.088,318.575 157.300 M304.575 158.500 L 303.400 159.800 304.700 158.625 C 305.415 157.979,306.000 157.394,306.000 157.325 C 306.000 157.016,305.670 157.288,304.575 158.500 M310.305 159.083 C 310.802 159.179,311.522 159.175,311.905 159.075 C 312.287 158.975,311.880 158.896,311.000 158.901 C 310.120 158.905,309.807 158.987,310.305 159.083 M366.120 161.200 C 366.120 162.410,366.195 162.905,366.287 162.300 C 366.378 161.695,366.378 160.705,366.287 160.100 C 366.195 159.495,366.120 159.990,366.120 161.200 M306.575 160.900 L 305.400 162.200 306.700 161.025 C 307.415 160.379,308.000 159.794,308.000 159.725 C 308.000 159.416,307.670 159.688,306.575 160.900 M363.293 163.200 C 363.293 163.970,363.375 164.285,363.476 163.900 C 363.576 163.515,363.576 162.885,363.476 162.500 C 363.375 162.115,363.293 162.430,363.293 163.200 M108.000 162.925 C 108.000 162.994,108.585 163.579,109.300 164.225 L 110.600 165.400 109.425 164.100 C 108.330 162.888,108.000 162.616,108.000 162.925 M302.000 163.133 C 302.000 163.483,295.892 163.624,277.700 163.697 L 253.400 163.794 277.577 163.900 C 300.412 164.000,303.224 163.891,302.273 162.940 C 302.123 162.790,302.000 162.877,302.000 163.133 M319.709 164.800 C 319.709 165.790,319.787 166.195,319.882 165.700 C 319.978 165.205,319.978 164.395,319.882 163.900 C 319.787 163.405,319.709 163.810,319.709 164.800 M233.152 165.513 C 233.021 166.307,233.079 166.681,233.301 166.459 C 233.503 166.257,233.601 165.667,233.519 165.146 C 233.393 164.345,233.337 164.402,233.152 165.513 M366.509 166.000 C 366.509 166.990,366.587 167.395,366.682 166.900 C 366.778 166.405,366.778 165.595,366.682 165.100 C 366.587 164.605,366.509 165.010,366.509 166.000 M265.700 167.100 C 272.465 167.161,283.535 167.161,290.300 167.100 C 297.065 167.038,291.530 166.988,278.000 166.988 C 264.470 166.988,258.935 167.038,265.700 167.100 M315.380 168.432 C 315.233 168.670,314.547 169.210,313.856 169.631 C 313.165 170.052,312.822 170.398,313.094 170.399 C 313.606 170.400,316.413 168.032,315.924 168.012 C 315.772 168.005,315.527 168.195,315.380 168.432 M361.594 173.100 L 356.600 178.200 361.700 173.206 C 366.437 168.567,366.981 168.000,366.694 168.000 C 366.636 168.000,364.341 170.295,361.594 173.100 M308.846 170.437 C 309.365 170.765,312.729 170.972,312.367 170.653 C 312.275 170.572,311.321 170.412,310.246 170.296 C 309.051 170.168,308.507 170.222,308.846 170.437 M242.100 175.487 C 242.705 175.578,243.695 175.578,244.300 175.487 C 244.905 175.395,244.410 175.320,243.200 175.320 C 241.990 175.320,241.495 175.395,242.100 175.487 M347.400 187.200 C 342.784 191.820,339.097 195.600,339.207 195.600 C 339.317 195.600,343.184 191.820,347.800 187.200 C 352.416 182.580,356.103 178.800,355.993 178.800 C 355.883 178.800,352.016 182.580,347.400 187.200 M144.532 182.633 C 144.384 183.017,144.659 183.608,145.230 184.133 L 146.170 185.000 145.437 184.115 C 145.033 183.628,144.809 182.953,144.939 182.615 C 145.069 182.277,145.085 182.000,144.975 182.000 C 144.865 182.000,144.666 182.285,144.532 182.633 M140.600 184.466 C 141.040 184.708,141.858 185.288,142.419 185.754 C 142.979 186.219,142.846 186.015,142.124 185.300 C 141.402 184.585,140.584 184.005,140.306 184.012 C 140.028 184.019,140.160 184.223,140.600 184.466 M98.128 188.300 C 104.029 188.362,113.569 188.362,119.328 188.300 C 125.088 188.237,120.260 188.186,108.600 188.186 C 96.940 188.186,92.228 188.237,98.128 188.300 M132.509 189.600 C 132.509 190.590,132.587 190.995,132.682 190.500 C 132.778 190.005,132.778 189.195,132.682 188.700 C 132.587 188.205,132.509 188.610,132.509 189.600 M144.109 189.600 C 144.109 190.590,144.187 190.995,144.282 190.500 C 144.378 190.005,144.378 189.195,144.282 188.700 C 144.187 188.205,144.109 188.610,144.109 189.600 M218.000 214.200 C 218.550 214.514,219.180 214.772,219.400 214.772 C 219.620 214.772,219.350 214.514,218.800 214.200 C 218.250 213.886,217.620 213.628,217.400 213.628 C 217.180 213.628,217.450 213.886,218.000 214.200 M237.200 219.400 C 237.750 219.714,238.380 219.972,238.600 219.972 C 238.820 219.972,238.550 219.714,238.000 219.400 C 237.450 219.086,236.820 218.828,236.600 218.828 C 236.380 218.828,236.650 219.086,237.200 219.400 M166.700 225.082 C 167.195 225.178,168.005 225.178,168.500 225.082 C 168.995 224.987,168.590 224.909,167.600 224.909 C 166.610 224.909,166.205 224.987,166.700 225.082 M172.505 225.487 C 173.114 225.579,174.014 225.577,174.505 225.482 C 174.997 225.387,174.500 225.311,173.400 225.314 C 172.300 225.317,171.897 225.395,172.505 225.487 M179.107 225.890 C 179.826 225.979,180.906 225.977,181.507 225.886 C 182.108 225.795,181.520 225.722,180.200 225.724 C 178.880 225.726,178.388 225.801,179.107 225.890 M184.500 226.287 C 185.105 226.378,186.095 226.378,186.700 226.287 C 187.305 226.195,186.810 226.120,185.600 226.120 C 184.390 226.120,183.895 226.195,184.500 226.287 M163.362 227.100 C 163.781 227.595,164.411 227.986,164.762 227.968 C 165.304 227.942,165.309 227.903,164.800 227.716 C 164.470 227.595,163.840 227.204,163.400 226.848 C 162.607 226.206,162.606 226.208,163.362 227.100 M190.100 226.687 C 190.705 226.778,191.695 226.778,192.300 226.687 C 192.905 226.595,192.410 226.520,191.200 226.520 C 189.990 226.520,189.495 226.595,190.100 226.687 M196.500 227.087 C 197.105 227.178,198.095 227.178,198.700 227.087 C 199.305 226.995,198.810 226.920,197.600 226.920 C 196.390 226.920,195.895 226.995,196.500 227.087 M202.100 227.487 C 202.705 227.578,203.695 227.578,204.300 227.487 C 204.905 227.395,204.410 227.320,203.200 227.320 C 201.990 227.320,201.495 227.395,202.100 227.487 M207.700 227.887 C 208.305 227.978,209.295 227.978,209.900 227.887 C 210.505 227.795,210.010 227.720,208.800 227.720 C 207.590 227.720,207.095 227.795,207.700 227.887 M168.905 228.287 C 169.514 228.379,170.414 228.377,170.905 228.282 C 171.397 228.187,170.900 228.111,169.800 228.114 C 168.700 228.117,168.297 228.195,168.905 228.287 M175.105 228.683 C 175.602 228.779,176.322 228.775,176.705 228.675 C 177.087 228.575,176.680 228.496,175.800 228.501 C 174.920 228.505,174.607 228.587,175.105 228.683 M180.500 229.076 C 180.885 229.176,181.515 229.176,181.900 229.076 C 182.285 228.975,181.970 228.893,181.200 228.893 C 180.430 228.893,180.115 228.975,180.500 229.076 M280.957 234.000 C 280.957 236.970,281.020 238.185,281.097 236.700 C 281.174 235.215,281.174 232.785,281.097 231.300 C 281.020 229.815,280.957 231.030,280.957 234.000 M199.705 230.287 C 200.314 230.379,201.214 230.377,201.705 230.282 C 202.197 230.187,201.700 230.111,200.600 230.114 C 199.500 230.117,199.097 230.195,199.705 230.287 M204.900 230.687 C 205.505 230.778,206.495 230.778,207.100 230.687 C 207.705 230.595,207.210 230.520,206.000 230.520 C 204.790 230.520,204.295 230.595,204.900 230.687 M210.500 231.087 C 211.105 231.178,212.095 231.178,212.700 231.087 C 213.305 230.995,212.810 230.920,211.600 230.920 C 210.390 230.920,209.895 230.995,210.500 231.087 M222.800 234.200 C 223.995 235.410,225.063 236.400,225.173 236.400 C 225.283 236.400,224.395 235.410,223.200 234.200 C 222.005 232.990,220.937 232.000,220.827 232.000 C 220.717 232.000,221.605 232.990,222.800 234.200 M221.200 237.000 C 222.395 238.210,223.463 239.200,223.573 239.200 C 223.683 239.200,222.795 238.210,221.600 237.000 C 220.405 235.790,219.337 234.800,219.227 234.800 C 219.117 234.800,220.005 235.790,221.200 237.000 M284.174 244.800 C 284.174 250.410,284.230 252.705,284.299 249.900 C 284.368 247.095,284.368 242.505,284.299 239.700 C 284.230 236.895,284.174 239.190,284.174 244.800 M229.800 240.800 C 230.883 241.900,231.860 242.800,231.970 242.800 C 232.080 242.800,231.283 241.900,230.200 240.800 C 229.117 239.700,228.140 238.800,228.030 238.800 C 227.920 238.800,228.717 239.700,229.800 240.800 M226.600 242.000 C 228.128 243.540,229.469 244.800,229.579 244.800 C 229.689 244.800,228.528 243.540,227.000 242.000 C 225.472 240.460,224.131 239.200,224.021 239.200 C 223.911 239.200,225.072 240.460,226.600 242.000 M235.400 246.000 C 236.483 247.100,237.460 248.000,237.570 248.000 C 237.680 248.000,236.883 247.100,235.800 246.000 C 234.717 244.900,233.740 244.000,233.630 244.000 C 233.520 244.000,234.317 244.900,235.400 246.000 M233.400 248.400 C 234.259 249.280,235.052 250.000,235.162 250.000 C 235.272 250.000,234.659 249.280,233.800 248.400 C 232.941 247.520,232.148 246.800,232.038 246.800 C 231.928 246.800,232.541 247.520,233.400 248.400 M241.583 251.700 C 243.241 253.466,243.600 253.784,243.600 253.483 C 243.600 253.419,242.745 252.564,241.700 251.583 L 239.800 249.800 241.583 251.700 M238.800 253.400 C 239.995 254.610,241.063 255.600,241.173 255.600 C 241.283 255.600,240.395 254.610,239.200 253.400 C 238.005 252.190,236.937 251.200,236.827 251.200 C 236.717 251.200,237.605 252.190,238.800 253.400 M281.365 259.600 C 281.365 263.450,281.425 265.025,281.498 263.100 C 281.571 261.175,281.571 258.025,281.498 256.100 C 281.425 254.175,281.365 255.750,281.365 259.600 M248.200 258.000 C 249.283 259.100,250.260 260.000,250.370 260.000 C 250.480 260.000,249.683 259.100,248.600 258.000 C 247.517 256.900,246.540 256.000,246.430 256.000 C 246.320 256.000,247.117 256.900,248.200 258.000 M245.800 260.000 C 246.883 261.100,247.860 262.000,247.970 262.000 C 248.080 262.000,247.283 261.100,246.200 260.000 C 245.117 258.900,244.140 258.000,244.030 258.000 C 243.920 258.000,244.717 258.900,245.800 260.000 M254.400 263.800 C 255.595 265.010,256.663 266.000,256.773 266.000 C 256.883 266.000,255.995 265.010,254.800 263.800 C 253.605 262.590,252.537 261.600,252.427 261.600 C 252.317 261.600,253.205 262.590,254.400 263.800 M251.583 265.300 C 252.564 266.345,253.419 267.200,253.483 267.200 C 253.784 267.200,253.466 266.841,251.700 265.183 L 249.800 263.400 251.583 265.300 M261.200 270.200 C 262.395 271.410,263.463 272.400,263.573 272.400 C 263.683 272.400,262.795 271.410,261.600 270.200 C 260.405 268.990,259.337 268.000,259.227 268.000 C 259.117 268.000,260.005 268.990,261.200 270.200 M257.200 270.600 C 258.395 271.810,259.463 272.800,259.573 272.800 C 259.683 272.800,258.795 271.810,257.600 270.600 C 256.405 269.390,255.337 268.400,255.227 268.400 C 255.117 268.400,256.005 269.390,257.200 270.600 M284.565 275.600 C 284.565 279.450,284.625 281.025,284.698 279.100 C 284.771 277.175,284.771 274.025,284.698 272.100 C 284.625 270.175,284.565 271.750,284.565 275.600 M267.800 276.400 C 268.883 277.500,269.860 278.400,269.970 278.400 C 270.080 278.400,269.283 277.500,268.200 276.400 C 267.117 275.300,266.140 274.400,266.030 274.400 C 265.920 274.400,266.717 275.300,267.800 276.400 M264.000 277.000 C 265.195 278.210,266.263 279.200,266.373 279.200 C 266.483 279.200,265.595 278.210,264.400 277.000 C 263.205 275.790,262.137 274.800,262.027 274.800 C 261.917 274.800,262.805 275.790,264.000 277.000 M273.800 282.000 C 274.883 283.100,275.860 284.000,275.970 284.000 C 276.080 284.000,275.283 283.100,274.200 282.000 C 273.117 280.900,272.140 280.000,272.030 280.000 C 271.920 280.000,272.717 280.900,273.800 282.000 M270.400 283.000 C 271.817 284.430,273.067 285.600,273.177 285.600 C 273.287 285.600,272.217 284.430,270.800 283.000 C 269.383 281.570,268.133 280.400,268.023 280.400 C 267.913 280.400,268.983 281.570,270.400 283.000 M281.593 282.281 C 281.487 283.425,281.547 284.215,281.726 284.035 C 281.905 283.856,281.991 282.919,281.918 281.954 L 281.785 280.200 281.593 282.281 M276.800 289.000 C 277.995 290.210,279.063 291.200,279.173 291.200 C 279.283 291.200,278.395 290.210,277.200 289.000 C 276.005 287.790,274.937 286.800,274.827 286.800 C 274.717 286.800,275.605 287.790,276.800 289.000 M282.600 294.400 C 283.683 295.500,284.660 296.400,284.770 296.400 C 284.880 296.400,284.083 295.500,283.000 294.400 C 281.917 293.300,280.940 292.400,280.830 292.400 C 280.720 292.400,281.517 293.300,282.600 294.400 M85.900 335.089 C 86.615 335.178,87.785 335.178,88.500 335.089 C 89.215 335.001,88.630 334.928,87.200 334.928 C 85.770 334.928,85.185 335.001,85.900 335.089 M91.300 335.076 C 91.685 335.176,92.315 335.176,92.700 335.076 C 93.085 334.975,92.770 334.893,92.000 334.893 C 91.230 334.893,90.915 334.975,91.300 335.076 M308.307 335.090 C 309.026 335.179,310.106 335.177,310.707 335.086 C 311.308 334.995,310.720 334.922,309.400 334.924 C 308.080 334.926,307.588 335.001,308.307 335.090 M313.300 335.076 C 313.685 335.176,314.315 335.176,314.700 335.076 C 315.085 334.975,314.770 334.893,314.000 334.893 C 313.230 334.893,312.915 334.975,313.300 335.076 M120.191 368.000 C 120.191 385.930,120.240 393.265,120.300 384.300 C 120.360 375.335,120.360 360.665,120.300 351.700 C 120.240 342.735,120.191 350.070,120.191 368.000 M124.591 368.000 C 124.591 385.930,124.640 393.265,124.700 384.300 C 124.760 375.335,124.760 360.665,124.700 351.700 C 124.640 342.735,124.591 350.070,124.591 368.000 M73.900 337.829 C 72.349 338.670,72.525 338.961,74.100 338.159 C 75.608 337.393,75.875 337.194,75.367 337.216 C 75.165 337.225,74.505 337.501,73.900 337.829 M84.100 339.476 C 84.485 339.576,85.115 339.576,85.500 339.476 C 85.885 339.375,85.570 339.293,84.800 339.293 C 84.030 339.293,83.715 339.375,84.100 339.476 M91.505 339.483 C 92.002 339.579,92.722 339.575,93.105 339.475 C 93.487 339.375,93.080 339.296,92.200 339.301 C 91.320 339.305,91.007 339.387,91.505 339.483 M176.400 339.325 C 176.400 339.394,176.985 339.979,177.700 340.625 L 179.000 341.800 177.825 340.500 C 176.730 339.288,176.400 339.016,176.400 339.325 M306.100 339.476 C 306.485 339.576,307.115 339.576,307.500 339.476 C 307.885 339.375,307.570 339.293,306.800 339.293 C 306.030 339.293,305.715 339.375,306.100 339.476 M313.505 339.483 C 314.002 339.579,314.722 339.575,315.105 339.475 C 315.487 339.375,315.080 339.296,314.200 339.301 C 313.320 339.305,313.007 339.387,313.505 339.483 M145.777 352.200 C 145.777 358.800,145.832 361.556,145.899 358.325 C 145.966 355.093,145.966 349.693,145.899 346.325 C 145.832 342.956,145.777 345.600,145.777 352.200 M173.600 342.525 C 173.600 342.594,174.185 343.179,174.900 343.825 L 176.200 345.000 175.025 343.700 C 173.930 342.488,173.600 342.216,173.600 342.525 M71.781 344.900 L 70.200 346.600 71.900 345.019 C 73.481 343.548,73.784 343.200,73.481 343.200 C 73.416 343.200,72.651 343.965,71.781 344.900 M293.781 344.900 L 292.200 346.600 293.900 345.019 C 295.481 343.548,295.784 343.200,295.481 343.200 C 295.416 343.200,294.651 343.965,293.781 344.900 M180.678 344.995 C 181.044 345.762,181.414 346.319,181.501 346.232 C 181.684 346.049,180.470 343.600,180.196 343.600 C 180.095 343.600,180.312 344.228,180.678 344.995 M182.524 352.200 C 182.526 353.520,182.601 354.012,182.690 353.293 C 182.779 352.574,182.777 351.494,182.686 350.893 C 182.595 350.292,182.522 350.880,182.524 352.200 M68.509 352.400 C 68.509 353.390,68.587 353.795,68.682 353.300 C 68.778 352.805,68.778 351.995,68.682 351.500 C 68.587 351.005,68.509 351.410,68.509 352.400 M290.509 352.400 C 290.509 353.390,290.587 353.795,290.682 353.300 C 290.778 352.805,290.778 351.995,290.682 351.500 C 290.587 351.005,290.509 351.410,290.509 352.400 M64.093 352.400 C 64.093 353.170,64.175 353.485,64.276 353.100 C 64.376 352.715,64.376 352.085,64.276 351.700 C 64.175 351.315,64.093 351.630,64.093 352.400 M72.000 360.600 C 72.746 361.370,73.447 362.000,73.557 362.000 C 73.667 362.000,73.146 361.370,72.400 360.600 C 71.654 359.830,70.953 359.200,70.843 359.200 C 70.733 359.200,71.254 359.830,72.000 360.600 M174.181 361.300 L 172.600 363.000 174.300 361.419 C 175.235 360.549,176.000 359.784,176.000 359.719 C 176.000 359.416,175.652 359.719,174.181 361.300 M293.200 359.725 C 293.200 359.794,293.785 360.379,294.500 361.025 L 295.800 362.200 294.625 360.900 C 293.530 359.688,293.200 359.416,293.200 359.725 M68.800 363.800 C 69.546 364.570,70.247 365.200,70.357 365.200 C 70.467 365.200,69.946 364.570,69.200 363.800 C 68.454 363.030,67.753 362.400,67.643 362.400 C 67.533 362.400,68.054 363.030,68.800 363.800 M290.800 363.800 C 291.546 364.570,292.247 365.200,292.357 365.200 C 292.467 365.200,291.946 364.570,291.200 363.800 C 290.454 363.030,289.753 362.400,289.643 362.400 C 289.533 362.400,290.054 363.030,290.800 363.800 M177.375 364.500 L 176.200 365.800 177.500 364.625 C 178.712 363.530,178.984 363.200,178.675 363.200 C 178.606 363.200,178.021 363.785,177.375 364.500 M151.524 364.699 C 154.673 364.767,159.713 364.767,162.724 364.699 C 165.736 364.631,163.160 364.576,157.000 364.576 C 150.840 364.576,148.376 364.632,151.524 364.699 M84.500 365.076 C 84.885 365.176,85.515 365.176,85.900 365.076 C 86.285 364.975,85.970 364.893,85.200 364.893 C 84.430 364.893,84.115 364.975,84.500 365.076 M306.500 365.076 C 306.885 365.176,307.515 365.176,307.900 365.076 C 308.285 364.975,307.970 364.893,307.200 364.893 C 306.430 364.893,306.115 364.975,306.500 365.076 M80.700 369.082 C 81.195 369.178,82.005 369.178,82.500 369.082 C 82.995 368.987,82.590 368.909,81.600 368.909 C 80.610 368.909,80.205 368.987,80.700 369.082 M151.700 369.099 C 154.945 369.166,160.255 369.166,163.500 369.099 C 166.745 369.032,164.090 368.977,157.600 368.977 C 151.110 368.977,148.455 369.032,151.700 369.099 M302.700 369.082 C 303.195 369.178,304.005 369.178,304.500 369.082 C 304.995 368.987,304.590 368.909,303.600 368.909 C 302.610 368.909,302.205 368.987,302.700 369.082 M85.100 369.482 C 85.595 369.578,86.405 369.578,86.900 369.482 C 87.395 369.387,86.990 369.309,86.000 369.309 C 85.010 369.309,84.605 369.387,85.100 369.482 M307.100 369.482 C 307.595 369.578,308.405 369.578,308.900 369.482 C 309.395 369.387,308.990 369.309,308.000 369.309 C 307.010 369.309,306.605 369.387,307.100 369.482 M145.779 382.600 C 145.779 389.860,145.833 392.886,145.899 389.325 C 145.965 385.764,145.966 379.824,145.899 376.125 C 145.833 372.426,145.779 375.340,145.779 382.600 M107.734 382.800 C 107.734 384.450,107.805 385.125,107.891 384.300 C 107.978 383.475,107.978 382.125,107.891 381.300 C 107.805 380.475,107.734 381.150,107.734 382.800 M180.131 382.600 C 180.133 384.140,180.205 384.721,180.292 383.891 C 180.379 383.061,180.377 381.801,180.289 381.091 C 180.200 380.381,180.129 381.060,180.131 382.600 M184.531 382.600 C 184.533 384.140,184.605 384.721,184.692 383.891 C 184.779 383.061,184.777 381.801,184.689 381.091 C 184.600 380.381,184.529 381.060,184.531 382.600 M329.737 383.000 C 329.739 384.760,329.809 385.430,329.893 384.489 C 329.978 383.549,329.977 382.109,329.891 381.289 C 329.805 380.470,329.736 381.240,329.737 383.000 M325.309 382.400 C 325.309 383.390,325.387 383.795,325.482 383.300 C 325.578 382.805,325.578 381.995,325.482 381.500 C 325.387 381.005,325.309 381.410,325.309 382.400 M103.293 382.400 C 103.293 383.170,103.375 383.485,103.476 383.100 C 103.576 382.715,103.576 382.085,103.476 381.700 C 103.375 381.315,103.293 381.630,103.293 382.400 M259.375 389.700 L 258.200 391.000 259.500 389.825 C 260.215 389.179,260.800 388.594,260.800 388.525 C 260.800 388.216,260.470 388.488,259.375 389.700 M224.400 393.400 C 225.595 394.610,226.663 395.600,226.773 395.600 C 226.883 395.600,225.995 394.610,224.800 393.400 C 223.605 392.190,222.537 391.200,222.427 391.200 C 222.317 391.200,223.205 392.190,224.400 393.400 M95.200 394.400 C 94.430 394.822,93.944 395.174,94.120 395.183 C 94.544 395.205,96.800 394.032,96.800 393.790 C 96.800 393.528,96.777 393.537,95.200 394.400 M317.200 394.400 C 316.430 394.822,315.944 395.174,316.120 395.183 C 316.544 395.205,318.800 394.032,318.800 393.790 C 318.800 393.528,318.777 393.537,317.200 394.400 M172.400 394.800 C 171.630 395.222,171.144 395.574,171.320 395.583 C 171.744 395.605,174.000 394.432,174.000 394.190 C 174.000 393.928,173.977 393.937,172.400 394.800 M64.586 395.627 C 64.237 396.302,64.007 397.014,64.076 397.209 C 64.144 397.404,64.502 396.851,64.870 395.982 C 65.665 394.106,65.487 393.884,64.586 395.627 M81.700 396.696 C 82.965 396.775,85.035 396.775,86.300 396.696 C 87.565 396.616,86.530 396.551,84.000 396.551 C 81.470 396.551,80.435 396.616,81.700 396.696 M303.715 396.696 C 304.988 396.776,306.968 396.775,308.115 396.694 C 309.262 396.614,308.220 396.549,305.800 396.550 C 303.380 396.551,302.442 396.616,303.715 396.696 M168.500 400.276 C 168.885 400.376,169.515 400.376,169.900 400.276 C 170.285 400.175,169.970 400.093,169.200 400.093 C 168.430 400.093,168.115 400.175,168.500 400.276 M81.700 401.096 C 82.965 401.175,85.035 401.175,86.300 401.096 C 87.565 401.016,86.530 400.951,84.000 400.951 C 81.470 400.951,80.435 401.016,81.700 401.096 M241.513 401.095 C 242.676 401.176,244.476 401.176,245.513 401.093 C 246.551 401.011,245.600 400.945,243.400 400.946 C 241.200 400.947,240.351 401.014,241.513 401.095 M303.700 401.096 C 304.965 401.175,307.035 401.175,308.300 401.096 C 309.565 401.016,308.530 400.951,306.000 400.951 C 303.470 400.951,302.435 401.016,303.700 401.096 " stroke="none" fill="#7c7c7c" fill-rule="evenodd"></path></g></svg>