<svg id="svg" version="1.1" xmlns="http://www.w3.org/2000/svg" xmlns:xlink="http://www.w3.org/1999/xlink" width="400" height="435.0802139037433" viewBox="0, 0, 400,435.0802139037433"><g id="svgg"><path id="path0" d="M136.136 25.597 C 134.561 25.770,132.311 26.224,131.136 26.605 C 128.409 27.489,121.063 30.477,120.800 30.809 C 120.690 30.947,117.720 32.192,114.200 33.575 C 110.680 34.957,106.990 36.513,106.000 37.032 C 105.010 37.551,101.320 39.104,97.800 40.483 C 94.280 41.862,91.310 43.108,91.200 43.252 C 91.090 43.396,87.832 44.780,83.960 46.326 C 80.088 47.873,76.308 49.512,75.560 49.968 C 74.812 50.424,73.910 50.798,73.555 50.799 C 73.200 50.799,72.445 51.264,71.877 51.832 C 70.662 53.047,38.800 99.600,38.800 100.161 C 38.800 100.249,44.515 97.577,51.500 94.224 C 63.227 88.594,83.721 78.783,95.526 73.148 C 100.109 70.961,100.430 70.734,100.126 69.898 C 96.911 61.048,106.762 52.495,115.208 56.804 L 116.958 57.697 117.925 56.548 C 118.457 55.917,120.177 53.947,121.746 52.170 C 123.316 50.394,126.130 47.162,128.000 44.987 C 129.870 42.813,132.390 39.936,133.600 38.594 C 136.149 35.765,139.311 32.133,142.561 28.300 L 144.850 25.600 143.075 25.600 C 142.099 25.600,140.782 25.528,140.150 25.441 C 139.518 25.353,137.711 25.423,136.136 25.597 M147.000 29.281 C 143.432 33.431,139.211 38.259,136.400 41.404 C 135.190 42.757,132.670 45.645,130.800 47.821 C 128.930 49.997,126.494 52.772,125.387 53.989 C 124.279 55.205,122.540 57.200,121.522 58.423 L 119.670 60.645 120.422 62.823 C 120.836 64.020,121.180 65.381,121.187 65.848 C 121.197 66.486,121.521 66.752,122.500 66.926 C 124.555 67.290,144.057 71.414,152.930 73.361 C 165.893 76.205,180.491 79.247,180.564 79.118 C 180.601 79.053,181.057 78.063,181.576 76.917 C 182.096 75.771,183.034 74.343,183.660 73.742 C 184.961 72.496,185.058 71.623,184.174 69.150 C 183.531 67.350,179.352 53.762,174.348 37.200 C 172.786 32.030,171.304 27.598,171.054 27.351 C 170.776 27.077,167.111 26.727,161.600 26.448 C 148.651 25.794,150.267 25.480,147.000 29.281 M175.604 27.452 C 175.610 27.888,177.970 35.657,187.517 66.665 L 188.523 69.929 191.381 69.713 C 197.113 69.279,202.466 72.437,204.075 77.202 L 204.683 79.000 206.641 78.927 C 207.719 78.886,218.590 77.395,230.800 75.613 C 243.010 73.831,260.043 71.360,268.650 70.123 L 284.300 67.872 284.506 65.601 C 284.620 64.352,285.011 62.752,285.376 62.047 L 286.039 60.764 283.458 57.682 C 279.655 53.140,279.027 52.684,274.600 51.254 C 272.400 50.543,270.278 49.784,269.884 49.567 C 269.491 49.351,266.611 48.360,263.484 47.365 C 260.358 46.370,256.540 45.091,255.000 44.522 C 249.213 42.385,248.025 41.981,241.000 39.761 C 237.040 38.510,233.620 37.362,233.400 37.210 C 232.832 36.819,229.204 35.581,221.622 33.190 C 218.004 32.049,214.674 30.881,214.222 30.595 C 212.471 29.484,207.077 28.810,195.200 28.217 C 188.490 27.881,181.335 27.494,179.300 27.356 C 177.265 27.218,175.602 27.261,175.604 27.452 M62.200 55.428 C 61.100 55.967,57.500 57.503,54.200 58.842 C 46.814 61.838,41.662 65.064,39.428 68.090 C 38.572 69.251,37.353 70.830,36.721 71.600 C 35.489 73.099,30.281 80.798,27.000 85.970 C 25.900 87.704,24.697 89.456,24.327 89.864 C 23.705 90.547,21.266 94.116,15.484 102.800 C 14.239 104.670,12.818 106.725,12.325 107.367 C -1.846 125.816,-3.340 136.639,5.832 154.400 C 6.343 155.390,7.740 158.630,8.936 161.600 C 10.132 164.570,11.850 168.557,12.755 170.460 C 13.660 172.363,14.400 174.042,14.400 174.191 C 14.400 174.768,18.040 183.263,18.431 183.600 C 18.559 183.710,19.123 184.970,19.684 186.400 C 22.737 194.181,24.104 197.361,24.613 197.870 C 24.925 198.182,25.493 199.104,25.874 199.919 C 27.073 202.478,32.256 207.239,35.618 208.870 C 42.803 212.356,41.141 212.159,65.400 212.393 L 87.000 212.601 90.342 213.946 C 94.448 215.598,98.158 218.923,101.442 223.893 C 102.639 225.704,103.950 227.504,104.355 227.893 C 104.761 228.282,105.594 229.410,106.206 230.400 C 106.819 231.390,108.795 234.180,110.596 236.600 C 112.397 239.020,114.370 241.810,114.979 242.800 C 115.588 243.790,116.293 244.780,116.545 245.000 C 116.797 245.220,118.046 246.599,119.320 248.065 C 121.561 250.643,124.317 252.568,128.800 254.684 C 132.591 256.474,133.130 256.533,161.000 258.187 C 176.970 259.135,184.800 260.003,184.800 260.824 C 184.800 261.001,185.172 261.264,185.626 261.408 C 187.209 261.911,191.817 265.313,194.211 267.748 C 195.538 269.097,198.401 271.820,200.574 273.800 C 202.747 275.780,205.645 278.480,207.015 279.800 C 208.384 281.120,211.457 284.000,213.844 286.200 C 216.230 288.400,219.708 291.640,221.571 293.400 C 228.360 299.813,231.539 302.790,238.600 309.349 C 242.560 313.027,246.548 316.751,247.463 317.623 C 252.796 322.711,263.581 321.796,267.600 315.913 C 270.490 311.684,270.578 310.921,270.204 293.465 L 269.911 279.773 256.891 267.587 C 249.729 260.884,240.425 252.160,236.214 248.200 C 219.671 232.641,219.642 232.616,218.074 232.346 C 217.263 232.206,213.270 231.885,209.200 231.632 C 205.130 231.380,198.560 230.917,194.600 230.604 C 190.640 230.290,181.100 229.656,173.400 229.194 C 156.785 228.196,158.084 228.420,156.627 226.304 C 155.244 224.294,149.419 216.202,145.423 210.741 C 143.871 208.618,140.260 203.624,137.400 199.642 C 133.570 194.310,132.042 192.472,131.600 192.665 C 126.695 194.813,119.039 191.359,117.528 186.318 L 117.073 184.800 91.037 184.794 C 76.717 184.791,64.796 184.656,64.548 184.494 C 64.299 184.332,63.188 182.040,62.078 179.400 C 60.968 176.760,58.589 171.180,56.791 167.000 C 54.993 162.820,52.213 156.340,50.613 152.600 C 49.013 148.860,46.035 141.930,43.995 137.200 C 38.251 123.881,35.345 117.097,32.734 110.912 L 30.333 105.224 34.502 99.112 C 36.795 95.750,40.200 90.750,42.069 88.000 C 43.937 85.250,49.739 76.739,54.962 69.087 C 60.185 61.435,64.400 55.012,64.329 54.812 C 64.258 54.613,63.300 54.890,62.200 55.428 M287.200 55.606 C 287.200 56.618,288.765 57.783,289.342 57.200 C 289.867 56.669,289.778 56.526,288.567 55.951 C 287.815 55.593,287.200 55.438,287.200 55.606 M305.206 62.100 C 305.221 63.317,305.896 63.709,307.456 63.405 C 308.953 63.114,308.970 63.093,308.000 62.711 C 307.450 62.495,306.687 62.156,306.305 61.959 C 305.382 61.482,305.199 61.505,305.206 62.100 M310.692 66.700 C 306.319 67.653,305.966 67.800,305.735 68.763 C 305.272 70.697,304.064 72.649,302.403 74.150 L 300.748 75.645 307.190 89.922 C 310.733 97.775,314.099 105.190,314.671 106.400 C 315.243 107.610,316.928 111.300,318.417 114.600 C 319.905 117.900,322.592 123.840,324.388 127.800 C 326.183 131.760,328.404 136.665,329.322 138.700 L 330.991 142.400 333.396 142.409 C 335.806 142.418,338.642 143.371,340.052 144.647 C 340.658 145.195,341.400 144.666,348.259 138.804 C 360.871 128.025,363.676 125.495,363.296 125.242 C 363.095 125.109,362.737 124.460,362.499 123.800 C 360.816 119.120,357.857 111.700,356.646 109.118 C 355.851 107.424,355.200 105.920,355.200 105.777 C 355.200 105.155,351.040 94.987,350.736 94.867 C 350.551 94.793,350.400 94.553,350.400 94.332 C 350.400 92.874,345.415 81.587,344.548 81.080 C 344.247 80.904,343.993 80.544,343.985 80.280 C 343.903 77.716,335.640 71.877,329.200 69.832 C 327.330 69.238,325.350 68.514,324.800 68.223 C 320.196 65.785,316.650 65.402,310.692 66.700 M119.257 72.240 C 118.233 73.693,115.400 75.969,113.973 76.485 C 113.676 76.592,115.975 92.964,118.763 110.600 C 119.423 114.780,120.696 123.240,121.591 129.400 C 122.487 135.560,123.750 143.949,124.398 148.043 C 125.047 152.136,126.124 159.143,126.792 163.613 C 127.460 168.083,128.050 171.775,128.103 171.819 C 128.156 171.862,129.010 172.004,130.000 172.135 L 131.800 172.372 134.128 168.686 C 139.572 160.066,143.441 153.971,145.606 150.600 C 146.878 148.620,150.309 143.220,153.230 138.600 C 156.151 133.980,159.975 127.950,161.727 125.200 C 163.480 122.450,166.170 118.220,167.705 115.800 C 169.240 113.380,171.959 109.095,173.748 106.278 C 185.031 88.507,184.035 90.517,182.531 88.545 C 181.943 87.774,181.248 86.301,180.987 85.272 L 180.512 83.400 177.556 82.708 C 175.930 82.328,170.640 81.190,165.800 80.180 C 160.960 79.170,152.950 77.462,148.000 76.385 C 143.050 75.308,135.040 73.605,130.200 72.600 C 125.360 71.596,121.199 70.704,120.954 70.620 C 120.708 70.535,119.945 71.264,119.257 72.240 M272.000 73.595 C 264.850 74.650,248.920 76.975,236.600 78.761 C 224.280 80.548,212.144 82.323,209.632 82.705 L 205.064 83.400 204.317 85.646 C 203.906 86.881,202.946 88.620,202.185 89.509 C 201.423 90.399,200.800 91.243,200.800 91.385 C 200.800 91.704,203.897 95.142,226.600 120.020 C 236.500 130.869,245.230 140.445,246.000 141.300 L 247.400 142.855 248.887 142.227 C 254.703 139.774,262.876 143.787,264.511 149.899 L 264.966 151.600 293.675 151.600 L 322.385 151.600 322.649 150.500 C 323.094 148.640,324.017 147.073,325.681 145.347 L 327.275 143.693 324.872 138.547 C 323.550 135.716,321.478 131.150,320.267 128.400 C 318.271 123.869,314.777 116.158,312.111 110.400 C 311.550 109.190,309.967 105.680,308.591 102.600 C 304.488 93.412,300.603 84.838,298.746 80.871 L 297.000 77.142 294.693 77.003 C 291.731 76.825,289.216 75.595,287.254 73.366 C 286.399 72.395,285.542 71.617,285.350 71.638 C 285.157 71.659,279.150 72.540,272.000 73.595 M97.992 76.327 C 95.458 77.577,91.138 79.663,88.392 80.962 C 84.200 82.945,68.027 90.695,46.200 101.178 C 43.560 102.446,40.275 103.984,38.900 104.596 C 35.864 105.948,35.852 105.736,39.122 108.298 C 40.595 109.452,43.075 111.432,44.634 112.698 C 46.192 113.964,49.702 116.807,52.434 119.016 C 55.165 121.224,62.253 126.984,68.184 131.816 C 80.366 141.739,96.679 154.976,106.613 163.000 C 107.975 164.100,111.294 166.800,113.988 169.000 C 116.682 171.200,119.273 173.298,119.745 173.662 C 120.641 174.353,124.000 172.976,124.000 171.918 C 124.000 171.697,123.017 165.191,121.816 157.458 C 120.615 149.726,118.993 138.990,118.211 133.600 C 117.428 128.210,115.892 118.040,114.797 111.000 C 113.702 103.960,112.130 93.520,111.303 87.800 L 109.800 77.400 107.655 76.713 C 106.474 76.335,104.911 75.570,104.181 75.013 C 103.451 74.456,102.796 74.012,102.727 74.027 C 102.657 74.042,100.526 75.077,97.992 76.327 M200.914 81.800 C 200.917 82.900,200.995 83.303,201.087 82.695 C 201.179 82.086,201.177 81.186,201.082 80.695 C 200.987 80.203,200.911 80.700,200.914 81.800 M185.418 95.303 C 184.547 96.677,182.462 99.960,180.785 102.600 C 179.107 105.240,176.141 109.920,174.193 113.000 C 170.257 119.226,165.669 126.447,161.613 132.800 C 160.138 135.110,158.086 138.350,157.054 140.000 C 156.021 141.650,153.628 145.430,151.735 148.400 C 141.796 163.993,135.200 174.459,135.200 174.635 C 135.200 174.713,135.748 175.554,136.417 176.503 L 137.634 178.230 150.517 175.340 C 174.668 169.921,189.822 166.479,191.412 166.051 C 192.285 165.816,198.580 164.369,205.400 162.836 C 212.220 161.302,222.930 158.888,229.200 157.471 L 240.600 154.895 240.850 152.547 C 241.144 149.779,241.690 148.283,243.060 146.486 L 244.065 145.169 242.558 143.484 C 240.905 141.637,228.470 127.968,221.200 120.008 C 218.670 117.237,214.980 113.178,213.000 110.987 C 211.020 108.796,208.219 105.743,206.775 104.202 C 205.331 102.661,202.529 99.595,200.548 97.388 C 197.381 93.862,196.828 93.410,195.973 93.648 C 194.280 94.121,190.660 93.986,189.000 93.388 C 188.120 93.071,187.310 92.811,187.200 92.810 C 187.090 92.808,186.288 93.930,185.418 95.303 M38.004 112.900 C 38.011 113.092,43.887 126.885,55.400 153.736 L 67.000 180.790 92.003 180.795 L 117.005 180.800 117.523 179.141 C 117.808 178.228,117.897 177.348,117.721 177.184 C 117.212 176.714,103.903 165.904,96.809 160.200 C 94.894 158.660,87.685 152.810,80.790 147.200 C 73.894 141.590,66.801 135.823,65.026 134.384 C 63.252 132.945,58.812 129.345,55.159 126.384 C 51.506 123.423,46.243 119.155,43.462 116.900 C 38.962 113.251,37.990 112.539,38.004 112.900 M361.251 132.900 C 359.943 134.055,355.351 137.970,351.048 141.600 L 343.224 148.200 343.512 149.600 C 344.097 152.444,343.757 155.916,342.695 157.964 L 341.687 159.906 343.744 162.275 C 344.875 163.579,349.835 169.450,354.768 175.322 C 359.700 181.195,363.953 186.000,364.218 186.000 C 365.001 186.000,366.464 182.074,367.113 178.231 C 367.852 173.853,365.155 130.800,364.142 130.800 C 363.860 130.800,362.560 131.745,361.251 132.900 M332.500 146.276 C 332.885 146.376,333.515 146.376,333.900 146.276 C 334.285 146.175,333.970 146.093,333.200 146.093 C 332.430 146.093,332.115 146.175,332.500 146.276 M264.934 156.300 C 264.275 158.209,263.103 160.644,262.546 161.260 C 262.202 161.639,262.001 162.096,262.098 162.275 C 262.729 163.437,295.080 217.462,297.306 221.069 L 300.063 225.538 302.531 224.101 C 303.889 223.311,306.080 222.001,307.400 221.189 C 308.720 220.378,312.950 217.860,316.800 215.595 C 320.650 213.330,325.510 210.452,327.600 209.201 C 332.796 206.089,340.834 201.326,349.200 196.403 C 353.050 194.137,357.321 191.571,358.690 190.701 L 361.180 189.119 355.905 182.859 C 353.004 179.417,348.209 173.720,345.251 170.200 C 337.870 161.418,338.826 162.263,337.090 162.988 C 332.171 165.043,324.940 161.963,323.166 157.057 L 322.639 155.600 293.907 155.600 C 266.902 155.600,265.160 155.642,264.934 156.300 M232.200 160.801 C 222.010 163.156,191.195 170.190,155.400 178.330 C 138.081 182.269,138.626 182.123,138.484 182.858 C 138.398 183.307,139.230 183.704,141.684 184.382 C 145.548 185.449,162.753 190.076,176.800 193.825 C 182.190 195.264,187.770 196.784,189.200 197.204 C 190.630 197.624,196.597 199.234,202.460 200.781 C 208.323 202.329,213.397 203.701,213.734 203.830 C 214.180 204.001,215.972 201.899,220.295 196.133 C 223.567 191.770,228.200 185.590,230.592 182.400 C 232.984 179.210,236.492 174.530,238.389 172.000 C 240.285 169.470,242.511 166.466,243.334 165.325 L 244.832 163.249 243.416 161.394 C 242.637 160.374,242.000 159.373,242.000 159.169 C 242.000 158.592,241.151 158.733,232.200 160.801 M258.804 165.083 C 258.800 165.525,261.005 177.560,264.650 197.000 C 265.434 201.180,267.118 210.270,268.392 217.200 C 270.644 229.444,270.776 229.958,273.079 235.400 C 274.382 238.480,276.787 244.215,278.424 248.144 C 281.735 256.093,281.632 255.970,284.080 254.855 C 285.047 254.414,288.509 253.554,291.774 252.944 L 297.709 251.834 297.515 240.368 L 297.320 228.902 281.198 201.951 C 272.331 187.128,264.136 173.470,262.986 171.600 C 261.836 169.730,260.425 167.390,259.851 166.400 C 259.277 165.410,258.806 164.817,258.804 165.083 M233.651 184.964 C 225.487 195.861,218.761 204.963,218.704 205.190 C 218.606 205.578,223.866 208.096,235.000 212.991 C 237.640 214.152,243.490 216.769,248.000 218.807 C 264.049 226.060,265.797 226.791,265.906 226.287 C 265.964 226.019,265.289 222.020,264.406 217.400 C 263.522 212.780,261.801 203.510,260.582 196.800 C 258.385 184.710,255.340 168.585,254.945 166.952 C 254.771 166.234,254.363 166.072,252.270 165.893 C 250.911 165.777,249.506 165.562,249.147 165.416 C 248.639 165.209,245.221 169.521,233.651 184.964 M136.402 188.797 C 135.920 189.474,135.678 190.213,135.846 190.497 C 136.760 192.050,160.054 224.197,160.332 224.289 C 160.479 224.338,168.880 224.923,179.000 225.588 C 189.120 226.253,201.851 227.102,207.291 227.475 C 212.730 227.847,217.262 228.072,217.360 227.973 C 217.671 227.662,213.587 208.239,213.155 207.972 C 212.928 207.832,209.290 206.781,205.071 205.637 C 200.852 204.493,193.530 202.497,188.800 201.201 C 184.070 199.906,176.690 197.926,172.400 196.802 C 168.110 195.678,163.430 194.415,162.000 193.995 C 157.374 192.635,138.292 187.600,137.765 187.600 C 137.484 187.600,136.871 188.139,136.402 188.797 M344.800 203.558 C 340.510 206.140,333.850 210.120,330.000 212.402 C 326.150 214.684,320.840 217.842,318.200 219.420 C 315.560 220.997,312.798 222.596,312.063 222.973 C 311.327 223.350,310.803 223.737,310.899 223.832 C 311.052 223.985,334.453 219.307,334.628 219.088 C 334.667 219.040,335.003 218.402,335.375 217.671 C 335.747 216.939,339.910 212.488,344.625 207.779 C 355.612 196.809,355.602 197.055,344.800 203.558 M218.097 210.500 C 218.198 210.775,219.058 215.082,220.010 220.071 L 221.740 229.142 235.760 242.271 C 243.470 249.492,254.225 259.585,259.658 264.700 C 270.994 275.372,269.822 274.562,270.167 271.965 C 270.315 270.846,270.584 269.631,270.764 269.265 C 270.945 268.899,271.583 267.520,272.183 266.200 C 273.644 262.985,275.740 259.863,276.984 259.047 C 278.298 258.186,278.274 257.898,276.562 253.932 C 275.771 252.099,274.072 248.044,272.787 244.920 C 268.097 233.524,267.187 231.676,266.053 231.252 C 265.474 231.035,261.760 229.387,257.800 227.590 C 253.840 225.792,247.450 222.920,243.600 221.207 C 233.536 216.731,225.470 213.106,221.878 211.444 C 218.526 209.894,217.810 209.715,218.097 210.500 M316.600 226.833 L 301.400 229.903 301.477 240.003 C 301.572 252.478,300.981 251.271,306.465 250.188 C 312.293 249.037,313.200 248.791,313.200 248.357 C 313.200 248.160,313.475 248.000,313.811 248.000 C 314.334 248.000,316.681 246.863,320.200 244.904 C 321.019 244.449,322.032 243.452,325.591 239.600 C 327.788 237.222,333.085 224.337,332.054 223.877 C 331.914 223.815,324.960 225.145,316.600 226.833 " stroke="none" fill="#7cbcdc" fill-rule="evenodd"></path><path id="path1" d="M161.000 2.437 C 157.700 3.764,153.519 5.558,151.708 6.425 C 149.897 7.291,148.277 8.000,148.108 8.001 C 147.532 8.001,137.813 12.056,137.606 12.382 C 137.493 12.560,136.590 12.982,135.600 13.319 C 134.610 13.656,132.900 14.323,131.800 14.800 C 130.700 15.277,129.020 15.935,128.067 16.261 C 127.113 16.587,124.465 17.742,122.182 18.827 C 119.898 19.912,117.927 20.800,117.801 20.800 C 117.360 20.800,108.198 24.502,108.000 24.761 C 107.890 24.905,107.080 25.314,106.200 25.670 C 101.858 27.427,98.465 28.769,97.200 29.228 C 96.430 29.507,94.810 30.234,93.600 30.842 C 92.390 31.451,89.150 32.838,86.400 33.925 C 77.648 37.382,75.560 38.507,73.890 40.665 C 71.990 43.119,68.000 49.214,68.000 49.661 C 68.000 49.848,67.839 50.000,67.642 50.000 C 67.128 50.000,64.578 54.082,64.716 54.683 C 64.821 55.141,61.649 59.907,46.800 81.600 C 37.605 95.033,31.808 103.570,31.252 104.496 C 30.748 105.335,31.069 106.257,35.194 115.804 C 37.664 121.522,40.912 129.080,42.411 132.600 C 46.925 143.200,50.023 150.432,55.093 162.200 C 57.747 168.360,60.575 174.998,61.378 176.952 C 62.182 178.905,63.283 181.380,63.826 182.452 L 64.813 184.400 90.952 184.400 L 117.091 184.400 117.756 186.140 C 119.751 191.363,124.610 193.791,130.814 192.664 L 132.629 192.335 134.842 195.467 C 136.060 197.190,138.560 200.670,140.399 203.200 C 145.198 209.803,155.952 224.737,157.168 226.485 C 157.735 227.301,158.470 227.984,158.800 228.002 C 159.130 228.020,172.844 228.894,189.276 229.946 L 219.152 231.857 223.850 236.228 C 262.723 272.405,270.000 279.317,270.000 280.062 C 270.000 280.446,270.252 280.904,270.561 281.080 C 271.231 281.463,283.503 292.879,291.220 300.300 C 293.108 302.115,294.761 303.600,294.894 303.600 C 295.026 303.600,296.550 305.040,298.280 306.800 C 303.075 311.679,302.911 311.946,302.636 299.700 C 302.509 294.035,302.300 280.850,302.171 270.400 C 302.039 259.727,301.775 251.233,301.568 251.020 C 301.363 250.808,301.200 245.996,301.200 240.148 L 301.200 229.657 303.500 229.216 C 304.765 228.973,307.780 228.327,310.200 227.780 C 319.557 225.664,331.399 223.601,332.742 223.853 C 333.482 223.992,334.203 223.933,334.344 223.723 C 334.485 223.513,339.634 222.401,345.786 221.251 C 351.939 220.101,357.018 219.115,357.074 219.059 C 357.130 219.004,358.464 214.827,360.038 209.779 C 361.612 204.731,363.019 200.510,363.164 200.400 C 363.309 200.290,364.052 198.182,364.814 195.715 L 366.200 191.231 383.107 174.315 L 400.015 157.400 399.795 155.200 C 399.675 153.990,398.772 141.444,397.790 127.320 C 395.974 101.216,395.548 97.833,393.947 96.781 C 393.764 96.660,393.087 95.130,392.444 93.381 C 389.431 85.192,387.962 81.489,387.613 81.200 C 387.480 81.090,386.126 77.760,384.604 73.800 C 383.082 69.840,381.734 66.510,381.608 66.400 C 381.220 66.062,376.571 54.298,375.720 51.500 C 375.603 51.115,375.365 50.800,375.192 50.800 C 375.020 50.800,374.703 50.297,374.489 49.682 C 374.225 48.927,373.662 48.423,372.749 48.126 C 372.007 47.884,368.700 46.837,365.400 45.798 C 362.100 44.760,359.220 43.767,359.000 43.592 C 358.664 43.325,350.143 40.476,342.600 38.110 C 341.500 37.764,340.510 37.372,340.400 37.236 C 340.290 37.101,336.600 35.839,332.200 34.431 C 327.800 33.023,323.480 31.549,322.600 31.156 C 321.720 30.764,317.490 29.329,313.200 27.969 C 308.910 26.608,304.680 25.169,303.800 24.770 C 302.920 24.370,298.690 22.929,294.400 21.567 C 290.110 20.205,286.150 18.853,285.600 18.564 C 285.050 18.275,280.820 16.831,276.200 15.355 C 271.580 13.880,267.710 12.546,267.600 12.390 C 267.490 12.235,266.950 11.978,266.400 11.820 C 262.390 10.666,248.845 6.191,248.200 5.807 C 244.948 3.875,242.981 3.689,205.800 1.799 C 162.722 -0.391,168.226 -0.469,161.000 2.437 M189.800 5.229 C 199.700 5.693,208.070 6.181,208.400 6.312 C 208.730 6.444,215.993 6.928,224.539 7.389 L 240.078 8.226 241.739 10.093 C 242.653 11.119,244.453 13.136,245.739 14.574 C 247.026 16.012,248.572 17.866,249.175 18.694 C 249.778 19.522,251.156 21.113,252.236 22.228 C 253.316 23.343,255.072 25.368,256.138 26.728 C 257.205 28.088,258.237 29.200,258.433 29.200 C 258.630 29.200,259.218 29.878,259.741 30.706 C 260.264 31.535,261.718 33.290,262.971 34.606 C 264.225 35.923,265.374 37.205,265.525 37.456 C 266.340 38.810,276.011 49.611,279.823 53.426 C 282.255 55.860,284.733 58.490,285.328 59.270 L 286.410 60.689 285.614 62.445 C 285.176 63.410,284.814 65.047,284.809 66.082 C 284.799 68.250,285.674 67.903,277.000 69.180 C 274.140 69.601,269.460 70.313,266.600 70.762 C 263.740 71.211,254.830 72.490,246.800 73.604 C 238.770 74.718,230.760 75.889,229.000 76.206 C 225.225 76.887,206.249 79.600,205.266 79.600 C 204.816 79.600,204.356 78.947,203.900 77.663 C 201.907 72.053,197.007 69.498,189.406 70.105 L 188.212 70.200 185.459 61.200 C 183.944 56.250,181.644 48.690,180.347 44.400 C 179.049 40.110,177.348 34.579,176.564 32.110 C 175.781 29.640,175.241 27.458,175.363 27.260 C 175.608 26.863,172.877 16.719,172.438 16.400 C 172.185 16.216,168.800 4.938,168.800 4.279 C 168.800 4.121,169.475 4.079,170.300 4.187 C 171.125 4.295,179.900 4.764,189.800 5.229 M156.703 11.495 C 155.326 13.197,153.606 15.114,152.880 15.754 C 152.153 16.395,151.317 17.387,151.020 17.959 C 150.724 18.532,149.284 20.192,147.820 21.648 C 146.356 23.104,145.130 24.675,145.095 25.138 C 145.060 25.602,143.252 28.010,141.078 30.490 C 138.903 32.971,135.566 36.772,133.662 38.938 C 131.758 41.104,129.390 43.832,128.400 45.000 C 126.333 47.440,117.104 58.001,117.042 57.998 C 117.019 57.997,116.114 57.547,115.032 56.998 C 107.426 53.139,97.903 60.377,100.118 68.334 C 100.898 71.135,101.034 70.959,96.443 73.100 C 94.329 74.086,90.620 75.847,88.200 77.013 C 85.780 78.179,77.320 82.232,69.400 86.020 C 61.480 89.808,53.920 93.437,52.600 94.085 C 46.460 97.099,38.270 100.804,38.108 100.641 C 38.008 100.542,39.948 97.522,42.418 93.930 C 44.888 90.339,49.598 83.440,52.884 78.600 C 56.170 73.760,61.507 65.906,64.744 61.146 C 67.981 56.386,71.208 52.005,71.915 51.410 C 72.622 50.816,73.200 50.084,73.200 49.784 C 73.200 49.485,73.430 49.096,73.712 48.920 C 74.329 48.535,76.882 44.976,77.761 43.276 C 78.107 42.605,78.798 41.939,79.296 41.795 C 81.008 41.299,89.401 37.929,90.217 37.410 C 90.667 37.124,94.087 35.674,97.817 34.188 C 101.548 32.702,104.960 31.256,105.400 30.975 C 105.840 30.694,109.259 29.264,112.998 27.797 C 116.737 26.330,119.887 25.006,119.998 24.854 C 120.242 24.521,121.761 23.879,128.700 21.175 C 131.615 20.039,134.000 18.950,134.000 18.755 C 134.000 18.560,134.176 18.400,134.391 18.400 C 135.045 18.400,146.787 13.658,150.292 11.978 C 152.103 11.110,153.744 10.400,153.941 10.400 C 154.137 10.400,155.265 9.960,156.449 9.423 C 157.632 8.886,158.736 8.436,158.903 8.423 C 159.070 8.410,158.080 9.793,156.703 11.495 M166.008 11.200 C 166.135 11.310,166.569 12.570,166.973 14.000 C 167.377 15.430,168.019 17.680,168.400 19.000 C 168.781 20.320,169.425 22.570,169.831 24.000 C 170.237 25.430,170.794 26.780,171.069 27.000 C 171.575 27.404,174.478 36.101,176.810 44.200 C 177.507 46.620,179.026 51.570,180.186 55.200 C 181.346 58.830,182.979 64.175,183.815 67.077 L 185.335 72.354 183.894 73.949 C 183.101 74.826,182.129 76.456,181.733 77.572 C 181.336 78.687,180.829 79.599,180.606 79.598 C 180.019 79.595,165.114 76.441,164.400 76.168 C 164.070 76.042,158.604 74.872,152.253 73.567 C 145.903 72.263,139.513 70.912,138.053 70.564 C 136.594 70.217,132.189 69.242,128.265 68.398 C 124.340 67.553,121.084 66.803,121.028 66.731 C 120.973 66.659,120.656 65.520,120.325 64.200 C 119.993 62.880,119.605 61.530,119.461 61.200 C 119.285 60.793,120.906 58.656,124.500 54.560 C 127.415 51.237,132.140 45.854,135.000 42.597 C 140.533 36.295,142.178 34.395,146.564 29.246 C 148.132 27.404,149.640 26.000,150.050 26.000 C 150.447 26.000,150.981 25.595,151.237 25.100 C 151.493 24.605,152.856 22.940,154.265 21.400 C 159.110 16.107,162.602 12.141,163.773 10.602 L 164.946 9.060 165.362 10.030 C 165.591 10.563,165.882 11.090,166.008 11.200 M251.354 11.681 C 252.259 11.945,253.090 12.286,253.200 12.438 C 253.423 12.747,270.752 18.400,271.475 18.400 C 271.727 18.400,271.993 18.554,272.067 18.742 C 272.198 19.078,288.203 24.400,289.083 24.400 C 289.330 24.400,289.593 24.553,289.667 24.741 C 289.797 25.074,307.020 30.800,307.892 30.800 C 308.135 30.800,308.393 30.953,308.467 31.139 C 308.540 31.326,312.380 32.697,317.000 34.185 C 321.620 35.673,325.580 37.026,325.800 37.191 C 326.020 37.355,330.340 38.815,335.400 40.434 C 340.460 42.052,344.690 43.495,344.800 43.639 C 344.910 43.783,347.700 44.747,351.000 45.781 C 361.142 48.959,364.285 50.191,363.178 50.555 C 362.860 50.659,359.900 51.307,356.600 51.995 C 353.300 52.683,348.620 53.675,346.200 54.199 C 343.780 54.723,341.125 55.273,340.300 55.421 C 339.475 55.568,338.800 55.810,338.800 55.959 C 338.800 56.107,337.135 56.556,335.100 56.956 C 333.065 57.356,330.320 57.930,329.000 58.232 C 327.680 58.533,323.540 59.420,319.800 60.203 C 316.060 60.986,312.724 61.778,312.387 61.963 C 312.050 62.147,311.183 62.428,310.460 62.587 C 309.737 62.746,308.663 63.127,308.073 63.435 C 306.026 64.503,304.548 63.651,305.059 61.697 C 305.368 60.514,302.640 57.684,299.815 56.257 C 297.353 55.015,291.672 54.784,291.296 55.911 C 291.207 56.180,290.952 56.400,290.731 56.400 C 290.509 56.400,289.995 56.805,289.588 57.300 L 288.849 58.200 287.971 57.336 C 287.489 56.861,287.073 56.095,287.047 55.635 C 287.021 55.174,285.880 53.583,284.510 52.099 C 283.141 50.614,280.013 47.060,277.561 44.200 C 271.256 36.849,266.529 31.413,264.177 28.813 C 263.065 27.582,261.394 25.546,260.465 24.288 C 259.535 23.029,258.627 22.000,258.447 22.000 C 258.267 22.000,257.328 20.975,256.360 19.723 C 255.392 18.470,253.739 16.555,252.687 15.466 C 250.586 13.293,248.987 11.200,249.426 11.200 C 249.581 11.200,250.448 11.416,251.354 11.681 M371.904 55.000 C 373.015 58.083,375.024 63.020,375.241 63.200 C 375.446 63.370,377.992 69.876,380.603 76.900 C 380.991 77.945,381.434 78.800,381.587 78.800 C 381.740 78.800,382.058 79.385,382.293 80.100 C 383.218 82.915,386.154 90.347,387.390 93.000 C 388.107 94.540,389.180 97.149,389.774 98.798 L 390.853 101.795 389.727 102.717 C 389.107 103.223,387.454 104.659,386.054 105.907 C 384.654 107.155,382.605 108.850,381.502 109.673 C 380.399 110.496,379.252 111.519,378.953 111.946 C 378.654 112.373,377.063 113.736,375.417 114.974 C 373.772 116.213,372.276 117.493,372.093 117.820 C 371.910 118.146,370.785 119.147,369.591 120.043 C 366.467 122.391,365.206 123.557,363.401 125.766 C 362.522 126.843,360.795 128.551,359.565 129.562 C 356.676 131.935,344.747 142.144,342.550 144.124 L 340.859 145.648 339.200 144.446 C 337.368 143.119,333.818 142.201,332.034 142.593 C 330.800 142.864,330.038 141.618,326.950 134.281 C 326.385 132.940,325.111 130.123,324.117 128.021 C 323.124 125.920,321.358 122.040,320.194 119.400 C 319.030 116.760,316.644 111.450,314.892 107.600 C 307.832 92.089,305.409 86.747,302.966 81.304 L 300.409 75.608 302.200 73.957 C 303.441 72.813,304.250 71.597,304.833 69.997 L 305.675 67.688 310.137 66.562 C 312.592 65.943,315.162 65.471,315.848 65.514 C 316.535 65.556,318.785 65.228,320.848 64.785 C 322.912 64.341,326.400 63.605,328.600 63.148 C 330.800 62.692,332.780 62.178,333.000 62.005 C 333.220 61.833,334.030 61.567,334.800 61.414 C 335.570 61.261,338.180 60.709,340.600 60.189 C 343.020 59.668,348.150 58.582,352.000 57.776 C 355.850 56.971,359.180 56.167,359.400 55.991 C 359.620 55.814,360.880 55.464,362.200 55.212 C 363.520 54.960,366.040 54.428,367.800 54.031 C 371.278 53.244,371.271 53.243,371.904 55.000 M113.666 60.048 C 119.332 62.885,118.048 71.791,111.769 73.207 C 104.971 74.741,100.420 66.359,105.365 61.414 C 107.964 58.814,110.402 58.413,113.666 60.048 M298.305 59.898 C 304.978 62.956,302.577 73.329,295.191 73.349 C 286.999 73.371,285.669 61.503,293.615 59.280 C 295.155 58.849,296.362 59.008,298.305 59.898 M126.400 71.410 C 128.930 71.968,136.991 73.676,144.313 75.205 C 151.635 76.734,158.667 78.255,159.940 78.585 C 161.213 78.914,166.293 80.009,171.227 81.018 C 180.862 82.986,180.836 82.975,181.533 85.442 C 181.789 86.346,182.448 87.749,182.999 88.560 C 184.314 90.498,184.347 90.347,181.736 94.339 C 180.490 96.242,177.939 100.230,176.067 103.200 C 174.194 106.170,171.641 110.220,170.392 112.200 C 169.144 114.180,165.186 120.390,161.596 126.000 C 158.006 131.610,154.353 137.370,153.479 138.800 C 151.739 141.646,146.704 149.561,143.428 154.600 C 142.284 156.360,140.189 159.651,138.774 161.914 C 137.358 164.177,135.239 167.561,134.064 169.433 L 131.928 172.838 130.064 172.572 C 129.039 172.426,128.087 172.193,127.948 172.053 C 127.612 171.714,126.077 162.208,123.388 143.800 C 122.167 135.440,120.903 127.070,120.580 125.200 C 120.256 123.330,118.903 114.330,117.572 105.200 C 116.242 96.070,114.827 86.710,114.427 84.400 C 112.960 75.913,112.954 76.462,114.526 75.805 C 116.502 74.980,118.313 73.339,119.228 71.545 C 119.870 70.287,120.191 70.029,120.911 70.193 C 121.400 70.304,123.870 70.852,126.400 71.410 M287.299 72.956 C 289.228 75.264,291.609 76.400,294.517 76.400 C 297.276 76.400,297.071 76.135,300.778 84.468 C 302.279 87.841,304.901 93.660,306.605 97.400 C 312.720 110.819,315.730 117.492,318.241 123.200 C 319.644 126.390,321.131 129.630,321.544 130.400 C 321.958 131.170,323.493 134.537,324.954 137.883 L 327.612 143.966 325.852 145.727 C 324.601 146.978,323.875 148.170,323.346 149.844 L 322.600 152.200 294.600 152.310 C 262.833 152.435,265.102 152.585,264.423 150.318 C 262.493 143.877,255.604 140.386,248.853 142.427 L 247.107 142.955 245.253 140.973 C 243.165 138.740,234.689 129.441,223.400 116.998 C 219.220 112.391,214.540 107.257,213.000 105.590 C 199.822 91.326,199.954 91.506,201.510 89.865 C 202.958 88.339,203.899 86.547,204.321 84.513 L 204.635 83.000 216.817 81.320 C 223.518 80.396,231.790 79.186,235.200 78.632 C 238.610 78.077,245.270 77.084,250.000 76.424 C 263.378 74.558,278.297 72.380,281.600 71.812 C 283.250 71.528,284.877 71.274,285.215 71.248 C 285.554 71.222,286.491 71.990,287.299 72.956 M195.705 73.830 C 199.892 75.256,202.281 79.854,201.044 84.107 C 198.262 93.679,184.286 91.787,184.286 81.838 C 184.286 75.707,189.821 71.825,195.705 73.830 M103.826 74.442 C 104.242 75.115,107.263 76.381,108.476 76.391 C 109.931 76.403,109.867 76.210,111.007 84.061 C 111.562 87.878,112.281 92.440,112.606 94.200 C 112.931 95.960,114.366 105.410,115.794 115.200 C 117.223 124.990,118.651 134.440,118.967 136.200 C 119.282 137.960,120.547 146.420,121.776 155.000 C 123.005 163.580,124.102 171.050,124.213 171.600 C 124.387 172.453,124.165 172.732,122.708 173.501 C 120.319 174.761,120.794 175.001,112.930 168.562 C 109.008 165.351,102.830 160.330,99.200 157.405 C 95.570 154.480,88.910 149.080,84.400 145.405 C 76.385 138.875,74.192 137.096,60.148 125.740 C 45.862 114.189,36.965 106.881,36.492 106.310 C 35.998 105.716,38.765 104.306,65.400 91.582 C 69.855 89.454,82.065 83.604,95.400 77.208 C 102.779 73.669,103.252 73.514,103.826 74.442 M189.600 93.292 C 190.370 93.515,192.401 93.602,194.113 93.485 L 197.226 93.274 203.313 99.921 C 206.661 103.576,211.389 108.735,213.819 111.384 C 216.250 114.033,223.715 122.230,230.409 129.600 C 237.103 136.970,242.674 143.090,242.790 143.200 C 244.272 144.610,244.516 145.208,243.894 145.900 C 242.656 147.274,241.218 150.709,240.959 152.908 L 240.697 155.143 237.648 155.798 C 235.972 156.158,234.055 156.622,233.390 156.828 C 232.294 157.167,218.471 160.309,194.600 165.643 C 189.760 166.725,182.470 168.407,178.400 169.380 C 174.330 170.354,167.130 171.984,162.400 173.001 C 157.670 174.019,151.730 175.373,149.200 176.010 C 146.670 176.647,143.027 177.515,141.105 177.939 L 137.611 178.711 136.205 176.754 C 135.432 175.678,134.800 174.719,134.800 174.623 C 134.800 174.411,137.985 169.306,143.799 160.200 C 146.186 156.460,150.784 149.260,154.015 144.200 C 157.246 139.140,160.611 133.830,161.493 132.400 C 162.376 130.970,165.447 126.110,168.319 121.600 C 176.852 108.202,179.461 104.102,183.283 98.079 C 186.093 93.653,187.060 92.418,187.557 92.623 C 187.911 92.768,188.830 93.069,189.600 93.292 M392.555 118.300 C 392.959 124.185,393.447 130.350,393.638 132.000 C 393.830 133.650,394.347 139.536,394.787 145.080 L 395.588 155.160 379.923 170.780 C 371.307 179.371,364.127 186.400,363.967 186.400 C 363.697 186.400,350.061 170.433,343.896 162.898 L 341.193 159.594 342.296 157.926 C 343.374 156.297,343.740 152.430,343.142 148.982 C 342.971 147.995,363.357 130.221,364.263 130.569 C 364.558 130.682,364.801 130.646,364.803 130.487 C 364.804 130.329,365.826 129.390,367.074 128.400 C 368.321 127.410,370.435 125.603,371.771 124.384 C 373.107 123.164,375.244 121.381,376.520 120.419 C 377.797 119.458,379.023 118.331,379.246 117.914 C 379.469 117.498,380.225 116.810,380.926 116.386 C 381.626 115.962,383.280 114.627,384.600 113.420 C 387.395 110.864,391.307 107.621,391.610 107.609 C 391.725 107.604,392.150 112.415,392.555 118.300 M41.798 115.136 C 43.865 116.821,47.570 119.820,50.029 121.800 C 52.489 123.780,57.764 128.062,61.751 131.315 C 65.738 134.568,70.530 138.467,72.400 139.979 C 74.270 141.492,79.196 145.490,83.347 148.864 C 91.157 155.213,99.105 161.651,107.400 168.346 C 115.370 174.778,118.400 177.255,118.394 177.329 C 118.391 177.368,118.137 178.120,117.831 179.000 L 117.274 180.600 92.046 180.703 L 66.818 180.806 65.590 178.179 C 64.914 176.733,63.131 172.637,61.628 169.076 C 60.124 165.514,57.407 159.180,55.589 155.000 C 53.772 150.820,51.070 144.520,49.584 141.000 C 48.098 137.480,45.411 131.180,43.613 127.000 C 38.616 115.387,37.200 112.025,37.200 111.778 C 37.200 111.433,37.738 111.826,41.798 115.136 M254.736 145.224 C 264.705 147.362,263.193 162.100,253.005 162.100 C 243.111 162.100,241.003 148.345,250.446 145.400 C 252.652 144.713,252.402 144.723,254.736 145.224 M334.888 146.018 C 342.957 148.259,341.507 160.000,333.161 160.000 C 325.306 160.000,323.488 149.399,330.800 146.237 C 332.485 145.508,332.961 145.482,334.888 146.018 M323.558 156.903 C 325.775 162.073,332.018 164.707,337.062 162.600 C 337.851 162.270,338.555 162.000,338.625 162.000 C 338.695 162.000,342.948 166.979,348.076 173.064 C 353.204 179.150,358.345 185.223,359.500 186.561 C 360.655 187.899,361.600 189.085,361.599 189.197 C 361.598 189.309,358.133 191.446,353.899 193.946 C 349.665 196.447,345.300 199.036,344.200 199.700 C 341.315 201.441,317.795 215.395,309.800 220.109 C 306.060 222.314,302.344 224.531,301.542 225.037 C 299.668 226.218,301.027 228.114,287.616 205.600 C 281.391 195.150,275.624 185.520,274.801 184.200 C 273.977 182.880,270.661 177.356,267.431 171.926 L 261.558 162.051 262.722 160.445 C 263.362 159.561,264.115 158.020,264.395 157.019 L 264.904 155.200 293.866 155.200 L 322.828 155.200 323.558 156.903 M242.552 159.500 C 242.866 160.105,243.591 161.036,244.162 161.570 C 245.789 163.090,247.733 160.111,227.435 187.200 C 223.067 193.030,218.392 199.271,217.046 201.070 C 214.890 203.952,214.482 204.312,213.600 204.111 C 213.050 203.985,209.720 203.102,206.200 202.149 C 202.680 201.195,195.048 199.149,189.239 197.602 C 183.431 196.055,177.221 194.354,175.439 193.824 C 173.658 193.293,168.420 191.860,163.800 190.640 C 138.461 183.946,138.200 183.866,138.200 182.816 C 138.200 181.883,138.493 181.786,146.800 179.971 C 151.530 178.937,155.678 177.976,156.018 177.835 C 156.358 177.693,162.208 176.338,169.018 174.824 C 200.448 167.835,208.810 165.944,211.600 165.190 C 213.250 164.744,219.460 163.309,225.400 162.001 C 231.340 160.693,237.100 159.363,238.200 159.047 C 241.223 158.177,241.900 158.248,242.552 159.500 M261.419 168.299 C 262.683 170.445,264.383 173.280,265.198 174.600 C 266.013 175.920,267.946 179.160,269.494 181.800 C 272.458 186.856,280.308 199.972,285.414 208.400 C 287.080 211.150,290.546 216.910,293.117 221.200 L 297.791 229.000 297.796 261.300 C 297.798 279.065,297.734 293.375,297.653 293.100 C 297.130 291.327,295.382 287.325,294.935 286.878 C 294.641 286.584,294.400 286.160,294.400 285.936 C 294.400 285.333,290.930 276.654,289.308 273.200 C 288.533 271.550,287.494 269.120,287.000 267.800 C 284.492 261.107,282.673 257.172,281.362 255.600 C 280.907 255.054,278.478 249.353,272.581 234.988 C 271.062 231.287,270.206 228.467,269.628 225.257 C 269.180 222.771,268.639 220.076,268.426 219.268 C 268.213 218.461,266.941 211.605,265.598 204.034 C 264.256 196.463,262.905 189.173,262.596 187.834 C 261.971 185.130,258.400 165.225,258.400 164.446 C 258.400 163.488,259.146 164.440,261.419 168.299 M252.506 165.499 C 254.847 165.680,255.237 165.822,255.400 166.554 C 255.504 167.019,256.504 172.620,257.623 179.000 C 258.742 185.380,259.908 191.680,260.214 193.000 C 260.643 194.849,265.188 219.570,266.311 226.161 C 266.562 227.637,267.124 227.821,256.000 222.791 C 251.050 220.552,244.641 217.675,241.757 216.396 C 238.873 215.117,235.183 213.448,233.557 212.686 C 231.931 211.925,228.800 210.538,226.600 209.603 C 220.319 206.935,217.929 205.640,218.266 205.087 C 218.712 204.353,241.691 173.606,245.327 168.876 C 247.719 165.765,248.658 164.818,249.149 165.020 C 249.507 165.168,251.018 165.383,252.506 165.499 M130.772 176.186 C 135.145 178.447,135.991 184.286,132.436 187.672 C 128.767 191.167,123.249 190.084,121.044 185.437 C 118.336 179.730,125.130 173.268,130.772 176.186 M145.800 189.219 C 148.880 190.091,155.720 191.956,161.000 193.362 C 166.280 194.768,173.930 196.825,178.000 197.932 C 190.535 201.342,197.087 203.104,205.200 205.248 C 214.574 207.726,213.709 206.970,214.994 213.800 C 215.573 216.880,216.487 221.322,217.024 223.671 C 217.561 226.020,218.000 228.072,218.000 228.231 C 218.000 228.390,215.795 228.399,213.100 228.250 C 202.035 227.641,171.964 225.571,168.800 225.200 C 166.930 224.981,164.274 224.802,162.897 224.801 C 159.884 224.800,160.576 225.487,153.101 215.073 C 147.565 207.360,145.649 204.711,139.740 196.600 C 134.700 189.683,134.990 190.315,136.075 188.614 C 137.202 186.847,137.490 186.864,145.800 189.219 M358.499 200.217 C 357.691 202.848,356.906 205.090,356.754 205.200 C 356.603 205.310,355.804 207.584,354.980 210.253 L 353.481 215.105 348.981 215.953 C 346.505 216.419,344.192 216.800,343.840 216.800 C 343.488 216.800,343.200 216.953,343.200 217.139 C 343.200 217.325,341.355 217.794,339.100 218.181 C 336.845 218.568,334.611 219.130,334.135 219.429 C 333.230 219.998,310.039 224.572,309.713 224.246 C 309.610 224.143,310.127 223.748,310.863 223.368 C 311.598 222.988,316.160 220.304,321.000 217.403 C 325.840 214.503,332.500 210.534,335.800 208.584 C 339.100 206.634,343.960 203.750,346.600 202.175 C 351.931 198.995,354.000 197.878,354.000 198.183 C 354.000 198.294,355.305 197.684,356.900 196.826 C 360.433 194.927,360.246 194.529,358.499 200.217 M224.699 212.356 C 228.203 213.872,231.685 215.431,232.435 215.819 C 233.186 216.208,236.140 217.558,239.000 218.820 C 241.860 220.081,247.890 222.769,252.400 224.793 C 256.910 226.816,262.040 229.105,263.800 229.879 C 267.858 231.664,267.522 231.252,270.102 237.600 C 271.310 240.570,273.587 246.060,275.164 249.800 C 276.740 253.540,278.108 257.155,278.204 257.833 C 278.300 258.512,279.167 261.032,280.132 263.433 C 281.096 265.835,282.022 268.250,282.190 268.800 C 282.358 269.350,282.725 270.070,283.007 270.400 C 283.288 270.730,284.699 274.044,286.141 277.765 C 287.584 281.486,288.923 284.636,289.117 284.765 C 289.311 284.894,289.574 285.360,289.701 285.800 C 289.829 286.240,290.745 288.637,291.739 291.126 C 293.773 296.224,293.886 296.219,288.600 291.252 C 286.620 289.391,283.470 286.435,281.600 284.683 C 279.730 282.931,276.850 280.180,275.200 278.571 C 273.550 276.962,271.434 275.215,270.497 274.689 C 269.561 274.163,267.761 272.754,266.497 271.556 C 265.234 270.359,262.670 267.956,260.800 266.217 C 258.930 264.478,256.230 261.950,254.800 260.601 C 253.370 259.252,249.140 255.290,245.400 251.797 C 241.660 248.304,234.783 241.859,230.118 237.475 L 221.637 229.504 221.185 227.252 C 220.937 226.013,220.131 222.210,219.394 218.800 C 217.548 210.258,217.443 209.600,217.919 209.600 C 218.144 209.600,221.195 210.840,224.699 212.356 M61.400 355.594 C 41.088 357.998,31.707 377.317,44.585 390.221 C 49.454 395.099,52.454 396.067,65.600 397.002 C 67.470 397.135,69.360 397.405,69.800 397.601 C 70.240 397.798,71.602 398.154,72.827 398.392 C 89.984 401.736,88.628 424.345,71.071 427.676 C 69.602 427.954,68.400 428.321,68.400 428.491 C 68.400 428.661,65.790 428.800,62.600 428.800 C 59.410 428.800,56.800 428.645,56.800 428.455 C 56.800 428.265,55.855 427.996,54.700 427.856 C 53.545 427.716,50.686 427.165,48.347 426.632 C 46.008 426.099,43.292 425.543,42.311 425.396 L 40.529 425.129 39.665 427.138 C 38.170 430.612,37.959 430.379,44.042 431.961 C 69.823 438.667,88.743 432.362,91.256 416.228 C 93.341 402.841,82.960 391.607,68.500 391.601 C 67.785 391.600,67.200 391.447,67.200 391.260 C 67.200 391.074,65.445 390.813,63.300 390.681 C 51.228 389.937,45.400 385.222,45.400 376.200 C 45.400 363.295,63.823 357.525,84.418 363.980 C 85.838 364.425,87.055 364.792,87.122 364.795 C 87.403 364.807,89.200 360.313,89.200 359.600 C 89.200 358.994,88.691 358.680,86.900 358.181 C 85.635 357.828,84.060 357.375,83.400 357.173 C 77.876 355.484,68.194 354.789,61.400 355.594 M326.000 355.587 C 321.081 356.217,314.308 358.522,312.546 360.165 C 312.290 360.404,310.985 361.500,309.646 362.600 C 307.690 364.208,306.878 365.261,305.506 367.970 L 303.800 371.340 303.803 376.570 C 303.808 383.325,304.664 385.634,308.755 389.925 C 313.633 395.040,316.974 396.142,330.300 397.030 C 332.555 397.180,334.400 397.443,334.400 397.614 C 334.400 397.785,335.318 398.051,336.440 398.205 C 350.280 400.109,354.335 417.213,342.722 424.704 C 340.354 426.232,335.652 428.000,333.958 428.000 C 333.541 428.000,333.200 428.180,333.200 428.400 C 333.200 428.896,321.741 428.951,321.435 428.456 C 321.318 428.267,320.272 427.998,319.111 427.857 C 317.950 427.716,315.086 427.165,312.747 426.632 C 310.408 426.099,307.682 425.541,306.690 425.393 L 304.887 425.122 304.025 427.425 C 302.868 430.517,302.826 430.474,308.459 431.928 C 337.097 439.319,356.918 430.826,355.895 411.600 C 355.279 400.015,345.610 391.606,332.900 391.601 C 332.185 391.600,331.600 391.447,331.600 391.260 C 331.600 391.073,329.845 390.798,327.700 390.648 C 315.607 389.805,309.797 385.180,309.802 376.400 C 309.810 363.270,328.042 357.537,349.161 364.025 C 350.569 364.458,351.769 364.764,351.827 364.706 C 352.169 364.364,353.600 360.243,353.600 359.602 C 353.600 357.147,334.978 354.438,326.000 355.587 M105.600 395.000 L 105.600 434.000 108.800 434.000 L 112.000 434.000 112.000 395.000 L 112.000 356.000 108.800 356.000 L 105.600 356.000 105.600 395.000 M131.200 395.026 L 131.200 434.052 148.900 433.911 C 168.060 433.758,166.881 433.885,172.091 431.405 C 174.218 430.393,175.467 429.318,178.912 425.533 C 186.162 417.568,183.010 398.539,173.716 394.168 L 172.200 393.455 174.600 391.000 C 179.354 386.137,181.042 381.765,180.699 375.200 C 180.506 371.529,179.221 366.800,178.415 366.800 C 178.234 366.800,177.973 366.347,177.834 365.794 C 177.458 364.295,172.504 359.457,170.108 358.249 C 165.987 356.172,164.352 356.012,147.100 356.006 L 131.200 356.000 131.200 395.026 M196.400 395.000 L 196.400 434.000 199.600 434.000 L 202.800 434.000 202.800 395.000 L 202.800 356.000 199.600 356.000 L 196.400 356.000 196.400 395.000 M220.879 382.900 C 220.969 402.813,221.124 410.008,221.477 410.600 C 221.739 411.040,222.322 412.639,222.772 414.154 C 230.879 441.405,274.436 441.292,282.201 414.000 C 282.608 412.570,283.134 411.147,283.370 410.839 C 283.664 410.455,283.837 401.701,283.916 383.139 L 284.032 356.000 281.016 356.000 L 278.000 356.000 278.000 381.023 C 278.000 405.146,277.734 411.600,276.741 411.600 C 276.554 411.600,276.400 411.773,276.400 411.985 C 276.400 417.255,266.170 426.504,258.855 427.848 C 258.055 427.995,257.284 428.295,257.141 428.515 C 256.778 429.074,249.127 429.097,247.957 428.542 C 247.431 428.292,246.254 427.887,245.343 427.641 C 237.738 425.588,231.576 420.136,229.023 413.200 C 228.416 411.550,227.712 409.840,227.459 409.400 C 227.130 408.826,226.966 401.167,226.879 382.300 L 226.758 356.000 223.758 356.000 L 220.759 356.000 220.879 382.900 M165.600 362.987 C 175.070 366.112,177.631 378.667,170.318 386.124 C 166.311 390.211,165.402 390.400,149.758 390.400 L 137.200 390.400 137.200 376.175 L 137.200 361.950 150.300 362.105 C 161.603 362.239,163.702 362.360,165.600 362.987 M164.769 396.869 C 165.886 397.126,166.800 397.486,166.800 397.669 C 166.800 397.851,167.042 398.000,167.337 398.000 C 167.633 398.000,169.151 398.897,170.712 399.992 C 178.951 405.779,178.944 419.026,170.698 424.817 C 166.494 427.770,164.984 428.000,149.821 428.000 L 137.200 428.000 137.200 412.200 L 137.200 396.400 149.969 396.400 C 158.308 396.400,163.443 396.563,164.769 396.869 " stroke="none" fill="#050505" fill-rule="evenodd"></path><path id="path2" d="M107.223 60.474 C 101.752 63.326,102.677 71.013,108.709 72.820 C 113.074 74.128,117.940 69.566,116.978 65.067 C 116.026 60.608,111.265 58.367,107.223 60.474 M291.984 60.521 C 287.097 63.105,287.401 69.883,292.515 72.359 C 298.182 75.102,304.043 68.868,301.126 63.200 C 299.426 59.895,295.399 58.715,291.984 60.521 M189.383 74.352 C 185.282 76.215,183.348 81.090,185.158 85.000 C 188.933 93.152,200.782 90.725,200.782 81.800 C 200.782 75.731,194.862 71.863,189.383 74.352 M249.603 146.216 C 244.427 148.540,243.091 155.400,247.044 159.357 C 253.819 166.139,264.510 158.230,260.102 149.697 C 258.348 146.301,253.208 144.596,249.603 146.216 M330.800 146.667 C 323.908 149.502,325.853 159.622,333.284 159.593 C 339.607 159.569,342.305 151.235,337.173 147.581 C 335.847 146.636,332.160 146.108,330.800 146.667 M124.339 176.807 C 121.278 178.424,120.056 182.455,121.674 185.598 C 124.284 190.669,131.795 190.305,133.817 185.011 C 136.022 179.238,129.849 173.896,124.339 176.807 " stroke="none" fill="#fbfbfb" fill-rule="evenodd"></path><path id="path3" d="M109.700 55.876 C 110.085 55.976,110.715 55.976,111.100 55.876 C 111.485 55.775,111.170 55.693,110.400 55.693 C 109.630 55.693,109.315 55.775,109.700 55.876 M117.478 57.013 C 116.860 57.556,116.514 58.000,116.708 58.000 C 116.902 58.000,117.483 57.550,118.000 57.000 C 119.195 55.728,118.931 55.734,117.478 57.013 M87.100 77.227 C 86.275 77.663,85.600 78.108,85.600 78.218 C 85.600 78.396,88.759 76.919,89.167 76.551 C 89.627 76.134,88.425 76.528,87.100 77.227 M293.700 76.687 C 294.305 76.778,295.295 76.778,295.900 76.687 C 296.505 76.595,296.010 76.520,294.800 76.520 C 293.590 76.520,293.095 76.595,293.700 76.687 M94.400 77.600 C 93.630 78.022,93.180 78.366,93.400 78.366 C 93.620 78.366,94.430 78.022,95.200 77.600 C 95.970 77.178,96.420 76.834,96.200 76.834 C 95.980 76.834,95.170 77.178,94.400 77.600 M244.400 77.200 C 243.050 77.484,243.043 77.495,244.200 77.500 C 244.860 77.503,245.940 77.368,246.600 77.200 C 248.260 76.778,246.407 76.778,244.400 77.200 M192.100 93.876 C 192.485 93.976,193.115 93.976,193.500 93.876 C 193.885 93.775,193.570 93.693,192.800 93.693 C 192.030 93.693,191.715 93.775,192.100 93.876 M49.200 95.400 C 48.210 95.930,47.542 96.372,47.716 96.382 C 48.141 96.406,51.200 94.834,51.200 94.592 C 51.200 94.327,51.217 94.320,49.200 95.400 M199.200 95.725 C 199.200 95.794,199.785 96.379,200.500 97.025 L 201.800 98.200 200.625 96.900 C 199.530 95.688,199.200 95.416,199.200 95.725 M204.200 101.200 C 205.059 102.080,205.852 102.800,205.962 102.800 C 206.072 102.800,205.459 102.080,204.600 101.200 C 203.741 100.320,202.948 99.600,202.838 99.600 C 202.728 99.600,203.341 100.320,204.200 101.200 M211.800 104.400 C 212.659 105.280,213.452 106.000,213.562 106.000 C 213.672 106.000,213.059 105.280,212.200 104.400 C 211.341 103.520,210.548 102.800,210.438 102.800 C 210.328 102.800,210.941 103.520,211.800 104.400 M310.028 105.400 C 310.028 105.620,310.286 106.250,310.600 106.800 C 310.914 107.350,311.172 107.620,311.172 107.400 C 311.172 107.180,310.914 106.550,310.600 106.000 C 310.286 105.450,310.028 105.180,310.028 105.400 M215.600 108.525 C 215.600 108.594,216.185 109.179,216.900 109.825 L 218.200 111.000 217.025 109.700 C 215.930 108.488,215.600 108.216,215.600 108.525 M212.400 110.200 C 213.146 110.970,213.847 111.600,213.957 111.600 C 214.067 111.600,213.546 110.970,212.800 110.200 C 212.054 109.430,211.353 108.800,211.243 108.800 C 211.133 108.800,211.654 109.430,212.400 110.200 M316.028 110.200 C 316.028 110.420,316.286 111.050,316.600 111.600 C 316.914 112.150,317.172 112.420,317.172 112.200 C 317.172 111.980,316.914 111.350,316.600 110.800 C 316.286 110.250,316.028 109.980,316.028 110.200 M220.000 113.400 C 220.746 114.170,221.447 114.800,221.557 114.800 C 221.667 114.800,221.146 114.170,220.400 113.400 C 219.654 112.630,218.953 112.000,218.843 112.000 C 218.733 112.000,219.254 112.630,220.000 113.400 M216.800 115.000 C 217.546 115.770,218.247 116.400,218.357 116.400 C 218.467 116.400,217.946 115.770,217.200 115.000 C 216.454 114.230,215.753 113.600,215.643 113.600 C 215.533 113.600,216.054 114.230,216.800 115.000 M119.270 116.600 C 119.257 117.040,119.395 118.120,119.577 119.000 C 119.855 120.345,119.908 120.409,119.907 119.400 C 119.905 117.999,119.308 115.370,119.270 116.600 M224.783 118.500 C 226.441 120.266,226.800 120.584,226.800 120.283 C 226.800 120.219,225.945 119.364,224.900 118.383 L 223.000 116.600 224.783 118.500 M227.600 121.725 C 227.600 121.794,228.185 122.379,228.900 123.025 L 230.200 124.200 229.025 122.900 C 227.930 121.688,227.600 121.416,227.600 121.725 M225.000 124.000 C 225.859 124.880,226.652 125.600,226.762 125.600 C 226.872 125.600,226.259 124.880,225.400 124.000 C 224.541 123.120,223.748 122.400,223.638 122.400 C 223.528 122.400,224.141 123.120,225.000 124.000 M231.200 125.725 C 231.200 125.794,231.785 126.379,232.500 127.025 L 233.800 128.200 232.625 126.900 C 231.530 125.688,231.200 125.416,231.200 125.725 M228.800 128.200 C 229.546 128.970,230.247 129.600,230.357 129.600 C 230.467 129.600,229.946 128.970,229.200 128.200 C 228.454 127.430,227.753 126.800,227.643 126.800 C 227.533 126.800,228.054 127.430,228.800 128.200 M236.783 131.700 C 238.441 133.466,238.800 133.784,238.800 133.483 C 238.800 133.419,237.945 132.564,236.900 131.583 L 235.000 129.800 236.783 131.700 M232.000 131.725 C 232.000 131.794,232.585 132.379,233.300 133.025 L 234.600 134.200 233.425 132.900 C 232.330 131.688,232.000 131.416,232.000 131.725 M237.000 137.200 C 237.859 138.080,238.652 138.800,238.762 138.800 C 238.872 138.800,238.259 138.080,237.400 137.200 C 236.541 136.320,235.748 135.600,235.638 135.600 C 235.528 135.600,236.141 136.320,237.000 137.200 M244.800 140.600 C 245.546 141.370,246.247 142.000,246.357 142.000 C 246.467 142.000,245.946 141.370,245.200 140.600 C 244.454 139.830,243.753 139.200,243.643 139.200 C 243.533 139.200,244.054 139.830,244.800 140.600 M240.000 140.525 C 240.000 140.594,240.585 141.179,241.300 141.825 L 242.600 143.000 241.425 141.700 C 240.330 140.488,240.000 140.216,240.000 140.525 M119.693 142.400 C 119.693 143.170,119.775 143.485,119.876 143.100 C 119.976 142.715,119.976 142.085,119.876 141.700 C 119.775 141.315,119.693 141.630,119.693 142.400 M340.114 153.000 C 340.117 154.100,340.195 154.503,340.287 153.895 C 340.379 153.286,340.377 152.386,340.282 151.895 C 340.187 151.403,340.111 151.900,340.114 153.000 M294.000 152.000 L 265.400 152.208 293.876 152.304 C 312.533 152.367,322.438 152.262,322.600 152.000 C 322.736 151.780,322.792 151.643,322.724 151.696 C 322.656 151.749,309.730 151.886,294.000 152.000 M275.000 155.492 C 302.045 155.769,323.107 155.772,322.938 155.500 C 322.836 155.335,309.668 155.242,293.676 155.293 C 277.684 155.344,269.280 155.434,275.000 155.492 M240.000 158.555 C 240.000 158.640,240.530 158.787,241.179 158.882 C 241.827 158.977,242.267 158.908,242.155 158.728 C 241.957 158.407,240.000 158.250,240.000 158.555 M242.800 160.525 C 242.800 160.594,243.385 161.179,244.100 161.825 L 245.400 163.000 244.225 161.700 C 243.130 160.488,242.800 160.216,242.800 160.525 M332.300 163.482 C 332.795 163.578,333.605 163.578,334.100 163.482 C 334.595 163.387,334.190 163.309,333.200 163.309 C 332.210 163.309,331.805 163.387,332.300 163.482 M255.044 166.600 C 255.373 168.071,255.602 168.390,255.594 167.367 C 255.591 166.945,255.405 166.330,255.182 166.000 C 254.885 165.562,254.848 165.724,255.044 166.600 M117.234 176.647 C 117.765 177.333,118.280 177.823,118.379 177.735 C 118.477 177.647,118.043 177.086,117.413 176.488 L 116.269 175.400 117.234 176.647 M120.514 182.600 C 120.517 183.700,120.595 184.103,120.687 183.495 C 120.779 182.886,120.777 181.986,120.682 181.495 C 120.587 181.003,120.511 181.500,120.514 182.600 M138.267 181.867 C 137.877 182.256,137.941 183.516,138.363 183.777 C 138.562 183.900,138.626 183.622,138.505 183.160 C 138.376 182.666,138.516 182.172,138.843 181.965 C 139.149 181.771,139.205 181.609,138.967 181.606 C 138.728 181.603,138.413 181.720,138.267 181.867 M171.100 225.482 C 171.595 225.578,172.405 225.578,172.900 225.482 C 173.395 225.387,172.990 225.309,172.000 225.309 C 171.010 225.309,170.605 225.387,171.100 225.482 M176.707 225.890 C 177.426 225.979,178.506 225.977,179.107 225.886 C 179.708 225.795,179.120 225.722,177.800 225.724 C 176.480 225.726,175.988 225.801,176.707 225.890 M182.707 226.290 C 183.426 226.379,184.506 226.377,185.107 226.286 C 185.708 226.195,185.120 226.122,183.800 226.124 C 182.480 226.126,181.988 226.201,182.707 226.290 M188.700 226.689 C 189.415 226.778,190.585 226.778,191.300 226.689 C 192.015 226.601,191.430 226.528,190.000 226.528 C 188.570 226.528,187.985 226.601,188.700 226.689 M194.307 227.090 C 195.026 227.179,196.106 227.177,196.707 227.086 C 197.308 226.995,196.720 226.922,195.400 226.924 C 194.080 226.926,193.588 227.001,194.307 227.090 M200.305 227.483 C 200.802 227.579,201.522 227.575,201.905 227.475 C 202.287 227.375,201.880 227.296,201.000 227.301 C 200.120 227.305,199.807 227.387,200.305 227.483 M206.300 227.882 C 206.795 227.978,207.605 227.978,208.100 227.882 C 208.595 227.787,208.190 227.709,207.200 227.709 C 206.210 227.709,205.805 227.787,206.300 227.882 M212.700 228.282 C 213.195 228.378,214.005 228.378,214.500 228.282 C 214.995 228.187,214.590 228.109,213.600 228.109 C 212.610 228.109,212.205 228.187,212.700 228.282 M224.200 232.000 C 225.059 232.880,225.852 233.600,225.962 233.600 C 226.072 233.600,225.459 232.880,224.600 232.000 C 223.741 231.120,222.948 230.400,222.838 230.400 C 222.728 230.400,223.341 231.120,224.200 232.000 M203.505 231.083 C 204.002 231.179,204.722 231.175,205.105 231.075 C 205.487 230.975,205.080 230.896,204.200 230.901 C 203.320 230.905,203.007 230.987,203.505 231.083 M209.905 231.483 C 210.402 231.579,211.122 231.575,211.505 231.475 C 211.887 231.375,211.480 231.296,210.600 231.301 C 209.720 231.305,209.407 231.387,209.905 231.483 M215.900 231.882 C 216.395 231.978,217.205 231.978,217.700 231.882 C 218.195 231.787,217.790 231.709,216.800 231.709 C 215.810 231.709,215.405 231.787,215.900 231.882 M297.772 242.400 C 297.772 247.570,297.829 249.685,297.899 247.100 C 297.968 244.515,297.968 240.285,297.899 237.700 C 297.829 235.115,297.772 237.230,297.772 242.400 M223.600 236.125 C 223.600 236.194,224.185 236.779,224.900 237.425 L 226.200 238.600 225.025 237.300 C 223.930 236.088,223.600 235.816,223.600 236.125 M230.783 238.100 C 231.764 239.145,232.619 240.000,232.683 240.000 C 232.984 240.000,232.666 239.641,230.900 237.983 L 229.000 236.200 230.783 238.100 M230.783 242.900 C 231.764 243.945,232.619 244.800,232.683 244.800 C 232.984 244.800,232.666 244.441,230.900 242.783 L 229.000 241.000 230.783 242.900 M237.400 244.400 C 238.483 245.500,239.460 246.400,239.570 246.400 C 239.680 246.400,238.883 245.500,237.800 244.400 C 236.717 243.300,235.740 242.400,235.630 242.400 C 235.520 242.400,236.317 243.300,237.400 244.400 M236.400 248.200 C 237.146 248.970,237.847 249.600,237.957 249.600 C 238.067 249.600,237.546 248.970,236.800 248.200 C 236.054 247.430,235.353 246.800,235.243 246.800 C 235.133 246.800,235.654 247.430,236.400 248.200 M243.400 250.000 C 244.259 250.880,245.052 251.600,245.162 251.600 C 245.272 251.600,244.659 250.880,243.800 250.000 C 242.941 249.120,242.148 248.400,242.038 248.400 C 241.928 248.400,242.541 249.120,243.400 250.000 M242.600 254.000 C 243.459 254.880,244.252 255.600,244.362 255.600 C 244.472 255.600,243.859 254.880,243.000 254.000 C 242.141 253.120,241.348 252.400,241.238 252.400 C 241.128 252.400,241.741 253.120,242.600 254.000 M249.583 255.700 C 250.564 256.745,251.419 257.600,251.483 257.600 C 251.784 257.600,251.466 257.241,249.700 255.583 L 247.800 253.800 249.583 255.700 M248.800 259.800 C 249.995 261.010,251.063 262.000,251.173 262.000 C 251.283 262.000,250.395 261.010,249.200 259.800 C 248.005 258.590,246.937 257.600,246.827 257.600 C 246.717 257.600,247.605 258.590,248.800 259.800 M256.200 262.000 C 257.059 262.880,257.852 263.600,257.962 263.600 C 258.072 263.600,257.459 262.880,256.600 262.000 C 255.741 261.120,254.948 260.400,254.838 260.400 C 254.728 260.400,255.341 261.120,256.200 262.000 M254.783 265.300 C 255.764 266.345,256.619 267.200,256.683 267.200 C 256.984 267.200,256.666 266.841,254.900 265.183 L 253.000 263.400 254.783 265.300 M261.583 266.900 C 262.564 267.945,263.419 268.800,263.483 268.800 C 263.784 268.800,263.466 268.441,261.700 266.783 L 259.800 265.000 261.583 266.900 M261.400 271.600 C 262.259 272.480,263.052 273.200,263.162 273.200 C 263.272 273.200,262.659 272.480,261.800 271.600 C 260.941 270.720,260.148 270.000,260.038 270.000 C 259.928 270.000,260.541 270.720,261.400 271.600 M266.800 271.725 C 266.800 271.794,267.385 272.379,268.100 273.025 L 269.400 274.200 268.225 272.900 C 267.130 271.688,266.800 271.416,266.800 271.725 M267.983 277.700 C 268.964 278.745,269.819 279.600,269.883 279.600 C 270.184 279.600,269.866 279.241,268.100 277.583 L 266.200 275.800 267.983 277.700 " stroke="none" fill="#54545c" fill-rule="evenodd"></path><path id="path4" d="M142.575 34.100 L 141.400 35.400 142.700 34.225 C 143.912 33.130,144.184 32.800,143.875 32.800 C 143.806 32.800,143.221 33.385,142.575 34.100 M132.575 39.700 L 131.400 41.000 132.700 39.825 C 133.912 38.730,134.184 38.400,133.875 38.400 C 133.806 38.400,133.221 38.985,132.575 39.700 M131.375 46.900 L 130.200 48.200 131.500 47.025 C 132.712 45.930,132.984 45.600,132.675 45.600 C 132.606 45.600,132.021 46.185,131.375 46.900 M294.500 59.476 C 294.885 59.576,295.515 59.576,295.900 59.476 C 296.285 59.375,295.970 59.293,295.200 59.293 C 294.430 59.293,294.115 59.375,294.500 59.476 M284.514 66.200 C 284.517 67.300,284.595 67.703,284.687 67.095 C 284.779 66.486,284.777 65.586,284.682 65.095 C 284.587 64.603,284.511 65.100,284.514 66.200 M103.293 66.400 C 103.293 67.170,103.375 67.485,103.476 67.100 C 103.576 66.715,103.576 66.085,103.476 65.700 C 103.375 65.315,103.293 65.630,103.293 66.400 M192.100 73.476 C 192.485 73.576,193.115 73.576,193.500 73.476 C 193.885 73.375,193.570 73.293,192.800 73.293 C 192.030 73.293,191.715 73.375,192.100 73.476 M294.500 77.076 C 294.885 77.176,295.515 77.176,295.900 77.076 C 296.285 76.975,295.970 76.893,295.200 76.893 C 294.430 76.893,294.115 76.975,294.500 77.076 M191.900 90.282 C 192.395 90.378,193.205 90.378,193.700 90.282 C 194.195 90.187,193.790 90.109,192.800 90.109 C 191.810 90.109,191.405 90.187,191.900 90.282 M57.600 91.200 C 56.830 91.622,56.380 91.966,56.600 91.966 C 56.820 91.966,57.630 91.622,58.400 91.200 C 59.170 90.778,59.620 90.434,59.400 90.434 C 59.180 90.434,58.370 90.778,57.600 91.200 M201.600 92.925 C 201.600 92.994,202.185 93.579,202.900 94.225 L 204.200 95.400 203.025 94.100 C 201.930 92.888,201.600 92.616,201.600 92.925 M200.400 97.325 C 200.400 97.394,200.985 97.979,201.700 98.625 L 203.000 99.800 201.825 98.500 C 200.730 97.288,200.400 97.016,200.400 97.325 M205.583 102.900 C 206.564 103.945,207.419 104.800,207.483 104.800 C 207.784 104.800,207.466 104.441,205.700 102.783 L 203.800 101.000 205.583 102.900 M210.600 102.800 C 211.459 103.680,212.252 104.400,212.362 104.400 C 212.472 104.400,211.859 103.680,211.000 102.800 C 210.141 101.920,209.348 101.200,209.238 101.200 C 209.128 101.200,209.741 101.920,210.600 102.800 M215.000 107.600 C 215.859 108.480,216.652 109.200,216.762 109.200 C 216.872 109.200,216.259 108.480,215.400 107.600 C 214.541 106.720,213.748 106.000,213.638 106.000 C 213.528 106.000,214.141 106.720,215.000 107.600 M218.000 110.925 C 218.000 110.994,218.585 111.579,219.300 112.225 L 220.600 113.400 219.425 112.100 C 218.330 110.888,218.000 110.616,218.000 110.925 M223.000 116.400 C 223.859 117.280,224.652 118.000,224.762 118.000 C 224.872 118.000,224.259 117.280,223.400 116.400 C 222.541 115.520,221.748 114.800,221.638 114.800 C 221.528 114.800,222.141 115.520,223.000 116.400 M218.383 116.900 C 220.041 118.666,220.400 118.984,220.400 118.683 C 220.400 118.619,219.545 117.764,218.500 116.783 L 216.600 115.000 218.383 116.900 M221.200 120.125 C 221.200 120.194,221.785 120.779,222.500 121.425 L 223.800 122.600 222.625 121.300 C 221.530 120.088,221.200 119.816,221.200 120.125 M230.000 124.125 C 230.000 124.194,230.585 124.779,231.300 125.425 L 232.600 126.600 231.425 125.300 C 230.330 124.088,230.000 123.816,230.000 124.125 M235.000 129.600 C 235.859 130.480,236.652 131.200,236.762 131.200 C 236.872 131.200,236.259 130.480,235.400 129.600 C 234.541 128.720,233.748 128.000,233.638 128.000 C 233.528 128.000,234.141 128.720,235.000 129.600 M230.200 130.000 C 231.059 130.880,231.852 131.600,231.962 131.600 C 232.072 131.600,231.459 130.880,230.600 130.000 C 229.741 129.120,228.948 128.400,228.838 128.400 C 228.728 128.400,229.341 129.120,230.200 130.000 M233.200 133.325 C 233.200 133.394,233.785 133.979,234.500 134.625 L 235.800 135.800 234.625 134.500 C 233.530 133.288,233.200 133.016,233.200 133.325 M323.228 135.000 C 323.228 135.220,323.486 135.850,323.800 136.400 C 324.114 136.950,324.372 137.220,324.372 137.000 C 324.372 136.780,324.114 136.150,323.800 135.600 C 323.486 135.050,323.228 134.780,323.228 135.000 M243.400 138.800 C 244.259 139.680,245.052 140.400,245.162 140.400 C 245.272 140.400,244.659 139.680,243.800 138.800 C 242.941 137.920,242.148 137.200,242.038 137.200 C 241.928 137.200,242.541 137.920,243.400 138.800 M237.600 138.125 C 237.600 138.194,238.185 138.779,238.900 139.425 L 240.200 140.600 239.025 139.300 C 237.930 138.088,237.600 137.816,237.600 138.125 M241.600 142.525 C 241.600 142.594,242.185 143.179,242.900 143.825 L 244.200 145.000 243.025 143.700 C 241.930 142.488,241.600 142.216,241.600 142.525 M260.400 144.125 C 260.400 144.194,260.985 144.779,261.700 145.425 L 263.000 146.600 261.825 145.300 C 260.730 144.088,260.400 143.816,260.400 144.125 M322.400 151.133 C 322.400 151.484,315.197 151.624,293.500 151.697 L 264.600 151.795 293.377 151.900 C 320.603 152.000,323.634 151.900,322.673 150.940 C 322.523 150.790,322.400 150.877,322.400 151.133 M261.293 153.600 C 261.293 154.370,261.375 154.685,261.476 154.300 C 261.576 153.915,261.576 153.285,261.476 152.900 C 261.375 152.515,261.293 152.830,261.293 153.600 M243.970 162.088 C 244.789 163.030,244.845 163.273,244.381 163.888 C 243.868 164.568,243.878 164.568,244.610 163.897 C 245.361 163.209,245.353 163.173,244.200 162.097 L 243.023 161.000 243.970 162.088 M251.700 165.887 C 252.305 165.978,253.295 165.978,253.900 165.887 C 254.505 165.795,254.010 165.720,252.800 165.720 C 251.590 165.720,251.095 165.795,251.700 165.887 M77.929 184.700 C 85.260 184.761,97.140 184.761,104.329 184.700 C 111.518 184.639,105.520 184.589,91.000 184.589 C 76.480 184.589,70.598 184.639,77.929 184.700 M226.000 213.400 C 226.550 213.714,227.180 213.972,227.400 213.972 C 227.620 213.972,227.350 213.714,226.800 213.400 C 226.250 213.086,225.620 212.828,225.400 212.828 C 225.180 212.828,225.450 213.086,226.000 213.400 M161.500 224.682 C 161.995 224.778,162.805 224.778,163.300 224.682 C 163.795 224.587,163.390 224.509,162.400 224.509 C 161.410 224.509,161.005 224.587,161.500 224.682 M167.905 225.083 C 168.402 225.179,169.122 225.175,169.505 225.075 C 169.887 224.975,169.480 224.896,168.600 224.901 C 167.720 224.905,167.407 224.987,167.905 225.083 M174.305 225.483 C 174.802 225.579,175.522 225.575,175.905 225.475 C 176.287 225.375,175.880 225.296,175.000 225.301 C 174.120 225.305,173.807 225.387,174.305 225.483 M198.300 227.082 C 198.795 227.178,199.605 227.178,200.100 227.082 C 200.595 226.987,200.190 226.909,199.200 226.909 C 198.210 226.909,197.805 226.987,198.300 227.082 M203.305 227.487 C 203.914 227.579,204.814 227.577,205.305 227.482 C 205.797 227.387,205.300 227.311,204.200 227.314 C 203.100 227.317,202.697 227.395,203.305 227.487 M209.500 227.882 C 209.995 227.978,210.805 227.978,211.300 227.882 C 211.795 227.787,211.390 227.709,210.400 227.709 C 209.410 227.709,209.005 227.787,209.500 227.882 M158.900 228.276 C 159.285 228.376,159.915 228.376,160.300 228.276 C 160.685 228.175,160.370 228.093,159.600 228.093 C 158.830 228.093,158.515 228.175,158.900 228.276 M215.700 228.276 C 216.085 228.376,216.715 228.376,217.100 228.276 C 217.485 228.175,217.170 228.093,216.400 228.093 C 215.630 228.093,215.315 228.175,215.700 228.276 M165.105 228.683 C 165.602 228.779,166.322 228.775,166.705 228.675 C 167.087 228.575,166.680 228.496,165.800 228.501 C 164.920 228.505,164.607 228.587,165.105 228.683 M297.328 231.200 C 297.328 232.630,297.401 233.215,297.489 232.500 C 297.578 231.785,297.578 230.615,297.489 229.900 C 297.401 229.185,297.328 229.770,297.328 231.200 M195.100 230.682 C 195.595 230.778,196.405 230.778,196.900 230.682 C 197.395 230.587,196.990 230.509,196.000 230.509 C 195.010 230.509,194.605 230.587,195.100 230.682 M200.300 231.082 C 200.795 231.178,201.605 231.178,202.100 231.082 C 202.595 230.987,202.190 230.909,201.200 230.909 C 200.210 230.909,199.805 230.987,200.300 231.082 M206.505 231.487 C 207.114 231.579,208.014 231.577,208.505 231.482 C 208.997 231.387,208.500 231.311,207.400 231.314 C 206.300 231.317,205.897 231.395,206.505 231.487 M212.700 231.882 C 213.195 231.978,214.005 231.978,214.500 231.882 C 214.995 231.787,214.590 231.709,213.600 231.709 C 212.610 231.709,212.205 231.787,212.700 231.882 M226.800 234.200 C 227.995 235.410,229.063 236.400,229.173 236.400 C 229.283 236.400,228.395 235.410,227.200 234.200 C 226.005 232.990,224.937 232.000,224.827 232.000 C 224.717 232.000,225.605 232.990,226.800 234.200 M221.000 234.000 C 221.859 234.880,222.652 235.600,222.762 235.600 C 222.872 235.600,222.259 234.880,221.400 234.000 C 220.541 233.120,219.748 232.400,219.638 232.400 C 219.528 232.400,220.141 233.120,221.000 234.000 M233.200 240.200 C 234.395 241.410,235.463 242.400,235.573 242.400 C 235.683 242.400,234.795 241.410,233.600 240.200 C 232.405 238.990,231.337 238.000,231.227 238.000 C 231.117 238.000,232.005 238.990,233.200 240.200 M227.400 240.000 C 228.259 240.880,229.052 241.600,229.162 241.600 C 229.272 241.600,228.659 240.880,227.800 240.000 C 226.941 239.120,226.148 238.400,226.038 238.400 C 225.928 238.400,226.541 239.120,227.400 240.000 M301.264 247.276 C 301.229 249.188,301.335 250.837,301.500 250.939 C 301.665 251.042,301.750 250.018,301.689 248.663 C 301.489 244.252,301.329 243.730,301.264 247.276 M239.800 246.400 C 240.883 247.500,241.860 248.400,241.970 248.400 C 242.080 248.400,241.283 247.500,240.200 246.400 C 239.117 245.300,238.140 244.400,238.030 244.400 C 237.920 244.400,238.717 245.300,239.800 246.400 M234.200 246.400 C 235.059 247.280,235.852 248.000,235.962 248.000 C 236.072 248.000,235.459 247.280,234.600 246.400 C 233.741 245.520,232.948 244.800,232.838 244.800 C 232.728 244.800,233.341 245.520,234.200 246.400 M240.200 252.000 C 241.506 253.320,242.665 254.400,242.775 254.400 C 242.885 254.400,241.906 253.320,240.600 252.000 C 239.294 250.680,238.135 249.600,238.025 249.600 C 237.915 249.600,238.894 250.680,240.200 252.000 M245.983 252.100 C 247.641 253.866,248.000 254.184,248.000 253.883 C 248.000 253.819,247.145 252.964,246.100 251.983 L 244.200 250.200 245.983 252.100 M246.400 257.800 C 247.595 259.010,248.663 260.000,248.773 260.000 C 248.883 260.000,247.995 259.010,246.800 257.800 C 245.605 256.590,244.537 255.600,244.427 255.600 C 244.317 255.600,245.205 256.590,246.400 257.800 M252.200 258.000 C 253.506 259.320,254.665 260.400,254.775 260.400 C 254.885 260.400,253.906 259.320,252.600 258.000 C 251.294 256.680,250.135 255.600,250.025 255.600 C 249.915 255.600,250.894 256.680,252.200 258.000 M252.783 263.700 C 253.764 264.745,254.619 265.600,254.683 265.600 C 254.984 265.600,254.666 265.241,252.900 263.583 L 251.000 261.800 252.783 263.700 M258.200 263.600 C 259.059 264.480,259.852 265.200,259.962 265.200 C 260.072 265.200,259.459 264.480,258.600 263.600 C 257.741 262.720,256.948 262.000,256.838 262.000 C 256.728 262.000,257.341 262.720,258.200 263.600 M259.000 269.600 C 260.306 270.920,261.465 272.000,261.575 272.000 C 261.685 272.000,260.706 270.920,259.400 269.600 C 258.094 268.280,256.935 267.200,256.825 267.200 C 256.715 267.200,257.694 268.280,259.000 269.600 M264.783 269.700 C 266.441 271.466,266.800 271.784,266.800 271.483 C 266.800 271.419,265.945 270.564,264.900 269.583 L 263.000 267.800 264.783 269.700 M265.400 275.600 C 266.706 276.920,267.865 278.000,267.975 278.000 C 268.085 278.000,267.106 276.920,265.800 275.600 C 264.494 274.280,263.335 273.200,263.225 273.200 C 263.115 273.200,264.094 274.280,265.400 275.600 " stroke="none" fill="#646c74" fill-rule="evenodd"></path></g></svg>