<svg id="svg" version="1.1" xmlns="http://www.w3.org/2000/svg" xmlns:xlink="http://www.w3.org/1999/xlink" width="400" height="435.0802139037433" viewBox="0, 0, 400,435.0802139037433"><g id="svgg"><path id="path0" d="M165.523 1.385 C 164.931 1.724,161.871 3.061,158.723 4.357 C 155.575 5.653,151.110 7.524,148.800 8.515 C 143.906 10.615,133.936 14.827,126.800 17.811 C 124.050 18.960,118.290 21.384,114.000 23.198 C 105.856 26.640,95.465 31.018,84.600 35.585 C 81.080 37.064,77.495 38.618,76.633 39.037 C 75.050 39.808,73.618 41.766,61.457 59.800 C 59.825 62.220,56.461 67.170,53.982 70.800 C 37.533 94.888,30.711 104.965,30.524 105.454 C 30.282 106.083,30.580 106.903,33.120 112.600 C 34.100 114.800,35.853 118.850,37.015 121.600 C 41.384 131.942,43.948 137.939,45.907 142.400 C 47.019 144.930,48.962 149.430,50.225 152.400 C 51.488 155.370,53.681 160.500,55.097 163.800 C 56.514 167.100,58.895 172.680,60.389 176.200 C 61.883 179.720,63.335 183.095,63.617 183.700 L 64.128 184.800 90.448 184.800 L 116.768 184.800 117.276 186.500 C 118.669 191.167,124.022 194.153,129.302 193.210 C 130.814 192.939,132.094 192.782,132.146 192.859 C 132.237 192.994,135.239 197.162,143.055 208.000 C 145.038 210.750,148.928 216.150,151.700 220.000 C 154.473 223.850,156.980 227.320,157.273 227.711 C 157.746 228.343,159.884 228.555,176.403 229.607 C 186.631 230.259,200.374 231.148,206.942 231.583 L 218.884 232.373 224.742 237.896 C 227.964 240.934,233.390 246.027,236.800 249.214 C 253.779 265.082,273.444 283.497,278.614 288.370 C 284.683 294.091,293.003 301.842,296.000 304.567 C 297.650 306.067,299.613 307.931,300.362 308.710 L 301.725 310.125 301.464 295.962 C 301.320 288.173,301.084 270.171,300.939 255.957 L 300.676 230.114 308.238 228.622 C 312.397 227.802,324.864 225.301,335.943 223.065 L 356.086 219.000 360.668 205.200 L 365.250 191.400 382.125 174.478 C 391.406 165.171,399.051 157.500,399.113 157.432 C 399.274 157.254,398.547 147.754,396.813 127.400 C 396.607 124.980,396.142 118.500,395.781 113.000 C 395.034 101.649,395.645 103.955,389.205 88.200 C 382.990 72.997,379.029 63.267,376.148 56.122 L 373.535 49.645 368.068 47.851 C 365.060 46.865,357.560 44.325,351.400 42.206 C 345.240 40.087,336.780 37.209,332.600 35.810 C 328.420 34.411,319.690 31.444,313.200 29.217 C 306.710 26.989,298.250 24.102,294.400 22.801 C 290.550 21.500,283.710 19.178,279.200 17.643 C 274.690 16.107,266.770 13.414,261.600 11.659 C 256.430 9.903,249.770 7.633,246.800 6.614 L 241.400 4.760 223.200 3.783 C 202.445 2.670,193.148 2.125,186.000 1.603 C 175.142 0.811,166.683 0.720,165.523 1.385 M190.800 5.397 C 201.030 5.942,216.240 6.751,224.600 7.197 L 239.800 8.006 241.600 9.924 C 242.590 10.979,246.031 14.893,249.246 18.621 C 252.461 22.350,256.335 26.840,257.855 28.600 C 259.375 30.360,263.337 34.950,266.660 38.800 C 269.983 42.650,275.669 49.212,279.295 53.382 L 285.888 60.963 285.153 62.582 C 284.747 63.474,284.414 65.133,284.409 66.282 C 284.400 68.318,284.371 68.368,283.100 68.577 C 282.385 68.694,278.650 69.243,274.800 69.797 C 270.950 70.351,265.550 71.162,262.800 71.600 C 260.050 72.037,251.860 73.215,244.600 74.216 C 237.340 75.217,229.317 76.387,226.772 76.816 C 221.727 77.665,205.545 80.000,204.707 80.000 C 204.422 80.000,203.861 79.080,203.462 77.956 C 201.453 72.301,196.225 69.634,188.821 70.487 C 187.744 70.611,188.229 72.044,178.793 40.866 C 177.040 35.072,175.521 30.195,175.417 30.028 C 175.314 29.861,174.522 27.312,173.657 24.362 C 172.792 21.413,171.072 15.794,169.834 11.875 C 167.300 3.848,167.301 3.825,170.148 4.163 C 171.277 4.297,180.570 4.852,190.800 5.397 M160.316 8.298 C 154.398 15.086,127.328 46.099,124.645 49.165 C 117.489 57.341,116.708 58.200,116.456 58.175 C 116.315 58.162,115.323 57.739,114.252 57.235 C 111.316 55.856,106.749 56.122,104.345 57.812 C 99.844 60.975,98.518 64.978,100.048 70.777 C 100.236 71.488,101.655 70.763,77.000 82.548 C 34.713 102.760,37.371 101.531,37.882 100.637 C 38.057 100.331,47.020 87.114,57.800 71.266 L 77.400 42.451 81.000 40.854 C 82.980 39.975,86.040 38.690,87.800 37.997 C 89.560 37.305,92.980 35.873,95.400 34.814 C 97.820 33.756,103.760 31.233,108.600 29.208 C 113.440 27.182,120.280 24.306,123.800 22.817 C 127.320 21.327,133.440 18.738,137.400 17.064 C 141.360 15.389,148.194 12.494,152.587 10.630 C 160.557 7.248,161.472 6.972,160.316 8.298 M166.965 14.220 C 167.951 17.289,170.232 24.660,172.033 30.600 C 175.401 41.707,179.603 55.440,183.009 66.474 L 184.946 72.748 183.647 74.074 C 182.933 74.803,181.870 76.441,181.285 77.712 C 180.270 79.920,180.168 80.014,179.011 79.781 C 178.345 79.647,173.305 78.550,167.811 77.343 C 162.316 76.137,154.306 74.432,150.011 73.555 C 145.715 72.679,141.210 71.708,140.000 71.398 C 138.790 71.088,134.290 70.109,130.000 69.222 C 125.710 68.335,121.820 67.520,121.355 67.411 C 120.701 67.257,120.454 66.804,120.262 65.399 C 120.125 64.402,119.726 63.030,119.374 62.349 C 118.760 61.162,118.773 61.071,119.704 60.056 C 121.152 58.480,140.350 36.578,142.200 34.392 C 143.080 33.353,144.804 31.354,146.031 29.951 C 147.258 28.548,152.005 23.117,156.579 17.882 C 161.154 12.647,164.959 8.426,165.035 8.502 C 165.111 8.578,165.980 11.151,166.965 14.220 M254.814 12.981 C 259.096 14.400,267.370 17.209,273.200 19.222 C 279.030 21.236,287.220 24.025,291.400 25.421 C 295.580 26.817,304.580 29.872,311.400 32.210 C 318.220 34.547,326.680 37.416,330.200 38.585 C 333.720 39.754,341.370 42.362,347.200 44.380 C 353.030 46.398,359.467 48.612,361.505 49.299 C 363.543 49.987,365.073 50.684,364.905 50.848 C 364.737 51.012,357.760 52.678,349.400 54.551 C 341.040 56.423,327.720 59.412,319.800 61.193 C 308.532 63.728,305.332 64.320,305.088 63.916 C 304.917 63.632,304.197 62.416,303.488 61.214 C 300.845 56.730,294.789 54.973,290.125 57.337 L 288.121 58.352 287.360 57.406 C 286.942 56.886,284.980 54.621,283.000 52.373 C 281.020 50.125,278.680 47.424,277.800 46.371 C 276.920 45.317,272.960 40.726,269.000 36.168 C 265.040 31.610,261.080 27.032,260.200 25.994 C 258.556 24.054,248.893 12.909,247.461 11.300 C 246.431 10.142,245.842 10.007,254.814 12.981 M374.682 61.600 C 376.523 66.110,379.183 72.680,380.593 76.200 C 382.003 79.720,384.799 86.560,386.806 91.400 C 388.813 96.240,390.640 100.693,390.865 101.295 C 391.230 102.269,391.138 102.504,390.023 103.442 C 387.034 105.957,378.724 113.072,350.490 137.288 L 340.360 145.976 338.773 144.826 C 336.935 143.495,333.718 142.611,331.827 142.918 C 330.304 143.165,330.750 143.891,326.100 133.600 C 324.459 129.970,321.769 124.030,320.121 120.400 C 316.134 111.615,312.273 103.072,309.096 96.000 C 307.663 92.810,305.857 88.850,305.084 87.200 C 300.343 77.081,299.929 75.925,300.812 75.306 C 302.673 74.003,305.183 70.130,305.196 68.540 C 305.198 68.287,306.595 67.777,308.300 67.406 C 310.005 67.035,313.110 66.307,315.200 65.787 C 317.290 65.267,322.420 64.104,326.600 63.202 C 330.780 62.300,336.810 60.933,340.000 60.165 C 343.190 59.396,351.107 57.593,357.593 56.157 C 364.079 54.722,369.472 53.461,369.577 53.357 C 370.607 52.327,371.455 53.696,374.682 61.600 M111.973 59.992 C 116.681 61.343,118.446 67.915,115.073 71.538 C 111.122 75.781,103.892 73.512,102.975 67.741 C 102.165 62.646,106.926 58.545,111.973 59.992 M297.871 60.434 C 304.495 63.641,302.167 73.692,294.800 73.692 C 291.770 73.692,288.738 71.488,288.166 68.869 C 288.038 68.281,287.872 67.597,287.798 67.349 C 286.407 62.709,293.091 58.120,297.871 60.434 M136.800 74.228 C 142.630 75.437,149.470 76.898,152.000 77.474 C 154.530 78.050,161.892 79.619,168.361 80.961 L 180.122 83.400 180.802 85.491 C 181.175 86.640,181.963 88.309,182.551 89.198 C 183.807 91.095,184.176 90.175,178.778 98.600 C 176.523 102.120,172.974 107.700,170.892 111.000 C 168.809 114.300,166.092 118.587,164.853 120.526 C 163.614 122.465,162.071 124.895,161.424 125.926 C 160.777 126.957,158.865 129.960,157.174 132.600 C 155.484 135.240,149.021 145.410,142.813 155.200 C 136.605 164.990,131.482 173.046,131.428 173.101 C 131.146 173.394,127.512 172.616,127.410 172.241 C 127.105 171.111,124.590 154.855,122.794 142.400 C 121.699 134.810,120.447 126.530,120.011 124.000 C 119.575 121.470,118.228 112.560,117.017 104.200 C 115.806 95.840,114.362 86.328,113.807 83.063 C 112.799 77.130,112.794 76.400,113.764 76.400 C 114.701 76.400,117.509 74.076,118.749 72.274 L 119.968 70.502 123.084 71.266 C 124.798 71.687,130.970 73.020,136.800 74.228 M287.233 73.756 C 289.556 76.061,292.218 77.200,295.278 77.200 C 297.010 77.200,296.291 76.003,301.400 87.400 C 304.086 93.394,307.546 101.042,312.801 112.600 C 314.602 116.560,317.125 122.140,318.409 125.000 C 319.692 127.860,322.177 133.350,323.931 137.200 L 327.119 144.200 325.581 145.800 C 324.033 147.410,322.425 150.400,322.409 151.700 C 322.401 152.360,320.753 152.400,293.473 152.400 L 264.546 152.400 263.869 150.252 C 261.968 144.223,255.222 140.912,248.643 142.780 L 246.686 143.336 245.043 141.556 C 244.139 140.577,238.090 133.937,231.600 126.801 C 225.110 119.665,217.730 111.562,215.200 108.793 C 197.863 89.820,199.509 92.041,201.307 90.051 C 202.066 89.210,202.998 87.640,203.379 86.561 C 203.759 85.483,204.209 84.330,204.377 84.000 C 204.612 83.542,209.116 82.776,223.442 80.759 C 233.759 79.306,245.170 77.652,248.800 77.084 C 252.430 76.515,261.430 75.220,268.800 74.207 C 279.973 72.670,284.842 71.900,285.030 71.641 C 285.047 71.619,286.038 72.570,287.233 73.756 M196.273 74.739 C 204.256 78.833,201.176 90.800,192.139 90.800 C 184.961 90.800,181.218 82.128,186.034 76.656 C 188.689 73.640,192.675 72.894,196.273 74.739 M104.506 75.571 C 105.658 76.216,107.275 76.866,108.100 77.016 C 108.925 77.166,109.600 77.430,109.600 77.602 C 109.600 78.327,112.510 97.972,113.599 104.600 C 114.249 108.560,115.598 117.470,116.595 124.400 C 117.592 131.330,118.860 139.700,119.412 143.000 C 119.965 146.300,121.197 154.367,122.152 160.928 L 123.888 172.855 123.044 173.399 C 122.580 173.697,121.711 174.161,121.114 174.429 C 119.835 175.002,120.591 175.513,110.330 167.151 C 106.449 163.988,101.232 159.747,98.737 157.726 C 96.241 155.706,89.809 150.486,84.441 146.126 C 79.074 141.767,72.144 136.146,69.041 133.635 C 56.682 123.634,42.021 111.702,38.841 109.056 L 35.482 106.261 41.241 103.492 C 44.408 101.969,49.070 99.726,51.600 98.507 C 64.548 92.268,68.980 90.145,72.992 88.262 C 75.407 87.128,82.877 83.549,89.592 80.309 C 103.658 73.521,101.861 74.091,104.506 75.571 M192.950 93.809 L 196.899 93.848 198.550 95.632 C 201.094 98.382,212.010 110.391,217.800 116.808 C 220.660 119.978,225.160 124.926,227.800 127.804 C 230.440 130.681,235.183 135.877,238.340 139.349 L 244.081 145.663 243.285 146.531 C 241.904 148.040,240.797 150.708,240.543 153.143 L 240.297 155.495 235.848 156.522 C 233.402 157.086,225.730 158.823,218.800 160.381 C 211.870 161.939,204.400 163.662,202.200 164.211 C 200.000 164.759,193.430 166.271,187.600 167.571 C 166.624 172.247,148.508 176.365,143.610 177.571 C 137.143 179.164,137.214 179.169,135.650 176.950 L 134.346 175.100 136.117 172.250 C 137.091 170.682,139.380 167.060,141.202 164.200 C 143.025 161.340,146.343 156.120,148.576 152.600 C 153.732 144.473,164.279 127.903,167.361 123.089 C 168.660 121.060,171.015 117.330,172.595 114.800 C 174.174 112.270,177.535 106.960,180.064 103.000 C 182.592 99.040,185.007 95.200,185.430 94.467 C 186.147 93.225,186.296 93.155,187.600 93.451 C 188.370 93.626,190.777 93.787,192.950 93.809 M392.161 110.100 C 392.302 111.915,393.037 121.770,393.795 132.000 C 394.553 142.230,395.284 151.860,395.421 153.400 L 395.669 156.200 380.122 171.700 C 371.572 180.225,364.364 187.200,364.105 187.200 C 363.655 187.200,361.198 184.361,347.172 167.635 L 340.944 160.208 342.107 158.004 C 343.255 155.830,343.434 153.388,342.736 149.432 C 342.632 148.846,347.699 144.288,364.200 130.127 C 376.080 119.931,387.046 110.511,388.569 109.194 C 392.026 106.205,391.856 106.162,392.161 110.100 M44.260 117.981 C 47.087 120.280,52.190 124.415,55.600 127.170 C 59.010 129.925,65.670 135.340,70.400 139.204 C 78.286 145.647,88.765 154.143,109.549 170.948 C 118.656 178.312,118.071 177.655,117.290 179.644 L 116.679 181.200 91.534 181.200 L 66.390 181.200 65.362 178.900 C 64.796 177.635,60.565 167.780,55.959 157.000 C 51.352 146.220,47.298 136.770,46.949 136.000 C 45.381 132.539,36.800 112.403,36.800 112.185 C 36.800 111.917,36.917 112.007,44.260 117.981 M257.122 146.901 C 263.363 151.031,261.739 160.802,254.559 162.324 C 244.381 164.481,239.805 151.242,249.000 146.241 C 250.911 145.201,255.063 145.539,257.122 146.901 M336.268 147.331 C 340.436 149.490,340.778 156.146,336.875 159.123 C 334.992 160.559,330.718 160.688,328.929 159.363 C 321.596 153.929,328.178 143.137,336.268 147.331 M323.222 157.699 C 326.011 162.862,331.626 165.104,336.581 163.034 C 337.850 162.503,338.241 162.476,338.628 162.889 C 338.890 163.170,343.100 168.170,347.983 174.000 C 352.866 179.830,357.747 185.623,358.830 186.873 C 361.422 189.864,361.757 189.377,353.900 194.040 C 350.105 196.292,344.840 199.428,342.200 201.008 C 339.560 202.589,332.990 206.493,327.600 209.683 C 322.210 212.874,313.816 217.851,308.947 220.743 C 304.078 223.634,299.912 226.000,299.689 226.000 C 299.175 226.000,299.496 226.521,283.193 199.200 C 275.645 186.550,268.531 174.670,267.385 172.800 C 261.336 162.929,261.202 162.662,261.837 161.800 C 262.431 160.994,264.096 157.602,264.539 156.297 C 264.763 155.635,266.407 155.601,293.487 155.697 L 322.197 155.800 323.222 157.699 M243.639 162.113 L 244.868 163.627 231.340 181.713 C 223.900 191.661,216.951 200.909,215.898 202.264 L 213.983 204.729 208.292 203.218 C 205.161 202.387,201.340 201.336,199.800 200.882 C 198.260 200.429,193.760 199.224,189.800 198.206 C 185.840 197.188,181.160 195.925,179.400 195.401 C 176.353 194.493,167.385 192.069,147.000 186.644 C 138.705 184.436,137.788 184.108,137.674 183.312 C 137.582 182.664,137.795 182.369,138.474 182.208 C 140.705 181.677,160.048 177.310,171.400 174.774 C 178.220 173.251,186.410 171.374,189.600 170.604 C 192.790 169.835,199.900 168.193,205.400 166.957 C 210.900 165.720,221.160 163.406,228.200 161.813 L 241.000 158.918 241.705 159.759 C 242.092 160.222,242.963 161.281,243.639 162.113 M264.271 174.316 C 267.390 179.532,276.040 193.991,283.493 206.447 L 297.045 229.093 297.532 258.647 C 298.235 301.321,298.439 298.204,295.417 290.900 C 294.348 288.315,292.173 283.050,290.584 279.200 C 288.996 275.350,287.294 271.300,286.803 270.200 C 286.312 269.100,284.598 265.050,282.995 261.200 C 281.392 257.350,278.604 250.690,276.799 246.400 C 269.277 228.517,270.503 232.967,265.391 205.000 C 263.984 197.300,262.288 188.300,261.621 185.000 C 260.465 179.270,258.001 165.731,258.000 165.100 C 257.999 164.072,259.210 165.851,264.271 174.316 M254.463 166.351 C 254.806 166.675,255.877 172.147,258.599 187.488 C 259.818 194.356,260.901 200.206,261.006 200.488 C 261.398 201.544,265.965 227.368,265.791 227.543 C 265.690 227.643,263.795 226.872,261.578 225.829 C 259.361 224.786,256.344 223.429,254.873 222.813 C 253.403 222.197,250.940 221.112,249.400 220.402 C 244.776 218.271,234.627 213.714,227.461 210.551 C 218.373 206.540,217.463 206.057,217.898 205.477 C 218.095 205.215,224.880 196.142,232.977 185.316 L 247.698 165.633 250.949 165.868 C 252.737 165.997,254.319 166.214,254.463 166.351 M130.415 176.808 C 136.942 180.138,134.539 190.000,127.200 190.000 C 124.825 190.000,123.306 189.316,121.858 187.596 C 116.892 181.694,123.547 173.304,130.415 176.808 M144.082 189.369 C 147.447 190.342,151.730 191.522,153.600 191.991 C 155.470 192.460,161.860 194.172,167.800 195.794 C 186.408 200.876,195.114 203.227,204.135 205.606 C 208.939 206.873,213.010 208.065,213.183 208.255 C 213.620 208.736,217.351 228.382,217.060 228.673 C 216.827 228.906,197.215 227.716,182.000 226.546 C 177.710 226.217,170.928 225.732,166.930 225.470 C 162.931 225.207,159.590 224.904,159.504 224.796 C 158.736 223.823,153.051 215.999,150.206 212.000 C 148.249 209.250,145.722 205.740,144.589 204.200 C 141.894 200.538,135.436 191.531,135.075 190.933 C 134.685 190.286,136.447 187.638,137.282 187.617 C 137.657 187.608,140.717 188.396,144.082 189.369 M360.400 194.788 C 360.400 196.199,353.403 216.007,352.846 216.171 C 352.117 216.387,313.077 224.174,310.600 224.598 C 308.575 224.944,308.248 225.187,316.000 220.585 C 319.630 218.430,325.210 215.113,328.400 213.215 C 331.590 211.316,335.721 208.871,337.579 207.781 C 339.437 206.692,345.197 203.250,350.379 200.132 C 360.058 194.310,360.400 194.127,360.400 194.788 M222.830 212.232 C 225.563 213.459,230.230 215.542,233.200 216.861 C 236.170 218.180,241.120 220.397,244.200 221.788 C 253.249 225.875,262.016 229.816,264.674 230.991 C 266.034 231.593,267.230 232.291,267.331 232.543 C 268.218 234.752,273.715 247.965,276.009 253.400 C 278.569 259.466,280.858 264.927,286.401 278.200 C 287.320 280.400,289.213 284.900,290.607 288.200 C 294.710 297.910,294.970 298.634,294.123 297.966 C 293.397 297.393,279.443 284.404,268.800 274.395 C 265.610 271.395,256.070 262.481,247.600 254.588 C 219.354 228.263,221.298 230.217,220.791 227.641 C 220.549 226.409,219.641 222.069,218.775 217.998 C 217.909 213.926,217.200 210.461,217.200 210.298 C 217.200 209.766,217.788 209.968,222.830 212.232 M62.291 356.435 C 45.803 358.178,35.732 370.085,39.991 382.800 C 42.948 391.626,49.468 395.808,61.802 396.792 C 78.994 398.163,86.456 403.598,85.426 414.000 C 84.123 427.156,69.537 432.575,48.200 427.830 C 40.249 426.062,40.735 426.038,39.661 428.248 C 38.567 430.501,38.157 430.148,43.800 431.808 C 69.485 439.366,90.830 431.018,90.795 413.427 C 90.771 400.967,81.508 393.382,64.600 391.979 C 52.728 390.994,48.744 389.008,45.403 382.408 C 37.662 367.119,61.342 355.605,83.778 363.749 L 86.343 364.680 87.172 362.687 C 88.219 360.166,88.210 359.753,87.100 359.436 C 75.954 356.253,70.387 355.579,62.291 356.435 M328.200 356.267 C 310.798 357.704,300.308 369.258,304.394 382.487 C 307.181 391.511,313.774 395.786,326.490 396.812 C 344.392 398.256,352.115 404.650,349.606 415.946 C 346.824 428.471,332.816 432.470,310.078 427.231 L 305.155 426.097 304.180 428.118 C 303.003 430.558,302.389 430.052,308.815 431.931 C 334.371 439.405,355.183 430.974,355.198 413.142 C 355.208 400.753,346.057 393.400,328.841 391.966 C 317.174 390.995,313.094 388.947,309.903 382.462 C 305.898 374.325,310.491 366.388,321.444 362.516 C 326.454 360.746,338.588 360.871,345.000 362.761 C 347.420 363.474,349.760 364.145,350.200 364.252 C 350.863 364.413,351.150 364.062,351.871 362.203 L 352.743 359.958 351.671 359.547 C 345.149 357.042,335.365 355.675,328.200 356.267 M105.600 395.600 L 105.600 434.000 108.200 434.000 L 110.800 434.000 110.800 395.600 L 110.800 357.200 108.200 357.200 L 105.600 357.200 105.600 395.600 M131.200 395.584 L 131.200 434.000 147.516 434.000 C 168.146 434.000,169.996 433.584,176.007 427.600 C 185.329 418.321,183.539 401.389,172.555 394.952 C 170.433 393.709,170.428 393.657,172.271 392.401 C 183.739 384.589,181.564 365.118,168.529 358.894 L 165.400 357.400 148.300 357.284 L 131.200 357.168 131.200 395.584 M196.800 395.600 L 196.800 434.000 199.400 434.000 L 202.000 434.000 202.000 395.600 L 202.000 357.200 199.400 357.200 L 196.800 357.200 196.800 395.600 M221.207 382.700 C 221.215 411.878,221.166 411.343,224.453 417.996 C 235.459 440.266,268.717 440.268,279.703 418.000 C 282.857 411.608,282.787 412.396,282.794 383.100 L 282.800 357.200 280.419 357.200 L 278.038 357.200 277.911 383.300 C 277.785 409.392,277.785 409.401,276.854 412.200 C 268.976 435.896,233.368 435.182,226.994 411.200 C 226.510 409.379,226.409 404.540,226.405 383.100 L 226.400 357.200 223.800 357.200 L 221.200 357.200 221.207 382.700 M166.450 363.305 C 176.542 368.261,177.614 382.543,168.370 388.890 C 164.749 391.377,163.130 391.600,148.716 391.600 L 136.000 391.600 136.000 376.781 L 136.000 361.962 150.100 362.081 L 164.200 362.200 166.450 363.305 M163.827 396.837 C 178.032 399.455,181.966 417.252,170.306 426.146 C 167.065 428.618,165.684 428.800,150.137 428.800 L 136.000 428.800 136.000 412.867 C 136.000 404.103,136.120 396.813,136.267 396.667 C 136.720 396.213,161.263 396.365,163.827 396.837 " stroke="none" fill="#080909" fill-rule="evenodd"></path><path id="path1" d="M222.300 3.482 C 222.795 3.578,223.605 3.578,224.100 3.482 C 224.595 3.387,224.190 3.309,223.200 3.309 C 222.210 3.309,221.805 3.387,222.300 3.482 M236.105 4.287 C 236.714 4.379,237.614 4.377,238.105 4.282 C 238.597 4.187,238.100 4.111,237.000 4.114 C 235.900 4.117,235.497 4.195,236.105 4.287 M228.905 7.887 C 229.514 7.979,230.414 7.977,230.905 7.882 C 231.397 7.787,230.900 7.711,229.800 7.714 C 228.700 7.717,228.297 7.795,228.905 7.887 M235.700 8.276 C 236.085 8.376,236.715 8.376,237.100 8.276 C 237.485 8.175,237.170 8.093,236.400 8.093 C 235.630 8.093,235.315 8.175,235.700 8.276 M145.000 25.200 C 144.373 25.893,143.763 26.001,140.438 26.007 C 133.428 26.020,135.483 25.269,91.800 43.778 C 87.840 45.456,81.540 48.097,77.799 49.646 L 70.998 52.464 54.740 76.332 C 45.799 89.459,38.546 100.267,38.624 100.349 C 38.742 100.474,51.524 94.433,69.000 85.991 C 71.200 84.929,77.770 81.781,83.600 78.997 C 100.921 70.726,99.966 71.275,99.552 69.832 C 96.985 60.881,106.617 52.846,114.776 57.133 L 116.553 58.067 117.976 56.336 C 118.759 55.384,120.300 53.607,121.400 52.387 C 123.637 49.905,127.469 45.519,136.415 35.200 C 139.753 31.350,143.313 27.345,144.327 26.300 C 145.341 25.255,146.070 24.400,145.947 24.400 C 145.824 24.400,145.398 24.760,145.000 25.200 M147.000 29.269 C 145.680 30.837,143.610 33.232,142.400 34.591 C 141.190 35.949,138.642 38.847,136.737 41.030 C 134.833 43.214,131.620 46.890,129.597 49.200 C 118.479 61.899,119.108 61.062,119.747 62.297 C 120.063 62.909,120.446 64.236,120.598 65.244 L 120.873 67.078 129.136 68.774 C 133.681 69.707,142.620 71.607,149.000 72.995 C 166.684 76.844,180.089 79.649,180.178 79.518 C 180.222 79.453,180.560 78.590,180.928 77.600 C 181.296 76.610,182.255 75.086,183.058 74.213 C 184.422 72.730,184.492 72.533,184.113 71.213 C 183.889 70.436,182.214 64.940,180.389 59.000 C 178.565 53.060,175.686 43.650,173.992 38.089 C 172.298 32.528,170.842 27.914,170.756 27.835 C 170.670 27.757,166.640 27.489,161.800 27.241 C 156.960 26.992,152.190 26.706,151.200 26.603 L 149.400 26.417 147.000 29.269 M175.203 28.100 C 175.204 28.155,176.198 31.440,177.410 35.400 C 180.223 44.590,185.813 62.822,187.116 67.058 L 188.119 70.316 191.197 70.105 C 196.832 69.719,202.087 72.877,203.671 77.602 C 204.251 79.331,204.333 79.399,205.837 79.374 C 207.404 79.348,239.115 74.846,256.000 72.252 C 260.950 71.491,269.275 70.279,274.500 69.557 L 284.000 68.244 284.022 66.422 C 284.034 65.420,284.358 63.790,284.743 62.800 L 285.442 61.000 282.305 57.379 L 279.168 53.759 271.684 51.212 C 267.568 49.811,258.440 46.704,251.400 44.307 C 244.360 41.910,235.450 38.894,231.600 37.604 C 227.750 36.314,221.763 34.262,218.295 33.045 C 210.547 30.324,207.753 29.750,200.600 29.414 C 197.520 29.269,190.770 28.892,185.600 28.577 C 175.527 27.963,175.198 27.948,175.203 28.100 M55.017 59.258 C 41.335 65.148,41.915 64.575,25.981 88.000 C 19.322 97.790,11.833 108.770,9.340 112.400 C 1.136 124.346,0.381 126.095,0.105 133.800 C -0.143 140.746,-0.121 140.818,8.228 160.223 C 12.104 169.230,16.495 179.480,17.987 183.000 C 25.440 200.588,26.837 202.916,32.370 206.978 C 39.126 211.938,40.020 212.083,65.400 212.362 L 87.000 212.600 89.403 213.614 C 95.126 216.030,96.730 217.545,103.465 226.894 C 105.884 230.252,109.367 235.070,111.205 237.600 C 113.043 240.130,115.330 243.314,116.287 244.675 C 118.812 248.267,123.081 252.051,126.494 253.722 C 132.012 256.424,131.687 256.385,170.600 259.000 C 184.884 259.960,186.382 260.543,194.600 268.346 C 196.140 269.809,199.920 273.342,203.000 276.197 C 206.080 279.053,211.573 284.182,215.208 287.595 C 218.842 291.008,224.332 296.154,227.408 299.031 C 230.483 301.907,236.478 307.525,240.729 311.515 C 249.931 320.152,251.294 320.987,256.198 320.995 C 261.610 321.003,266.209 318.155,268.462 313.400 L 269.599 311.000 269.600 295.523 C 269.600 280.907,269.559 280.016,268.859 279.523 C 268.083 278.976,258.535 270.068,228.154 241.545 L 218.935 232.889 212.568 232.425 C 196.009 231.219,183.478 230.340,171.053 229.514 L 157.506 228.613 155.222 225.406 C 153.965 223.643,151.435 220.130,149.600 217.600 C 147.764 215.070,144.710 210.840,142.813 208.200 C 130.488 191.048,132.268 193.005,129.507 193.578 C 124.366 194.645,118.950 191.782,117.295 187.122 L 116.612 185.200 90.284 185.200 L 63.955 185.200 63.225 183.500 C 62.823 182.565,61.323 179.100,59.891 175.800 C 56.029 166.899,53.809 161.724,50.798 154.600 C 49.310 151.080,46.617 144.780,44.813 140.600 C 39.253 127.716,35.637 119.280,32.729 112.406 L 29.939 105.811 30.631 104.606 C 31.011 103.943,32.616 101.510,34.198 99.200 C 39.836 90.963,42.595 86.908,47.127 80.200 C 49.653 76.460,52.599 72.140,53.673 70.600 C 59.138 62.764,63.922 55.603,63.677 55.625 C 63.524 55.639,59.628 57.274,55.017 59.258 M287.200 56.788 C 287.200 57.341,288.350 58.078,288.789 57.807 C 289.022 57.663,289.123 57.399,289.013 57.221 C 288.734 56.770,287.200 56.404,287.200 56.788 M304.890 63.037 C 305.350 64.047,306.191 64.252,307.200 63.600 C 307.733 63.255,307.733 63.211,307.200 63.204 C 306.870 63.199,306.116 62.943,305.525 62.634 C 304.470 62.084,304.458 62.091,304.890 63.037 M310.286 67.138 C 305.947 68.092,305.552 68.256,305.330 69.188 C 304.894 71.009,303.944 72.569,302.124 74.448 L 300.333 76.295 301.363 78.328 C 301.930 79.446,303.491 82.841,304.832 85.873 C 306.174 88.905,307.823 92.559,308.497 93.993 C 309.171 95.427,310.935 99.300,312.418 102.600 C 315.483 109.423,319.605 118.512,324.391 129.000 C 326.199 132.960,328.329 137.685,329.126 139.500 L 330.575 142.800 332.988 142.809 C 335.375 142.817,338.237 143.767,339.603 145.003 C 340.389 145.714,339.191 146.667,359.100 129.495 C 363.104 126.041,363.218 127.732,358.152 115.368 C 355.816 109.666,352.048 100.439,349.780 94.865 C 342.413 76.763,340.028 74.405,323.435 68.817 C 318.834 67.268,315.054 66.023,315.035 66.050 C 315.016 66.078,312.879 66.567,310.286 67.138 M119.600 71.599 C 119.600 72.314,116.707 75.221,115.000 76.221 L 113.334 77.198 115.060 89.099 C 116.009 95.644,117.324 104.330,117.983 108.400 C 118.641 112.470,119.997 121.470,120.996 128.400 C 121.995 135.330,123.432 144.870,124.188 149.600 C 124.944 154.330,126.027 161.341,126.595 165.181 C 127.163 169.020,127.667 172.190,127.714 172.225 C 127.761 172.260,128.570 172.407,129.511 172.551 L 131.221 172.813 133.911 168.624 C 135.390 166.320,138.063 162.132,139.851 159.317 C 142.882 154.546,147.028 148.028,155.066 135.400 C 156.886 132.540,159.044 129.120,159.861 127.800 C 160.678 126.480,162.731 123.240,164.424 120.600 C 171.454 109.635,177.871 99.525,180.475 95.315 L 183.249 90.830 182.212 89.315 C 181.642 88.482,180.910 86.898,180.587 85.794 L 179.998 83.789 175.899 82.917 C 173.645 82.438,168.740 81.388,165.000 80.583 C 119.315 70.758,119.600 70.814,119.600 71.599 M274.800 73.621 C 269.190 74.441,254.520 76.566,242.200 78.344 C 219.295 81.649,206.900 83.491,205.300 83.826 C 204.788 83.934,204.398 84.314,204.396 84.708 C 204.390 85.794,202.619 89.283,201.435 90.542 C 200.059 92.005,199.177 90.768,210.200 102.841 C 219.637 113.177,232.796 127.619,242.145 137.902 L 246.891 143.121 248.682 142.510 C 255.111 140.320,264.318 145.471,264.391 151.300 C 264.399 151.960,266.037 152.000,293.106 152.000 L 321.812 152.000 322.542 149.944 C 322.962 148.762,324.033 147.075,325.060 145.977 L 326.847 144.067 325.870 142.133 C 325.332 141.070,323.316 136.690,321.391 132.400 C 319.465 128.110,316.544 121.630,314.901 118.000 C 313.257 114.370,310.691 108.700,309.198 105.400 C 307.705 102.100,305.009 96.160,303.207 92.200 C 301.405 88.240,299.194 83.357,298.293 81.349 L 296.655 77.698 294.216 77.502 C 291.268 77.265,289.196 76.259,286.800 73.901 L 285.000 72.130 274.800 73.621 M99.200 76.062 C 97.770 76.737,90.120 80.398,82.200 84.198 C 50.042 99.625,40.049 104.394,38.012 105.287 L 35.875 106.224 40.476 110.012 C 43.007 112.095,46.230 114.728,47.639 115.862 C 49.047 116.995,52.270 119.610,54.800 121.671 C 57.330 123.732,62.280 127.747,65.800 130.592 C 69.320 133.437,73.730 137.011,75.600 138.535 C 88.133 148.747,96.712 155.713,106.221 163.400 C 112.879 168.782,116.374 171.626,118.176 173.126 L 120.151 174.772 121.576 173.922 C 122.359 173.454,123.139 172.953,123.308 172.808 C 123.478 172.662,122.808 167.426,121.820 161.172 C 120.832 154.917,119.206 144.130,118.208 137.200 C 117.209 130.270,115.951 121.900,115.411 118.600 C 114.872 115.300,113.608 106.930,112.604 100.000 C 110.721 87.007,109.745 80.593,109.366 78.726 C 109.201 77.913,108.839 77.588,107.874 77.388 C 107.173 77.243,105.658 76.601,104.506 75.962 C 101.988 74.564,102.386 74.557,99.200 76.062 M200.493 82.400 C 200.493 83.170,200.575 83.485,200.676 83.100 C 200.776 82.715,200.776 82.085,200.676 81.700 C 200.575 81.315,200.493 81.630,200.493 82.400 M185.883 94.550 C 185.368 95.238,183.609 97.933,181.974 100.541 C 177.897 107.040,174.663 112.160,171.197 117.600 C 169.586 120.130,166.614 124.810,164.594 128.000 C 162.573 131.190,159.426 136.140,157.600 139.000 C 155.774 141.860,153.254 145.820,152.000 147.800 C 150.746 149.780,148.226 153.740,146.399 156.600 C 144.573 159.460,141.375 164.500,139.293 167.800 C 137.211 171.100,135.327 174.080,135.106 174.421 C 134.278 175.706,137.035 178.781,138.623 178.343 C 139.355 178.141,145.499 176.731,152.277 175.211 C 176.562 169.764,191.026 166.480,192.600 166.057 C 193.480 165.820,199.780 164.370,206.600 162.835 C 227.604 158.106,238.560 155.631,239.500 155.403 C 240.257 155.220,240.400 154.915,240.402 153.492 C 240.405 151.207,241.007 149.196,242.226 147.400 C 243.609 145.362,243.892 145.817,235.600 136.747 C 226.072 126.325,212.465 111.405,203.660 101.724 L 196.719 94.094 193.460 94.289 C 191.171 94.425,189.696 94.307,188.509 93.892 L 186.819 93.300 185.883 94.550 M395.301 103.800 C 395.305 104.680,395.387 104.993,395.483 104.495 C 395.579 103.998,395.575 103.278,395.475 102.895 C 395.375 102.513,395.296 102.920,395.301 103.800 M391.693 109.200 C 391.693 109.970,391.775 110.285,391.876 109.900 C 391.976 109.515,391.976 108.885,391.876 108.500 C 391.775 108.115,391.693 108.430,391.693 109.200 M37.693 113.600 C 37.827 113.930,39.279 117.350,40.921 121.200 C 42.562 125.050,45.018 130.810,46.378 134.000 C 47.738 137.190,49.495 141.240,50.283 143.000 C 51.071 144.760,52.661 148.450,53.816 151.200 C 56.661 157.975,61.400 169.042,64.265 175.600 L 66.623 181.000 91.571 181.000 L 116.519 181.000 117.072 179.404 C 117.607 177.858,117.592 177.785,116.584 177.050 C 116.011 176.633,114.318 175.281,112.821 174.046 C 111.324 172.811,108.426 170.450,106.381 168.800 C 104.336 167.150,101.012 164.450,98.995 162.800 C 96.977 161.150,93.723 158.504,91.763 156.920 C 89.803 155.335,85.164 151.555,81.454 148.520 C 77.744 145.484,73.673 142.190,72.407 141.200 C 70.153 139.437,67.647 137.405,56.837 128.579 C 51.712 124.394,48.050 121.436,41.554 116.234 C 37.291 112.820,37.410 112.901,37.693 113.600 M359.397 134.649 C 355.058 138.326,352.631 140.402,346.652 145.553 C 342.893 148.791,342.771 148.948,343.080 150.153 C 343.726 152.671,343.422 156.158,342.369 158.285 L 341.371 160.301 346.738 166.651 C 354.431 175.752,358.163 180.190,360.934 183.531 C 363.695 186.860,363.723 186.856,365.207 182.890 C 366.754 178.754,367.005 175.836,366.475 168.104 C 365.645 155.985,363.691 131.557,363.539 131.405 C 363.459 131.326,361.596 132.785,359.397 134.649 M264.676 156.300 C 264.582 156.465,264.275 157.320,263.993 158.200 C 263.711 159.080,263.070 160.409,262.567 161.153 L 261.654 162.507 262.898 164.753 C 263.582 165.989,264.448 167.450,264.821 168.000 C 265.194 168.550,267.805 172.870,270.623 177.600 C 273.440 182.330,277.809 189.620,280.330 193.800 C 282.852 197.980,285.924 203.111,287.157 205.203 C 296.406 220.886,299.427 225.634,300.054 225.470 C 300.415 225.376,304.915 222.790,310.055 219.725 C 315.195 216.659,322.550 212.292,326.400 210.020 C 330.250 207.748,335.110 204.860,337.200 203.604 C 340.459 201.646,343.753 199.701,357.000 191.919 C 361.243 189.427,361.381 190.235,355.537 183.400 C 349.768 176.654,340.743 165.952,339.376 164.237 L 338.152 162.701 336.828 163.386 C 332.320 165.717,325.562 163.055,322.962 157.925 L 321.987 156.000 293.417 156.000 C 277.704 156.000,264.770 156.135,264.676 156.300 M379.389 171.601 C 370.804 180.181,363.874 187.200,363.991 187.200 C 364.108 187.200,371.222 180.180,379.800 171.600 C 388.378 163.020,395.307 156.001,395.198 156.001 C 395.089 156.002,387.975 163.022,379.389 171.601 M234.800 160.576 C 231.610 161.292,225.490 162.700,221.200 163.705 C 209.590 166.426,197.688 169.136,160.200 177.594 C 149.452 180.019,142.359 181.677,139.500 182.434 C 136.836 183.139,137.695 183.792,143.300 185.318 C 152.727 187.887,165.178 191.236,174.800 193.792 C 179.970 195.166,186.810 197.021,190.000 197.916 C 193.190 198.811,199.580 200.533,204.200 201.744 C 208.820 202.955,212.896 204.060,213.258 204.200 C 213.768 204.396,217.242 200.005,228.816 184.527 C 237.012 173.567,243.898 164.368,244.120 164.086 C 244.408 163.716,244.237 163.265,243.513 162.486 C 242.958 161.888,242.190 160.905,241.806 160.300 C 241.422 159.695,240.994 159.217,240.854 159.237 C 240.714 159.258,237.990 159.860,234.800 160.576 M393.986 162.700 L 391.800 165.000 394.100 162.814 C 396.237 160.782,396.583 160.400,396.286 160.400 C 396.224 160.400,395.189 161.435,393.986 162.700 M233.150 185.582 C 224.961 196.535,218.283 205.631,218.309 205.796 C 218.357 206.094,220.766 207.225,230.400 211.468 C 233.150 212.680,237.290 214.539,239.600 215.601 C 245.784 218.443,259.358 224.514,262.735 225.948 L 265.669 227.194 265.390 225.497 C 265.237 224.564,264.417 220.279,263.568 215.976 C 262.718 211.673,261.132 203.123,260.042 196.976 C 258.952 190.829,257.211 181.435,256.173 176.100 L 254.286 166.400 252.441 166.400 C 251.425 166.400,250.020 166.235,249.317 166.033 L 248.039 165.667 233.150 185.582 M258.400 165.876 C 258.400 166.116,258.768 168.087,259.217 170.256 C 259.666 172.425,261.199 180.680,262.623 188.600 C 264.048 196.520,265.296 203.270,265.398 203.600 C 265.499 203.930,266.657 210.071,267.970 217.247 C 270.618 231.720,269.606 228.549,277.594 247.400 C 279.086 250.920,280.429 254.205,280.580 254.700 C 280.901 255.756,281.067 255.781,282.851 255.039 C 283.593 254.730,287.139 253.891,290.731 253.175 L 297.263 251.873 296.972 240.440 L 296.680 229.007 293.999 224.604 C 292.524 222.182,284.061 208.050,275.192 193.200 C 258.814 165.777,258.400 165.103,258.400 165.876 M388.185 168.500 L 386.200 170.600 388.300 168.615 C 390.251 166.771,390.583 166.400,390.285 166.400 C 390.222 166.400,389.277 167.345,388.185 168.500 M381.600 175.000 C 379.961 176.650,378.710 178.000,378.820 178.000 C 378.930 178.000,380.361 176.650,382.000 175.000 C 383.639 173.350,384.890 172.000,384.780 172.000 C 384.670 172.000,383.239 173.350,381.600 175.000 M372.195 184.500 L 366.600 190.200 372.300 184.605 C 377.595 179.408,378.181 178.800,377.895 178.800 C 377.837 178.800,375.272 181.365,372.195 184.500 M136.042 189.229 L 135.133 190.459 136.156 191.929 C 138.613 195.462,159.091 223.935,159.562 224.472 C 159.693 224.622,164.390 225.036,170.000 225.391 C 175.610 225.747,186.746 226.480,194.746 227.020 C 202.746 227.560,211.047 228.117,213.192 228.258 L 217.092 228.513 216.201 223.957 C 214.439 214.947,213.104 208.993,212.762 208.627 C 212.325 208.158,206.175 206.448,173.800 197.791 C 170.060 196.791,163.130 194.910,158.400 193.611 C 135.691 187.375,137.195 187.670,136.042 189.229 M126.500 189.876 C 126.885 189.976,127.515 189.976,127.900 189.876 C 128.285 189.775,127.970 189.693,127.200 189.693 C 126.430 189.693,126.115 189.775,126.500 189.876 M343.600 204.480 C 333.512 210.575,329.101 213.207,319.600 218.801 C 315.750 221.068,312.060 223.254,311.400 223.660 L 310.200 224.398 311.600 224.154 C 312.370 224.020,317.198 223.031,322.329 221.955 C 327.459 220.880,332.002 220.000,332.424 220.000 C 332.892 220.000,333.602 219.339,334.250 218.300 C 334.834 217.365,339.192 212.685,343.935 207.900 C 348.679 203.115,352.479 199.219,352.380 199.242 C 352.281 199.265,348.330 201.622,343.600 204.480 M217.701 210.900 C 217.803 211.175,218.670 215.486,219.626 220.481 L 221.366 229.562 228.573 236.281 C 232.537 239.976,237.225 244.364,238.990 246.031 C 254.414 260.599,269.717 274.913,269.512 274.581 C 268.294 272.610,271.745 263.965,275.198 260.336 L 277.569 257.845 276.623 255.622 C 276.102 254.400,274.323 250.160,272.670 246.200 C 266.095 230.452,268.194 232.785,255.600 227.223 C 238.984 219.884,229.241 215.521,221.975 212.166 C 217.853 210.263,217.415 210.134,217.701 210.900 M315.600 227.429 C 307.570 229.045,300.926 230.374,300.836 230.383 C 300.593 230.408,301.137 250.470,301.387 250.721 C 301.973 251.306,312.368 248.676,315.600 247.124 C 320.038 244.992,325.064 240.098,327.355 235.675 C 328.508 233.449,331.600 225.325,331.600 224.521 C 331.600 224.249,329.578 224.617,315.600 227.429 M297.348 270.400 C 297.348 272.710,297.414 273.655,297.495 272.500 C 297.576 271.345,297.576 269.455,297.495 268.300 C 297.414 267.145,297.348 268.090,297.348 270.400 M301.348 273.200 C 301.348 275.510,301.414 276.455,301.495 275.300 C 301.576 274.145,301.576 272.255,301.495 271.100 C 301.414 269.945,301.348 270.890,301.348 273.200 M301.748 305.600 C 301.748 307.910,301.814 308.855,301.895 307.700 C 301.976 306.545,301.976 304.655,301.895 303.500 C 301.814 302.345,301.748 303.290,301.748 305.600 M66.105 355.887 C 66.714 355.979,67.614 355.977,68.105 355.882 C 68.597 355.787,68.100 355.711,67.000 355.714 C 65.900 355.717,65.497 355.795,66.105 355.887 M330.500 355.887 C 331.105 355.978,332.095 355.978,332.700 355.887 C 333.305 355.795,332.810 355.720,331.600 355.720 C 330.390 355.720,329.895 355.795,330.500 355.887 M105.471 356.683 C 105.363 356.857,106.516 356.940,108.035 356.867 L 110.796 356.735 110.901 395.467 L 111.006 434.200 111.003 395.400 L 111.000 356.600 108.334 356.483 C 106.868 356.418,105.580 356.508,105.471 356.683 M138.726 356.700 C 142.976 356.764,149.816 356.764,153.926 356.699 C 158.037 356.634,154.560 356.581,146.200 356.581 C 137.840 356.582,134.477 356.635,138.726 356.700 M197.891 356.689 C 198.601 356.777,199.861 356.779,200.691 356.692 C 201.521 356.605,200.940 356.533,199.400 356.531 C 197.860 356.529,197.181 356.600,197.891 356.689 M220.984 356.900 C 220.879 357.175,220.841 368.650,220.899 382.400 L 221.006 407.400 221.103 382.118 L 221.200 356.837 223.900 356.697 L 226.600 356.557 223.887 356.478 C 222.025 356.425,221.115 356.557,220.984 356.900 M279.100 356.689 C 279.815 356.778,280.985 356.778,281.700 356.689 C 282.415 356.601,281.830 356.528,280.400 356.528 C 278.970 356.528,278.385 356.601,279.100 356.689 M202.192 395.400 C 202.192 416.520,202.241 425.101,202.300 414.470 C 202.359 403.838,202.359 386.558,202.300 376.070 C 202.241 365.581,202.192 374.280,202.192 395.400 M142.700 362.299 C 146.275 362.366,152.125 362.366,155.700 362.299 C 159.275 362.233,156.350 362.179,149.200 362.179 C 142.050 362.179,139.125 362.233,142.700 362.299 M180.101 376.600 C 180.105 377.480,180.187 377.793,180.283 377.295 C 180.379 376.798,180.375 376.078,180.275 375.695 C 180.175 375.313,180.096 375.720,180.101 376.600 M174.378 390.700 L 173.000 392.200 174.500 390.822 C 175.896 389.538,176.184 389.200,175.878 389.200 C 175.812 389.200,175.137 389.875,174.378 390.700 M349.693 412.400 C 349.693 413.170,349.775 413.485,349.876 413.100 C 349.976 412.715,349.976 412.085,349.876 411.700 C 349.775 411.315,349.693 411.630,349.693 412.400 " stroke="none" fill="#7cbbdb" fill-rule="evenodd"></path><path id="path2" d="M0.026 65.100 C 0.050 123.266,0.116 129.966,0.643 128.000 C 1.817 123.628,2.425 122.576,11.149 109.800 C 12.801 107.380,19.539 97.480,26.121 87.800 C 41.939 64.538,41.344 65.122,55.216 59.212 C 60.320 57.037,64.082 55.198,64.495 54.677 C 64.877 54.195,67.389 50.540,70.078 46.556 L 74.966 39.312 79.983 37.194 C 94.091 31.238,98.821 29.245,105.600 26.400 C 109.670 24.692,116.690 21.725,121.200 19.806 C 125.710 17.888,131.920 15.279,135.000 14.009 C 138.080 12.740,141.500 11.298,142.600 10.806 C 143.700 10.313,147.300 8.781,150.600 7.400 C 153.900 6.018,159.030 3.860,162.000 2.603 L 167.400 0.318 172.000 0.569 C 174.530 0.707,188.210 1.442,202.400 2.203 C 216.590 2.964,231.106 3.762,234.657 3.977 L 241.115 4.368 251.857 8.015 C 257.766 10.020,265.750 12.710,269.600 13.991 C 273.450 15.272,281.370 17.972,287.200 19.989 C 293.030 22.007,301.220 24.801,305.400 26.199 C 309.580 27.596,316.960 30.093,321.800 31.746 C 331.515 35.065,346.488 40.151,358.233 44.121 C 362.431 45.540,367.665 47.362,369.863 48.169 L 373.860 49.637 375.098 52.719 C 375.779 54.413,377.991 59.850,380.014 64.800 C 395.868 103.605,395.476 102.569,395.747 106.400 C 395.879 108.270,396.621 118.530,397.395 129.200 C 398.169 139.870,398.900 150.040,399.020 151.800 C 399.139 153.560,399.321 155.527,399.423 156.172 C 399.595 157.260,398.394 158.565,382.668 174.372 L 365.727 191.400 364.308 195.400 C 363.528 197.600,361.480 203.695,359.757 208.943 C 358.034 214.192,356.439 218.730,356.212 219.028 C 355.965 219.353,350.994 220.485,343.759 221.864 L 331.718 224.159 330.413 228.180 C 326.209 241.129,319.477 247.289,306.700 249.878 L 301.200 250.993 301.216 255.996 C 301.225 258.748,301.392 272.068,301.587 285.596 C 301.782 299.123,301.891 310.242,301.829 310.305 C 301.766 310.367,294.534 303.690,285.758 295.467 L 269.800 280.516 269.600 296.158 L 269.400 311.800 268.331 313.825 C 265.973 318.293,261.387 321.003,256.198 320.995 C 251.294 320.987,249.931 320.152,240.729 311.515 C 236.478 307.525,230.483 301.907,227.408 299.031 C 224.332 296.154,218.842 291.008,215.208 287.595 C 211.573 284.182,206.080 279.053,203.000 276.197 C 199.920 273.342,196.140 269.809,194.600 268.346 C 186.382 260.543,184.884 259.960,170.600 259.000 C 131.687 256.385,132.012 256.424,126.494 253.722 C 123.081 252.051,118.812 248.267,116.287 244.675 C 115.330 243.314,113.043 240.130,111.205 237.600 C 109.367 235.070,105.884 230.252,103.465 226.894 C 96.730 217.545,95.126 216.030,89.403 213.614 L 87.000 212.600 65.400 212.362 C 41.736 212.102,41.791 212.108,36.642 209.553 C 28.828 205.676,26.109 202.068,19.799 187.200 C 17.885 182.690,15.723 177.650,14.995 176.000 C 9.532 163.625,1.342 144.175,0.762 142.200 C 0.086 139.897,0.056 145.775,0.028 287.300 L 0.000 434.800 27.900 434.767 L 55.800 434.735 51.800 434.020 C 47.632 433.275,46.132 432.918,41.300 431.522 C 38.055 430.584,38.075 430.614,39.248 428.284 C 40.643 425.517,40.377 425.581,45.310 426.827 C 68.589 432.709,84.212 427.440,85.112 413.403 C 85.730 403.786,78.344 398.368,63.000 397.185 C 46.289 395.897,38.298 388.861,38.865 375.937 C 39.621 358.734,65.082 350.049,87.410 359.379 L 88.764 359.944 87.703 362.404 C 86.815 364.462,86.508 364.831,85.821 364.667 C 85.369 364.559,82.480 363.795,79.400 362.970 C 57.919 357.216,38.965 368.081,45.758 382.256 C 48.786 388.574,52.796 390.697,63.400 391.593 C 66.260 391.835,69.770 392.220,71.200 392.447 C 97.657 396.661,97.657 428.901,71.200 434.204 C 69.032 434.638,83.380 434.727,157.600 434.740 C 245.881 434.756,246.576 434.750,243.689 433.993 C 234.094 431.479,225.660 423.797,222.592 414.776 C 220.914 409.842,220.766 406.911,220.886 381.000 L 221.000 356.600 223.700 356.482 L 226.400 356.363 226.414 381.482 C 226.430 409.639,226.519 410.827,228.960 415.467 C 239.481 435.466,268.531 433.651,276.532 412.495 C 277.383 410.245,277.404 409.679,277.600 383.400 L 277.800 356.600 280.400 356.600 L 283.000 356.600 283.000 383.400 L 283.000 410.200 282.061 413.190 C 278.840 423.449,270.755 431.257,260.484 434.028 C 257.832 434.743,258.178 434.752,289.000 434.742 L 320.200 434.732 316.200 434.012 C 311.410 433.150,304.229 431.259,303.402 430.642 C 302.885 430.258,302.933 429.932,303.763 428.149 C 305.019 425.451,304.756 425.509,309.800 426.824 C 333.090 432.899,349.600 427.049,349.600 412.722 C 349.600 403.399,342.603 398.416,327.800 397.196 C 320.254 396.574,317.695 396.104,315.000 394.843 C 301.678 388.612,299.097 372.025,309.998 362.695 C 318.931 355.048,337.947 353.433,351.360 359.183 L 353.202 359.972 352.188 362.266 C 351.630 363.528,351.093 364.640,350.995 364.738 C 350.897 364.836,349.598 364.537,348.108 364.072 C 327.443 357.627,308.980 363.640,309.027 376.800 C 309.061 386.218,314.845 390.428,329.600 391.778 C 342.959 392.999,349.433 396.445,353.358 404.423 C 360.058 418.039,352.096 430.551,334.200 434.529 C 333.760 434.627,348.385 434.728,366.700 434.754 L 400.000 434.800 400.000 217.400 L 400.000 0.000 200.000 0.000 L 0.000 0.000 0.026 65.100 M168.185 5.153 C 168.316 5.567,169.322 8.942,170.420 12.653 C 173.451 22.901,175.217 28.000,175.733 28.002 C 175.990 28.003,180.430 28.262,185.600 28.577 C 190.770 28.892,197.520 29.269,200.600 29.414 C 207.763 29.751,210.557 30.325,218.295 33.053 C 221.763 34.275,227.210 36.144,230.400 37.207 C 240.019 40.412,276.721 52.888,278.203 53.457 C 279.218 53.846,278.089 52.248,274.679 48.470 C 273.315 46.959,271.056 44.391,269.657 42.762 C 268.258 41.133,265.710 38.180,263.995 36.200 C 262.280 34.220,258.294 29.616,255.138 25.968 C 251.982 22.321,247.286 16.898,244.702 13.917 L 240.003 8.496 235.302 8.230 C 232.716 8.084,228.170 7.796,225.200 7.590 C 222.230 7.383,211.340 6.757,201.000 6.197 C 190.660 5.638,179.320 5.006,175.800 4.793 C 167.373 4.285,167.902 4.260,168.185 5.153 M152.800 10.946 C 137.680 17.258,133.732 18.921,132.000 19.703 C 130.286 20.478,126.189 22.197,111.800 28.181 C 108.280 29.645,104.050 31.453,102.400 32.199 C 100.750 32.945,97.420 34.360,95.000 35.344 C 92.580 36.328,88.530 38.019,86.000 39.102 C 83.470 40.185,80.589 41.399,79.598 41.800 C 77.841 42.511,76.116 44.617,71.857 51.255 L 71.113 52.413 72.057 52.041 C 74.520 51.071,97.219 41.528,114.000 34.408 C 133.546 26.115,132.776 26.367,139.584 26.040 L 144.568 25.800 150.723 18.800 C 157.489 11.106,160.147 7.994,159.937 8.012 C 159.862 8.018,156.650 9.338,152.800 10.946 M163.529 10.350 C 163.018 10.983,159.681 14.843,156.112 18.928 L 149.625 26.355 151.312 26.571 C 153.045 26.794,167.259 27.600,169.447 27.600 L 170.669 27.600 168.775 21.300 C 167.734 17.835,166.496 13.695,166.024 12.100 C 165.065 8.859,164.853 8.710,163.529 10.350 M248.286 11.729 C 250.295 13.998,256.752 21.483,258.000 22.990 C 258.770 23.919,260.570 26.024,262.000 27.668 C 263.430 29.311,269.613 36.440,275.739 43.510 C 287.878 57.517,288.055 57.669,291.000 56.610 C 295.707 54.918,301.040 56.698,303.955 60.934 C 305.893 63.752,306.817 63.841,314.945 61.998 C 355.085 52.895,364.116 50.817,364.287 50.646 C 364.362 50.572,361.133 49.414,357.111 48.074 C 350.143 45.752,340.451 42.468,321.000 35.839 C 316.160 34.189,307.970 31.403,302.800 29.646 C 283.827 23.200,274.351 19.971,263.400 16.220 C 257.240 14.110,251.146 12.040,249.857 11.620 L 247.514 10.857 248.286 11.729 M365.400 54.652 C 362.980 55.188,357.670 56.419,353.600 57.389 C 349.530 58.358,342.510 59.965,338.000 60.959 C 333.490 61.953,326.740 63.492,323.000 64.380 C 319.260 65.269,316.020 66.007,315.800 66.022 C 315.580 66.037,319.187 67.345,323.815 68.928 C 340.307 74.572,342.362 76.670,350.185 95.851 C 352.686 101.983,356.519 111.376,358.703 116.725 L 362.672 126.449 372.036 118.381 C 377.186 113.944,383.409 108.632,385.865 106.576 C 388.320 104.520,390.430 102.675,390.553 102.476 C 390.764 102.134,389.658 99.269,383.500 84.200 C 382.061 80.680,379.271 73.840,377.299 69.000 C 375.326 64.160,373.102 58.717,372.356 56.905 C 371.480 54.776,370.788 53.622,370.400 53.644 C 370.070 53.663,367.820 54.117,365.400 54.652 M106.638 60.907 C 104.331 62.226,103.476 63.607,103.304 66.295 C 102.825 73.758,112.714 76.187,115.995 69.411 C 118.772 63.675,112.216 57.717,106.638 60.907 M291.585 60.900 C 287.057 63.183,286.840 69.335,291.181 72.290 C 296.820 76.128,303.940 69.651,300.711 63.621 C 298.930 60.296,295.066 59.144,291.585 60.900 M188.983 74.752 C 183.877 77.071,182.447 83.537,186.154 87.549 C 190.478 92.229,198.082 90.812,200.011 84.965 C 202.259 78.154,195.426 71.825,188.983 74.752 M389.161 109.148 C 387.225 110.748,365.451 129.373,364.117 130.568 C 363.742 130.904,363.896 134.326,364.812 146.000 C 367.424 179.283,367.463 177.834,363.735 186.300 C 363.088 187.767,365.537 185.467,379.742 171.258 L 395.280 155.717 394.227 141.358 C 393.158 126.785,391.588 107.443,391.467 107.348 C 391.430 107.319,390.392 108.129,389.161 109.148 M249.203 146.616 C 241.703 149.984,243.371 161.300,251.510 162.264 C 259.913 163.259,264.200 151.985,257.184 147.342 C 255.109 145.969,251.395 145.631,249.203 146.616 M329.672 147.450 C 322.820 150.943,326.830 161.980,334.213 159.946 C 341.829 157.848,341.037 147.375,333.226 146.907 C 331.702 146.815,330.581 146.987,329.672 147.450 M123.830 177.307 C 118.554 180.309,119.985 188.684,125.909 189.479 C 128.390 189.811,130.230 189.307,131.744 187.879 C 137.427 182.519,130.629 173.438,123.830 177.307 M355.996 197.187 C 352.314 199.315,335.719 215.440,334.228 218.338 L 333.540 219.677 334.670 219.449 C 335.291 219.323,339.673 218.483,344.407 217.580 L 353.015 215.940 355.521 208.670 C 358.702 199.443,360.010 195.197,359.669 195.210 C 359.521 195.215,357.868 196.105,355.996 197.187 M289.600 253.387 C 286.190 254.111,282.902 254.936,282.294 255.219 C 280.960 255.840,280.846 255.380,284.419 263.800 C 287.430 270.897,292.511 282.977,295.407 289.921 C 296.444 292.407,297.380 294.353,297.488 294.246 C 298.099 293.634,297.071 252.001,296.445 252.035 C 296.090 252.055,293.010 252.663,289.600 253.387 M274.808 260.700 C 272.214 263.603,270.470 267.225,269.780 271.143 L 269.241 274.200 270.721 275.688 C 273.236 278.217,293.795 297.511,293.889 297.431 C 293.992 297.343,289.587 286.586,284.621 274.800 C 282.721 270.290,280.409 264.757,279.483 262.505 C 277.515 257.715,277.486 257.704,274.808 260.700 M111.000 395.400 L 111.000 434.200 108.200 434.200 L 105.400 434.200 105.297 395.800 C 105.240 374.680,105.283 357.167,105.391 356.882 C 105.533 356.511,106.358 356.397,108.295 356.482 L 111.000 356.600 111.000 395.400 M163.000 356.810 C 179.535 359.135,186.004 380.749,173.474 391.802 L 171.400 393.632 172.380 394.316 C 184.354 402.676,186.060 417.783,176.169 427.883 C 170.311 433.865,167.908 434.393,146.500 434.397 L 130.800 434.400 130.800 395.667 C 130.800 374.363,130.920 356.813,131.067 356.667 C 131.488 356.245,159.890 356.372,163.000 356.810 M202.157 357.033 C 202.475 357.860,202.475 432.940,202.157 433.767 C 201.968 434.260,201.302 434.400,199.157 434.400 L 196.400 434.400 196.400 395.667 C 196.400 374.363,196.520 356.813,196.667 356.667 C 197.262 356.072,201.907 356.382,202.157 357.033 M136.400 376.820 L 136.400 391.239 150.100 391.120 L 163.800 391.000 166.000 389.914 C 175.408 385.272,177.346 372.966,169.760 366.033 C 166.020 362.615,164.813 362.400,149.358 362.400 L 136.400 362.400 136.400 376.820 M136.400 412.777 L 136.400 428.800 149.516 428.800 C 166.242 428.800,168.089 428.382,172.585 423.575 C 179.982 415.667,177.309 402.768,167.301 398.078 L 165.000 397.000 150.700 396.877 L 136.400 396.754 136.400 412.777 " stroke="none" fill="#fbfbfb" fill-rule="evenodd"></path><path id="path3" d="M140.175 30.900 L 139.000 32.200 140.300 31.025 C 141.512 29.930,141.784 29.600,141.475 29.600 C 141.406 29.600,140.821 30.185,140.175 30.900 M144.975 31.300 L 143.800 32.600 145.100 31.425 C 146.312 30.330,146.584 30.000,146.275 30.000 C 146.206 30.000,145.621 30.585,144.975 31.300 M137.375 34.100 L 136.200 35.400 137.500 34.225 C 138.215 33.579,138.800 32.994,138.800 32.925 C 138.800 32.616,138.470 32.888,137.375 34.100 M131.775 40.500 L 130.600 41.800 131.900 40.625 C 133.112 39.530,133.384 39.200,133.075 39.200 C 133.006 39.200,132.421 39.785,131.775 40.500 M136.975 40.500 L 135.800 41.800 137.100 40.625 C 138.312 39.530,138.584 39.200,138.275 39.200 C 138.206 39.200,137.621 39.785,136.975 40.500 M175.656 43.600 C 175.656 43.930,175.811 44.560,176.000 45.000 C 176.217 45.504,176.344 45.578,176.344 45.200 C 176.344 44.870,176.189 44.240,176.000 43.800 C 175.783 43.296,175.656 43.222,175.656 43.600 M120.575 53.300 L 119.400 54.600 120.700 53.425 C 121.912 52.330,122.184 52.000,121.875 52.000 C 121.806 52.000,121.221 52.585,120.575 53.300 M125.775 53.300 L 124.600 54.600 125.900 53.425 C 127.112 52.330,127.384 52.000,127.075 52.000 C 127.006 52.000,126.421 52.585,125.775 53.300 M280.400 55.325 C 280.400 55.394,280.985 55.979,281.700 56.625 L 283.000 57.800 281.825 56.500 C 280.730 55.288,280.400 55.016,280.400 55.325 M53.200 71.200 C 52.730 71.860,52.436 72.400,52.546 72.400 C 52.656 72.400,53.130 71.860,53.600 71.200 C 54.070 70.540,54.364 70.000,54.254 70.000 C 54.144 70.000,53.670 70.540,53.200 71.200 M118.629 72.500 C 117.778 73.800,117.712 74.023,118.348 73.447 C 118.805 73.033,119.283 72.370,119.409 71.973 C 119.535 71.576,120.034 71.174,120.519 71.080 C 121.350 70.919,121.353 70.906,120.571 70.854 C 120.005 70.817,119.389 71.340,118.629 72.500 M97.500 72.226 C 96.455 72.770,95.600 73.305,95.600 73.414 C 95.600 73.593,99.560 71.723,99.967 71.352 C 100.462 70.901,99.161 71.362,97.500 72.226 M108.475 77.448 C 108.847 77.558,109.242 77.953,109.352 78.325 C 109.499 78.814,109.532 78.781,109.472 78.205 C 109.425 77.738,109.062 77.375,108.595 77.328 C 108.019 77.268,107.986 77.301,108.475 77.448 M293.700 77.487 C 294.305 77.578,295.295 77.578,295.900 77.487 C 296.505 77.395,296.010 77.320,294.800 77.320 C 293.590 77.320,293.095 77.395,293.700 77.487 M298.828 82.600 C 298.828 82.820,299.086 83.450,299.400 84.000 C 299.714 84.550,299.972 84.820,299.972 84.600 C 299.972 84.380,299.714 83.750,299.400 83.200 C 299.086 82.650,298.828 82.380,298.828 82.600 M81.600 84.200 C 81.050 84.514,80.780 84.772,81.000 84.772 C 81.220 84.772,81.850 84.514,82.400 84.200 C 82.950 83.886,83.220 83.628,83.000 83.628 C 82.780 83.628,82.150 83.886,81.600 84.200 M70.700 85.029 C 69.149 85.870,69.325 86.161,70.900 85.359 C 72.408 84.593,72.675 84.394,72.167 84.416 C 71.965 84.425,71.305 84.701,70.700 85.029 M72.000 88.800 C 70.790 89.439,69.980 89.962,70.200 89.962 C 70.420 89.962,71.590 89.439,72.800 88.800 C 74.010 88.161,74.820 87.638,74.600 87.638 C 74.380 87.638,73.210 88.161,72.000 88.800 M40.400 90.000 C 39.930 90.660,39.636 91.200,39.746 91.200 C 39.856 91.200,40.330 90.660,40.800 90.000 C 41.270 89.340,41.564 88.800,41.454 88.800 C 41.344 88.800,40.870 89.340,40.400 90.000 M59.600 90.400 C 58.830 90.822,58.380 91.166,58.600 91.166 C 58.820 91.166,59.630 90.822,60.400 90.400 C 61.170 89.978,61.620 89.634,61.400 89.634 C 61.180 89.634,60.370 89.978,59.600 90.400 M201.200 93.325 C 201.200 93.394,201.785 93.979,202.500 94.625 L 203.800 95.800 202.625 94.500 C 201.530 93.288,201.200 93.016,201.200 93.325 M304.828 95.800 C 304.828 96.020,305.086 96.650,305.400 97.200 C 305.714 97.750,305.972 98.020,305.972 97.800 C 305.972 97.580,305.714 96.950,305.400 96.400 C 305.086 95.850,304.828 95.580,304.828 95.800 M200.000 97.800 C 200.746 98.570,201.447 99.200,201.557 99.200 C 201.667 99.200,201.146 98.570,200.400 97.800 C 199.654 97.030,198.953 96.400,198.843 96.400 C 198.733 96.400,199.254 97.030,200.000 97.800 M206.200 98.800 C 207.059 99.680,207.852 100.400,207.962 100.400 C 208.072 100.400,207.459 99.680,206.600 98.800 C 205.741 97.920,204.948 97.200,204.838 97.200 C 204.728 97.200,205.341 97.920,206.200 98.800 M34.400 98.800 C 33.930 99.460,33.636 100.000,33.746 100.000 C 33.856 100.000,34.330 99.460,34.800 98.800 C 35.270 98.140,35.564 97.600,35.454 97.600 C 35.344 97.600,34.870 98.140,34.400 98.800 M203.200 101.325 C 203.200 101.394,203.785 101.979,204.500 102.625 L 205.800 103.800 204.625 102.500 C 203.530 101.288,203.200 101.016,203.200 101.325 M210.200 103.200 C 211.059 104.080,211.852 104.800,211.962 104.800 C 212.072 104.800,211.459 104.080,210.600 103.200 C 209.741 102.320,208.948 101.600,208.838 101.600 C 208.728 101.600,209.341 102.320,210.200 103.200 M207.600 106.125 C 207.600 106.194,208.185 106.779,208.900 107.425 L 210.200 108.600 209.025 107.300 C 207.930 106.088,207.600 105.816,207.600 106.125 M214.783 108.100 C 215.764 109.145,216.619 110.000,216.683 110.000 C 216.984 110.000,216.666 109.641,214.900 107.983 L 213.000 106.200 214.783 108.100 M212.383 111.300 C 213.364 112.345,214.219 113.200,214.283 113.200 C 214.584 113.200,214.266 112.841,212.500 111.183 L 210.600 109.400 212.383 111.300 M217.600 111.325 C 217.600 111.394,218.185 111.979,218.900 112.625 L 220.200 113.800 219.025 112.500 C 217.930 111.288,217.600 111.016,217.600 111.325 M37.200 113.067 C 37.200 113.433,37.318 113.615,37.463 113.470 C 37.608 113.325,38.013 113.427,38.363 113.697 C 38.753 113.997,38.705 113.840,38.238 113.293 C 37.326 112.224,37.200 112.196,37.200 113.067 M215.200 114.525 C 215.200 114.594,215.785 115.179,216.500 115.825 L 217.800 117.000 216.625 115.700 C 215.530 114.488,215.200 114.216,215.200 114.525 M222.600 116.800 C 223.459 117.680,224.252 118.400,224.362 118.400 C 224.472 118.400,223.859 117.680,223.000 116.800 C 222.141 115.920,221.348 115.200,221.238 115.200 C 221.128 115.200,221.741 115.920,222.600 116.800 M220.400 120.200 C 221.146 120.970,221.847 121.600,221.957 121.600 C 222.067 121.600,221.546 120.970,220.800 120.200 C 220.054 119.430,219.353 118.800,219.243 118.800 C 219.133 118.800,219.654 119.430,220.400 120.200 M226.000 120.525 C 226.000 120.594,226.585 121.179,227.300 121.825 L 228.600 123.000 227.425 121.700 C 226.330 120.488,226.000 120.216,226.000 120.525 M316.428 121.400 C 316.428 121.620,316.686 122.250,317.000 122.800 C 317.314 123.350,317.572 123.620,317.572 123.400 C 317.572 123.180,317.314 122.550,317.000 122.000 C 316.686 121.450,316.428 121.180,316.428 121.400 M321.628 123.400 C 321.628 123.620,321.886 124.250,322.200 124.800 C 322.514 125.350,322.772 125.620,322.772 125.400 C 322.772 125.180,322.514 124.550,322.200 124.000 C 321.886 123.450,321.628 123.180,321.628 123.400 M224.800 125.000 C 225.546 125.770,226.247 126.400,226.357 126.400 C 226.467 126.400,225.946 125.770,225.200 125.000 C 224.454 124.230,223.753 123.600,223.643 123.600 C 223.533 123.600,224.054 124.230,224.800 125.000 M231.000 126.000 C 231.859 126.880,232.652 127.600,232.762 127.600 C 232.872 127.600,232.259 126.880,231.400 126.000 C 230.541 125.120,229.748 124.400,229.638 124.400 C 229.528 124.400,230.141 125.120,231.000 126.000 M229.200 129.800 C 229.946 130.570,230.647 131.200,230.757 131.200 C 230.867 131.200,230.346 130.570,229.600 129.800 C 228.854 129.030,228.153 128.400,228.043 128.400 C 227.933 128.400,228.454 129.030,229.200 129.800 M235.000 130.400 C 236.083 131.500,237.060 132.400,237.170 132.400 C 237.280 132.400,236.483 131.500,235.400 130.400 C 234.317 129.300,233.340 128.400,233.230 128.400 C 233.120 128.400,233.917 129.300,235.000 130.400 M162.153 131.300 C 160.776 133.636,160.686 133.835,161.387 133.000 C 162.200 132.032,162.900 130.800,162.638 130.800 C 162.533 130.800,162.315 131.025,162.153 131.300 M232.400 133.400 C 233.146 134.170,233.847 134.800,233.957 134.800 C 234.067 134.800,233.546 134.170,232.800 133.400 C 232.054 132.630,231.353 132.000,231.243 132.000 C 231.133 132.000,231.654 132.630,232.400 133.400 M327.628 136.600 C 327.628 136.820,327.886 137.450,328.200 138.000 C 328.514 138.550,328.772 138.820,328.772 138.600 C 328.772 138.380,328.514 137.750,328.200 137.200 C 327.886 136.650,327.628 136.380,327.628 136.600 M236.000 137.325 C 236.000 137.394,236.585 137.979,237.300 138.625 L 238.600 139.800 237.425 138.500 C 236.330 137.288,236.000 137.016,236.000 137.325 M243.000 139.200 C 243.859 140.080,244.652 140.800,244.762 140.800 C 244.872 140.800,244.259 140.080,243.400 139.200 C 242.541 138.320,241.748 137.600,241.638 137.600 C 241.528 137.600,242.141 138.320,243.000 139.200 M240.400 142.125 C 240.400 142.194,240.985 142.779,241.700 143.425 L 243.000 144.600 241.825 143.300 C 240.730 142.088,240.400 141.816,240.400 142.125 M260.800 145.400 C 261.546 146.170,262.247 146.800,262.357 146.800 C 262.467 146.800,261.946 146.170,261.200 145.400 C 260.454 144.630,259.753 144.000,259.643 144.000 C 259.533 144.000,260.054 144.630,260.800 145.400 M322.000 151.331 C 322.000 151.942,319.719 152.003,293.100 152.100 L 264.200 152.205 293.113 152.303 C 322.977 152.403,323.702 152.369,322.249 150.916 C 322.112 150.779,322.000 150.965,322.000 151.331 M397.375 159.300 L 396.200 160.600 397.500 159.425 C 398.215 158.779,398.800 158.194,398.800 158.125 C 398.800 157.816,398.470 158.088,397.375 159.300 M242.400 161.325 C 242.400 161.394,242.985 161.979,243.700 162.625 L 245.000 163.800 243.825 162.500 C 242.730 161.288,242.400 161.016,242.400 161.325 M63.943 184.903 C 64.109 185.069,76.115 185.159,90.623 185.103 L 117.000 185.000 90.320 184.800 C 75.646 184.690,63.776 184.736,63.943 184.903 M126.500 193.876 C 126.885 193.976,127.515 193.976,127.900 193.876 C 128.285 193.775,127.970 193.693,127.200 193.693 C 126.430 193.693,126.115 193.775,126.500 193.876 M223.600 213.000 C 224.150 213.314,224.780 213.572,225.000 213.572 C 225.220 213.572,224.950 213.314,224.400 213.000 C 223.850 212.686,223.220 212.428,223.000 212.428 C 222.780 212.428,223.050 212.686,223.600 213.000 M167.500 225.482 C 167.995 225.578,168.805 225.578,169.300 225.482 C 169.795 225.387,169.390 225.309,168.400 225.309 C 167.410 225.309,167.005 225.387,167.500 225.482 M173.900 225.882 C 174.395 225.978,175.205 225.978,175.700 225.882 C 176.195 225.787,175.790 225.709,174.800 225.709 C 173.810 225.709,173.405 225.787,173.900 225.882 M180.105 226.287 C 180.714 226.379,181.614 226.377,182.105 226.282 C 182.597 226.187,182.100 226.111,181.000 226.114 C 179.900 226.117,179.497 226.195,180.105 226.287 M185.507 226.690 C 186.226 226.779,187.306 226.777,187.907 226.686 C 188.508 226.595,187.920 226.522,186.600 226.524 C 185.280 226.526,184.788 226.601,185.507 226.690 M191.705 227.087 C 192.314 227.179,193.214 227.177,193.705 227.082 C 194.197 226.987,193.700 226.911,192.600 226.914 C 191.500 226.917,191.097 226.995,191.705 227.087 M197.705 227.487 C 198.314 227.579,199.214 227.577,199.705 227.482 C 200.197 227.387,199.700 227.311,198.600 227.314 C 197.500 227.317,197.097 227.395,197.705 227.487 M157.149 228.100 C 157.451 228.485,158.081 228.779,158.549 228.754 C 159.357 228.710,159.360 228.697,158.600 228.511 C 158.160 228.402,157.530 228.108,157.200 227.857 C 156.678 227.460,156.672 227.491,157.149 228.100 M203.100 227.889 C 203.815 227.978,204.985 227.978,205.700 227.889 C 206.415 227.801,205.830 227.728,204.400 227.728 C 202.970 227.728,202.385 227.801,203.100 227.889 M209.305 228.287 C 209.914 228.379,210.814 228.377,211.305 228.282 C 211.797 228.187,211.300 228.111,210.200 228.114 C 209.100 228.117,208.697 228.195,209.305 228.287 M215.300 228.676 C 215.685 228.776,216.315 228.776,216.700 228.676 C 217.085 228.575,216.770 228.493,216.000 228.493 C 215.230 228.493,214.915 228.575,215.300 228.676 M296.962 235.800 C 296.962 239.320,297.024 240.706,297.098 238.881 C 297.172 237.056,297.172 234.176,297.097 232.481 C 297.022 230.786,296.961 232.280,296.962 235.800 M182.100 230.276 C 182.485 230.376,183.115 230.376,183.500 230.276 C 183.885 230.175,183.570 230.093,182.800 230.093 C 182.030 230.093,181.715 230.175,182.100 230.276 M187.100 230.682 C 187.595 230.778,188.405 230.778,188.900 230.682 C 189.395 230.587,188.990 230.509,188.000 230.509 C 187.010 230.509,186.605 230.587,187.100 230.682 M193.305 231.087 C 193.914 231.179,194.814 231.177,195.305 231.082 C 195.797 230.987,195.300 230.911,194.200 230.914 C 193.100 230.917,192.697 230.995,193.305 231.087 M198.707 231.490 C 199.426 231.579,200.506 231.577,201.107 231.486 C 201.708 231.395,201.120 231.322,199.800 231.324 C 198.480 231.326,197.988 231.401,198.707 231.490 M204.505 231.887 C 205.114 231.979,206.014 231.977,206.505 231.882 C 206.997 231.787,206.500 231.711,205.400 231.714 C 204.300 231.717,203.897 231.795,204.505 231.887 M210.905 232.287 C 211.514 232.379,212.414 232.377,212.905 232.282 C 213.397 232.187,212.900 232.111,211.800 232.114 C 210.700 232.117,210.297 232.195,210.905 232.287 M226.200 234.400 C 227.506 235.720,228.665 236.800,228.775 236.800 C 228.885 236.800,227.906 235.720,226.600 234.400 C 225.294 233.080,224.135 232.000,224.025 232.000 C 223.915 232.000,224.894 233.080,226.200 234.400 M216.105 232.687 C 216.714 232.779,217.614 232.777,218.105 232.682 C 218.597 232.587,218.100 232.511,217.000 232.514 C 215.900 232.517,215.497 232.595,216.105 232.687 M223.583 237.300 C 224.564 238.345,225.419 239.200,225.483 239.200 C 225.784 239.200,225.466 238.841,223.700 237.183 L 221.800 235.400 223.583 237.300 M233.000 240.800 C 234.306 242.120,235.465 243.200,235.575 243.200 C 235.685 243.200,234.706 242.120,233.400 240.800 C 232.094 239.480,230.935 238.400,230.825 238.400 C 230.715 238.400,231.694 239.480,233.000 240.800 M229.400 242.800 C 230.706 244.120,231.865 245.200,231.975 245.200 C 232.085 245.200,231.106 244.120,229.800 242.800 C 228.494 241.480,227.335 240.400,227.225 240.400 C 227.115 240.400,228.094 241.480,229.400 242.800 M239.200 246.600 C 240.617 248.030,241.867 249.200,241.977 249.200 C 242.087 249.200,241.017 248.030,239.600 246.600 C 238.183 245.170,236.933 244.000,236.823 244.000 C 236.713 244.000,237.783 245.170,239.200 246.600 M300.944 248.000 C 300.944 250.090,301.012 250.945,301.094 249.900 C 301.176 248.855,301.176 247.145,301.094 246.100 C 301.012 245.055,300.944 245.910,300.944 248.000 M235.583 248.500 C 237.241 250.266,237.600 250.584,237.600 250.283 C 237.600 250.219,236.745 249.364,235.700 248.383 L 233.800 246.600 235.583 248.500 M245.000 252.000 C 246.306 253.320,247.465 254.400,247.575 254.400 C 247.685 254.400,246.706 253.320,245.400 252.000 C 244.094 250.680,242.935 249.600,242.825 249.600 C 242.715 249.600,243.694 250.680,245.000 252.000 M274.428 250.600 C 274.428 250.820,274.686 251.450,275.000 252.000 C 275.314 252.550,275.572 252.820,275.572 252.600 C 275.572 252.380,275.314 251.750,275.000 251.200 C 274.686 250.650,274.428 250.380,274.428 250.600 M242.200 254.800 C 243.059 255.680,243.852 256.400,243.962 256.400 C 244.072 256.400,243.459 255.680,242.600 254.800 C 241.741 253.920,240.948 253.200,240.838 253.200 C 240.728 253.200,241.341 253.920,242.200 254.800 M251.800 258.400 C 253.106 259.720,254.265 260.800,254.375 260.800 C 254.485 260.800,253.506 259.720,252.200 258.400 C 250.894 257.080,249.735 256.000,249.625 256.000 C 249.515 256.000,250.494 257.080,251.800 258.400 M248.200 260.400 C 249.506 261.720,250.665 262.800,250.775 262.800 C 250.885 262.800,249.906 261.720,248.600 260.400 C 247.294 259.080,246.135 258.000,246.025 258.000 C 245.915 258.000,246.894 259.080,248.200 260.400 M258.200 264.400 C 259.506 265.720,260.665 266.800,260.775 266.800 C 260.885 266.800,259.906 265.720,258.600 264.400 C 257.294 263.080,256.135 262.000,256.025 262.000 C 255.915 262.000,256.894 263.080,258.200 264.400 M254.200 266.000 C 255.059 266.880,255.852 267.600,255.962 267.600 C 256.072 267.600,255.459 266.880,254.600 266.000 C 253.741 265.120,252.948 264.400,252.838 264.400 C 252.728 264.400,253.341 265.120,254.200 266.000 M264.383 270.100 C 266.041 271.866,266.400 272.184,266.400 271.883 C 266.400 271.819,265.545 270.964,264.500 269.983 L 262.600 268.200 264.383 270.100 M261.000 272.400 C 261.859 273.280,262.652 274.000,262.762 274.000 C 262.872 274.000,262.259 273.280,261.400 272.400 C 260.541 271.520,259.748 270.800,259.638 270.800 C 259.528 270.800,260.141 271.520,261.000 272.400 M266.200 277.200 C 267.283 278.300,268.260 279.200,268.370 279.200 C 268.480 279.200,267.683 278.300,266.600 277.200 C 265.517 276.100,264.540 275.200,264.430 275.200 C 264.320 275.200,265.117 276.100,266.200 277.200 M297.594 292.881 C 297.487 294.136,297.546 295.016,297.724 294.837 C 297.903 294.658,297.990 293.631,297.918 292.556 L 297.787 290.600 297.594 292.881 M105.295 395.476 C 105.243 416.638,105.335 434.036,105.500 434.138 C 105.772 434.306,105.769 406.988,105.494 370.800 C 105.436 363.210,105.347 374.314,105.295 395.476 M136.181 376.800 C 136.181 384.830,136.234 388.115,136.299 384.100 C 136.365 380.085,136.365 373.515,136.299 369.500 C 136.234 365.485,136.181 368.770,136.181 376.800 M136.182 412.800 C 136.182 421.710,136.235 425.355,136.300 420.900 C 136.364 416.445,136.364 409.155,136.300 404.700 C 136.235 400.245,136.182 403.890,136.182 412.800 M60.500 429.494 C 61.545 429.576,63.255 429.576,64.300 429.494 C 65.345 429.412,64.490 429.344,62.400 429.344 C 60.310 429.344,59.455 429.412,60.500 429.494 M324.900 429.494 C 325.945 429.576,327.655 429.576,328.700 429.494 C 329.745 429.412,328.890 429.344,326.800 429.344 C 324.710 429.344,323.855 429.412,324.900 429.494 " stroke="none" fill="#6d858d" fill-rule="evenodd"></path><path id="path4" d="M167.905 0.683 C 168.402 0.779,169.122 0.775,169.505 0.675 C 169.887 0.575,169.480 0.496,168.600 0.501 C 167.720 0.505,167.407 0.587,167.905 0.683 M189.705 1.887 C 190.314 1.979,191.214 1.977,191.705 1.882 C 192.197 1.787,191.700 1.711,190.600 1.714 C 189.500 1.717,189.097 1.795,189.705 1.887 M195.891 2.289 C 196.601 2.377,197.861 2.379,198.691 2.292 C 199.521 2.205,198.940 2.133,197.400 2.131 C 195.860 2.129,195.181 2.200,195.891 2.289 M203.107 2.690 C 203.826 2.779,204.906 2.777,205.507 2.686 C 206.108 2.595,205.520 2.522,204.200 2.524 C 202.880 2.526,202.388 2.601,203.107 2.690 M209.700 3.091 C 210.525 3.178,211.875 3.178,212.700 3.091 C 213.525 3.005,212.850 2.934,211.200 2.934 C 209.550 2.934,208.875 3.005,209.700 3.091 M217.091 3.489 C 217.801 3.577,219.061 3.579,219.891 3.492 C 220.721 3.405,220.140 3.333,218.600 3.331 C 217.060 3.329,216.381 3.400,217.091 3.489 M224.505 3.887 C 225.114 3.979,226.014 3.977,226.505 3.882 C 226.997 3.787,226.500 3.711,225.400 3.714 C 224.300 3.717,223.897 3.795,224.505 3.887 M167.867 4.267 C 167.720 4.413,167.603 4.728,167.606 4.967 C 167.610 5.251,167.714 5.241,167.907 4.936 C 168.070 4.681,168.742 4.393,169.401 4.296 L 170.600 4.120 169.367 4.060 C 168.688 4.027,168.013 4.120,167.867 4.267 M232.105 4.287 C 232.714 4.379,233.614 4.377,234.105 4.282 C 234.597 4.187,234.100 4.111,233.000 4.114 C 231.900 4.117,231.497 4.195,232.105 4.287 M239.300 4.676 C 239.685 4.776,240.315 4.776,240.700 4.676 C 241.085 4.575,240.770 4.493,240.000 4.493 C 239.230 4.493,238.915 4.575,239.300 4.676 M181.700 5.076 C 182.085 5.176,182.715 5.176,183.100 5.076 C 183.485 4.975,183.170 4.893,182.400 4.893 C 181.630 4.893,181.315 4.975,181.700 5.076 M189.300 5.476 C 189.685 5.576,190.315 5.576,190.700 5.476 C 191.085 5.375,190.770 5.293,190.000 5.293 C 189.230 5.293,188.915 5.375,189.300 5.476 M196.105 5.887 C 196.714 5.979,197.614 5.977,198.105 5.882 C 198.597 5.787,198.100 5.711,197.000 5.714 C 195.900 5.717,195.497 5.795,196.105 5.887 M203.705 6.287 C 204.314 6.379,205.214 6.377,205.705 6.282 C 206.197 6.187,205.700 6.111,204.600 6.114 C 203.500 6.117,203.097 6.195,203.705 6.287 M210.900 6.676 C 211.285 6.776,211.915 6.776,212.300 6.676 C 212.685 6.575,212.370 6.493,211.600 6.493 C 210.830 6.493,210.515 6.575,210.900 6.676 M218.500 7.076 C 218.885 7.176,219.515 7.176,219.900 7.076 C 220.285 6.975,219.970 6.893,219.200 6.893 C 218.430 6.893,218.115 6.975,218.500 7.076 M226.100 7.476 C 226.485 7.576,227.115 7.576,227.500 7.476 C 227.885 7.375,227.570 7.293,226.800 7.293 C 226.030 7.293,225.715 7.375,226.100 7.476 M232.905 7.887 C 233.514 7.979,234.414 7.977,234.905 7.882 C 235.397 7.787,234.900 7.711,233.800 7.714 C 232.700 7.717,232.297 7.795,232.905 7.887 M155.375 13.700 L 154.200 15.000 155.500 13.825 C 156.215 13.179,156.800 12.594,156.800 12.525 C 156.800 12.216,156.470 12.488,155.375 13.700 M260.800 15.133 C 261.130 15.336,261.850 15.624,262.400 15.771 C 263.095 15.957,263.217 15.925,262.800 15.667 C 262.470 15.464,261.750 15.176,261.200 15.029 C 260.505 14.843,260.383 14.875,260.800 15.133 M152.175 22.900 L 151.000 24.200 152.300 23.025 C 153.015 22.379,153.600 21.794,153.600 21.725 C 153.600 21.416,153.270 21.688,152.175 22.900 M149.375 26.100 L 148.200 27.400 149.500 26.225 C 150.215 25.579,150.800 24.994,150.800 24.925 C 150.800 24.616,150.470 24.888,149.375 26.100 M316.000 33.933 C 316.330 34.136,317.050 34.424,317.600 34.571 C 318.295 34.757,318.417 34.725,318.000 34.467 C 317.670 34.264,316.950 33.976,316.400 33.829 C 315.705 33.643,315.583 33.675,316.000 33.933 M278.800 47.725 C 278.800 47.794,279.385 48.379,280.100 49.025 L 281.400 50.200 280.225 48.900 C 279.130 47.688,278.800 47.416,278.800 47.725 M370.281 53.480 C 370.766 53.574,371.277 54.013,371.418 54.455 C 371.558 54.898,371.761 55.172,371.869 55.064 C 372.334 54.600,371.113 53.204,370.286 53.254 L 369.400 53.309 370.281 53.480 M284.000 53.725 C 284.000 53.794,284.585 54.379,285.300 55.025 L 286.600 56.200 285.425 54.900 C 284.330 53.688,284.000 53.416,284.000 53.725 M109.100 56.282 C 109.595 56.378,110.405 56.378,110.900 56.282 C 111.395 56.187,110.990 56.109,110.000 56.109 C 109.010 56.109,108.605 56.187,109.100 56.282 M294.105 56.287 C 294.714 56.379,295.614 56.377,296.105 56.282 C 296.597 56.187,296.100 56.111,295.000 56.114 C 293.900 56.117,293.497 56.195,294.105 56.287 M303.725 61.568 C 304.200 62.435,304.650 63.084,304.724 63.009 C 304.918 62.816,303.677 60.495,303.234 60.221 C 303.029 60.094,303.250 60.700,303.725 61.568 M284.093 66.800 C 284.093 67.570,284.175 67.885,284.276 67.500 C 284.376 67.115,284.376 66.485,284.276 66.100 C 284.175 65.715,284.093 66.030,284.093 66.800 M114.575 71.700 L 113.400 73.000 114.700 71.825 C 115.912 70.730,116.184 70.400,115.875 70.400 C 115.806 70.400,115.221 70.985,114.575 71.700 M197.200 75.325 C 197.200 75.394,197.785 75.979,198.500 76.625 L 199.800 77.800 198.625 76.500 C 197.530 75.288,197.200 75.016,197.200 75.325 M191.305 94.287 C 191.914 94.379,192.814 94.377,193.305 94.282 C 193.797 94.187,193.300 94.111,192.200 94.114 C 191.100 94.117,190.697 94.195,191.305 94.287 M205.600 103.725 C 205.600 103.794,206.185 104.379,206.900 105.025 L 208.200 106.200 207.025 104.900 C 205.930 103.688,205.600 103.416,205.600 103.725 M210.800 104.125 C 210.800 104.194,211.385 104.779,212.100 105.425 L 213.400 106.600 212.225 105.300 C 211.130 104.088,210.800 103.816,210.800 104.125 M395.301 106.600 C 395.305 107.480,395.387 107.793,395.483 107.295 C 395.579 106.798,395.575 106.078,395.475 105.695 C 395.375 105.313,395.296 105.720,395.301 106.600 M210.000 108.525 C 210.000 108.594,210.585 109.179,211.300 109.825 L 212.600 111.000 211.425 109.700 C 210.330 108.488,210.000 108.216,210.000 108.525 M395.701 112.200 C 395.705 113.080,395.787 113.393,395.883 112.895 C 395.979 112.398,395.975 111.678,395.875 111.295 C 395.775 110.913,395.696 111.320,395.701 112.200 M396.120 117.200 C 396.120 118.410,396.195 118.905,396.287 118.300 C 396.378 117.695,396.378 116.705,396.287 116.100 C 396.195 115.495,396.120 115.990,396.120 117.200 M217.600 116.925 C 217.600 116.994,218.185 117.579,218.900 118.225 L 220.200 119.400 219.025 118.100 C 217.930 116.888,217.600 116.616,217.600 116.925 M224.200 118.800 C 225.059 119.680,225.852 120.400,225.962 120.400 C 226.072 120.400,225.459 119.680,224.600 118.800 C 223.741 117.920,222.948 117.200,222.838 117.200 C 222.728 117.200,223.341 117.920,224.200 118.800 M396.524 122.600 C 396.526 123.920,396.601 124.412,396.690 123.693 C 396.779 122.974,396.777 121.894,396.686 121.293 C 396.595 120.692,396.522 121.280,396.524 122.600 M396.909 127.600 C 396.909 128.590,396.987 128.995,397.082 128.500 C 397.178 128.005,397.178 127.195,397.082 126.700 C 396.987 126.205,396.909 126.610,396.909 127.600 M366.575 128.100 L 365.400 129.400 366.700 128.225 C 367.415 127.579,368.000 126.994,368.000 126.925 C 368.000 126.616,367.670 126.888,366.575 128.100 M397.320 132.800 C 397.320 134.010,397.395 134.505,397.487 133.900 C 397.578 133.295,397.578 132.305,397.487 131.700 C 397.395 131.095,397.320 131.590,397.320 132.800 M397.701 137.800 C 397.705 138.680,397.787 138.993,397.883 138.495 C 397.979 137.998,397.975 137.278,397.875 136.895 C 397.775 136.513,397.696 136.920,397.701 137.800 M394.093 138.800 C 394.093 139.570,394.175 139.885,394.276 139.500 C 394.376 139.115,394.376 138.485,394.276 138.100 C 394.175 137.715,394.093 138.030,394.093 138.800 M243.600 140.125 C 243.600 140.194,244.185 140.779,244.900 141.425 L 246.200 142.600 245.025 141.300 C 243.930 140.088,243.600 139.816,243.600 140.125 M243.171 144.900 C 243.607 145.479,243.607 145.721,243.171 146.300 C 242.669 146.967,242.680 146.967,243.408 146.300 C 244.159 145.611,244.159 145.589,243.408 144.900 C 242.680 144.233,242.669 144.233,243.171 144.900 M327.775 148.500 L 326.600 149.800 327.900 148.625 C 328.615 147.979,329.200 147.394,329.200 147.325 C 329.200 147.016,328.870 147.288,327.775 148.500 M260.914 154.200 C 260.917 155.300,260.995 155.703,261.087 155.095 C 261.179 154.486,261.177 153.586,261.082 153.095 C 260.987 152.603,260.911 153.100,260.914 154.200 M395.270 154.398 L 395.200 156.196 379.901 171.598 L 364.601 187.000 380.127 171.573 L 395.653 156.146 395.496 154.373 L 395.340 152.600 395.270 154.398 M279.129 155.900 C 287.121 155.960,300.081 155.960,307.929 155.900 C 315.778 155.839,309.240 155.790,293.400 155.790 C 277.560 155.790,271.138 155.839,279.129 155.900 M251.905 166.283 C 252.402 166.379,253.122 166.375,253.505 166.275 C 253.887 166.175,253.480 166.096,252.600 166.101 C 251.720 166.105,251.407 166.187,251.905 166.283 M122.887 177.500 C 122.268 178.105,122.130 178.310,122.581 177.955 C 123.031 177.600,123.760 177.110,124.200 176.867 C 124.640 176.623,124.778 176.419,124.506 176.412 C 124.235 176.405,123.506 176.895,122.887 177.500 M120.101 183.000 C 120.105 183.880,120.187 184.193,120.283 183.695 C 120.379 183.198,120.375 182.478,120.275 182.095 C 120.175 181.713,120.096 182.120,120.101 183.000 M121.200 186.925 C 121.200 186.994,121.785 187.579,122.500 188.225 L 123.800 189.400 122.625 188.100 C 121.530 186.888,121.200 186.616,121.200 186.925 M131.400 188.268 C 130.520 189.057,130.160 189.516,130.600 189.288 C 131.341 188.904,133.551 186.779,133.170 186.817 C 133.076 186.826,132.280 187.479,131.400 188.268 M177.105 226.283 C 177.602 226.379,178.322 226.375,178.705 226.275 C 179.087 226.175,178.680 226.096,177.800 226.101 C 176.920 226.105,176.607 226.187,177.105 226.283 M188.300 227.082 C 188.795 227.178,189.605 227.178,190.100 227.082 C 190.595 226.987,190.190 226.909,189.200 226.909 C 188.210 226.909,187.805 226.987,188.300 227.082 M194.705 227.483 C 195.202 227.579,195.922 227.575,196.305 227.475 C 196.687 227.375,196.280 227.296,195.400 227.301 C 194.520 227.305,194.207 227.387,194.705 227.483 M212.705 228.683 C 213.202 228.779,213.922 228.775,214.305 228.675 C 214.687 228.575,214.280 228.496,213.400 228.501 C 212.520 228.505,212.207 228.587,212.705 228.683 M190.305 230.683 C 190.802 230.779,191.522 230.775,191.905 230.675 C 192.287 230.575,191.880 230.496,191.000 230.501 C 190.120 230.505,189.807 230.587,190.305 230.683 M223.800 232.400 C 224.659 233.280,225.452 234.000,225.562 234.000 C 225.672 234.000,225.059 233.280,224.200 232.400 C 223.341 231.520,222.548 230.800,222.438 230.800 C 222.328 230.800,222.941 231.520,223.800 232.400 M207.900 231.882 C 208.395 231.978,209.205 231.978,209.700 231.882 C 210.195 231.787,209.790 231.709,208.800 231.709 C 207.810 231.709,207.405 231.787,207.900 231.882 M214.305 232.283 C 214.802 232.379,215.522 232.375,215.905 232.275 C 216.287 232.175,215.880 232.096,215.000 232.101 C 214.120 232.105,213.807 232.187,214.305 232.283 M230.383 238.500 C 231.364 239.545,232.219 240.400,232.283 240.400 C 232.584 240.400,232.266 240.041,230.500 238.383 L 228.600 236.600 230.383 238.500 M225.600 239.000 C 226.346 239.770,227.047 240.400,227.157 240.400 C 227.267 240.400,226.746 239.770,226.000 239.000 C 225.254 238.230,224.553 237.600,224.443 237.600 C 224.333 237.600,224.854 238.230,225.600 239.000 M237.000 244.800 C 237.859 245.680,238.652 246.400,238.762 246.400 C 238.872 246.400,238.259 245.680,237.400 244.800 C 236.541 243.920,235.748 243.200,235.638 243.200 C 235.528 243.200,236.141 243.920,237.000 244.800 M232.200 245.200 C 233.059 246.080,233.852 246.800,233.962 246.800 C 234.072 246.800,233.459 246.080,232.600 245.200 C 231.741 244.320,230.948 243.600,230.838 243.600 C 230.728 243.600,231.341 244.320,232.200 245.200 M242.000 249.325 C 242.000 249.394,242.585 249.979,243.300 250.625 L 244.600 251.800 243.425 250.500 C 242.330 249.288,242.000 249.016,242.000 249.325 M297.366 258.800 C 297.366 262.870,297.425 264.535,297.498 262.500 C 297.571 260.465,297.571 257.135,297.498 255.100 C 297.425 253.065,297.366 254.730,297.366 258.800 M300.953 256.200 C 300.953 258.840,301.018 259.868,301.097 258.484 C 301.175 257.101,301.174 254.941,301.095 253.684 C 301.016 252.428,300.952 253.560,300.953 256.200 M249.000 256.000 C 249.859 256.880,250.652 257.600,250.762 257.600 C 250.872 257.600,250.259 256.880,249.400 256.000 C 248.541 255.120,247.748 254.400,247.638 254.400 C 247.528 254.400,248.141 255.120,249.000 256.000 M244.200 256.400 C 245.059 257.280,245.852 258.000,245.962 258.000 C 246.072 258.000,245.459 257.280,244.600 256.400 C 243.741 255.520,242.948 254.800,242.838 254.800 C 242.728 254.800,243.341 255.520,244.200 256.400 M251.000 262.800 C 251.859 263.680,252.652 264.400,252.762 264.400 C 252.872 264.400,252.259 263.680,251.400 262.800 C 250.541 261.920,249.748 261.200,249.638 261.200 C 249.528 261.200,250.141 261.920,251.000 262.800 M255.600 266.925 C 255.600 266.994,256.185 267.579,256.900 268.225 L 258.200 269.400 257.025 268.100 C 255.930 266.888,255.600 266.616,255.600 266.925 M262.000 272.925 C 262.000 272.994,262.585 273.579,263.300 274.225 L 264.600 275.400 263.425 274.100 C 262.330 272.888,262.000 272.616,262.000 272.925 M297.769 282.600 C 297.770 287.220,297.828 289.055,297.899 286.678 C 297.970 284.301,297.969 280.521,297.898 278.278 C 297.827 276.035,297.769 277.980,297.769 282.600 M284.828 275.000 C 284.828 275.220,285.086 275.850,285.400 276.400 C 285.714 276.950,285.972 277.220,285.972 277.000 C 285.972 276.780,285.714 276.150,285.400 275.600 C 285.086 275.050,284.828 274.780,284.828 275.000 M273.000 278.400 C 274.083 279.500,275.060 280.400,275.170 280.400 C 275.280 280.400,274.483 279.500,273.400 278.400 C 272.317 277.300,271.340 276.400,271.230 276.400 C 271.120 276.400,271.917 277.300,273.000 278.400 M301.368 285.400 C 301.368 289.800,301.426 291.655,301.498 289.521 C 301.570 287.388,301.570 283.788,301.499 281.521 C 301.427 279.255,301.368 281.000,301.368 285.400 M269.400 280.000 C 270.259 280.880,271.052 281.600,271.162 281.600 C 271.272 281.600,270.659 280.880,269.800 280.000 C 268.941 279.120,268.148 278.400,268.038 278.400 C 267.928 278.400,268.541 279.120,269.400 280.000 M279.400 284.400 C 280.259 285.280,281.052 286.000,281.162 286.000 C 281.272 286.000,280.659 285.280,279.800 284.400 C 278.941 283.520,278.148 282.800,278.038 282.800 C 277.928 282.800,278.541 283.520,279.400 284.400 M276.200 286.400 C 277.059 287.280,277.852 288.000,277.962 288.000 C 278.072 288.000,277.459 287.280,276.600 286.400 C 275.741 285.520,274.948 284.800,274.838 284.800 C 274.728 284.800,275.341 285.520,276.200 286.400 M285.600 290.200 C 286.346 290.970,287.047 291.600,287.157 291.600 C 287.267 291.600,286.746 290.970,286.000 290.200 C 285.254 289.430,284.553 288.800,284.443 288.800 C 284.333 288.800,284.854 289.430,285.600 290.200 M283.000 292.800 C 283.859 293.680,284.652 294.400,284.762 294.400 C 284.872 294.400,284.259 293.680,283.400 292.800 C 282.541 291.920,281.748 291.200,281.638 291.200 C 281.528 291.200,282.141 291.920,283.000 292.800 M291.583 295.700 C 293.241 297.466,293.600 297.784,293.600 297.483 C 293.600 297.419,292.745 296.564,291.700 295.583 L 289.800 293.800 291.583 295.700 M289.400 298.800 C 290.259 299.680,291.052 300.400,291.162 300.400 C 291.272 300.400,290.659 299.680,289.800 298.800 C 288.941 297.920,288.148 297.200,288.038 297.200 C 287.928 297.200,288.541 297.920,289.400 298.800 M294.800 303.800 C 295.546 304.570,296.247 305.200,296.357 305.200 C 296.467 305.200,295.946 304.570,295.200 303.800 C 294.454 303.030,293.753 302.400,293.643 302.400 C 293.533 302.400,294.054 303.030,294.800 303.800 M299.600 308.200 C 300.346 308.970,301.047 309.600,301.157 309.600 C 301.267 309.600,300.746 308.970,300.000 308.200 C 299.254 307.430,298.553 306.800,298.443 306.800 C 298.333 306.800,298.854 307.430,299.600 308.200 M62.505 356.287 C 63.114 356.379,64.014 356.377,64.505 356.282 C 64.997 356.187,64.500 356.111,63.400 356.114 C 62.300 356.117,61.897 356.195,62.505 356.287 M326.905 356.287 C 327.514 356.379,328.414 356.377,328.905 356.282 C 329.397 356.187,328.900 356.111,327.800 356.114 C 326.700 356.117,326.297 356.195,326.905 356.287 M337.300 356.276 C 337.685 356.376,338.315 356.376,338.700 356.276 C 339.085 356.175,338.770 356.093,338.000 356.093 C 337.230 356.093,336.915 356.175,337.300 356.276 M106.691 357.089 C 107.401 357.177,108.661 357.179,109.491 357.092 C 110.321 357.005,109.740 356.933,108.200 356.931 C 106.660 356.929,105.981 357.000,106.691 357.089 M130.898 395.500 L 131.000 434.200 146.400 434.207 L 161.800 434.214 146.500 434.102 L 131.200 433.991 131.200 395.600 L 131.200 357.209 147.500 357.100 L 163.800 356.991 147.298 356.895 L 130.796 356.800 130.898 395.500 M196.584 357.300 C 196.479 357.575,196.441 374.990,196.499 396.000 L 196.604 434.200 196.702 395.718 L 196.800 357.237 199.500 357.097 L 202.200 356.957 199.487 356.878 C 197.625 356.825,196.715 356.957,196.584 357.300 M222.291 357.089 C 223.001 357.177,224.261 357.179,225.091 357.092 C 225.921 357.005,225.340 356.933,223.800 356.931 C 222.260 356.929,221.581 357.000,222.291 357.089 M277.697 382.082 L 277.794 407.400 277.900 382.300 L 278.006 357.200 280.400 357.200 L 282.794 357.200 282.902 382.200 L 283.009 407.200 283.005 382.100 L 283.000 357.000 280.300 356.882 L 277.600 356.763 277.697 382.082 M44.175 364.100 L 43.000 365.400 44.300 364.225 C 45.512 363.130,45.784 362.800,45.475 362.800 C 45.406 362.800,44.821 363.385,44.175 364.100 M165.233 362.949 C 165.645 363.317,168.000 364.400,168.000 364.221 C 168.000 363.990,165.782 362.800,165.353 362.800 C 165.196 362.800,165.142 362.867,165.233 362.949 M38.937 377.000 C 38.939 378.760,39.009 379.430,39.093 378.489 C 39.178 377.549,39.177 376.109,39.091 375.289 C 39.005 374.470,38.936 375.240,38.937 377.000 M303.324 377.000 C 303.326 378.320,303.401 378.812,303.490 378.093 C 303.579 377.374,303.577 376.294,303.486 375.693 C 303.395 375.092,303.322 375.680,303.324 377.000 M43.200 389.325 C 43.200 389.394,43.785 389.979,44.500 390.625 L 45.800 391.800 44.625 390.500 C 43.530 389.288,43.200 389.016,43.200 389.325 M142.525 391.499 C 146.224 391.566,152.164 391.565,155.725 391.499 C 159.286 391.433,156.260 391.379,149.000 391.379 C 141.740 391.379,138.826 391.433,142.525 391.499 M142.925 396.699 C 146.624 396.766,152.564 396.765,156.125 396.699 C 159.686 396.633,156.660 396.579,149.400 396.579 C 142.140 396.579,139.226 396.633,142.925 396.699 M62.500 397.076 C 62.885 397.176,63.515 397.176,63.900 397.076 C 64.285 396.975,63.970 396.893,63.200 396.893 C 62.430 396.893,62.115 396.975,62.500 397.076 M326.900 397.076 C 327.285 397.176,327.915 397.176,328.300 397.076 C 328.685 396.975,328.370 396.893,327.600 396.893 C 326.830 396.893,326.515 396.975,326.900 397.076 M182.140 412.800 C 182.140 414.670,182.209 415.435,182.293 414.500 C 182.377 413.565,182.377 412.035,182.293 411.100 C 182.209 410.165,182.140 410.930,182.140 412.800 M85.314 412.600 C 85.317 413.700,85.395 414.103,85.487 413.495 C 85.579 412.886,85.577 411.986,85.482 411.495 C 85.387 411.003,85.311 411.500,85.314 412.600 M355.301 413.000 C 355.305 413.880,355.387 414.193,355.483 413.695 C 355.579 413.198,355.575 412.478,355.475 412.095 C 355.375 411.713,355.296 412.120,355.301 413.000 M223.200 416.149 C 223.200 416.581,224.789 419.600,225.016 419.600 C 225.126 419.600,224.830 418.835,224.359 417.900 C 223.432 416.061,223.200 415.711,223.200 416.149 M270.581 422.100 L 269.000 423.800 270.700 422.219 C 272.281 420.748,272.584 420.400,272.281 420.400 C 272.216 420.400,271.451 421.165,270.581 422.100 M345.178 423.500 L 343.800 425.000 345.300 423.622 C 346.696 422.338,346.984 422.000,346.678 422.000 C 346.612 422.000,345.937 422.675,345.178 423.500 M273.986 425.900 L 271.800 428.200 274.100 426.014 C 275.365 424.811,276.400 423.776,276.400 423.714 C 276.400 423.417,276.018 423.763,273.986 425.900 M229.600 425.800 C 230.346 426.570,231.047 427.200,231.157 427.200 C 231.267 427.200,230.746 426.570,230.000 425.800 C 229.254 425.030,228.553 424.400,228.443 424.400 C 228.333 424.400,228.854 425.030,229.600 425.800 M176.175 427.700 L 175.000 429.000 176.300 427.825 C 177.015 427.179,177.600 426.594,177.600 426.525 C 177.600 426.216,177.270 426.488,176.175 427.700 M236.800 430.996 C 236.800 431.270,239.249 432.484,239.432 432.301 C 239.519 432.214,238.962 431.844,238.195 431.478 C 237.428 431.112,236.800 430.895,236.800 430.996 M107.100 434.289 C 107.815 434.378,108.985 434.378,109.700 434.289 C 110.415 434.201,109.830 434.128,108.400 434.128 C 106.970 434.128,106.385 434.201,107.100 434.289 M198.307 434.290 C 199.026 434.379,200.106 434.377,200.707 434.286 C 201.308 434.195,200.720 434.122,199.400 434.124 C 198.080 434.126,197.588 434.201,198.307 434.290 " stroke="none" fill="#7c7c7c" fill-rule="evenodd"></path></g></svg>